<?xml version="1.0" encoding="UTF-8"?>
<!DOCTYPE svg PUBLIC "-//W3C//DTD SVG 1.1//EN" "http://www.w3.org/Graphics/SVG/1.1/DTD/svg11.dtd">
<svg xmlns="http://www.w3.org/2000/svg" version="1.1" width="1676px" height="694px" style="shape-rendering:geometricPrecision; text-rendering:geometricPrecision; image-rendering:optimizeQuality; fill-rule:evenodd; clip-rule:evenodd" xmlns:xlink="http://www.w3.org/1999/xlink">
<g><path style="opacity:0.983" fill="#ec1c23" d="M 1042.5,4.5 C 1043.14,5.09682 1043.47,5.93015 1043.5,7C 1034.45,59.7837 1025.79,112.617 1017.5,165.5C 1045.16,166.135 1072.83,166.635 1100.5,167C 1052.71,244.752 1004.54,322.252 956,399.5C 959.754,344.867 963.587,290.201 967.5,235.5C 938.826,235.833 910.159,235.5 881.5,234.5C 935.192,157.815 988.859,81.1486 1042.5,4.5 Z"/></g>
<g><path style="opacity:0.99" fill="#f6a208" d="M 227.5,156.5 C 254.841,156.167 282.175,156.5 309.5,157.5C 384.437,294.955 458.77,432.789 532.5,571C 430.832,571.248 329.165,571.748 227.5,572.5C 210.13,572.641 192.797,571.974 175.5,570.5C 194.627,537.081 213.627,503.581 232.5,470C 274.5,469.667 316.5,469.333 358.5,469C 331.619,420.072 305.119,370.906 279,321.5C 276.001,315.498 272.501,309.832 268.5,304.5C 218.766,392.912 169.432,481.578 120.5,570.5C 82.173,573.058 43.8397,573.058 5.5,570.5C 80.0214,432.791 154.021,294.791 227.5,156.5 Z"/></g>
<g><path style="opacity:0.991" fill="#337fc1" d="M 895.5,156.5 C 900.599,156.175 905.599,156.675 910.5,158C 888.543,190.08 866.71,222.247 845,254.5C 844.5,326.833 844.333,399.166 844.5,471.5C 876.502,471.667 908.502,471.5 940.5,471C 964.299,470.974 986.966,465.974 1008.5,456C 1043.6,435 1061.6,403.834 1062.5,362.5C 1062.53,337.92 1055.2,315.92 1040.5,296.5C 1058.77,266.082 1077.6,236.082 1097,206.5C 1143.29,243.066 1168.62,291.066 1173,350.5C 1176.42,440.88 1137.92,506.047 1057.5,546C 1018.22,562.523 977.218,570.857 934.5,571C 869.168,571.5 803.834,571.667 738.5,571.5C 738.5,433.5 738.5,295.5 738.5,157.5C 791.003,157.832 843.336,157.499 895.5,156.5 Z"/></g>
<g><path style="opacity:0.991" fill="#337fc1" d="M 1360.5,156.5 C 1387.17,156.167 1413.84,156.5 1440.5,157.5C 1514.58,295.326 1588.91,432.993 1663.5,570.5C 1544.17,571.833 1424.83,571.833 1305.5,570.5C 1325.21,536.911 1344.55,503.078 1363.5,469C 1404.5,468.692 1445.5,468.692 1486.5,469C 1458.14,414.662 1428.97,360.828 1399,307.5C 1351.01,395.488 1302.51,483.155 1253.5,570.5C 1213.5,571.833 1173.5,571.833 1133.5,570.5C 1139.5,561.834 1145,552.834 1150,543.5C 1220.69,414.793 1290.85,285.793 1360.5,156.5 Z"/></g>
<g><path style="opacity:0.991" fill="#f6a208" d="M 554.5,157.5 C 590.5,157.5 626.5,157.5 662.5,157.5C 662.5,295.5 662.5,433.5 662.5,571.5C 626.5,571.5 590.5,571.5 554.5,571.5C 553.774,433.502 553.774,295.502 554.5,157.5 Z"/></g>
<g><path style="opacity:0.871" fill="#000000" d="M 461.5,607.5 C 469.4,607.234 472.233,610.901 470,618.5C 465.667,622.5 461.333,622.5 457,618.5C 455.391,613.391 456.891,609.725 461.5,607.5 Z"/></g>
<g><path style="opacity:0.851" fill="#000000" d="M 1000.5,607.5 C 1007.17,607.005 1010.34,610.005 1010,616.5C 1007.93,621.143 1004.43,622.643 999.5,621C 993.954,616.097 994.288,611.597 1000.5,607.5 Z"/></g>
<g><path style="opacity:0.962" fill="#000000" d="M 126.5,610.5 C 130.167,610.5 133.833,610.5 137.5,610.5C 137.5,631.833 137.5,653.167 137.5,674.5C 133.833,674.5 130.167,674.5 126.5,674.5C 126.5,653.167 126.5,631.833 126.5,610.5 Z"/></g>
<g><path style="opacity:0.882" fill="#000000" d="M 150.5,610.5 C 154.5,610.5 158.5,610.5 162.5,610.5C 162.5,631.833 162.5,653.167 162.5,674.5C 158.5,674.5 154.5,674.5 150.5,674.5C 150.5,653.167 150.5,631.833 150.5,610.5 Z"/></g>
<g><path style="opacity:0.923" fill="#000000" d="M 226.5,610.5 C 230.167,610.5 233.833,610.5 237.5,610.5C 237.334,617.841 237.5,625.174 238,632.5C 248.198,625.793 258.365,625.96 268.5,633C 275.75,641.904 277.25,651.738 273,662.5C 265.985,673.507 256.152,677.007 243.5,673C 241.413,672.208 239.579,671.041 238,669.5C 237.506,671.134 237.34,672.801 237.5,674.5C 233.833,674.5 230.167,674.5 226.5,674.5C 226.5,653.167 226.5,631.833 226.5,610.5 Z M 246.5,637.5 C 261.596,638.02 266.429,645.353 261,659.5C 254.613,665.716 247.946,666.049 241,660.5C 235.569,650.981 237.402,643.314 246.5,637.5 Z"/></g>
<g><path style="opacity:0.901" fill="#000000" d="M 618.5,610.5 C 622.167,610.5 625.833,610.5 629.5,610.5C 629.5,637.167 629.5,663.833 629.5,690.5C 625.833,690.5 622.167,690.5 618.5,690.5C 618.5,663.833 618.5,637.167 618.5,610.5 Z"/></g>
<g><path style="opacity:0.991" fill="#000000" d="M 1158.5,610.5 C 1161.83,610.5 1165.17,610.5 1168.5,610.5C 1168.5,637.167 1168.5,663.833 1168.5,690.5C 1165.17,690.5 1161.83,690.5 1158.5,690.5C 1158.5,663.833 1158.5,637.167 1158.5,610.5 Z"/></g>
<g><path style="opacity:0.882" fill="#000000" d="M 1409.5,610.5 C 1413.5,610.5 1417.5,610.5 1421.5,610.5C 1421.5,631.833 1421.5,653.167 1421.5,674.5C 1417.5,674.5 1413.5,674.5 1409.5,674.5C 1409.5,653.167 1409.5,631.833 1409.5,610.5 Z"/></g>
<g><path style="opacity:0.882" fill="#000000" d="M 1433.5,610.5 C 1437.5,610.5 1441.5,610.5 1445.5,610.5C 1445.5,631.833 1445.5,653.167 1445.5,674.5C 1441.5,674.5 1437.5,674.5 1433.5,674.5C 1433.5,653.167 1433.5,631.833 1433.5,610.5 Z"/></g>
<g><path style="opacity:0.916" fill="#000000" d="M 32.5,613.5 C 45.2471,610.966 56.2471,614.133 65.5,623C 62.9841,625.683 60.3174,628.183 57.5,630.5C 46.3093,620.954 35.476,621.287 25,631.5C 18.7378,641.868 19.9044,651.368 28.5,660C 38.7742,666.4 48.4409,665.566 57.5,657.5C 60.0217,659.856 62.6884,662.023 65.5,664C 59.2455,671.705 51.0789,675.205 41,674.5C 20.9225,673.924 10.0891,663.59 8.5,643.5C 9.87902,628.02 17.879,618.02 32.5,613.5 Z"/></g>
<g><path style="opacity:0.915" fill="#000000" d="M 667.5,613.5 C 671.5,613.5 675.5,613.5 679.5,613.5C 679.5,633.833 679.5,654.167 679.5,674.5C 675.5,674.5 671.5,674.5 667.5,674.5C 667.5,654.167 667.5,633.833 667.5,613.5 Z"/></g>
<g><path style="opacity:0.896" fill="#000000" d="M 1206.5,613.5 C 1221.5,613.5 1236.5,613.5 1251.5,613.5C 1251.5,617.167 1251.5,620.833 1251.5,624.5C 1240.5,624.5 1229.5,624.5 1218.5,624.5C 1218.5,629.167 1218.5,633.833 1218.5,638.5C 1228.17,638.5 1237.83,638.5 1247.5,638.5C 1247.5,641.833 1247.5,645.167 1247.5,648.5C 1237.83,648.5 1228.17,648.5 1218.5,648.5C 1218.5,653.5 1218.5,658.5 1218.5,663.5C 1229.83,663.5 1241.17,663.5 1252.5,663.5C 1252.5,667.167 1252.5,670.833 1252.5,674.5C 1237.17,674.5 1221.83,674.5 1206.5,674.5C 1206.5,654.167 1206.5,633.833 1206.5,613.5 Z"/></g>
<g><path style="opacity:0.925" fill="#000000" d="M 423.5,617.5 C 427.167,617.5 430.833,617.5 434.5,617.5C 434.5,621.167 434.5,624.833 434.5,628.5C 438.833,628.5 443.167,628.5 447.5,628.5C 447.5,631.5 447.5,634.5 447.5,637.5C 443.167,637.5 438.833,637.5 434.5,637.5C 434.094,645.917 434.594,654.251 436,662.5C 439.05,664.79 442.384,665.123 446,663.5C 448.13,665.589 449.63,668.089 450.5,671C 443.395,675.25 436.062,675.583 428.5,672C 426.951,670.786 425.785,669.286 425,667.5C 423.577,657.58 423.077,647.58 423.5,637.5C 420.833,637.5 418.167,637.5 415.5,637.5C 415.5,634.5 415.5,631.5 415.5,628.5C 418.167,628.5 420.833,628.5 423.5,628.5C 423.5,624.833 423.5,621.167 423.5,617.5 Z"/></g>
<g><path style="opacity:0.902" fill="#000000" d="M 962.5,617.5 C 966.5,617.5 970.5,617.5 974.5,617.5C 974.5,621.167 974.5,624.833 974.5,628.5C 978.5,628.5 982.5,628.5 986.5,628.5C 986.5,631.5 986.5,634.5 986.5,637.5C 982.5,637.5 978.5,637.5 974.5,637.5C 974.334,645.507 974.5,653.507 975,661.5C 975.374,662.416 975.874,663.25 976.5,664C 979.877,664.369 983.21,664.369 986.5,664C 990.965,672.088 988.299,675.588 978.5,674.5C 971.913,674.794 967.079,672.127 964,666.5C 962.58,656.914 962.08,647.247 962.5,637.5C 960.167,637.5 957.833,637.5 955.5,637.5C 955.5,634.5 955.5,631.5 955.5,628.5C 957.833,628.5 960.167,628.5 962.5,628.5C 962.5,624.833 962.5,621.167 962.5,617.5 Z"/></g>
<g><path style="opacity:0.916" fill="#000000" d="M 85.5,627.5 C 108.964,625.793 119.131,636.46 116,659.5C 111.656,669.51 103.99,674.51 93,674.5C 77.2203,674.205 69.0537,666.205 68.5,650.5C 67.9976,643.503 70.3309,637.669 75.5,633C 78.7667,630.87 82.1,629.037 85.5,627.5 Z M 88.5,637.5 C 103.596,638.02 108.429,645.353 103,659.5C 96.6128,665.716 89.9461,666.049 83,660.5C 77.5689,650.981 79.4023,643.314 88.5,637.5 Z"/></g>
<g><path style="opacity:0.915" fill="#000000" d="M 185.5,627.5 C 193.206,626.665 200.539,627.831 207.5,631C 210.467,633.1 212.3,635.934 213,639.5C 213.5,651.162 213.667,662.829 213.5,674.5C 209.833,674.5 206.167,674.5 202.5,674.5C 202.657,673.127 202.49,671.793 202,670.5C 200.2,672.317 198.034,673.484 195.5,674C 187.306,675.897 180.139,674.064 174,668.5C 169.776,659.547 171.943,652.713 180.5,648C 187.771,646.7 195.104,646.2 202.5,646.5C 202.276,642.438 200.276,639.605 196.5,638C 189.951,636.636 183.951,637.802 178.5,641.5C 175.391,639.245 173.891,636.245 174,632.5C 177.723,630.324 181.556,628.657 185.5,627.5 Z M 188.5,654.5 C 193.167,654.5 197.833,654.5 202.5,654.5C 201.509,664.181 196.176,667.681 186.5,665C 182.116,660.419 182.783,656.919 188.5,654.5 Z"/></g>
<g><path style="opacity:0.916" fill="#000000" d="M 298.5,627.5 C 322.656,625.847 332.489,636.847 328,660.5C 320.661,673.389 309.827,677.556 295.5,673C 281.523,665.635 277.356,654.469 283,639.5C 286.695,633.424 291.862,629.424 298.5,627.5 Z M 301.5,637.5 C 311.305,636.741 316.972,641.241 318.5,651C 315.996,663.418 308.996,667.084 297.5,662C 291.923,656.146 291.09,649.646 295,642.5C 296.965,640.45 299.132,638.783 301.5,637.5 Z"/></g>
<g><path style="opacity:0.889" fill="#000000" d="M 338.5,627.5 C 342.167,627.5 345.833,627.5 349.5,627.5C 349.338,629.527 349.505,631.527 350,633.5C 354.102,628.853 359.269,626.853 365.5,627.5C 365.5,631.167 365.5,634.833 365.5,638.5C 358.65,637.672 353.817,640.339 351,646.5C 350.5,655.827 350.334,665.161 350.5,674.5C 346.5,674.5 342.5,674.5 338.5,674.5C 338.5,658.833 338.5,643.167 338.5,627.5 Z"/></g>
<g><path style="opacity:0.904" fill="#000000" d="M 380.5,627.5 C 386.909,627.183 393.243,627.683 399.5,629C 404.707,631.565 407.874,635.732 409,641.5C 409.5,652.495 409.667,663.495 409.5,674.5C 405.833,674.5 402.167,674.5 398.5,674.5C 398.657,673.127 398.49,671.793 398,670.5C 390.978,674.787 383.478,675.62 375.5,673C 367.76,668.448 365.594,661.948 369,653.5C 370.938,650.894 373.438,649.061 376.5,648C 383.426,646.661 390.426,646.161 397.5,646.5C 397.755,642.507 396.089,639.674 392.5,638C 385.699,636.693 379.366,637.86 373.5,641.5C 371.333,639.17 369.666,636.503 368.5,633.5C 372.283,630.916 376.283,628.916 380.5,627.5 Z M 383.5,654.5 C 388.167,654.5 392.833,654.5 397.5,654.5C 398.301,662.195 394.801,665.862 387,665.5C 382.82,665.997 379.987,664.331 378.5,660.5C 379.497,657.845 381.164,655.845 383.5,654.5 Z"/></g>
<g><path style="opacity:0.868" fill="#000000" d="M 457.5,627.5 C 461.5,627.5 465.5,627.5 469.5,627.5C 469.5,643.167 469.5,658.833 469.5,674.5C 465.5,674.5 461.5,674.5 457.5,674.5C 457.5,658.833 457.5,643.167 457.5,627.5 Z"/></g>
<g><path style="opacity:0.911" fill="#000000" d="M 496.5,627.5 C 514.865,625.056 525.198,632.889 527.5,651C 525.082,669.063 514.748,676.73 496.5,674C 480.823,668.481 475.323,657.647 480,641.5C 483.593,634.394 489.093,629.727 496.5,627.5 Z M 499.5,637.5 C 513.487,638.006 518.32,645.006 514,658.5C 505.53,666.956 497.863,666.29 491,656.5C 488.473,647.565 491.307,641.232 499.5,637.5 Z"/></g>
<g><path style="opacity:0.901" fill="#000000" d="M 536.5,627.5 C 540.167,627.5 543.833,627.5 547.5,627.5C 547.34,629.199 547.506,630.866 548,632.5C 555.176,627.357 563.009,626.19 571.5,629C 578.218,632.396 581.718,637.896 582,645.5C 582.5,655.161 582.666,664.828 582.5,674.5C 578.5,674.5 574.5,674.5 570.5,674.5C 570.666,664.828 570.5,655.161 570,645.5C 566.44,637.192 560.606,635.358 552.5,640C 550.959,641.579 549.792,643.413 549,645.5C 548.5,655.161 548.334,664.828 548.5,674.5C 544.5,674.5 540.5,674.5 536.5,674.5C 536.5,658.833 536.5,643.167 536.5,627.5 Z"/></g>
<g><path style="opacity:0.9" fill="#000000" d="M 693.5,627.5 C 697.167,627.5 700.833,627.5 704.5,627.5C 704.34,629.199 704.506,630.866 705,632.5C 712.176,627.357 720.009,626.19 728.5,629C 735.218,632.396 738.718,637.896 739,645.5C 739.5,655.161 739.666,664.828 739.5,674.5C 735.5,674.5 731.5,674.5 727.5,674.5C 727.666,664.828 727.5,655.161 727,645.5C 723.44,637.192 717.606,635.358 709.5,640C 707.959,641.579 706.792,643.413 706,645.5C 705.5,655.161 705.334,664.828 705.5,674.5C 701.5,674.5 697.5,674.5 693.5,674.5C 693.5,658.833 693.5,643.167 693.5,627.5 Z"/></g>
<g><path style="opacity:0.914" fill="#000000" d="M 751.5,627.5 C 755.167,627.5 758.833,627.5 762.5,627.5C 762.34,629.199 762.506,630.866 763,632.5C 770.176,627.357 778.009,626.19 786.5,629C 791.4,630.902 794.567,634.402 796,639.5C 796.5,651.162 796.667,662.829 796.5,674.5C 792.833,674.5 789.167,674.5 785.5,674.5C 785.666,664.828 785.5,655.161 785,645.5C 781.344,637.184 775.51,635.351 767.5,640C 765.951,641.214 764.785,642.714 764,644.5C 763.5,654.494 763.334,664.494 763.5,674.5C 759.5,674.5 755.5,674.5 751.5,674.5C 751.5,658.833 751.5,643.167 751.5,627.5 Z"/></g>
<g><path style="opacity:0.916" fill="#000000" d="M 823.5,627.5 C 847.656,625.847 857.489,636.847 853,660.5C 845.748,673.376 834.915,677.542 820.5,673C 806.523,665.635 802.356,654.469 808,639.5C 811.695,633.424 816.862,629.424 823.5,627.5 Z M 826.5,637.5 C 839.712,637.254 844.879,643.588 842,656.5C 837.451,664.81 830.951,666.643 822.5,662C 816.923,656.146 816.09,649.646 820,642.5C 821.965,640.45 824.132,638.783 826.5,637.5 Z"/></g>
<g><path style="opacity:0.896" fill="#000000" d="M 855.5,627.5 C 859.555,627.176 863.555,627.509 867.5,628.5C 871.522,639.074 876.022,649.407 881,659.5C 885.5,649.167 890,638.833 894.5,628.5C 898.107,627.511 901.774,627.177 905.5,627.5C 899.738,643.03 893.405,658.363 886.5,673.5C 882.5,674.833 878.5,674.833 874.5,673.5C 867.595,658.363 861.262,643.03 855.5,627.5 Z"/></g>
<g><path style="opacity:0.909" fill="#000000" d="M 920.5,627.5 C 925.511,627.334 930.511,627.501 935.5,628C 942.333,629.5 946.5,633.667 948,640.5C 948.5,651.828 948.667,663.162 948.5,674.5C 944.833,674.5 941.167,674.5 937.5,674.5C 937.657,673.127 937.49,671.793 937,670.5C 935.2,672.317 933.034,673.484 930.5,674C 925.096,674.772 919.762,674.439 914.5,673C 905.234,666.405 904.234,658.738 911.5,650C 914.246,648.25 917.246,647.25 920.5,647C 926.196,646.83 931.862,646.33 937.5,645.5C 936.797,641.963 934.797,639.463 931.5,638C 924.807,636.664 918.641,637.831 913,641.5C 910.279,639.063 908.946,636.063 909,632.5C 912.723,630.324 916.556,628.657 920.5,627.5 Z M 923.5,654.5 C 928.167,654.5 932.833,654.5 937.5,654.5C 937.481,662.018 933.647,665.684 926,665.5C 920.421,665.591 918.088,662.924 919,657.5C 920.409,656.219 921.909,655.219 923.5,654.5 Z"/></g>
<g><path style="opacity:0.946" fill="#000000" d="M 997.5,627.5 C 1001.17,627.5 1004.83,627.5 1008.5,627.5C 1008.5,643.167 1008.5,658.833 1008.5,674.5C 1004.83,674.5 1001.17,674.5 997.5,674.5C 997.5,658.833 997.5,643.167 997.5,627.5 Z"/></g>
<g><path style="opacity:0.917" fill="#000000" d="M 1035.5,627.5 C 1059.68,625.906 1069.51,636.906 1065,660.5C 1057.75,673.376 1046.92,677.542 1032.5,673C 1021.28,667.729 1016.45,658.896 1018,646.5C 1020.24,636.762 1026.07,630.429 1035.5,627.5 Z M 1038.5,637.5 C 1051.71,637.254 1056.88,643.588 1054,656.5C 1049.45,664.81 1042.95,666.643 1034.5,662C 1028.92,656.146 1028.09,649.646 1032,642.5C 1033.97,640.45 1036.13,638.783 1038.5,637.5 Z"/></g>
<g><path style="opacity:0.912" fill="#000000" d="M 1076.5,627.5 C 1080.17,627.5 1083.83,627.5 1087.5,627.5C 1087.34,628.873 1087.51,630.207 1088,631.5C 1096.23,626.816 1104.73,626.316 1113.5,630C 1117.67,633.165 1120.17,637.332 1121,642.5C 1121.5,653.161 1121.67,663.828 1121.5,674.5C 1117.5,674.5 1113.5,674.5 1109.5,674.5C 1109.67,664.494 1109.5,654.494 1109,644.5C 1107.7,639.711 1104.54,637.378 1099.5,637.5C 1093.66,637.996 1089.83,640.996 1088,646.5C 1087.5,655.827 1087.33,665.161 1087.5,674.5C 1083.83,674.5 1080.17,674.5 1076.5,674.5C 1076.5,658.833 1076.5,643.167 1076.5,627.5 Z"/></g>
<g><path style="opacity:0.881" fill="#000000" d="M 1256.5,627.5 C 1260.88,627.174 1265.22,627.508 1269.5,628.5C 1272.83,632.833 1276.17,637.167 1279.5,641.5C 1283.04,636.948 1286.7,632.448 1290.5,628C 1294.54,627.173 1298.54,627.34 1302.5,628.5C 1297.17,635.833 1291.83,643.167 1286.5,650.5C 1291.92,658.345 1297.59,666.011 1303.5,673.5C 1299.2,674.661 1294.87,674.828 1290.5,674C 1286.95,669.077 1283.29,664.244 1279.5,659.5C 1275.64,664.191 1271.97,669.025 1268.5,674C 1264.13,674.828 1259.8,674.661 1255.5,673.5C 1260.92,665.655 1266.59,657.989 1272.5,650.5C 1267.86,644.024 1263.03,637.691 1258,631.5C 1257.21,630.255 1256.71,628.922 1256.5,627.5 Z"/></g>
<g><path style="opacity:0.907" fill="#000000" d="M 1322.5,627.5 C 1329.88,626.689 1336.88,627.856 1343.5,631C 1346.07,633.067 1348.07,635.567 1349.5,638.5C 1346.83,640.167 1344.17,641.833 1341.5,643.5C 1334.25,635.986 1326.75,635.653 1319,642.5C 1314.34,651.85 1316.51,659.017 1325.5,664C 1331.84,665.408 1337.01,663.575 1341,658.5C 1343.95,659.951 1346.79,661.618 1349.5,663.5C 1345.32,671.176 1338.82,674.843 1330,674.5C 1314.45,674.288 1305.95,666.454 1304.5,651C 1305.11,638.908 1311.11,631.075 1322.5,627.5 Z"/></g>
<g><path style="opacity:0.913" fill="#000000" d="M 1370.5,627.5 C 1390.57,625.509 1400.57,634.509 1400.5,654.5C 1388.83,654.5 1377.17,654.5 1365.5,654.5C 1365.72,658.562 1367.72,661.395 1371.5,663C 1378.77,665.752 1385.27,664.585 1391,659.5C 1393.35,661.683 1395.52,664.016 1397.5,666.5C 1392.71,672.625 1386.38,675.292 1378.5,674.5C 1362.87,674.361 1354.53,666.527 1353.5,651C 1353.44,638.921 1359.11,631.088 1370.5,627.5 Z M 1376.5,636.5 C 1383.29,636.632 1387.29,639.965 1388.5,646.5C 1380.83,646.5 1373.17,646.5 1365.5,646.5C 1365.55,643.901 1366.55,641.734 1368.5,640C 1371.02,638.281 1373.69,637.114 1376.5,636.5 Z"/></g>
<g><path style="opacity:0.91" fill="#000000" d="M 1471.5,627.5 C 1491.7,625.368 1501.7,634.368 1501.5,654.5C 1489.81,654.168 1478.15,654.501 1466.5,655.5C 1470.44,663.434 1476.78,666.267 1485.5,664C 1488.28,662.471 1490.95,661.138 1493.5,660C 1495.18,662.344 1496.85,664.677 1498.5,667C 1496.46,669.692 1493.79,671.692 1490.5,673C 1476.74,677.275 1465.57,673.775 1457,662.5C 1450.88,646.099 1455.71,634.433 1471.5,627.5 Z M 1477.5,636.5 C 1483.97,636.809 1488.3,639.976 1490.5,646C 1482.48,646.832 1474.48,646.665 1466.5,645.5C 1468.74,640.578 1472.41,637.578 1477.5,636.5 Z"/></g>
<g><path style="opacity:0.893" fill="#000000" d="M 1510.5,627.5 C 1514.17,627.5 1517.83,627.5 1521.5,627.5C 1521.34,629.199 1521.51,630.866 1522,632.5C 1529.52,627.327 1537.68,626.161 1546.5,629C 1552,631.84 1555.17,636.34 1556,642.5C 1556.5,653.161 1556.67,663.828 1556.5,674.5C 1552.5,674.5 1548.5,674.5 1544.5,674.5C 1544.67,664.494 1544.5,654.494 1544,644.5C 1542.45,640.126 1539.28,637.792 1534.5,637.5C 1528.66,637.996 1524.83,640.996 1523,646.5C 1522.5,655.827 1522.33,665.161 1522.5,674.5C 1518.5,674.5 1514.5,674.5 1510.5,674.5C 1510.5,658.833 1510.5,643.167 1510.5,627.5 Z"/></g>
<g><path style="opacity:0.909" fill="#000000" d="M 1583.5,627.5 C 1591.38,626.5 1598.71,628 1605.5,632C 1607.09,633.845 1608.42,635.845 1609.5,638C 1607.39,640.563 1604.72,642.397 1601.5,643.5C 1593.15,635.196 1585.32,635.53 1578,644.5C 1574.97,653.25 1577.47,659.75 1585.5,664C 1591.9,665.302 1597.23,663.469 1601.5,658.5C 1604.72,659.603 1607.39,661.437 1609.5,664C 1603.27,673.193 1594.61,676.527 1583.5,674C 1568.3,669.446 1562.46,659.28 1566,643.5C 1568.88,634.828 1574.72,629.495 1583.5,627.5 Z"/></g>
<g><path style="opacity:0.911" fill="#000000" d="M 1630.5,627.5 C 1650.67,625.336 1660.67,634.336 1660.5,654.5C 1648.83,654.5 1637.17,654.5 1625.5,654.5C 1626.14,658.268 1628.14,661.101 1631.5,663C 1638.89,665.718 1645.56,664.551 1651.5,659.5C 1653.7,661.867 1655.7,664.367 1657.5,667C 1652.51,672.675 1646.17,675.175 1638.5,674.5C 1618.06,672.548 1610.22,661.548 1615,641.5C 1618.05,634.407 1623.22,629.74 1630.5,627.5 Z M 1636.5,636.5 C 1642.94,636.778 1647.28,639.945 1649.5,646C 1641.48,646.832 1633.48,646.665 1625.5,645.5C 1627.47,640.357 1631.14,637.357 1636.5,636.5 Z"/></g>
</svg>
