<svg xmlns="http://www.w3.org/2000/svg" xmlns:xlink="http://www.w3.org/1999/xlink" version="1.1" style="shape-rendering:geometricPrecision; text-rendering:geometricPrecision; image-rendering:optimizeQuality; fill-rule:evenodd; clip-rule:evenodd" viewBox="536.5 424.5 1658 686">
<g><path style="opacity:0.983" fill="#ec1c23" d="M 1573.5,424.5 C 1574.14,425.097 1574.47,425.93 1574.5,427C 1565.45,479.784 1556.79,532.617 1548.5,585.5C 1576.16,586.135 1603.83,586.635 1631.5,587C 1583.71,664.752 1535.54,742.252 1487,819.5C 1490.75,764.867 1494.59,710.201 1498.5,655.5C 1469.83,655.833 1441.16,655.5 1412.5,654.5C 1466.19,577.815 1519.86,501.149 1573.5,424.5 Z"/></g>
<g><path style="opacity:0.99" fill="#f6a208" d="M 758.5,576.5 C 785.841,576.167 813.175,576.5 840.5,577.5C 915.437,714.955 989.77,852.789 1063.5,991C 961.832,991.248 860.165,991.748 758.5,992.5C 741.13,992.641 723.797,991.974 706.5,990.5C 725.627,957.081 744.627,923.581 763.5,890C 805.5,889.667 847.5,889.333 889.5,889C 862.619,840.072 836.119,790.906 810,741.5C 807.001,735.498 803.501,729.832 799.5,724.5C 749.766,812.912 700.432,901.578 651.5,990.5C 613.173,993.058 574.84,993.058 536.5,990.5C 611.021,852.791 685.021,714.791 758.5,576.5 Z"/></g>
<g><path style="opacity:0.991" fill="#337fc1" d="M 1426.5,576.5 C 1431.6,576.175 1436.6,576.675 1441.5,578C 1419.54,610.08 1397.71,642.247 1376,674.5C 1375.5,746.833 1375.33,819.166 1375.5,891.5C 1407.5,891.667 1439.5,891.5 1471.5,891C 1495.3,890.974 1517.97,885.974 1539.5,876C 1574.6,855 1592.6,823.834 1593.5,782.5C 1593.53,757.92 1586.2,735.92 1571.5,716.5C 1589.77,686.082 1608.6,656.082 1628,626.5C 1674.29,663.066 1699.62,711.066 1704,770.5C 1707.42,860.88 1668.92,926.047 1588.5,966C 1549.22,982.523 1508.22,990.857 1465.5,991C 1400.17,991.5 1334.83,991.667 1269.5,991.5C 1269.5,853.5 1269.5,715.5 1269.5,577.5C 1322,577.832 1374.34,577.499 1426.5,576.5 Z"/></g>
<g><path style="opacity:0.991" fill="#337fc1" d="M 1891.5,576.5 C 1918.17,576.167 1944.84,576.5 1971.5,577.5C 2045.58,715.326 2119.91,852.993 2194.5,990.5C 2075.17,991.833 1955.83,991.833 1836.5,990.5C 1856.21,956.911 1875.55,923.078 1894.5,889C 1935.5,888.692 1976.5,888.692 2017.5,889C 1989.14,834.662 1959.97,780.828 1930,727.5C 1882.01,815.488 1833.51,903.155 1784.5,990.5C 1744.5,991.833 1704.5,991.833 1664.5,990.5C 1670.5,981.834 1676,972.834 1681,963.5C 1751.69,834.793 1821.85,705.793 1891.5,576.5 Z"/></g>
<g><path style="opacity:0.991" fill="#f6a208" d="M 1085.5,577.5 C 1121.5,577.5 1157.5,577.5 1193.5,577.5C 1193.5,715.5 1193.5,853.5 1193.5,991.5C 1157.5,991.5 1121.5,991.5 1085.5,991.5C 1084.77,853.502 1084.77,715.502 1085.5,577.5 Z"/></g>
<g><path style="opacity:0.871" fill="#000000" d="M 992.5,1027.5 C 1000.4,1027.23 1003.23,1030.9 1001,1038.5C 996.667,1042.5 992.333,1042.5 988,1038.5C 986.391,1033.39 987.891,1029.72 992.5,1027.5 Z"/></g>
<g><path style="opacity:0.851" fill="#000000" d="M 1531.5,1027.5 C 1538.17,1027 1541.34,1030 1541,1036.5C 1538.93,1041.14 1535.43,1042.64 1530.5,1041C 1524.95,1036.1 1525.29,1031.6 1531.5,1027.5 Z"/></g>
<g><path style="opacity:0.962" fill="#000000" d="M 657.5,1030.5 C 661.167,1030.5 664.833,1030.5 668.5,1030.5C 668.5,1051.83 668.5,1073.17 668.5,1094.5C 664.833,1094.5 661.167,1094.5 657.5,1094.5C 657.5,1073.17 657.5,1051.83 657.5,1030.5 Z"/></g>
<g><path style="opacity:0.882" fill="#000000" d="M 681.5,1030.5 C 685.5,1030.5 689.5,1030.5 693.5,1030.5C 693.5,1051.83 693.5,1073.17 693.5,1094.5C 689.5,1094.5 685.5,1094.5 681.5,1094.5C 681.5,1073.17 681.5,1051.83 681.5,1030.5 Z"/></g>
<g><path style="opacity:0.923" fill="#000000" d="M 757.5,1030.5 C 761.167,1030.5 764.833,1030.5 768.5,1030.5C 768.334,1037.84 768.5,1045.17 769,1052.5C 779.198,1045.79 789.365,1045.96 799.5,1053C 806.75,1061.9 808.25,1071.74 804,1082.5C 796.985,1093.51 787.152,1097.01 774.5,1093C 772.413,1092.21 770.579,1091.04 769,1089.5C 768.506,1091.13 768.34,1092.8 768.5,1094.5C 764.833,1094.5 761.167,1094.5 757.5,1094.5C 757.5,1073.17 757.5,1051.83 757.5,1030.5 Z M 777.5,1057.5 C 792.596,1058.02 797.429,1065.35 792,1079.5C 785.613,1085.72 778.946,1086.05 772,1080.5C 766.569,1070.98 768.402,1063.31 777.5,1057.5 Z"/></g>
<g><path style="opacity:0.901" fill="#000000" d="M 1149.5,1030.5 C 1153.17,1030.5 1156.83,1030.5 1160.5,1030.5C 1160.5,1057.17 1160.5,1083.83 1160.5,1110.5C 1156.83,1110.5 1153.17,1110.5 1149.5,1110.5C 1149.5,1083.83 1149.5,1057.17 1149.5,1030.5 Z"/></g>
<g><path style="opacity:0.991" fill="#000000" d="M 1689.5,1030.5 C 1692.83,1030.5 1696.17,1030.5 1699.5,1030.5C 1699.5,1057.17 1699.5,1083.83 1699.5,1110.5C 1696.17,1110.5 1692.83,1110.5 1689.5,1110.5C 1689.5,1083.83 1689.5,1057.17 1689.5,1030.5 Z"/></g>
<g><path style="opacity:0.882" fill="#000000" d="M 1940.5,1030.5 C 1944.5,1030.5 1948.5,1030.5 1952.5,1030.5C 1952.5,1051.83 1952.5,1073.17 1952.5,1094.5C 1948.5,1094.5 1944.5,1094.5 1940.5,1094.5C 1940.5,1073.17 1940.5,1051.83 1940.5,1030.5 Z"/></g>
<g><path style="opacity:0.882" fill="#000000" d="M 1964.5,1030.5 C 1968.5,1030.5 1972.5,1030.5 1976.5,1030.5C 1976.5,1051.83 1976.5,1073.17 1976.5,1094.5C 1972.5,1094.5 1968.5,1094.5 1964.5,1094.5C 1964.5,1073.17 1964.5,1051.83 1964.5,1030.5 Z"/></g>
<g><path style="opacity:0.916" fill="#000000" d="M 563.5,1033.5 C 576.247,1030.97 587.247,1034.13 596.5,1043C 593.984,1045.68 591.317,1048.18 588.5,1050.5C 577.309,1040.95 566.476,1041.29 556,1051.5C 549.738,1061.87 550.904,1071.37 559.5,1080C 569.774,1086.4 579.441,1085.57 588.5,1077.5C 591.022,1079.86 593.688,1082.02 596.5,1084C 590.246,1091.7 582.079,1095.2 572,1094.5C 551.922,1093.92 541.089,1083.59 539.5,1063.5C 540.879,1048.02 548.879,1038.02 563.5,1033.5 Z"/></g>
<g><path style="opacity:0.915" fill="#000000" d="M 1198.5,1033.5 C 1202.5,1033.5 1206.5,1033.5 1210.5,1033.5C 1210.5,1053.83 1210.5,1074.17 1210.5,1094.5C 1206.5,1094.5 1202.5,1094.5 1198.5,1094.5C 1198.5,1074.17 1198.5,1053.83 1198.5,1033.5 Z"/></g>
<g><path style="opacity:0.896" fill="#000000" d="M 1737.5,1033.5 C 1752.5,1033.5 1767.5,1033.5 1782.5,1033.5C 1782.5,1037.17 1782.5,1040.83 1782.5,1044.5C 1771.5,1044.5 1760.5,1044.5 1749.5,1044.5C 1749.5,1049.17 1749.5,1053.83 1749.5,1058.5C 1759.17,1058.5 1768.83,1058.5 1778.5,1058.5C 1778.5,1061.83 1778.5,1065.17 1778.5,1068.5C 1768.83,1068.5 1759.17,1068.5 1749.5,1068.5C 1749.5,1073.5 1749.5,1078.5 1749.5,1083.5C 1760.83,1083.5 1772.17,1083.5 1783.5,1083.5C 1783.5,1087.17 1783.5,1090.83 1783.5,1094.5C 1768.17,1094.5 1752.83,1094.5 1737.5,1094.5C 1737.5,1074.17 1737.5,1053.83 1737.5,1033.5 Z"/></g>
<g><path style="opacity:0.925" fill="#000000" d="M 954.5,1037.5 C 958.167,1037.5 961.833,1037.5 965.5,1037.5C 965.5,1041.17 965.5,1044.83 965.5,1048.5C 969.833,1048.5 974.167,1048.5 978.5,1048.5C 978.5,1051.5 978.5,1054.5 978.5,1057.5C 974.167,1057.5 969.833,1057.5 965.5,1057.5C 965.094,1065.92 965.594,1074.25 967,1082.5C 970.05,1084.79 973.384,1085.12 977,1083.5C 979.13,1085.59 980.63,1088.09 981.5,1091C 974.395,1095.25 967.062,1095.58 959.5,1092C 957.951,1090.79 956.785,1089.29 956,1087.5C 954.577,1077.58 954.077,1067.58 954.5,1057.5C 951.833,1057.5 949.167,1057.5 946.5,1057.5C 946.5,1054.5 946.5,1051.5 946.5,1048.5C 949.167,1048.5 951.833,1048.5 954.5,1048.5C 954.5,1044.83 954.5,1041.17 954.5,1037.5 Z"/></g>
<g><path style="opacity:0.902" fill="#000000" d="M 1493.5,1037.5 C 1497.5,1037.5 1501.5,1037.5 1505.5,1037.5C 1505.5,1041.17 1505.5,1044.83 1505.5,1048.5C 1509.5,1048.5 1513.5,1048.5 1517.5,1048.5C 1517.5,1051.5 1517.5,1054.5 1517.5,1057.5C 1513.5,1057.5 1509.5,1057.5 1505.5,1057.5C 1505.33,1065.51 1505.5,1073.51 1506,1081.5C 1506.37,1082.42 1506.87,1083.25 1507.5,1084C 1510.88,1084.37 1514.21,1084.37 1517.5,1084C 1521.97,1092.09 1519.3,1095.59 1509.5,1094.5C 1502.91,1094.79 1498.08,1092.13 1495,1086.5C 1493.58,1076.91 1493.08,1067.25 1493.5,1057.5C 1491.17,1057.5 1488.83,1057.5 1486.5,1057.5C 1486.5,1054.5 1486.5,1051.5 1486.5,1048.5C 1488.83,1048.5 1491.17,1048.5 1493.5,1048.5C 1493.5,1044.83 1493.5,1041.17 1493.5,1037.5 Z"/></g>
<g><path style="opacity:0.916" fill="#000000" d="M 616.5,1047.5 C 639.964,1045.79 650.131,1056.46 647,1079.5C 642.656,1089.51 634.99,1094.51 624,1094.5C 608.22,1094.2 600.054,1086.2 599.5,1070.5C 598.998,1063.5 601.331,1057.67 606.5,1053C 609.767,1050.87 613.1,1049.04 616.5,1047.5 Z M 619.5,1057.5 C 634.596,1058.02 639.429,1065.35 634,1079.5C 627.613,1085.72 620.946,1086.05 614,1080.5C 608.569,1070.98 610.402,1063.31 619.5,1057.5 Z"/></g>
<g><path style="opacity:0.915" fill="#000000" d="M 716.5,1047.5 C 724.206,1046.66 731.539,1047.83 738.5,1051C 741.467,1053.1 743.3,1055.93 744,1059.5C 744.5,1071.16 744.667,1082.83 744.5,1094.5C 740.833,1094.5 737.167,1094.5 733.5,1094.5C 733.657,1093.13 733.49,1091.79 733,1090.5C 731.2,1092.32 729.034,1093.48 726.5,1094C 718.306,1095.9 711.139,1094.06 705,1088.5C 700.776,1079.55 702.943,1072.71 711.5,1068C 718.771,1066.7 726.104,1066.2 733.5,1066.5C 733.276,1062.44 731.276,1059.61 727.5,1058C 720.951,1056.64 714.951,1057.8 709.5,1061.5C 706.391,1059.24 704.891,1056.24 705,1052.5C 708.723,1050.32 712.556,1048.66 716.5,1047.5 Z M 719.5,1074.5 C 724.167,1074.5 728.833,1074.5 733.5,1074.5C 732.509,1084.18 727.176,1087.68 717.5,1085C 713.116,1080.42 713.783,1076.92 719.5,1074.5 Z"/></g>
<g><path style="opacity:0.916" fill="#000000" d="M 829.5,1047.5 C 853.656,1045.85 863.489,1056.85 859,1080.5C 851.661,1093.39 840.827,1097.56 826.5,1093C 812.523,1085.64 808.356,1074.47 814,1059.5C 817.695,1053.42 822.862,1049.42 829.5,1047.5 Z M 832.5,1057.5 C 842.305,1056.74 847.972,1061.24 849.5,1071C 846.996,1083.42 839.996,1087.08 828.5,1082C 822.923,1076.15 822.09,1069.65 826,1062.5C 827.965,1060.45 830.132,1058.78 832.5,1057.5 Z"/></g>
<g><path style="opacity:0.889" fill="#000000" d="M 869.5,1047.5 C 873.167,1047.5 876.833,1047.5 880.5,1047.5C 880.338,1049.53 880.505,1051.53 881,1053.5C 885.102,1048.85 890.269,1046.85 896.5,1047.5C 896.5,1051.17 896.5,1054.83 896.5,1058.5C 889.65,1057.67 884.817,1060.34 882,1066.5C 881.5,1075.83 881.334,1085.16 881.5,1094.5C 877.5,1094.5 873.5,1094.5 869.5,1094.5C 869.5,1078.83 869.5,1063.17 869.5,1047.5 Z"/></g>
<g><path style="opacity:0.904" fill="#000000" d="M 911.5,1047.5 C 917.909,1047.18 924.243,1047.68 930.5,1049C 935.707,1051.57 938.874,1055.73 940,1061.5C 940.5,1072.49 940.667,1083.49 940.5,1094.5C 936.833,1094.5 933.167,1094.5 929.5,1094.5C 929.657,1093.13 929.49,1091.79 929,1090.5C 921.978,1094.79 914.478,1095.62 906.5,1093C 898.76,1088.45 896.594,1081.95 900,1073.5C 901.938,1070.89 904.438,1069.06 907.5,1068C 914.426,1066.66 921.426,1066.16 928.5,1066.5C 928.755,1062.51 927.089,1059.67 923.5,1058C 916.699,1056.69 910.366,1057.86 904.5,1061.5C 902.333,1059.17 900.666,1056.5 899.5,1053.5C 903.283,1050.92 907.283,1048.92 911.5,1047.5 Z M 914.5,1074.5 C 919.167,1074.5 923.833,1074.5 928.5,1074.5C 929.301,1082.2 925.801,1085.86 918,1085.5C 913.82,1086 910.987,1084.33 909.5,1080.5C 910.497,1077.85 912.164,1075.85 914.5,1074.5 Z"/></g>
<g><path style="opacity:0.868" fill="#000000" d="M 988.5,1047.5 C 992.5,1047.5 996.5,1047.5 1000.5,1047.5C 1000.5,1063.17 1000.5,1078.83 1000.5,1094.5C 996.5,1094.5 992.5,1094.5 988.5,1094.5C 988.5,1078.83 988.5,1063.17 988.5,1047.5 Z"/></g>
<g><path style="opacity:0.911" fill="#000000" d="M 1027.5,1047.5 C 1045.86,1045.06 1056.2,1052.89 1058.5,1071C 1056.08,1089.06 1045.75,1096.73 1027.5,1094C 1011.82,1088.48 1006.32,1077.65 1011,1061.5C 1014.59,1054.39 1020.09,1049.73 1027.5,1047.5 Z M 1030.5,1057.5 C 1044.49,1058.01 1049.32,1065.01 1045,1078.5C 1036.53,1086.96 1028.86,1086.29 1022,1076.5C 1019.47,1067.56 1022.31,1061.23 1030.5,1057.5 Z"/></g>
<g><path style="opacity:0.901" fill="#000000" d="M 1067.5,1047.5 C 1071.17,1047.5 1074.83,1047.5 1078.5,1047.5C 1078.34,1049.2 1078.51,1050.87 1079,1052.5C 1086.18,1047.36 1094.01,1046.19 1102.5,1049C 1109.22,1052.4 1112.72,1057.9 1113,1065.5C 1113.5,1075.16 1113.67,1084.83 1113.5,1094.5C 1109.5,1094.5 1105.5,1094.5 1101.5,1094.5C 1101.67,1084.83 1101.5,1075.16 1101,1065.5C 1097.44,1057.19 1091.61,1055.36 1083.5,1060C 1081.96,1061.58 1080.79,1063.41 1080,1065.5C 1079.5,1075.16 1079.33,1084.83 1079.5,1094.5C 1075.5,1094.5 1071.5,1094.5 1067.5,1094.5C 1067.5,1078.83 1067.5,1063.17 1067.5,1047.5 Z"/></g>
<g><path style="opacity:0.9" fill="#000000" d="M 1224.5,1047.5 C 1228.17,1047.5 1231.83,1047.5 1235.5,1047.5C 1235.34,1049.2 1235.51,1050.87 1236,1052.5C 1243.18,1047.36 1251.01,1046.19 1259.5,1049C 1266.22,1052.4 1269.72,1057.9 1270,1065.5C 1270.5,1075.16 1270.67,1084.83 1270.5,1094.5C 1266.5,1094.5 1262.5,1094.5 1258.5,1094.5C 1258.67,1084.83 1258.5,1075.16 1258,1065.5C 1254.44,1057.19 1248.61,1055.36 1240.5,1060C 1238.96,1061.58 1237.79,1063.41 1237,1065.5C 1236.5,1075.16 1236.33,1084.83 1236.5,1094.5C 1232.5,1094.5 1228.5,1094.5 1224.5,1094.5C 1224.5,1078.83 1224.5,1063.17 1224.5,1047.5 Z"/></g>
<g><path style="opacity:0.914" fill="#000000" d="M 1282.5,1047.5 C 1286.17,1047.5 1289.83,1047.5 1293.5,1047.5C 1293.34,1049.2 1293.51,1050.87 1294,1052.5C 1301.18,1047.36 1309.01,1046.19 1317.5,1049C 1322.4,1050.9 1325.57,1054.4 1327,1059.5C 1327.5,1071.16 1327.67,1082.83 1327.5,1094.5C 1323.83,1094.5 1320.17,1094.5 1316.5,1094.5C 1316.67,1084.83 1316.5,1075.16 1316,1065.5C 1312.34,1057.18 1306.51,1055.35 1298.5,1060C 1296.95,1061.21 1295.78,1062.71 1295,1064.5C 1294.5,1074.49 1294.33,1084.49 1294.5,1094.5C 1290.5,1094.5 1286.5,1094.5 1282.5,1094.5C 1282.5,1078.83 1282.5,1063.17 1282.5,1047.5 Z"/></g>
<g><path style="opacity:0.916" fill="#000000" d="M 1354.5,1047.5 C 1378.66,1045.85 1388.49,1056.85 1384,1080.5C 1376.75,1093.38 1365.92,1097.54 1351.5,1093C 1337.52,1085.64 1333.36,1074.47 1339,1059.5C 1342.7,1053.42 1347.86,1049.42 1354.5,1047.5 Z M 1357.5,1057.5 C 1370.71,1057.25 1375.88,1063.59 1373,1076.5C 1368.45,1084.81 1361.95,1086.64 1353.5,1082C 1347.92,1076.15 1347.09,1069.65 1351,1062.5C 1352.97,1060.45 1355.13,1058.78 1357.5,1057.5 Z"/></g>
<g><path style="opacity:0.896" fill="#000000" d="M 1386.5,1047.5 C 1390.55,1047.18 1394.55,1047.51 1398.5,1048.5C 1402.52,1059.07 1407.02,1069.41 1412,1079.5C 1416.5,1069.17 1421,1058.83 1425.5,1048.5C 1429.11,1047.51 1432.77,1047.18 1436.5,1047.5C 1430.74,1063.03 1424.4,1078.36 1417.5,1093.5C 1413.5,1094.83 1409.5,1094.83 1405.5,1093.5C 1398.6,1078.36 1392.26,1063.03 1386.5,1047.5 Z"/></g>
<g><path style="opacity:0.909" fill="#000000" d="M 1451.5,1047.5 C 1456.51,1047.33 1461.51,1047.5 1466.5,1048C 1473.33,1049.5 1477.5,1053.67 1479,1060.5C 1479.5,1071.83 1479.67,1083.16 1479.5,1094.5C 1475.83,1094.5 1472.17,1094.5 1468.5,1094.5C 1468.66,1093.13 1468.49,1091.79 1468,1090.5C 1466.2,1092.32 1464.03,1093.48 1461.5,1094C 1456.1,1094.77 1450.76,1094.44 1445.5,1093C 1436.23,1086.4 1435.23,1078.74 1442.5,1070C 1445.25,1068.25 1448.25,1067.25 1451.5,1067C 1457.2,1066.83 1462.86,1066.33 1468.5,1065.5C 1467.8,1061.96 1465.8,1059.46 1462.5,1058C 1455.81,1056.66 1449.64,1057.83 1444,1061.5C 1441.28,1059.06 1439.95,1056.06 1440,1052.5C 1443.72,1050.32 1447.56,1048.66 1451.5,1047.5 Z M 1454.5,1074.5 C 1459.17,1074.5 1463.83,1074.5 1468.5,1074.5C 1468.48,1082.02 1464.65,1085.68 1457,1085.5C 1451.42,1085.59 1449.09,1082.92 1450,1077.5C 1451.41,1076.22 1452.91,1075.22 1454.5,1074.5 Z"/></g>
<g><path style="opacity:0.946" fill="#000000" d="M 1528.5,1047.5 C 1532.17,1047.5 1535.83,1047.5 1539.5,1047.5C 1539.5,1063.17 1539.5,1078.83 1539.5,1094.5C 1535.83,1094.5 1532.17,1094.5 1528.5,1094.5C 1528.5,1078.83 1528.5,1063.17 1528.5,1047.5 Z"/></g>
<g><path style="opacity:0.917" fill="#000000" d="M 1566.5,1047.5 C 1590.68,1045.91 1600.51,1056.91 1596,1080.5C 1588.75,1093.38 1577.92,1097.54 1563.5,1093C 1552.28,1087.73 1547.45,1078.9 1549,1066.5C 1551.24,1056.76 1557.07,1050.43 1566.5,1047.5 Z M 1569.5,1057.5 C 1582.71,1057.25 1587.88,1063.59 1585,1076.5C 1580.45,1084.81 1573.95,1086.64 1565.5,1082C 1559.92,1076.15 1559.09,1069.65 1563,1062.5C 1564.97,1060.45 1567.13,1058.78 1569.5,1057.5 Z"/></g>
<g><path style="opacity:0.912" fill="#000000" d="M 1607.5,1047.5 C 1611.17,1047.5 1614.83,1047.5 1618.5,1047.5C 1618.34,1048.87 1618.51,1050.21 1619,1051.5C 1627.23,1046.82 1635.73,1046.32 1644.5,1050C 1648.67,1053.17 1651.17,1057.33 1652,1062.5C 1652.5,1073.16 1652.67,1083.83 1652.5,1094.5C 1648.5,1094.5 1644.5,1094.5 1640.5,1094.5C 1640.67,1084.49 1640.5,1074.49 1640,1064.5C 1638.7,1059.71 1635.54,1057.38 1630.5,1057.5C 1624.66,1058 1620.83,1061 1619,1066.5C 1618.5,1075.83 1618.33,1085.16 1618.5,1094.5C 1614.83,1094.5 1611.17,1094.5 1607.5,1094.5C 1607.5,1078.83 1607.5,1063.17 1607.5,1047.5 Z"/></g>
<g><path style="opacity:0.881" fill="#000000" d="M 1787.5,1047.5 C 1791.88,1047.17 1796.22,1047.51 1800.5,1048.5C 1803.83,1052.83 1807.17,1057.17 1810.5,1061.5C 1814.04,1056.95 1817.7,1052.45 1821.5,1048C 1825.54,1047.17 1829.54,1047.34 1833.5,1048.5C 1828.17,1055.83 1822.83,1063.17 1817.5,1070.5C 1822.92,1078.34 1828.59,1086.01 1834.5,1093.5C 1830.2,1094.66 1825.87,1094.83 1821.5,1094C 1817.95,1089.08 1814.29,1084.24 1810.5,1079.5C 1806.64,1084.19 1802.97,1089.02 1799.5,1094C 1795.13,1094.83 1790.8,1094.66 1786.5,1093.5C 1791.92,1085.66 1797.59,1077.99 1803.5,1070.5C 1798.86,1064.02 1794.03,1057.69 1789,1051.5C 1788.21,1050.26 1787.71,1048.92 1787.5,1047.5 Z"/></g>
<g><path style="opacity:0.907" fill="#000000" d="M 1853.5,1047.5 C 1860.88,1046.69 1867.88,1047.86 1874.5,1051C 1877.07,1053.07 1879.07,1055.57 1880.5,1058.5C 1877.83,1060.17 1875.17,1061.83 1872.5,1063.5C 1865.25,1055.99 1857.75,1055.65 1850,1062.5C 1845.34,1071.85 1847.51,1079.02 1856.5,1084C 1862.84,1085.41 1868.01,1083.57 1872,1078.5C 1874.95,1079.95 1877.79,1081.62 1880.5,1083.5C 1876.32,1091.18 1869.82,1094.84 1861,1094.5C 1845.45,1094.29 1836.95,1086.45 1835.5,1071C 1836.11,1058.91 1842.11,1051.08 1853.5,1047.5 Z"/></g>
<g><path style="opacity:0.913" fill="#000000" d="M 1901.5,1047.5 C 1921.57,1045.51 1931.57,1054.51 1931.5,1074.5C 1919.83,1074.5 1908.17,1074.5 1896.5,1074.5C 1896.72,1078.56 1898.72,1081.39 1902.5,1083C 1909.77,1085.75 1916.27,1084.58 1922,1079.5C 1924.35,1081.68 1926.52,1084.02 1928.5,1086.5C 1923.71,1092.63 1917.38,1095.29 1909.5,1094.5C 1893.87,1094.36 1885.53,1086.53 1884.5,1071C 1884.44,1058.92 1890.11,1051.09 1901.5,1047.5 Z M 1907.5,1056.5 C 1914.29,1056.63 1918.29,1059.97 1919.5,1066.5C 1911.83,1066.5 1904.17,1066.5 1896.5,1066.5C 1896.55,1063.9 1897.55,1061.73 1899.5,1060C 1902.02,1058.28 1904.69,1057.11 1907.5,1056.5 Z"/></g>
<g><path style="opacity:0.91" fill="#000000" d="M 2002.5,1047.5 C 2022.7,1045.37 2032.7,1054.37 2032.5,1074.5C 2020.81,1074.17 2009.15,1074.5 1997.5,1075.5C 2001.44,1083.43 2007.78,1086.27 2016.5,1084C 2019.28,1082.47 2021.95,1081.14 2024.5,1080C 2026.18,1082.34 2027.85,1084.68 2029.5,1087C 2027.46,1089.69 2024.79,1091.69 2021.5,1093C 2007.74,1097.27 1996.57,1093.77 1988,1082.5C 1981.88,1066.1 1986.71,1054.43 2002.5,1047.5 Z M 2008.5,1056.5 C 2014.97,1056.81 2019.3,1059.98 2021.5,1066C 2013.48,1066.83 2005.48,1066.66 1997.5,1065.5C 1999.74,1060.58 2003.41,1057.58 2008.5,1056.5 Z"/></g>
<g><path style="opacity:0.893" fill="#000000" d="M 2041.5,1047.5 C 2045.17,1047.5 2048.83,1047.5 2052.5,1047.5C 2052.34,1049.2 2052.51,1050.87 2053,1052.5C 2060.52,1047.33 2068.68,1046.16 2077.5,1049C 2083,1051.84 2086.17,1056.34 2087,1062.5C 2087.5,1073.16 2087.67,1083.83 2087.5,1094.5C 2083.5,1094.5 2079.5,1094.5 2075.5,1094.5C 2075.67,1084.49 2075.5,1074.49 2075,1064.5C 2073.45,1060.13 2070.28,1057.79 2065.5,1057.5C 2059.66,1058 2055.83,1061 2054,1066.5C 2053.5,1075.83 2053.33,1085.16 2053.5,1094.5C 2049.5,1094.5 2045.5,1094.5 2041.5,1094.5C 2041.5,1078.83 2041.5,1063.17 2041.5,1047.5 Z"/></g>
<g><path style="opacity:0.909" fill="#000000" d="M 2114.5,1047.5 C 2122.38,1046.5 2129.71,1048 2136.5,1052C 2138.09,1053.84 2139.42,1055.84 2140.5,1058C 2138.39,1060.56 2135.72,1062.4 2132.5,1063.5C 2124.15,1055.2 2116.32,1055.53 2109,1064.5C 2105.97,1073.25 2108.47,1079.75 2116.5,1084C 2122.9,1085.3 2128.23,1083.47 2132.5,1078.5C 2135.72,1079.6 2138.39,1081.44 2140.5,1084C 2134.27,1093.19 2125.61,1096.53 2114.5,1094C 2099.3,1089.45 2093.46,1079.28 2097,1063.5C 2099.88,1054.83 2105.72,1049.5 2114.5,1047.5 Z"/></g>
<g><path style="opacity:0.911" fill="#000000" d="M 2161.5,1047.5 C 2181.67,1045.34 2191.67,1054.34 2191.5,1074.5C 2179.83,1074.5 2168.17,1074.5 2156.5,1074.5C 2157.14,1078.27 2159.14,1081.1 2162.5,1083C 2169.89,1085.72 2176.56,1084.55 2182.5,1079.5C 2184.7,1081.87 2186.7,1084.37 2188.5,1087C 2183.51,1092.67 2177.17,1095.17 2169.5,1094.5C 2149.06,1092.55 2141.22,1081.55 2146,1061.5C 2149.05,1054.41 2154.22,1049.74 2161.5,1047.5 Z M 2167.5,1056.5 C 2173.94,1056.78 2178.28,1059.94 2180.5,1066C 2172.48,1066.83 2164.48,1066.66 2156.5,1065.5C 2158.47,1060.36 2162.14,1057.36 2167.5,1056.5 Z"/></g>
</svg>