<?xml version="1.0" encoding="UTF-8"?>
<!DOCTYPE svg PUBLIC "-//W3C//DTD SVG 1.1//EN" "http://www.w3.org/Graphics/SVG/1.1/DTD/svg11.dtd">
<svg xmlns="http://www.w3.org/2000/svg" version="1.1" width="1680px" height="584px" style="shape-rendering:geometricPrecision; text-rendering:geometricPrecision; image-rendering:optimizeQuality; fill-rule:evenodd; clip-rule:evenodd" xmlns:xlink="http://www.w3.org/1999/xlink">
<g><path style="opacity:0.981" fill="#ec1c23" d="M 1044.5,8.5 C 1045.24,8.36899 1045.91,8.53566 1046.5,9C 1037.13,62.4044 1028.13,115.904 1019.5,169.5C 1047.17,169.167 1074.84,169.5 1102.5,170.5C 1054.67,248.167 1006.83,325.833 959,403.5C 962.167,348.829 965.667,294.162 969.5,239.5C 940.826,239.833 912.159,239.5 883.5,238.5C 937.192,161.815 990.859,85.1486 1044.5,8.5 Z"/></g>
<g><path style="opacity:0.99" fill="#337fc1" d="M 1363.5,159.5 C 1389.85,160.421 1416.18,160.755 1442.5,160.5C 1516.79,298.906 1591.45,437.073 1666.5,575C 1546.84,575.657 1427.18,575.491 1307.5,574.5C 1327.09,540.996 1346.42,507.33 1365.5,473.5C 1406.5,472.667 1447.5,472.167 1488.5,472C 1460.5,417.869 1431.5,364.369 1401.5,311.5C 1353.44,399.715 1304.77,487.548 1255.5,575C 1215.5,575.833 1175.5,575.667 1135.5,574.5C 1140.83,567.171 1145.67,559.504 1150,551.5C 1221.43,420.966 1292.6,290.3 1363.5,159.5 Z"/></g>
<g><path style="opacity:0.991" fill="#f6a208" d="M 229.5,160.5 C 257.175,160.167 284.841,160.5 312.5,161.5C 386.754,299.007 460.754,436.674 534.5,574.5C 415.5,575.833 296.5,575.833 177.5,574.5C 196.627,541.081 215.627,507.581 234.5,474C 276.504,473.833 318.504,473.333 360.5,472.5C 330.667,417.5 300.833,362.5 271,307.5C 221.413,396.339 172.08,485.339 123,574.5C 84.5669,575.829 46.0669,575.829 7.5,574.5C 82.545,437.078 156.545,299.078 229.5,160.5 Z"/></g>
<g><path style="opacity:0.991" fill="#f6a208" d="M 556.5,160.5 C 592.5,160.5 628.5,160.5 664.5,160.5C 664.5,298.833 664.5,437.167 664.5,575.5C 628.5,575.5 592.5,575.5 556.5,575.5C 556.5,437.167 556.5,298.833 556.5,160.5 Z"/></g>
<g><path style="opacity:0.992" fill="#337fc1" d="M 776.5,160.5 C 821.838,160.167 867.172,160.5 912.5,161.5C 891.162,194.179 869.329,226.512 847,258.5C 846.5,330.833 846.333,403.166 846.5,475.5C 875.169,475.667 903.835,475.5 932.5,475C 954.306,475.266 975.639,472.266 996.5,466C 1040.75,447.538 1063.42,414.205 1064.5,366C 1064.5,341.674 1057.5,319.674 1043.5,300C 1061.59,269.579 1080.09,239.413 1099,209.5C 1144.16,245.145 1169.5,291.812 1175,349.5C 1180.37,415.084 1159.54,470.584 1112.5,516C 1077.08,545.367 1036.41,563.367 990.5,570C 969.267,572.941 947.934,574.608 926.5,575C 864.834,575.5 803.168,575.667 741.5,575.5C 741.5,437.5 741.5,299.5 741.5,161.5C 753.345,161.828 765.012,161.495 776.5,160.5 Z"/></g>
</svg>
