<svg width="26" height="19" viewBox="0 0 26 19" fill="none" xmlns="http://www.w3.org/2000/svg">
<path d="M12.7809 1.07373C16.4412 1.07373 20.1028 1.07373 23.7631 1.07373C24.6637 1.07373 24.7117 1.12081 24.7117 2.01654C24.7129 7.07056 24.7129 12.1233 24.7117 17.1773C24.7117 18.0534 24.651 18.1201 23.8237 18.1201C16.4601 18.1214 9.09652 18.1214 1.73164 18.1201C0.894237 18.1201 0.848767 18.0691 0.848767 17.1812C0.847504 12.1717 0.848767 7.16079 0.848767 2.15123C0.848767 1.09465 0.867713 1.07504 1.86047 1.07504C5.5006 1.07373 9.14073 1.07373 12.7809 1.07373ZM2.44148 2.03223C2.47306 2.3003 2.63346 2.42191 2.75219 2.56182C5.72542 6.08853 8.69992 9.61523 11.6833 13.1328C12.4398 14.0259 13.1345 14.0194 13.9062 13.1105C16.8757 9.60869 19.835 6.09899 22.7944 2.58798C22.9232 2.43498 23.1164 2.30814 23.1152 2.03223C16.229 2.03223 9.35797 2.03223 2.44148 2.03223ZM2.20276 17.1368C9.30619 17.1368 16.2921 17.1368 23.2895 17.1368C23.2693 17.0426 23.2731 16.9929 23.2516 16.9615C21.6538 14.5581 20.0485 12.1599 18.4583 9.74992C18.2335 9.40993 18.116 9.51846 17.9164 9.75645C16.8163 11.0759 15.7036 12.3835 14.5959 13.6964C13.4301 15.0772 12.1253 15.0707 10.9557 13.6781C10.016 12.56 9.07884 11.442 8.1366 10.3266C7.45834 9.525 7.45202 9.52369 6.84449 10.4037C5.31493 12.6176 3.79042 14.8327 2.20276 17.1368ZM1.75311 16.0645C1.87689 15.973 1.93626 15.9481 1.96783 15.9024C3.5176 13.6545 5.05727 11.4002 6.62093 9.16279C6.86723 8.81103 6.70177 8.62796 6.49841 8.38736C5.01559 6.63774 3.53908 4.88288 2.05751 3.13326C1.98552 3.04827 1.93247 2.88612 1.75438 2.98811C1.75311 7.30986 1.75311 11.6381 1.75311 16.0645ZM23.7821 16.1351C23.7821 11.6172 23.7821 7.28371 23.7821 2.80374C22.1363 4.75343 20.579 6.60112 19.0166 8.44228C18.8612 8.62665 18.8789 8.77442 19.0039 8.96141C20.5676 11.3034 22.1262 13.648 23.7821 16.1351Z" fill="#F7A209"/>
<path d="M14.8598 9.08174C14.8598 10.2547 13.9037 11.2354 12.7644 11.2276C11.6239 11.221 10.7056 10.2508 10.7018 9.05035C10.6993 7.8774 11.6555 6.89406 12.7909 6.9019C13.9252 6.91236 14.8598 7.89571 14.8598 9.08174ZM12.7783 10.2887C13.4528 10.2887 13.9871 9.73948 13.9757 9.0582C13.9643 8.37038 13.4225 7.83686 12.7505 7.85256C12.1026 7.86825 11.5986 8.38869 11.5872 9.05428C11.5759 9.73948 12.1051 10.2887 12.7783 10.2887Z" fill="#F7A209"/>
</svg>
