<svg width="27" height="29" viewBox="0 0 27 29" fill="none" xmlns="http://www.w3.org/2000/svg">
<path d="M23.1408 9.69734C23.1422 12.2542 22.145 14.5304 20.714 16.6691C18.955 19.2941 16.7101 21.5363 14.1522 23.5278C13.7751 23.8207 13.4411 23.8656 13.061 23.5646C9.52821 20.7721 6.4873 17.6267 4.82375 13.566C3.72067 10.8756 3.55223 8.15668 5.08461 5.51673C7.05673 2.11939 11.2767 0.262701 15.37 0.973773C19.5006 1.69166 22.698 4.86151 23.1378 8.68794C23.1735 9.02032 23.1408 9.35951 23.1408 9.69734ZM5.19939 9.54341C5.20088 10.7639 5.44832 11.9463 5.9149 13.0838C7.42939 16.7808 10.1826 19.6523 13.2876 22.2896C13.5544 22.5157 13.7199 22.4258 13.9375 22.2419C16.4239 20.1536 18.6718 17.8815 20.2638 15.1366C21.5994 12.8359 22.4014 10.4329 21.7336 7.77799C20.8034 4.08096 16.8219 1.54181 12.6094 1.99406C8.39085 2.44904 5.14871 5.75103 5.19939 9.54341Z" fill="#F7A209"/>
<path d="M13.5663 28.1771C9.72794 28.1771 5.89103 28.1784 2.05263 28.1771C1.01365 28.1771 0.793034 27.8597 1.24917 27.0233C2.31349 25.0753 3.38079 23.1301 4.44809 21.1849C4.49579 21.0963 4.54796 21.0091 4.59566 20.9206C4.77603 20.5923 5.06372 20.4179 5.44235 20.5787C5.87016 20.7612 5.84482 21.0909 5.65551 21.4355C4.80137 22.9911 3.95021 24.5495 3.09906 26.1065C3.0126 26.2659 2.93807 26.4321 2.83223 26.5819C2.54305 26.9933 2.68168 27.0914 3.18253 27.0914C10.1215 27.0805 17.0604 27.0778 23.9979 27.0955C24.6403 27.0968 24.5405 26.9102 24.3303 26.5342C23.4359 24.9296 22.5609 23.3167 21.6784 21.7066C21.6099 21.5826 21.5353 21.4627 21.4727 21.3361C21.3192 21.0187 21.3713 20.7326 21.7261 20.5814C22.0705 20.4356 22.3656 20.5514 22.5445 20.862C22.7755 21.2652 22.9932 21.6739 23.2153 22.0812C24.129 23.7431 25.0458 25.4036 25.9551 27.0669C26.3784 27.842 26.1518 28.1771 25.2083 28.1771C21.3296 28.1784 17.448 28.1771 13.5663 28.1771Z" fill="#F7A209"/>
<path d="M17.1782 9.58699C17.1871 11.381 15.6175 12.8304 13.6513 12.844C11.5868 12.8576 10.0156 11.4491 10.0082 9.57881C10.0022 7.77253 11.6151 6.2959 13.5932 6.2959C15.5623 6.2959 17.1692 7.77117 17.1782 9.58699ZM11.1918 9.56519C11.1977 10.783 12.2635 11.7611 13.5857 11.7611C14.902 11.7611 16.0155 10.7476 15.9901 9.57064C15.9648 8.3719 14.8334 7.35706 13.5559 7.38703C12.2665 7.41836 11.1873 8.4114 11.1918 9.56519Z" fill="#F7A209"/>
</svg>
