<?xml version="1.0" encoding="UTF-8"?>
<svg xmlns="http://www.w3.org/2000/svg" xmlns:xlink="http://www.w3.org/1999/xlink" version="1.1" x="0px" y="0px" viewBox="0 0 100 125" xml:space="preserve" fill="#fff">
  <path fill="#fff" d="M13.517,17.402h15.403V2H73.41v64.317h2V0H26.919L11.517,15.402v70.454H54.16v-2H13.517V17.402z M26.919,3.414v11.988 H14.931L26.919,3.414z"></path>
  <path fill="#fff" d="M87.521,89.557L71.587,73.624c-1.241-1.241-3.4-1.239-4.64,0l-1.612,1.612l-4.268-4.268 c3.474-3.819,5.395-8.71,5.395-13.907c0-5.533-2.154-10.734-6.067-14.646c-3.912-3.913-9.114-6.068-14.647-6.068 S35.012,38.502,31.1,42.415c-8.076,8.076-8.076,21.217,0,29.295c3.912,3.913,9.114,6.067,14.647,6.067 c5.197,0,10.088-1.921,13.906-5.395l4.268,4.268l-1.814,1.814c-1.279,1.279-1.279,3.36,0,4.64l15.933,15.934 c0.62,0.62,1.444,0.963,2.321,0.963c0.878,0,1.702-0.343,2.32-0.963l4.841-4.841C88.801,92.918,88.801,90.836,87.521,89.557z M40.021,74.877c-1.719-0.551-3.348-1.348-4.846-2.378V58.063h4.846V74.877z M49.147,61.894v13.565 c-1.111,0.203-2.246,0.318-3.4,0.318c-1.266,0-2.513-0.127-3.727-0.371V56.063v-3.578h7.126V61.894z M56.319,72.499 c-1.593,1.096-3.332,1.938-5.172,2.489V63.894h5.172V72.499z M58.98,70.296c-0.212,0.212-0.441,0.399-0.661,0.6v-9.002h-7.172 V50.485H40.021v5.578h-6.846v14.832c-0.22-0.2-0.449-0.388-0.661-0.6c-7.296-7.298-7.296-19.171,0-26.467 c3.535-3.535,8.234-5.482,13.233-5.482c4.999,0,9.698,1.947,13.233,5.482c3.535,3.535,5.481,8.233,5.481,13.232 S62.516,66.761,58.98,70.296z M86.107,92.783l-4.842,4.842c-0.482,0.484-1.326,0.485-1.813-0.001L63.521,81.69 c-0.499-0.499-0.499-1.313,0-1.812l4.841-4.841c0.242-0.242,0.564-0.376,0.906-0.376c0.341,0,0.663,0.134,0.905,0.376l15.935,15.933 c0.242,0.242,0.376,0.564,0.376,0.906S86.35,92.541,86.107,92.783z"></path>
  <rect x="56.198" y="7.701" width="11.779" height="2"></rect>
  <rect x="45.748" y="15.973" width="22.086" height="2"></rect>
  <rect x="59.735" y="24.244" width="8.099" height="2"></rect>
</svg>
