<?xml version="1.0" encoding="UTF-8"?>
<svg xmlns="http://www.w3.org/2000/svg" id="Layer_2" viewBox="0 0 222 62.05">
  <defs>
    <style>.cls-3{stroke-width:0;fill:#53575a}</style>
  </defs>
  <g id="Layer_1-2">
    <path d="M18 9.09a6.301 6.301 0 0 0-8.91 0C3.47 14.7 0 22.46 0 31.02s3.47 16.32 9.09 21.94A6.301 6.301 0 0 1 18 44.05c-3.33-3.33-5.4-7.94-5.4-13.03s2.06-9.69 5.4-13.03a6.301 6.301 0 0 0 0-8.91" style="fill:#f89532;stroke-width:0"></path>
    <path d="M52.96 52.96a6.301 6.301 0 0 1-8.91-8.91c-3.33 3.33-7.94 5.39-13.03 5.39s-9.69-2.06-13.03-5.39a6.301 6.301 0 0 0-8.91 8.91c5.62 5.62 13.37 9.09 21.94 9.09s16.32-3.47 21.94-9.09" style="fill:#70c059;stroke-width:0"></path>
    <path d="M52.96 9.09C47.35 3.47 39.59 0 31.02 0S14.7 3.47 9.09 9.09A6.301 6.301 0 0 1 18 18c3.33-3.33 7.94-5.39 13.03-5.39s9.69 2.06 13.03 5.39a6.301 6.301 0 0 0 8.91-8.91" style="stroke-width:0;fill:#33b2c4"></path>
    <path d="M52.96 9.09A6.301 6.301 0 0 1 44.05 18c3.33 3.33 5.39 7.94 5.39 13.03s-2.06 9.69-5.39 13.03a6.301 6.301 0 0 0 8.91 8.91c5.61-5.61 9.09-13.37 9.09-21.94s-3.47-16.32-9.09-21.94" style="fill:#ffd329;stroke-width:0"></path>
    <path class="cls-3" d="m85.46 32.71-1.5-3.79H76.5l-1.42 3.79h-5.06l8.09-19.28h4.52l8 19.28h-5.17Zm-5.17-14.13-2.45 6.62h4.85l-2.4-6.62ZM107.27 27.1c0 1.05-.21 1.94-.63 2.65-.42.72-.97 1.29-1.66 1.73-.69.44-1.48.75-2.36.94-.88.19-1.78.29-2.71.29h-7.68V13.43h7.68c.74 0 1.51.08 2.29.23.78.16 1.49.42 2.12.79.63.37 1.15.88 1.55 1.51.4.64.6 1.44.6 2.42 0 1.07-.29 1.96-.87 2.65-.58.7-1.34 1.2-2.29 1.51v.05c.54.09 1.06.26 1.54.5s.9.56 1.25.94c.35.38.63.83.84 1.33.21.51.31 1.08.31 1.72m-5.26-8.07c0-.65-.25-1.13-.75-1.43-.5-.3-1.24-.45-2.22-.45h-2.29v3.98h2.5c.87 0 1.55-.18 2.03-.53.48-.35.72-.88.72-1.57m.63 7.65c0-.8-.3-1.35-.9-1.66-.6-.31-1.4-.46-2.4-.46h-2.59v4.41h2.61c.36 0 .74-.03 1.13-.1.39-.06.74-.18 1.06-.34.32-.16.58-.4.77-.69.2-.3.3-.69.3-1.16M126.1 28.61c-.39.95-.95 1.77-1.67 2.45-.73.68-1.6 1.21-2.63 1.59-1.03.38-2.16.57-3.42.57s-2.41-.19-3.43-.57c-1.02-.38-1.88-.91-2.59-1.59s-1.25-1.5-1.63-2.45c-.38-.95-.57-2.01-.57-3.17V13.43h4.63v11.63c0 .53.07 1.03.2 1.5.14.47.35.89.63 1.27.28.37.65.67 1.12.89.46.22 1.02.32 1.67.32s1.21-.11 1.67-.32c.46-.22.84-.51 1.13-.89.29-.37.5-.79.63-1.27.13-.47.19-.97.19-1.5V13.43h4.66v12.01c0 1.16-.2 2.22-.59 3.17M155.25 23.01c0 1.69-.31 3.15-.94 4.37-.63 1.22-1.45 2.23-2.48 3.02a10.3 10.3 0 0 1-3.47 1.74c-1.29.37-2.6.56-3.92.56h-7.19V13.43h6.97c1.36 0 2.7.16 4.03.48 1.32.32 2.5.84 3.54 1.58 1.04.74 1.87 1.72 2.51 2.96.64 1.23.95 2.76.95 4.57m-4.85-.01c0-1.09-.18-1.99-.53-2.71-.35-.72-.83-1.29-1.42-1.72-.59-.43-1.26-.73-2.01-.91a9.97 9.97 0 0 0-2.33-.27h-2.31v11.27h2.21c.83 0 1.64-.1 2.41-.29.77-.19 1.45-.5 2.04-.94.59-.44 1.06-1.02 1.42-1.74.35-.73.53-1.62.53-2.69M170.49 32.71v-8.06h-7.51v8.06h-4.66V13.43h4.66v7.3h7.51v-7.3h4.66v19.28h-4.66zM192.19 32.71l-1.5-3.79h-7.46l-1.42 3.79h-5.06l8.09-19.28h4.52l8.01 19.28h-5.17Zm-5.17-14.13-2.45 6.62h4.85l-2.4-6.62ZM214 27.1c0 1.05-.21 1.94-.63 2.65-.42.72-.97 1.29-1.66 1.73-.69.44-1.48.75-2.35.94-.88.19-1.78.29-2.71.29h-7.68V13.43h7.68c.74 0 1.51.08 2.29.23.78.16 1.49.42 2.12.79.63.37 1.15.88 1.55 1.51.4.64.6 1.44.6 2.42 0 1.07-.29 1.96-.87 2.65-.58.7-1.34 1.2-2.29 1.51v.05c.54.09 1.06.26 1.54.5s.9.56 1.25.94c.35.38.63.83.84 1.33.21.51.31 1.08.31 1.72m-5.27-8.07c0-.65-.25-1.13-.75-1.43-.5-.3-1.24-.45-2.22-.45h-2.29v3.98h2.51c.87 0 1.55-.18 2.03-.53.48-.35.72-.88.72-1.57m.62 7.65c0-.8-.3-1.35-.9-1.66-.6-.31-1.4-.46-2.4-.46h-2.59v4.41h2.61c.36 0 .74-.03 1.13-.1.39-.06.74-.18 1.06-.34.32-.16.58-.4.77-.69.2-.3.3-.69.3-1.16M217.08 13.43h4.68v19.28h-4.68zM75.82 40.6c-.19-.24-.45-.44-.78-.6-.34-.16-.68-.24-1.02-.24-.2 0-.41.03-.61.08s-.39.13-.55.24c-.17.11-.3.24-.41.42-.11.17-.16.38-.16.62 0 .22.05.41.14.57.09.16.22.29.38.4.16.11.36.21.59.29.23.08.48.17.76.25.32.1.64.22.98.35.34.13.65.3.93.51.28.21.51.48.69.8.18.32.27.73.27 1.21 0 .53-.1.99-.29 1.38-.19.39-.45.72-.78.98-.32.26-.7.45-1.14.58-.43.13-.89.2-1.37.2-.64 0-1.26-.12-1.87-.35-.61-.24-1.11-.58-1.5-1.05l1.25-1.16c.24.33.56.6.96.79.4.19.8.29 1.19.29.2 0 .41-.03.63-.08.21-.05.4-.13.57-.26.17-.12.31-.27.42-.45.11-.18.16-.41.16-.67s-.06-.47-.18-.64c-.12-.17-.28-.32-.49-.44-.2-.13-.44-.23-.72-.33-.28-.09-.57-.19-.87-.29-.3-.09-.59-.2-.89-.33-.3-.13-.56-.3-.8-.51-.23-.21-.43-.47-.57-.78-.15-.31-.22-.69-.22-1.16 0-.5.1-.93.31-1.29s.48-.66.82-.89c.34-.24.72-.41 1.15-.53.43-.11.87-.17 1.31-.17.5 0 1 .09 1.52.26.51.17.96.44 1.34.79l-1.14 1.25ZM86.59 44.76c0 .59-.1 1.13-.31 1.6-.2.48-.48.88-.83 1.21-.35.33-.77.59-1.25.77-.48.18-1 .27-1.57.27s-1.08-.09-1.57-.27c-.48-.18-.9-.44-1.25-.77-.36-.33-.63-.74-.83-1.21-.2-.48-.3-1.01-.3-1.6v-6.21h1.75v6.14c0 .29.04.57.11.85s.2.53.37.76c.17.22.4.4.68.54s.63.21 1.05.21.76-.07 1.05-.21c.28-.14.51-.32.68-.54.17-.22.29-.48.37-.76.07-.28.11-.57.11-.85v-6.14h1.75v6.21ZM93.68 40.6c-.18-.24-.45-.44-.78-.6-.34-.16-.68-.24-1.02-.24-.2 0-.41.03-.61.08s-.39.13-.55.24c-.17.11-.3.24-.41.42-.11.17-.16.38-.16.62 0 .22.05.41.14.57.09.16.22.29.38.4.16.11.36.21.59.29.23.08.48.17.76.25.32.1.64.22.98.35.34.13.65.3.93.51.28.21.51.48.69.8.18.32.27.73.27 1.21 0 .53-.1.99-.29 1.38s-.45.72-.78.98c-.32.26-.7.45-1.14.58-.43.13-.89.2-1.37.2-.64 0-1.26-.12-1.87-.35-.61-.24-1.11-.58-1.5-1.05l1.25-1.16c.24.33.56.6.96.79.4.19.8.29 1.19.29.2 0 .41-.03.63-.08.21-.05.4-.13.57-.26.17-.12.31-.27.42-.45.11-.18.16-.41.16-.67s-.06-.47-.18-.64c-.12-.17-.28-.32-.49-.44-.2-.13-.44-.23-.72-.33-.28-.09-.57-.19-.87-.29-.3-.09-.59-.2-.89-.33-.3-.13-.56-.3-.8-.51-.24-.21-.43-.47-.58-.78-.15-.31-.22-.69-.22-1.16 0-.5.1-.93.31-1.29s.48-.66.82-.89c.34-.24.72-.41 1.15-.53.43-.11.87-.17 1.31-.17.5 0 1 .09 1.52.26.51.17.96.44 1.34.79l-1.14 1.25ZM98.61 40.08H95.6v-1.53h7.77v1.53h-3.01v8.28h-1.75v-8.28zM107.58 38.55h1.51l4.23 9.81h-2l-.92-2.24h-4.26l-.89 2.24h-1.96l4.27-9.81Zm2.22 6.07-1.51-3.99-1.54 3.99h3.05ZM114.29 38.55h1.75v9.81h-1.75zM118.2 38.55h2.31l4.56 7.35h.03v-7.35h1.74v9.81h-2.21l-4.66-7.58h-.03v7.58h-1.74v-9.81zM132.08 38.55h1.51l4.23 9.81h-2l-.91-2.24h-4.26l-.89 2.24h-1.96l4.27-9.81Zm2.22 6.07-1.51-3.99-1.54 3.99h3.05ZM138.79 38.55h3.83c.37 0 .73.04 1.1.13.36.09.68.23.96.43.28.2.51.46.69.77.18.32.26.69.26 1.14 0 .55-.16 1.01-.47 1.37-.31.36-.73.62-1.23.77v.03c.62.08 1.13.32 1.52.72.4.4.6.93.6 1.59 0 .54-.11.99-.32 1.35-.21.36-.49.66-.84.88-.35.22-.75.38-1.19.48-.45.1-.9.14-1.37.14h-3.53v-9.81Zm1.75 3.99h1.55c.58 0 1.03-.12 1.33-.35.3-.23.46-.56.46-.98s-.16-.76-.47-.94c-.31-.18-.8-.28-1.47-.28h-1.4v2.55Zm0 4.36h1.57c.22 0 .46-.02.72-.05.26-.03.5-.1.71-.2.22-.1.4-.25.54-.44s.22-.45.22-.78c0-.52-.18-.88-.53-1.08-.35-.2-.88-.3-1.59-.3h-1.64v2.86ZM147.76 38.55h1.75v9.81h-1.75zM151.67 38.55h1.75v8.26h4.17v1.55h-5.92v-9.81zM158.75 38.55h1.75v9.81h-1.75zM164.64 40.08h-3v-1.53h7.76v1.53h-3.01v8.28h-1.75v-8.28z"></path>
    <path class="cls-3" d="m172.91 44.11-3.69-5.56h2.13l2.47 4.13 2.5-4.13h2.02l-3.69 5.56v4.26h-1.74v-4.26zM181.62 38.55h1.92l1.89 7.21h.03l2.17-7.21h1.8l2.12 7.21h.03l1.94-7.21h1.85l-2.87 9.81h-1.69l-2.3-7.35h-.03l-2.3 7.35h-1.69l-2.87-9.81zM196.54 38.55h6.5v1.53h-4.76v2.49h4.51v1.47h-4.51v2.77h5.01v1.55h-6.75v-9.81zM204.99 38.55h6.5v1.53h-4.75v2.49h4.5v1.47h-4.5v2.77h5v1.55h-6.75v-9.81zM213.45 38.55h1.74v4.24h.04l4.11-4.24h2.35l-4.58 4.54 4.89 5.27h-2.45l-4.32-4.92h-.04v4.92h-1.74v-9.81z"></path>
  </g>
</svg>
