<?xml version="1.0" encoding="UTF-8"?>
<svg xmlns="http://www.w3.org/2000/svg" width="74" height="85" viewBox="0 0 74 85" fill="none">
  <path d="M73.711 45.0155C73.711 57.2846 73.6717 69.5497 73.7543 81.8187C73.7661 83.7958 73.4161 84.5456 71.1982 84.5338C53.6599 84.4312 36.1216 84.4351 18.5833 84.5219C16.4677 84.5338 15.4217 84.1194 15.8464 81.8266C16.2357 79.739 15.3666 78.8748 13.2785 79.2457C11.1511 79.6246 10.4355 78.8669 10.4826 76.5859C10.636 68.8946 10.5298 61.1954 10.5456 53.5001C10.5456 52.5845 10.2034 51.4717 11.8668 51.4598C13.5302 51.444 13.1999 52.5451 13.1999 53.4685C13.2078 60.4771 13.1842 67.4897 13.2156 74.4983C13.2196 75.3349 12.6572 76.5544 14.4071 76.6096C16.216 76.6688 15.8464 75.4691 15.8464 74.4707C15.8582 67.5371 15.8385 60.6034 15.8739 53.6698C15.8778 52.7542 15.3234 51.4125 17.207 51.4677C19.0827 51.523 18.4535 52.8844 18.4575 53.7763C18.5007 62.3871 18.5282 70.998 18.4457 79.6048C18.4299 81.3688 18.8822 81.9411 20.7146 81.9332C36.7351 81.8621 52.7555 81.87 68.7759 81.9253C70.4707 81.9292 71.1156 81.6056 71.1078 79.6996C71.0331 56.4598 71.0449 33.22 71.0881 9.98026C71.092 8.40174 70.6752 7.92424 69.059 7.92819C53.0386 7.98738 37.0182 7.99133 20.9978 7.92029C19.1063 7.9124 18.3159 8.22416 18.4417 10.3709C18.6501 13.8634 18.4771 17.3796 18.4889 20.8839C18.4929 21.8073 18.4417 22.5019 17.203 22.5216C16.0076 22.5413 15.8424 21.9533 15.8464 20.9786C15.866 16.2549 15.9054 11.5312 15.8228 6.80744C15.7874 4.84612 17.0969 5.31179 18.1389 5.30784C33.2471 5.29206 48.3591 5.30784 63.4672 5.25259C64.2458 5.24865 65.5514 6.02607 65.807 4.34889C66.039 2.82562 65.2682 2.6283 63.9666 2.63225C51.4381 2.67171 38.9096 2.64803 26.3812 2.64409C22.6611 2.64409 18.9372 2.70723 15.2211 2.60857C13.66 2.56911 13.137 2.99531 13.1684 4.64092C13.2707 9.97237 13.2038 15.3078 13.1881 20.6392C13.1842 21.5035 13.4791 22.494 11.9612 22.5177C10.3686 22.5413 10.5495 21.5469 10.5495 20.5485C10.5456 14.3764 10.5888 8.20443 10.4984 2.03241C10.4748 0.367073 11.104 0.0237449 12.6179 0.0276912C30.5377 0.0671542 48.4535 0.0750466 66.3732 6.68516e-05C68.2057 -0.00782575 68.4731 0.682777 68.4416 2.26524C68.3709 5.69063 68.0169 5.34336 71.4696 5.2447C73.2509 5.1934 73.7739 5.68274 73.7621 7.51777C73.6717 20.0236 73.711 32.5215 73.711 45.0155Z" fill="white"></path>
  <path d="M53.5023 34.384C57.3757 34.384 61.2451 34.4313 65.1185 34.3603C66.4988 34.3366 67.1751 34.601 67.1279 36.2111C67.0178 39.8654 67.0493 43.5236 67.1161 47.1818C67.1397 48.488 66.6679 48.8748 65.4056 48.8669C57.36 48.8274 49.3104 48.8314 41.2648 48.8669C40.0615 48.8708 39.4756 48.6222 39.5071 47.2371C39.5896 43.5039 39.5818 39.7707 39.5071 36.0375C39.4795 34.7233 39.9396 34.3405 41.2058 34.3603C45.2994 34.4195 49.4009 34.38 53.5023 34.384ZM60.6317 42.2805C60.6317 42.2766 60.6317 42.2726 60.6317 42.2687C59.9475 42.2687 59.2554 42.3436 58.5829 42.2529C57.01 42.0477 56.4988 42.6278 56.5066 44.2537C56.5145 45.8795 57.0257 46.4241 58.6026 46.2663C59.8059 46.1479 61.0328 46.1794 62.24 46.2702C63.75 46.3847 64.5916 46.1637 64.5798 44.2497C64.568 42.3397 63.7107 42.1069 62.2204 42.2687C61.7013 42.3279 61.1625 42.2805 60.6317 42.2805ZM50.9777 42.2726C50.0536 42.2726 49.2947 42.2687 48.5397 42.2726C48.001 42.2766 47.5645 42.3081 47.3757 43.0224C46.7859 45.2323 47.4897 46.2386 49.7508 46.2505C50.3564 46.2544 50.9738 46.1597 51.5597 46.2663C53.6635 46.6451 54.1118 45.6585 54.0135 43.7446C53.872 40.9624 51.8114 42.8843 50.9777 42.2726ZM60.6002 39.6049C61.5047 39.6049 62.4091 39.5852 63.3096 39.6128C64.1629 39.6404 64.5208 39.2774 64.5208 38.4092C64.5208 37.5252 64.3438 36.9491 63.29 36.9727C61.485 37.0161 59.6761 37.024 57.8712 36.9885C56.9117 36.9688 56.5499 37.3358 56.542 38.3145C56.5342 39.3247 56.9549 39.6523 57.8908 39.6128C58.7953 39.5733 59.6997 39.6049 60.6002 39.6049ZM50.3604 39.5931C51.2373 39.5931 51.9176 39.5615 52.5939 39.601C53.522 39.6562 53.9624 39.3287 53.9703 38.3224C53.9742 37.3713 53.6871 36.9017 52.6844 36.9648C52.008 37.0082 51.2727 36.803 50.6632 37.0043C49.5503 37.3792 47.415 35.7967 47.4347 38.35C47.4544 40.8283 49.5896 38.9696 50.3604 39.5931ZM44.7135 44.1234C44.4382 43.6222 45.3505 42.3121 43.577 42.245C42.0277 42.1858 42.0631 43.1092 42.1575 44.1116C42.24 44.96 41.6502 46.1716 43.3136 46.2702C44.8669 46.357 44.7646 45.3784 44.7135 44.1234ZM43.4945 39.5733C44.3989 39.8022 44.7371 39.3366 44.741 38.3737C44.745 37.4897 44.5483 36.953 43.5141 36.9688C42.6018 36.9846 42.1575 37.2845 42.1457 38.2671C42.1339 39.1827 42.3698 39.7233 43.4945 39.5733Z" fill="white"></path>
  <path d="M16.994 48.863C12.9712 48.863 8.94837 48.8906 4.9295 48.8551C1.4415 48.8235 0.0612446 47.466 0.0337181 44.0366C-0.00560544 39.2379 -0.0134703 34.4432 0.0258532 29.6445C0.0494474 26.6571 1.54374 25.1418 4.5284 25.1299C12.7981 25.0905 21.0718 25.0786 29.3416 25.1181C32.861 25.1339 34.1862 26.4953 34.202 29.9444C34.2256 34.7431 34.2295 39.5379 34.2059 44.3366C34.1902 47.3397 32.7391 48.8196 29.7427 48.8432C25.4918 48.8788 21.2448 48.8511 16.994 48.8511C16.994 48.8551 16.994 48.859 16.994 48.863ZM17.1552 46.2584C17.1552 46.2505 17.1552 46.2466 17.1552 46.2387C21.1701 46.2387 25.1851 46.1795 29.2 46.2663C30.9696 46.3018 31.642 45.631 31.6184 43.867C31.5516 39.305 31.5398 34.7431 31.6223 30.1851C31.6577 28.2672 30.8713 27.6832 29.0466 27.699C21.0915 27.7621 13.1403 27.7621 5.1851 27.699C3.34083 27.6832 2.60941 28.3185 2.64873 30.2207C2.74311 34.7036 2.75884 39.1906 2.6448 43.6736C2.59368 45.7296 3.43127 46.3255 5.33847 46.2821C9.27869 46.1953 13.2189 46.2584 17.1552 46.2584Z" fill="white"></path>
  <path d="M46.1312 27.8725C45.6947 24.6247 47.1379 22.7265 49.69 21.661C51.2079 21.0257 51.8528 20.3588 51.4753 18.5198C50.9758 16.1007 51.9668 13.9973 54.1021 12.6595C55.7812 11.6059 57.6097 11.6216 59.2456 12.7582C61.373 14.242 62.246 16.4243 61.7072 18.9302C61.4241 20.2522 61.6404 20.852 62.887 21.3098C66.4418 22.6239 67.4996 25.3508 67.1142 28.938C67.0041 29.9601 66.8036 30.41 65.6829 30.406C64.5464 30.4021 64.393 29.7786 64.5189 28.9577C64.979 25.9941 63.7049 23.3658 60.9404 23.4921C57.2951 23.6579 53.3864 21.9728 49.9141 24.4747C48.8288 25.2561 48.817 26.2822 48.6518 27.4384C48.5063 28.4447 49.8473 30.2837 47.4485 30.3666C44.9987 30.4613 46.5323 28.5 46.1312 27.8725ZM59.2023 17.8094C59.1905 16.0967 58.0305 14.6208 56.666 14.5735C55.2031 14.5222 53.933 16.0494 54.0116 17.8884C54.0785 19.534 54.7077 20.8876 56.5283 21.1125C57.9401 21.294 59.2181 19.6208 59.2023 17.8094Z" fill="white"></path>
  <path d="M45.7486 66.0373C39.4568 66.0334 33.1611 66.0413 26.8694 66.0294C26.02 66.0294 25.0408 66.3491 24.9976 64.814C24.9543 63.2276 25.8784 63.3657 26.8969 63.3657C39.6338 63.3736 52.3707 63.3696 65.1076 63.3775C66.0435 63.3775 67.1249 63.0776 67.1131 64.7272C67.1052 66.3964 65.9727 66.0255 65.0761 66.0294C58.6389 66.0492 52.1937 66.0373 45.7486 66.0373Z" fill="white"></path>
  <path d="M56.6956 77.9077C54.5722 77.9077 52.4487 77.9551 50.3252 77.8959C47.7417 77.8249 46.0036 76.1122 46.0744 73.8194C46.1451 71.6095 47.8007 70.0664 50.341 70.0349C54.5132 69.9796 58.6854 69.9757 62.8537 70.0349C65.4727 70.0743 67.0102 71.5384 67.0613 73.8352C67.1164 76.1911 65.4569 77.8249 62.838 77.8959C60.7932 77.9551 58.7444 77.9077 56.6956 77.9077ZM56.4047 75.244C58.5203 75.244 60.6359 75.2322 62.7475 75.2479C63.6087 75.2558 64.3323 74.9559 64.4031 74.068C64.4856 73.0262 63.7267 72.6118 62.7829 72.6079C58.7051 72.5921 54.6272 72.5921 50.5494 72.6039C49.6567 72.6079 48.7995 72.8486 48.7837 73.9259C48.768 75.0191 49.6056 75.24 50.514 75.24C52.4802 75.244 54.4424 75.244 56.4047 75.244Z" fill="white"></path>
  <path d="M48.7121 52.8057C54.1741 52.8057 59.6401 52.8018 65.1022 52.8097C66.0381 52.8097 67.1116 52.5019 67.1116 54.1475C67.1077 55.8089 66.0066 55.4695 65.0904 55.4734C54.0876 55.4853 43.0849 55.4774 32.0822 55.4853C31.1266 55.4853 30.2969 55.5563 30.2969 54.1356C30.2969 52.6992 31.1581 52.8097 32.094 52.8097C37.6347 52.8176 43.1714 52.8136 48.7121 52.8136C48.7121 52.8136 48.7121 52.8097 48.7121 52.8057Z" fill="white"></path>
  <path d="M33.9205 71.2976C31.4274 71.2937 28.9343 71.2858 26.4411 71.2976C25.6114 71.3016 25.0098 71.2226 25.0098 70.098C25.0098 68.989 25.4187 68.6733 26.4726 68.6773C31.6122 68.7128 36.7518 68.7049 41.8874 68.6812C42.8469 68.6773 43.4407 68.8115 43.4525 70.0111C43.4643 71.2779 42.7565 71.3055 41.856 71.2976C39.2095 71.2937 36.563 71.3016 33.9205 71.2976Z" fill="white"></path>
  <path d="M30.1052 19.8378C28.4378 19.8378 26.7666 19.7865 25.0993 19.8575C23.9785 19.9049 23.6797 19.4353 23.6797 18.3777C23.6797 17.2648 24.2735 17.1583 25.1268 17.1622C28.5401 17.1819 31.9534 17.1977 35.3706 17.1662C36.3655 17.1583 36.8885 17.3595 36.9003 18.5355C36.9121 19.7747 36.2829 19.8654 35.3391 19.8457C33.5932 19.8141 31.8472 19.8378 30.1052 19.8378Z" fill="white"></path>
  <path d="M38.7136 11.9454C40.6129 11.9454 42.5083 11.9454 44.4077 11.9454C45.2492 11.9454 46.075 11.8191 46.0789 13.149C46.0789 14.3171 45.5559 14.5421 44.5532 14.5302C40.7584 14.4986 36.9598 14.5026 33.1651 14.5263C32.2095 14.5302 31.5724 14.396 31.5882 13.1845C31.6 11.9178 32.3589 11.9138 33.2476 11.9217C35.0683 11.9375 36.8929 11.9257 38.7136 11.9257C38.7136 11.9375 38.7136 11.9414 38.7136 11.9454Z" fill="white"></path>
  <path d="M57.3737 60.7216C55.4114 60.7216 53.4492 60.6861 51.4869 60.7334C50.4488 60.7571 50.0005 60.4335 50.0201 59.3127C50.0398 58.1959 50.6611 58.1289 51.483 58.1328C55.3328 58.1446 59.1825 58.1565 63.0323 58.1249C64.0587 58.117 64.5463 58.409 64.5227 59.5416C64.4991 60.6624 63.8542 60.7255 63.0323 60.7216C61.1487 60.7137 59.2612 60.7216 57.3737 60.7216Z" fill="white"></path>
  <path d="M32.2827 60.7215C30.3165 60.7215 28.3503 60.7018 26.3841 60.7294C25.4797 60.7413 25.0078 60.4966 25.0117 59.4508C25.0157 58.4485 25.401 58.1209 26.3487 58.1288C30.2811 58.1525 34.2135 58.1485 38.1458 58.1328C39.0503 58.1288 39.5339 58.3814 39.5418 59.4153C39.5497 60.4334 39.1053 60.7373 38.1812 60.7255C36.215 60.7018 34.2489 60.7176 32.2827 60.7215Z" fill="white"></path>
  <path d="M26.2042 14.5264C25.8267 14.5264 25.4492 14.5146 25.0756 14.5303C24.1948 14.5659 23.6836 14.3172 23.6836 13.2675C23.6836 12.2731 24.065 11.9021 25.0127 11.9455C25.7638 11.9771 26.5188 11.9258 27.2738 11.9574C28.0564 11.9889 28.9647 11.7285 29.0198 13.086C29.0749 14.4238 28.3592 14.5895 27.3368 14.5343C26.9592 14.5106 26.5817 14.5264 26.2042 14.5264Z" fill="white"></path>
  <path d="M44.8012 58.1486C45.3281 58.1486 45.859 58.1565 46.3859 58.1447C47.4083 58.121 47.3572 58.8353 47.3729 59.5377C47.3887 60.2362 47.2196 60.7177 46.3938 60.7058C45.5641 60.694 44.7343 60.7256 43.9046 60.7413C42.9805 60.7571 42.0996 60.8795 42.0957 59.4351C42.0918 57.9868 42.9726 58.1131 43.8928 58.1328C44.1956 58.1368 44.4945 58.1328 44.7972 58.1328C44.8012 58.1407 44.8012 58.1447 44.8012 58.1486Z" fill="white"></path>
  <path d="M25.1385 77.8959C24.2695 77.9866 23.6875 77.8367 23.6875 76.7357C23.6875 75.7254 23.8959 75.1927 25.056 75.2242C26.0194 75.2519 26.4048 75.5518 26.3812 76.5462C26.3536 77.4381 26.2042 78.0577 25.1385 77.8959Z" fill="white"></path>
  <path d="M35.4526 75.2639C36.3138 75.1731 36.9391 75.3231 36.8801 76.4281C36.8368 77.2173 36.9351 77.9513 35.7672 77.9276C34.8392 77.9079 34.1314 77.8803 34.2021 76.6293C34.2454 75.7453 34.383 75.1179 35.4526 75.2639Z" fill="white"></path>
  <path d="M30.304 75.2518C31.3382 75.1058 31.5899 75.6662 31.5977 76.5896C31.6095 77.5406 31.2871 77.9313 30.2883 77.9313C29.2816 77.9313 28.9749 77.5249 28.9867 76.5777C28.9985 75.6425 29.2855 75.1137 30.304 75.2518Z" fill="white"></path>
  <path d="M12.7227 40.8678C14.6849 40.8678 16.6472 40.8994 18.6055 40.856C19.5925 40.8323 19.9189 41.2269 19.9032 42.1977C19.8874 43.1685 19.5178 43.5316 18.5544 43.5237C14.6338 43.4921 10.7093 43.4842 6.78875 43.5276C5.66803 43.5395 5.40063 43.062 5.38883 42.028C5.37704 40.8915 6.01801 40.856 6.83987 40.8639C8.80212 40.8797 10.7604 40.8678 12.7227 40.8678Z" fill="white"></path>
  <path d="M8.018 30.3983C8.54887 30.3983 9.0758 30.4101 9.60667 30.3943C10.4875 30.3667 10.5465 30.9547 10.5308 31.6058C10.515 32.2925 10.5976 33.0383 9.56342 33.0383C8.72976 33.0383 7.90003 33.0462 7.06637 33.066C6.09508 33.0896 5.31254 33.066 5.30861 31.6769C5.30467 30.2049 6.20125 30.3785 7.10569 30.3825C7.40848 30.3864 7.71128 30.3825 8.01407 30.3825C8.018 30.3904 8.018 30.3943 8.018 30.3983Z" fill="white"></path>
  <path d="M26.338 37.0399C26.4953 38.1369 25.8425 38.2632 24.9735 38.283C23.9825 38.3027 23.6915 37.8844 23.6837 36.9294C23.6758 35.8599 24.2145 35.6981 25.0915 35.6863C26.0746 35.6745 26.4914 36.073 26.338 37.0399Z" fill="white"></path>
  <path d="M14.5878 38.2708C13.7345 38.3418 13.1604 38.1682 13.1761 37.0751C13.1879 36.1516 13.3924 35.6544 14.4266 35.686C15.2838 35.7136 15.8737 35.8359 15.8737 36.9133C15.8698 37.8565 15.622 38.3853 14.5878 38.2708Z" fill="white"></path>
  <path d="M10.5173 37.044C10.6745 38.1016 10.0768 38.2634 9.18811 38.295C8.1657 38.3305 7.9219 37.8925 7.92583 36.9532C7.92976 35.9509 8.33479 35.6667 9.28249 35.6786C10.2695 35.6904 10.647 36.089 10.5173 37.044Z" fill="white"></path>
  <path d="M21.029 37.0044C21.1667 38.0383 20.6319 38.2751 19.7038 38.279C18.6421 38.283 18.4966 37.7147 18.4809 36.8505C18.4651 35.931 18.9291 35.7139 19.7313 35.6942C20.683 35.6666 21.1706 36.002 21.029 37.0044Z" fill="white"></path>
</svg>
