<svg width="22" height="22" viewBox="0 0 22 22" fill="none" xmlns="http://www.w3.org/2000/svg">
<path fill-rule="evenodd" clip-rule="evenodd" d="M17.8305 1.21828C17.5299 1.04234 17.1454 1.14675 16.9718 1.45148L15.0494 4.82751C13.7397 4.21446 12.384 3.90101 11.0116 3.90101C7.32409 3.90101 3.75692 6.16534 0.880363 10.4221L0.868955 10.4388L0.858976 10.4533C0.76316 10.5904 0.760714 10.7518 0.858497 10.8874C2.98114 14.0403 5.48239 16.1052 8.1313 16.9731L6.59991 19.6606C6.4263 19.9654 6.52932 20.355 6.82996 20.5309L7.10215 20.6902C7.40279 20.8661 7.78721 20.7618 7.9608 20.457L18.3327 2.24788C18.5063 1.94315 18.4033 1.55351 18.1026 1.37756L17.8305 1.21828ZM14.2156 6.29153C13.1496 5.82222 12.0732 5.59346 11.0116 5.59346C8.33229 5.59346 5.55869 7.05058 3.09541 10.1548C2.85894 10.4528 2.85894 10.8872 3.09541 11.1852C4.94187 13.5122 6.96265 14.914 8.98742 15.4702L10.0462 13.6114C8.83672 13.2256 7.83661 12.1495 7.83661 10.6717C7.83661 8.80232 9.26941 7.28674 11.0366 7.28674C11.8523 7.28674 12.5968 7.60967 13.162 8.14122L14.2156 6.29153ZM12.2882 9.67533C12.016 9.2534 11.5686 8.97919 11.0366 8.97919C10.1522 8.97919 9.42899 9.73575 9.42899 10.6704C9.42899 11.2882 10.0915 12.01 10.9237 12.0707L12.2882 9.67533Z" fill="black"/>
<path d="M11.54 17.4245C15.0316 17.2192 18.3901 14.9829 21.125 10.9462C21.1823 10.8616 21.2143 10.7742 21.2143 10.6701C21.2143 10.571 21.1868 10.4882 21.1323 10.4076C20.0812 8.85358 18.9377 7.56591 17.7298 6.55762L16.8976 8.01876C17.5911 8.61598 18.2703 9.32681 18.9274 10.1549C19.1639 10.4529 19.1639 10.8873 18.9274 11.1853C16.946 13.6824 14.7638 15.1141 12.5914 15.5787L11.54 17.4245Z" fill="black"/>
</svg>
