<svg width="104" height="65" viewBox="0 0 104 65" fill="none" xmlns="http://www.w3.org/2000/svg">
<path d="M101.85 8.59818H94.7678C94.1827 7.15175 93.215 5.89181 91.9684 4.95339C90.7219 4.01496 89.2435 3.43344 87.6917 3.27114C86.1398 3.10884 84.5731 3.37188 83.1593 4.03207C81.7456 4.69227 80.5382 5.72472 79.6664 7.01879C78.7947 8.31285 78.2916 9.81974 78.2109 11.3779C78.1302 12.9361 78.4751 14.4869 79.2086 15.8641C79.942 17.2412 81.0364 18.3928 82.3744 19.1955C83.7125 19.9981 85.2437 20.4215 86.804 20.4203C87.5485 20.419 88.2895 20.3178 89.0072 20.1194C89.176 21.4977 89.7848 22.7847 90.7432 23.7896C91.7015 24.7944 92.9584 25.4634 94.3271 25.6973V58.0361C94.3271 58.6062 94.1007 59.1529 93.6976 59.556C93.2945 59.9591 92.7477 60.1856 92.1777 60.1856C91.6076 60.1856 91.0608 59.9591 90.6577 59.556C90.2546 59.1529 90.0282 58.6062 90.0282 58.0361V36.5414C90.0282 35.4012 89.5753 34.3078 88.769 33.5015C87.9628 32.6953 86.8694 32.2424 85.7292 32.2424C84.5891 32.2424 83.4956 32.6953 82.6894 33.5015C81.8832 34.3078 81.4303 35.4012 81.4303 36.5414V56.9614C81.4277 57.8157 81.0872 58.6343 80.4831 59.2384C79.879 59.8425 79.0604 60.183 78.2061 60.1856H76.0566C76.0549 59.616 75.8279 59.0703 75.4251 58.6676C75.0224 58.2648 74.4767 58.0378 73.9071 58.0361H73.4557L66.083 45.1393H73.9071V47.2887H76.0566V40.8403H73.9071V42.9898H73.4127L69.7479 37.4979C69.5509 37.2027 69.2839 36.9608 68.9708 36.7939C68.6576 36.627 68.3079 36.5402 67.9531 36.5414H65.3092V32.2424H73.9071V34.3919H76.0566V27.9435H73.9071V30.0929H73.4127L69.7479 24.601C69.5509 24.3058 69.2839 24.064 68.9708 23.8971C68.6576 23.7302 68.3079 23.6434 67.9531 23.6445H65.3092V19.3456H73.9071V21.495H76.0566V15.0466H73.9071V17.1961H73.4127L69.7479 11.7042C69.5509 11.409 69.2839 11.1671 68.9708 11.0002C68.6576 10.8333 68.3079 10.7465 67.9531 10.7477H65.3092V8.59818H65.6101C66.0617 8.59713 66.5016 8.45451 66.8679 8.19039C67.2342 7.92627 67.5085 7.55394 67.6521 7.12579L69.0815 2.82684C69.1906 2.50364 69.2208 2.15907 69.1698 1.82181C69.1188 1.48455 68.988 1.16435 68.7882 0.887863C68.5885 0.611371 68.3256 0.38658 68.0214 0.232197C67.7173 0.0778143 67.3806 -0.0016969 67.0395 0.000280127H52.8315C52.4904 -0.0016969 52.1538 0.0778143 51.8496 0.232197C51.5455 0.38658 51.2826 0.611371 51.0828 0.887863C50.8831 1.16435 50.7523 1.48455 50.7012 1.82181C50.6502 2.15907 50.6805 2.50364 50.7895 2.82684L52.2189 7.12579C52.3625 7.55394 52.6368 7.92627 53.0031 8.19039C53.3694 8.45451 53.8093 8.59713 54.2609 8.59818H54.5618V10.7477H51.8427C51.5268 10.746 51.2144 10.8146 50.9282 10.9484C50.6419 11.0822 50.389 11.278 50.1876 11.5215L45.9639 16.5942V15.0466H43.8145V21.495H45.9639V19.3456H54.5618V23.6445H51.8427C51.5268 23.6429 51.2144 23.7114 50.9282 23.8453C50.6419 23.9791 50.389 24.1748 50.1876 24.4183L45.9639 29.4911V27.9435H43.8145V34.3919H45.9639V32.2424H54.5618V36.5414H51.8427C51.5268 36.5397 51.2144 36.6083 50.9282 36.7421C50.6419 36.8759 50.389 37.0717 50.1876 37.3152L45.9639 42.3879V40.8403H43.8145V47.2887H45.9639V45.1393H53.788L46.4153 58.0361H45.9639C45.3944 58.0378 44.8486 58.2648 44.4459 58.6676C44.0432 59.0703 43.8162 59.616 43.8145 60.1856V62.3351C43.8162 62.9046 44.0432 63.4504 44.4459 63.8531C44.8486 64.2558 45.3944 64.4828 45.9639 64.4846H73.9071C74.4767 64.4828 75.0224 64.2558 75.4251 63.8531C75.8279 63.4504 76.0549 62.9046 76.0566 62.3351H78.2061C78.9117 62.3351 79.6105 62.1961 80.2625 61.926C80.9145 61.656 81.5068 61.2601 82.0058 60.7612C82.5048 60.2622 82.9007 59.6698 83.1707 59.0178C83.4408 58.3658 83.5798 57.6671 83.5798 56.9614V36.5414C83.5798 35.9713 83.8062 35.4246 84.2093 35.0215C84.6124 34.6184 85.1591 34.3919 85.7292 34.3919C86.2993 34.3919 86.846 34.6184 87.2491 35.0215C87.6522 35.4246 87.8787 35.9713 87.8787 36.5414V58.0361C87.8787 59.1763 88.3316 60.2697 89.1378 61.0759C89.944 61.8821 91.0375 62.3351 92.1777 62.3351C93.3178 62.3351 94.4113 61.8821 95.2175 61.0759C96.0237 60.2697 96.4766 59.1763 96.4766 58.0361V25.6973C97.9774 25.4421 99.3398 24.6647 100.323 23.5025C101.306 22.3402 101.847 20.8679 101.85 19.3456V15.0466C102.42 15.0449 102.966 14.8179 103.368 14.4152C103.771 14.0124 103.998 13.4667 104 12.8971V10.7477C103.998 10.1781 103.771 9.63237 103.368 9.22963C102.966 8.82689 102.42 8.59988 101.85 8.59818ZM70.9838 58.0361H67.8456L61.6121 52.8451L65.6961 49.4382H66.0723L70.9838 58.0361ZM59.6131 36.5414L63.1597 33.4999V36.5414H59.6131ZM63.1597 38.6908V41.9151L58.8608 38.6908H63.1597ZM59.6131 23.6445L63.1597 20.603V23.6445H59.6131ZM63.1597 25.794V29.0182L58.8608 25.794H63.1597ZM56.7113 10.7477V8.59818H63.1597V10.7477H56.7113ZM63.1597 12.8971V16.1213L58.8608 12.8971H63.1597ZM61.0103 17.1961H56.7113V13.9719L61.0103 17.1961ZM61.3327 19.3456L56.7113 23.3006V19.3456H61.3327ZM61.0103 30.0929H56.7113V26.8687L61.0103 30.0929ZM61.3327 32.2424L56.7113 36.1974V32.2424H61.3327ZM61.0103 42.9898H56.7113V39.7656L61.0103 42.9898ZM63.6111 45.1393L64.8363 47.2887H55.0347L56.2599 45.1393H63.6111ZM62.3429 49.4382L59.9355 51.4372L57.5281 49.4382H62.3429ZM64.4924 58.0361H55.3786L59.9355 54.2423L64.4924 58.0361ZM67.9531 38.6908L70.8226 42.9898H65.3092V38.6908H67.9531ZM67.9531 25.794L70.8226 30.0929H65.3092V25.794H67.9531ZM67.9531 12.8971L70.8226 17.1961H65.3092V12.8971H67.9531ZM54.2609 6.44871L52.8315 2.14976H67.0395L65.6101 6.44871H54.2609ZM48.2639 17.1961L51.8427 12.8971H54.5618V17.1961H48.2639ZM48.2639 30.0929L51.8427 25.794H54.5618V30.0929H48.2639ZM48.2639 42.9898L51.8427 38.6908H54.5618V42.9898H48.2639ZM53.7988 49.4382H54.1749L58.2589 52.8451L52.0254 58.0361H48.8872L53.7988 49.4382ZM73.9071 62.3351H45.9639V60.1856H73.9071V62.3351ZM86.804 18.2708C85.5286 18.2708 84.2818 17.8926 83.2214 17.1841C82.161 16.4755 81.3345 15.4684 80.8464 14.2901C80.3583 13.1118 80.2306 11.8152 80.4794 10.5644C80.7283 9.3135 81.3424 8.1645 82.2442 7.26267C83.1461 6.36084 84.2951 5.74669 85.5459 5.49787C86.7968 5.24906 88.0934 5.37676 89.2717 5.86483C90.45 6.35289 91.4571 7.1794 92.1656 8.23984C92.8742 9.30028 93.2524 10.547 93.2524 11.8224C93.2524 13.5326 92.573 15.1728 91.3637 16.3821C90.1544 17.5914 88.5142 18.2708 86.804 18.2708ZM99.7008 19.3456C99.7008 20.4857 99.2479 21.5792 98.4417 22.3854C97.6355 23.1916 96.542 23.6445 95.4019 23.6445C94.2617 23.6445 93.1683 23.1916 92.362 22.3854C91.5558 21.5792 91.1029 20.4857 91.1029 19.3456V19.2596C92.7563 18.2985 94.045 16.8171 94.7678 15.0466H99.7008V19.3456ZM101.85 12.8971H95.3266C95.3735 12.5407 95.3986 12.1818 95.4019 11.8224C95.3986 11.463 95.3735 11.104 95.3266 10.7477H101.85V12.8971Z" fill="white"/>
<path d="M88.9538 10.7493H86.8043L88.7388 8.16993L87.0192 6.88025L83.795 11.1792C83.6753 11.3389 83.6023 11.5287 83.5844 11.7275C83.5665 11.9263 83.6043 12.1262 83.6935 12.3047C83.7828 12.4832 83.92 12.6333 84.0898 12.7383C84.2596 12.8432 84.4552 12.8988 84.6548 12.8988H86.8043L84.8698 15.4782L86.5893 16.7678L89.8136 12.4689C89.9333 12.3092 90.0062 12.1193 90.0242 11.9206C90.0421 11.7218 90.0043 11.5219 89.915 11.3434C89.8258 11.1649 89.6886 11.0147 89.5188 10.9098C89.349 10.8049 89.1534 10.7493 88.9538 10.7493Z" fill="white"/>
<path fill-rule="evenodd" clip-rule="evenodd" d="M35.1289 48.7572H40.0293V51.6056H35.1289V48.7572Z" fill="white"/>
<path fill-rule="evenodd" clip-rule="evenodd" d="M38.3897 44.0748L36.6702 45.4965L37.5604 46.0297L36.374 47.69L38.7452 45.9704L37.9751 45.3781L38.3897 44.0748Z" fill="white"/>
<path fill-rule="evenodd" clip-rule="evenodd" d="M6.92898 59.4217H21.3256L19.9039 60.0733H23.8728C24.406 60.488 25.0576 60.7842 25.7684 60.7842C26.3016 60.7842 26.7755 60.6064 27.0124 60.1918C27.1901 59.8364 27.3679 59.7771 27.5456 59.6587C27.664 59.5994 27.7825 59.5994 27.901 59.4217C27.901 57.6445 27.9602 55.8082 27.9602 54.0293C27.9602 53.2592 26.657 51.6598 26.0646 51.1859L22.5103 44.964C22.2141 44.4309 21.8587 43.957 21.2071 43.957H7.166C6.45514 43.957 6.09974 44.3124 5.74429 44.964L2.19 51.1859C1.7161 51.6005 1.24219 52.1337 0.946011 52.6668C0.531342 53.2592 0.294381 53.7923 0.294381 54.0293C0.353617 55.8065 0.353617 57.6428 0.353617 59.4217C0.472093 59.5994 0.59057 59.5994 0.709046 59.6587C0.886762 59.7771 1.06447 59.8364 1.24218 60.1918C1.53837 60.6065 1.95304 60.7842 2.48617 60.7842C3.19703 60.7842 3.84865 60.488 4.38179 60.0733H8.4692L6.92898 59.4217ZM32.9971 63.2721H42.1214V61.1988H41.4697V42.417H33.6488V53.4369H32.8787C32.0494 53.4369 31.457 53.4961 31.457 54.5624C31.3978 56.8135 31.3978 59.0647 31.3978 61.3765C31.3978 61.7319 31.3978 62.2059 30.8647 62.2059C30.213 62.2059 30.213 61.8504 30.213 61.2581L30.2723 53.2594C30.2723 51.7784 29.3245 51.5415 28.2582 51.5415H27.8435V51.1861H26.5403C26.481 51.1268 26.4218 51.0083 26.3625 51.0083L22.749 44.7865C22.3936 44.1941 21.9789 43.661 21.2089 43.661H7.1678C6.27922 43.661 5.92381 44.0756 5.50913 44.7865L1.89562 51.0083C1.48095 51.3638 1.00704 51.9562 0.65163 52.4893C0.414677 52.8447 0 53.6148 0 54.0295C0 55.8658 0.0592402 57.7022 0.0592402 59.4808C0.177716 59.777 0.296193 59.8363 0.592373 59.9547C0.888565 60.1325 0.888565 60.2509 1.00704 60.4286V62.6797C1.00704 62.9167 1.24399 63.0944 1.48095 63.0944H1.77713V62.6205H2.07333V63.0944H2.60646V62.6205H2.90265V63.0944H3.43578V62.6205H3.73198V63.0944H3.96893C4.20588 63.0944 4.38359 62.9167 4.38359 62.6797V60.4879C4.44283 60.4879 4.44283 60.4287 4.50207 60.4287H23.7578C23.817 60.4287 23.817 60.4879 23.8762 60.4879V62.6797C23.8762 62.9167 24.054 63.0944 24.2909 63.0944H24.5279V62.6205H24.8241V63.0944H25.4164V62.6205H25.7126V63.0944H26.2457V62.6205H26.5419V63.0944H26.7789C27.0158 63.0944 27.2528 62.9167 27.2528 62.6797V60.4286C27.4305 60.2509 27.3713 60.1325 27.6675 59.9547C27.9636 59.8363 28.0821 59.777 28.2006 59.4808C28.2598 57.7037 28.2598 55.8673 28.2598 54.0884C28.2598 53.6145 27.9636 53.0222 27.549 52.4298H27.8451V51.9559H28.2598C29.0892 51.9559 29.9185 52.1336 29.8593 53.2591L29.8 61.2578C29.8 62.0871 29.9777 62.6203 30.9256 62.6203C31.6364 62.561 31.8141 61.9686 31.8141 61.3763V54.5622C31.8141 53.7921 32.288 53.7921 32.8804 53.7921H33.6505V61.1985H32.9989V63.2718L32.9971 63.2721ZM41.1146 61.1988H34.0043V53.7924H36.907V54.5625H38.2102V52.3114H36.907V53.3777H34.0043V42.7133H41.1146V61.1988ZM1.83313 57.4075L5.38742 58.3554H22.8659L26.4202 57.4075C26.6571 57.3483 26.8348 57.763 26.8348 57.9999C26.8348 58.2368 27.0125 59.0069 26.7756 59.4809C26.4794 59.9548 25.9462 60.1917 25.1761 60.014C24.5838 59.8955 23.5175 59.0662 22.9843 58.6515L21.7996 59.1254H6.69234L5.27063 58.6515C4.79672 59.0662 3.67119 59.8955 3.07883 60.014C2.30874 60.1917 1.77557 59.9547 1.47939 59.4809C1.24244 59.0069 1.42015 58.2369 1.42015 57.9999C1.42015 57.763 1.59787 57.3483 1.83482 57.4075H1.83313ZM2.48476 52.313L7.04604 54.9194C8.29003 56.1042 2.60313 54.6825 2.18862 54.6233C0.352231 54.4455 2.0701 52.2537 2.48476 52.313ZM25.7684 52.313L21.2072 54.9194C20.0224 56.1042 25.7095 54.6825 26.0646 54.6233C27.901 54.4455 26.1831 52.2537 25.7684 52.313ZM7.10502 55.8673H21.1461L19.6651 57.9406H8.76364L7.10502 55.8673ZM4.85395 60.6063H23.3986V61.3172H4.85395V60.6063ZM7.22347 44.3124C6.74957 44.3124 6.45339 44.7863 6.27566 45.1418L3.49146 50.2363C10.2462 52.132 18.0064 52.132 24.7612 50.2363L22.0362 45.1418C21.7992 44.7863 21.503 44.3124 21.0291 44.3124H7.22482H7.22347Z" fill="white"/>
</svg>
