<svg width="83" height="91" viewBox="0 0 83 91" fill="none" xmlns="http://www.w3.org/2000/svg">
<path d="M72.9025 89.2931C72.9025 90.0861 72.2619 90.7267 71.4689 90.7267H59.0389C58.2459 90.7267 57.6053 90.0861 57.6053 89.2931C57.6053 88.5001 58.2459 87.8595 59.0389 87.8595H61.9608C63.2069 88.1173 64.4999 88.254 65.8202 88.254C67.1444 88.254 68.4374 88.1173 69.6835 87.8595H71.4647C72.2577 87.8595 72.8983 88.5001 72.8983 89.2931H72.9025ZM54.8865 84.7814L38.6955 76.6447L16.3795 87.8597H18.3522C19.1452 87.8597 19.7858 88.5003 19.7858 89.2933C19.7858 90.0863 19.1452 90.7269 18.3522 90.7269H5.9222C5.12923 90.7269 4.4886 90.0863 4.4886 89.2933C4.4886 88.5003 5.12922 87.8597 5.9222 87.8597H9.2308L20.1448 44.8907H4.3438V46.7774C5.22661 47.2774 5.8204 48.2227 5.8204 49.3086C5.8204 50.9141 4.5157 52.2188 2.9102 52.2188C1.3047 52.2188 0 50.9141 0 49.3086C0 48.2227 0.593751 47.2774 1.4766 46.7774V43.4571C1.4766 43.4297 1.4766 43.4063 1.48051 43.3829C1.49222 43.1446 1.56254 42.9063 1.70317 42.6876L1.71098 42.6758L1.73051 42.6485C1.73832 42.6368 1.74614 42.6251 1.75395 42.6172L1.76176 42.6094C1.77348 42.5938 1.78129 42.5821 1.79301 42.5704L10.7032 29.6014C10.9688 29.2107 11.4102 28.9725 11.8868 28.9725H24.1988L26.6168 19.453H16.9059V21.3671C17.7731 21.8631 18.359 22.8007 18.359 23.8749C18.359 25.4687 17.066 26.7616 15.4723 26.7616C13.8786 26.7616 12.5856 25.4686 12.5856 23.8749C12.5856 22.8046 13.1715 21.8671 14.0387 21.3671V18.0312C14.0348 17.8124 14.0856 17.5858 14.191 17.3749L14.2028 17.3554L14.2106 17.3397C14.2184 17.3241 14.2262 17.3124 14.234 17.3007C14.2418 17.2851 14.2496 17.2694 14.2614 17.2538L23.1598 0.75781C23.4098 0.29297 23.8941 0 24.4215 0H52.9685C53.5466 0 54.0466 0.34375 54.2732 0.83984L63.1482 17.2538C63.2888 17.4765 63.3669 17.7382 63.3669 18.0156V21.3633C64.2341 21.8594 64.82 22.7969 64.82 23.8711C64.82 25.4649 63.527 26.7578 61.9333 26.7578C60.3396 26.7578 59.0466 25.4648 59.0466 23.8711C59.0466 22.8008 59.6326 21.8633 60.4997 21.3633V19.4492H50.7888L53.2068 28.9687H65.5188C66.0423 28.9687 66.5032 29.2499 66.7532 29.6718L75.6126 42.5668C75.804 42.809 75.9212 43.1215 75.9212 43.4535V46.7738C76.804 47.2738 77.3978 48.2191 77.3978 49.305C77.3978 50.9105 76.0931 52.2152 74.4876 52.2152C72.8821 52.2152 71.5774 50.9105 71.5774 49.305C71.5774 48.2191 72.1712 47.2738 73.054 46.7738V44.8871H57.253L58.9639 51.6293C55.6006 52.9379 52.7022 55.1762 50.5889 58.0316L41.878 62.4105L47.3311 65.1527C47.1124 66.1215 46.9717 67.1215 46.9092 68.1371L38.6944 64.0082L29.3038 68.727L38.6944 73.4458L46.8702 69.3364C46.8741 70.3833 46.9601 71.4067 47.1241 72.4067L41.8741 75.0473L49.4483 78.8559C50.8155 81.1997 52.6749 83.2231 54.8819 84.7856L54.8865 84.7814ZM48.0857 56.0934L38.6951 51.3746L29.3045 56.0934L38.6951 60.8122L48.0857 56.0934ZM38.6951 38.7384L32.1599 42.0236H45.2339L38.6987 38.7384H38.6951ZM38.6951 35.5431L46.0545 31.8439H31.3315L38.6909 35.5431H38.6951ZM32.1599 44.8947L38.6951 48.1799L45.2303 44.8947H32.1563H32.1599ZM26.1247 45.0587L22.6091 46.8243L21.281 52.0626L26.1248 54.4962L35.5154 49.7774L26.1247 45.0587ZM56.1127 52.0626L54.7846 46.8243L51.269 45.0587L41.8784 49.7775L51.269 54.4963L56.1127 52.0626ZM53.9369 31.8436L56.5228 42.0236H71.7648L64.7726 31.8436H53.9369ZM41.8779 37.1405L51.2685 41.8593L53.2685 40.8554L51.1435 32.4843L41.8779 37.1405ZM50.3818 16.5855H59.5341L52.12 2.87054H50.3817L50.3818 16.5855ZM47.5146 15.0191V4.43714L40.9755 9.72624L47.5146 15.0153V15.0191ZM38.6982 11.5699L32.4951 16.5855H44.8971L38.694 11.5699H38.6982ZM32.4951 2.87464L38.6982 7.89024L44.9013 2.87464H32.4951ZM29.8818 15.0226L36.4209 9.73354L29.8818 4.44444V15.0264V15.0226ZM27.1435 28.9756H50.2485L47.8305 19.4561H29.5605L27.1435 28.9756ZM27.0107 16.5886L27.0068 2.86564H25.2685L17.8544 16.5806H27.0067L27.0107 16.5886ZM24.124 40.8586L26.124 41.8625L35.5146 37.1437L26.249 32.4875L24.124 40.8586ZM20.8701 42.0266L23.456 31.8466H12.62L5.62779 42.0266H20.8701ZM19.8623 57.6436L22.9443 56.0928L20.5615 54.8936L19.8623 57.6397L19.8623 57.6436ZM18.4326 63.2686L26.124 67.1319L35.5146 62.4131L26.124 57.6943L18.9326 61.3076L18.4365 63.2685L18.4326 63.2686ZM16.1826 72.128L22.9443 68.7296L17.7138 66.1007L16.1826 72.128ZM35.5146 75.0499L26.124 70.3311L15.253 75.7959L12.5069 86.6159L35.5189 75.0539L35.5146 75.0499ZM82.6236 69.3077C82.6236 78.5616 75.0767 86.1087 65.8226 86.1087C56.5685 86.1087 49.0216 78.5618 49.0216 69.3077C49.0216 60.0538 56.5685 52.5067 65.8226 52.5067C75.0767 52.5067 82.6236 60.0536 82.6236 69.3077ZM74.1822 64.9639H66.8853L70.772 58.2334H64.2837L57.4673 69.9994H63.9048L60.2134 80.3864L74.1822 64.9639Z" fill="black"/>
</svg>
