<svg width="89" height="85" viewBox="0 0 89 85" fill="none" xmlns="http://www.w3.org/2000/svg">
<path fill-rule="evenodd" clip-rule="evenodd" d="M70.4846 1.54021L62.7619 9.26284L60.2212 9.0547C58.7499 8.93628 57.3001 9.46739 56.2522 10.5081L50.4961 16.2283C49.8215 16.8994 49.4411 17.8074 49.4411 18.7547C49.4375 19.7057 49.8107 20.6136 50.4818 21.2882L50.6074 21.4139L48.1635 23.8577C48.0451 23.9762 47.9482 24.1197 47.8764 24.274L44.2089 32.2694C43.9577 32.8149 44.0725 33.4608 44.496 33.8843C44.9194 34.3077 45.5654 34.4226 46.1108 34.1749L54.1062 30.5038C54.2641 30.4356 54.4041 30.3351 54.5225 30.2167L58.1721 26.5706C57.6159 27.9056 57.8814 29.5025 58.9652 30.5899C58.9688 30.5899 58.9688 30.5899 58.9724 30.5935C60.4078 32.0289 62.7369 32.0289 64.1759 30.5935L64.5061 30.2597C65.353 32.4703 68.109 37.7743 75.1646 38.1224C75.0641 39.4717 75.9326 40.7421 77.2855 41.1045L81.2761 42.1739C82.8084 42.583 84.3802 41.6751 84.7929 40.1428L88.9019 24.8017C89.311 23.2694 88.403 21.6976 86.8707 21.2885L82.8802 20.2191C81.9615 19.9715 81.0249 20.2011 80.3359 20.7574L78.5344 16.3685C78.1074 15.3279 77.422 14.4163 76.5427 13.7166L73.4673 11.2764L76.8441 7.89948C77.9638 6.77621 77.9638 4.96043 76.8441 3.84074L74.5439 1.54045C73.4206 0.41718 71.6042 0.416935 70.4846 1.54021ZM78.0278 38.3344L82.0183 39.4038L86.1309 24.0591L82.1403 22.9896L78.0278 38.3344ZM71.4212 13.3186L65.5359 19.2076L71.1377 24.8094C71.6976 25.3693 71.6976 26.2772 71.1377 26.8405C70.5779 27.4004 69.6664 27.4004 69.1066 26.8405L63.1065 20.8404C62.6113 20.3416 61.8038 20.3416 61.3051 20.8404V20.844C60.8063 21.3393 60.8063 22.1467 61.3051 22.6455L66.5982 27.9422C66.7849 28.1253 66.914 28.3585 66.9786 28.6097C66.9786 28.6097 68.6545 35.2271 75.8748 35.2702L78.7636 24.494L75.8748 17.4567C75.6379 16.8718 75.2504 16.3586 74.7551 15.9639L71.4212 13.3186ZM63.0058 17.6716L70.9223 9.75875L68.6256 7.45846L53.787 22.2933C53.7476 22.3472 53.7045 22.3974 53.6578 22.4441C53.6112 22.4907 53.561 22.5338 53.5107 22.5732L50.3778 25.7061L48.4292 29.9515L52.6781 28.0028L58.1364 22.5446C57.8816 21.2347 58.2584 19.8245 59.274 18.8124V18.8088C60.2896 17.7968 61.6996 17.4169 63.0058 17.6716ZM61.5058 26.9053L60.9962 27.4149C60.6804 27.7307 60.6804 28.2439 60.9962 28.5597C60.9962 28.5597 60.9998 28.5597 60.9998 28.5633C61.3156 28.8791 61.8288 28.8791 62.1446 28.5633L62.6542 28.0573L61.5058 26.9053ZM60.0954 11.9262L59.9914 11.9154C59.3526 11.8652 58.7282 12.0949 58.276 12.5434L52.5199 18.2673C52.3835 18.3965 52.3118 18.5759 52.3118 18.7625C52.3082 18.9527 52.3835 19.1321 52.5163 19.2649L52.6383 19.3869L60.0954 11.9262ZM70.6529 5.42725L72.9532 7.72754L74.8121 5.86867L72.5118 3.56839L70.6529 5.42725Z" fill="white"/>
<path fill-rule="evenodd" clip-rule="evenodd" d="M53.1839 47.7972H52.2257C51.1132 47.7972 50.0474 48.2386 49.2614 49.0245C48.4755 49.8104 48.0342 50.8762 48.0342 51.9887V57.1814C48.0342 57.9745 48.6765 58.6168 49.4696 58.6168C50.2627 58.6168 50.9051 57.9745 50.9051 57.1814V51.9887C50.9051 51.637 51.0414 51.3033 51.2926 51.0557C51.5367 50.8081 51.874 50.6681 52.2256 50.6681H69.0127C69.3608 50.6681 69.6982 50.8081 69.9458 51.0557C70.1934 51.3033 70.3333 51.6371 70.3333 51.9887V77.3425C70.3333 77.6942 70.1934 78.0315 69.9458 78.2755C69.6981 78.5267 69.3608 78.6631 69.0127 78.6631H52.2256C51.874 78.6631 51.5366 78.5267 51.2926 78.2755C51.0414 78.0315 50.9051 77.6942 50.9051 77.3425V70.1007C50.9051 69.3077 50.2627 68.6653 49.4696 68.6653C48.6765 68.6653 48.0342 69.3077 48.0342 70.1007V77.3425C48.0342 78.455 48.4756 79.5208 49.2614 80.3067C50.0474 81.0927 51.1131 81.534 52.2257 81.534H69.0128C70.1252 81.534 71.1875 81.0926 71.977 80.3067C72.7593 79.5208 73.2042 78.4551 73.2042 77.3425V76.3843H74.1624C75.2749 76.3843 76.3407 75.9429 77.1267 75.1571C77.9126 74.3712 78.3539 73.3054 78.3539 72.1929V46.8354C78.3539 45.7265 77.9125 44.6571 77.1267 43.8747C76.3407 43.0852 75.275 42.6475 74.1624 42.6475H57.3753C56.2629 42.6475 55.1971 43.0853 54.4111 43.8747C53.6252 44.657 53.1839 45.7264 53.1839 46.8354V47.7972ZM73.2047 73.513H74.1629C74.5146 73.513 74.8483 73.373 75.0959 73.1254C75.3435 72.8778 75.4835 72.5405 75.4835 72.1924V46.8349C75.4835 46.4868 75.3435 46.1495 75.0959 45.9019C74.8483 45.6543 74.5146 45.5179 74.1629 45.5179H57.3758C57.0277 45.5179 56.6904 45.6543 56.4428 45.9019C56.1952 46.1495 56.0552 46.4869 56.0552 46.8349V47.7967H69.0132C70.1257 47.7967 71.1879 48.2381 71.9775 49.024C72.7598 49.8099 73.2047 50.8757 73.2047 51.9882L73.2047 73.513Z" fill="white"/>
<path fill-rule="evenodd" clip-rule="evenodd" d="M67.0041 55.746H54.2362C53.4431 55.746 52.8008 56.3919 52.8008 57.185C52.8008 57.9781 53.4431 58.6204 54.2362 58.6204H67.0041C67.7972 58.6204 68.4395 57.9781 68.4395 57.185C68.4395 56.3919 67.7972 55.746 67.0041 55.746Z" fill="white"/>
<path fill-rule="evenodd" clip-rule="evenodd" d="M67.0041 63.2281H54.2362C53.4431 63.2281 52.8008 63.8705 52.8008 64.6636C52.8008 65.4567 53.4431 66.1026 54.2362 66.1026H67.0041C67.7972 66.1026 68.4395 65.4567 68.4395 64.6636C68.4395 63.8705 67.7972 63.2281 67.0041 63.2281Z" fill="white"/>
<path fill-rule="evenodd" clip-rule="evenodd" d="M67.0041 70.7104H54.2362C53.4431 70.7104 52.8008 71.3528 52.8008 72.1459C52.8008 72.939 53.4431 73.5813 54.2362 73.5813H67.0041C67.7972 73.5813 68.4395 72.939 68.4395 72.1459C68.4395 71.3528 67.7972 70.7104 67.0041 70.7104Z" fill="white"/>
<path fill-rule="evenodd" clip-rule="evenodd" d="M38.272 28.6852C38.2756 27.9065 38.2756 27.117 38.272 26.3383C38.272 25.5452 37.6297 24.9028 36.8366 24.9028C36.0435 24.9028 35.4011 25.5452 35.4011 26.3383C35.3975 27.117 35.3975 27.9065 35.4011 28.6852C35.4011 29.4783 36.0471 30.1207 36.8366 30.1207C37.6261 30.1207 38.272 29.4783 38.272 28.6852Z" fill="white"/>
<path fill-rule="evenodd" clip-rule="evenodd" d="M18.15 46.7998V49.8034C15.8604 50.4314 14.1774 52.5308 14.1774 55.0177C14.1774 57.5045 15.8604 59.6039 18.15 60.2319V65.6902C15.8604 66.3218 14.1774 68.4176 14.1774 70.9044C14.1774 73.3913 15.8604 75.4907 18.15 76.1187V82.8222C18.15 83.6117 18.7923 84.2577 19.5854 84.2577C20.3785 84.2577 21.0208 83.6117 21.0208 82.8222V76.1187C23.3104 75.4907 24.9934 73.3913 24.9934 70.9044C24.9934 68.4176 23.3104 66.3218 21.0208 65.6902V60.2319C23.3104 59.6039 24.9934 57.5045 24.9934 55.0177C24.9934 52.5308 23.3104 50.4314 21.0208 49.8034V46.7998L36.4336 39.5328C37.5533 39.0053 38.271 37.8749 38.271 36.6368V34.297C38.271 33.504 37.6286 32.8616 36.8355 32.8616C36.0424 32.8616 35.4001 33.504 35.4001 34.297V36.6368C35.4001 36.766 35.3247 36.8809 35.2063 36.9383L21.0209 43.6274V26.4701L35.4001 19.6912V22.031C35.4001 22.8241 36.0425 23.4664 36.8356 23.4664C37.6286 23.4664 38.271 22.8241 38.271 22.031V18.55C38.271 17.3083 37.5533 16.1816 36.4336 15.6505L20.952 8.35126C20.0836 7.94574 19.0823 7.94574 18.2174 8.35126C15.4542 9.65395 5.88689 14.1648 2.7358 15.6505C1.61611 16.1816 0.898438 17.3084 0.898438 18.55V36.637C0.898438 37.8752 1.61616 39.0055 2.7358 39.533L18.15 46.7998ZM19.5854 68.3677C20.9849 68.3677 22.1225 69.5053 22.1225 70.9048C22.1225 72.3043 20.9849 73.4419 19.5854 73.4419C18.1859 73.4419 17.0483 72.3043 17.0483 70.9048C17.0483 69.5053 18.1859 68.3677 19.5854 68.3677ZM19.5854 52.4846C20.9849 52.4846 22.1225 53.6186 22.1225 55.0181C22.1225 56.4176 20.9849 57.5552 19.5854 57.5552C18.1859 57.5552 17.0483 56.4176 17.0483 55.0181C17.0483 53.6186 18.1859 52.4846 19.5854 52.4846ZM3.77028 19.6922V36.6373C3.77028 36.7665 3.84564 36.8813 3.96047 36.9387L18.1495 43.6278V26.4705L3.77028 19.6922ZM33.4695 17.4278L19.725 10.9504C19.6389 10.9073 19.5313 10.9073 19.4415 10.9504L5.70081 17.4278L19.5849 23.9734L33.4695 17.4278Z" fill="white"/>
<path fill-rule="evenodd" clip-rule="evenodd" d="M28.1727 52.4812H40.0908C40.8803 52.4812 41.5263 51.8388 41.5263 51.0458C41.5263 50.2563 40.8803 49.6139 40.0908 49.6139H28.1727C27.3797 49.6139 26.7373 50.2563 26.7373 51.0458C26.7373 51.8388 27.3797 52.4812 28.1727 52.4812Z" fill="white"/>
<path fill-rule="evenodd" clip-rule="evenodd" d="M28.1727 68.368H40.0908C40.8803 68.368 41.5263 67.7257 41.5263 66.9326C41.5263 66.1431 40.8803 65.5007 40.0908 65.5007H28.1727C27.3797 65.5007 26.7373 66.1431 26.7373 66.9326C26.7373 67.7257 27.3797 68.368 28.1727 68.368Z" fill="white"/>
<path fill-rule="evenodd" clip-rule="evenodd" d="M28.1731 60.4264H36.1182C36.9077 60.4264 37.5501 59.7805 37.5501 58.991C37.5501 58.2015 36.9077 57.5555 36.1182 57.5555H28.1731C27.3836 57.5555 26.7412 58.2015 26.7412 58.991C26.7412 59.7805 27.3836 60.4264 28.1731 60.4264Z" fill="white"/>
<path fill-rule="evenodd" clip-rule="evenodd" d="M28.1731 76.3131H36.1182C36.9077 76.3131 37.5501 75.6672 37.5501 74.8777C37.5501 74.0882 36.9077 73.4423 36.1182 73.4423H28.1731C27.3836 73.4423 26.7412 74.0882 26.7412 74.8777C26.7412 75.6672 27.3836 76.3131 28.1731 76.3131Z" fill="white"/>
<path d="M8.69643 37.4106C8.74257 37.4366 8.7929 37.4452 8.83904 37.4452C8.93131 37.4452 9.02359 37.402 9.0865 37.3241L13.6919 31.3728C13.7674 31.2733 13.78 31.1435 13.7297 31.0311C13.6752 30.9186 13.5661 30.8494 13.4445 30.8494H11.4857L12.5175 26.8271C12.5553 26.68 12.4881 26.5243 12.3539 26.4551C12.2197 26.3859 12.0603 26.4249 11.968 26.546L7.39617 32.5492C7.32067 32.6487 7.30809 32.7784 7.36262 32.8909C7.41714 33.0033 7.5262 33.0725 7.64364 33.0725H9.63177L8.53704 37.0387C8.4951 37.1814 8.56221 37.3414 8.69643 37.4106ZM10.349 32.8303C10.3742 32.7309 10.3574 32.6271 10.2987 32.5449C10.24 32.4627 10.1477 32.4151 10.047 32.4151H8.28957L11.5192 28.1722L10.7726 31.083C10.7475 31.1781 10.7685 31.282 10.8272 31.3641C10.8859 31.442 10.9782 31.4896 11.0746 31.4896H12.7901L9.56886 35.6546L10.349 32.8303Z" fill="white"/>
<path d="M26.1515 37.4106C26.1976 37.4366 26.248 37.4452 26.2941 37.4452C26.3864 37.4452 26.4787 37.402 26.5416 37.3241L31.147 31.3728C31.2225 31.2733 31.2351 31.1435 31.1848 31.0311C31.1302 30.9186 31.0212 30.8494 30.8995 30.8494H28.9408L29.9726 26.8271C30.0103 26.68 29.9432 26.5243 29.809 26.4551C29.6748 26.3859 29.5154 26.4249 29.4231 26.546L24.8512 32.5492C24.7757 32.6487 24.7632 32.7784 24.8177 32.8909C24.8722 33.0033 24.9813 33.0725 25.0987 33.0725H27.0869L25.9921 37.0387C25.9502 37.1814 26.0173 37.3414 26.1515 37.4106ZM27.8041 32.8303C27.8293 32.7309 27.8125 32.6271 27.7538 32.5449C27.695 32.4627 27.6028 32.4151 27.5021 32.4151H25.7447L28.9743 28.1722L28.2277 31.083C28.2026 31.1781 28.2235 31.282 28.2822 31.3641C28.341 31.442 28.4332 31.4896 28.5297 31.4896H30.2452L27.0239 35.6546L27.8041 32.8303Z" fill="white"/>
<path d="M18.4112 21.7987C18.4442 21.8204 18.4801 21.8276 18.5131 21.8276C18.579 21.8276 18.6449 21.7915 18.6899 21.7267L21.9794 16.7672C22.0334 16.6843 22.0424 16.5762 22.0064 16.4825C21.9675 16.3888 21.8896 16.3311 21.8027 16.3311H20.4036L21.1406 12.9791C21.1675 12.8566 21.1196 12.7268 21.0237 12.6692C20.9279 12.6115 20.814 12.644 20.7481 12.7449L17.4825 17.7476C17.4285 17.8305 17.4196 17.9386 17.4585 18.0323C17.4975 18.126 17.5754 18.1837 17.6592 18.1837H19.0793L18.2974 21.4888C18.2674 21.6077 18.3154 21.7411 18.4112 21.7987ZM19.5916 17.9818C19.6096 17.8989 19.5976 17.8124 19.5557 17.744C19.5138 17.6755 19.4478 17.6358 19.3759 17.6358H18.1206L20.4275 14.1001L19.8942 16.5257C19.8763 16.605 19.8912 16.6915 19.9332 16.76C19.9751 16.8249 20.041 16.8645 20.11 16.8645H21.3353L19.0344 20.3354L19.5916 17.9818Z" fill="white"/>
</svg>
