<svg width="55" height="55" viewBox="0 0 55 55" fill="none" xmlns="http://www.w3.org/2000/svg">
<path fill-rule="evenodd" clip-rule="evenodd" d="M28.808 11.3068C28.808 12.1803 28.1004 12.8901 27.2269 12.8901C26.3533 12.8901 25.6435 12.1825 25.6435 11.3068V5.69019C25.6435 4.17324 26.2715 2.81554 27.4281 1.8293C28.5913 0.838653 30.0176 0.436222 31.5258 0.67947C44.5776 2.78016 54.3896 14.1574 54.3896 27.5001C54.3896 40.8427 44.5754 52.22 31.5258 54.3207C30.0287 54.5617 28.5802 54.1681 27.4281 53.1709C26.2693 52.1846 25.6435 50.8269 25.6435 49.31V44.1644C25.6435 43.2909 26.3511 42.5833 27.2269 42.5833C28.1004 42.5833 28.808 43.2909 28.808 44.1644V49.31C28.808 49.9137 29.0203 50.3869 29.4781 50.7783C29.9248 51.1586 30.4467 51.3024 31.0305 51.2073C42.5431 49.3543 51.225 39.3064 51.225 27.5024C51.2272 15.6944 42.5431 5.64411 31.0328 3.79301C30.4467 3.69792 29.9337 3.84166 29.4826 4.22642C29.0248 4.6156 28.8081 5.08658 28.8081 5.69026L28.808 11.3068ZM2.19373 29.0808H32.3972L26.2316 34.1071C25.5572 34.6554 25.4532 35.6505 26.0039 36.325C26.5545 37.0016 27.5474 37.1033 28.2219 36.5527L37.731 28.8002C38.1445 28.5149 38.4143 28.0373 38.4143 27.4977C38.4143 26.9582 38.1445 26.4805 37.731 26.1953L28.2219 18.4427C27.5452 17.8943 26.5523 17.996 26.0039 18.6705C25.4554 19.3471 25.5572 20.34 26.2316 20.8884L32.3972 25.9146L2.19373 25.9168C1.32021 25.9168 0.610352 26.6245 0.610352 27.5001C0.610352 28.3736 1.318 29.0808 2.19373 29.0808Z" fill="white"/>
</svg>
