<svg width="83" height="84" viewBox="0 0 83 84" fill="none" xmlns="http://www.w3.org/2000/svg">
<path d="M75.5078 83.9839H19.2578C15.664 83.9839 12.7539 81.0737 12.7539 77.48V64.14C12.7539 63.6127 13.1836 63.183 13.7109 63.183C14.2383 63.183 14.668 63.6127 14.668 64.14V77.48C14.668 80.0191 16.7383 82.0894 19.2774 82.0894H75.5274C78.0665 82.0894 80.1368 80.0191 80.1368 77.48V12.773L69.2778 1.91399H19.2778C16.7387 1.91399 14.6684 3.98429 14.6684 6.52339V31.2894C14.6684 31.8167 14.2387 32.2464 13.7113 32.2464C13.184 32.2464 12.7543 31.8167 12.7543 31.2894V6.50439C12.7543 2.91059 15.6645 0.000488281 19.2582 0.000488281H69.6492C69.9031 0.000488281 70.1375 0.0981447 70.3328 0.273928L81.7388 11.6799C81.9146 11.8557 82.0122 12.1096 82.0122 12.3635V77.4615C82.0122 81.0748 79.102 83.9849 75.5083 83.9849L75.5078 83.9839Z" fill="#F7A209"/>
<path d="M72.3238 24.687H22.3828C21.8555 24.687 21.4258 24.2573 21.4258 23.73C21.4258 23.2026 21.8555 22.7729 22.3828 22.7729H72.3238C72.8511 22.7729 73.2808 23.2026 73.2808 23.73C73.2808 24.2573 72.8511 24.687 72.3238 24.687Z" fill="#F7A209"/>
<path d="M72.3244 36.6599H35.5664C35.0391 36.6599 34.6094 36.2302 34.6094 35.7029C34.6094 35.1755 35.0391 34.7458 35.5664 34.7458H72.3044C72.8317 34.7458 73.2614 35.1755 73.2614 35.7029C73.2614 36.2302 72.8517 36.6599 72.3244 36.6599Z" fill="#F7A209"/>
<path d="M72.3239 48.6331H39.2969C38.7695 48.6331 38.3398 48.2034 38.3398 47.676C38.3398 47.1487 38.7695 46.719 39.2969 46.719H72.3239C72.8512 46.719 73.2809 47.1487 73.2809 47.676C73.2809 48.2034 72.8512 48.6331 72.3239 48.6331Z" fill="#F7A209"/>
<path d="M72.3244 60.644H35.5664C35.0391 60.644 34.6094 60.2144 34.6094 59.687C34.6094 59.1597 35.0391 58.73 35.5664 58.73H72.3044C72.8317 58.73 73.2614 59.1597 73.2614 59.687C73.281 60.2144 72.8517 60.644 72.3244 60.644Z" fill="#F7A209"/>
<path d="M72.3238 72.637H22.3828C21.8555 72.637 21.4258 72.2073 21.4258 71.6799C21.4258 71.1526 21.8555 70.7229 22.3828 70.7229H72.3238C72.8511 70.7229 73.2808 71.1526 73.2808 71.6799C73.2808 72.2073 72.8511 72.637 72.3238 72.637Z" fill="#F7A209"/>
<path d="M81.0544 13.3201H69.6094C69.082 13.3201 68.6523 12.8904 68.6523 12.363V0.957029C68.6523 0.429689 69.082 0 69.6094 0C70.1367 0 70.5664 0.429689 70.5664 0.957029V11.426H81.0544C81.5817 11.426 82.0114 11.8557 82.0114 12.3831C82.0114 12.8909 81.5817 13.3201 81.0544 13.3201Z" fill="#F7A209"/>
<path d="M17.93 65.6249C8.0472 65.6249 0 57.578 0 47.6949C0 37.8118 8.0469 29.7649 17.93 29.7649C27.8128 29.7649 35.86 37.8118 35.86 47.6949C35.86 57.578 27.8131 65.6249 17.93 65.6249ZM17.93 31.6799C9.1019 31.6799 1.914 38.8674 1.914 47.6959C1.914 56.5244 9.1015 63.7119 17.93 63.7119C26.7581 63.7119 33.946 56.5244 33.946 47.6959C33.946 38.8674 26.778 31.6799 17.93 31.6799Z" fill="#F7A209"/>
<path d="M17.9287 60.019C17.6162 60.019 17.3232 59.8627 17.1474 59.6088L10.5849 50.2533C10.3896 49.9603 10.3505 49.5892 10.5263 49.2572C10.7021 48.9252 11.0146 48.7494 11.3662 48.7494H14.335V36.3274C14.335 35.8001 14.7646 35.3704 15.292 35.3704H20.585C21.1123 35.3704 21.542 35.8001 21.542 36.3274V48.7494H24.5108C24.8624 48.7494 25.1944 48.9447 25.3507 49.2572C25.5069 49.5697 25.4874 49.9603 25.2921 50.2533L18.7101 59.6088C18.5343 59.8627 18.2412 60.019 17.9287 60.019ZM13.2021 50.6635L17.9287 57.4017L22.6748 50.6635H20.585C20.0576 50.6635 19.6279 50.2338 19.6279 49.7064V37.2844H16.249V49.7064C16.249 50.2338 15.8193 50.6635 15.292 50.6635H13.2021Z" fill="#F7A209"/>
</svg>
