<svg width="57" height="59" viewBox="0 0 57 59" fill="none" xmlns="http://www.w3.org/2000/svg">
<path d="M53.0928 19.8846C55.3808 24.9401 56.0715 30.5408 55.1622 35.9232C54.2356 41.4024 51.6519 46.6613 47.4184 50.8839C41.9952 56.2938 34.8851 59 27.7773 59C20.6695 59 13.5598 56.2938 8.13616 50.8839C2.71292 45.4741 0 38.3815 0 31.2913C0 25.6584 1.71169 20.0229 5.13755 15.2305L6.60579 16.4572C3.47553 20.8907 1.91044 26.0927 1.91044 31.2892C1.91044 37.2765 3.98731 43.2663 8.14112 48.0866C8.87899 46.161 9.98942 44.4163 11.3782 42.9443C13.1569 41.0584 15.3978 39.6087 17.9116 38.7834C18.2495 38.6719 18.6047 38.7611 18.8507 38.9817C20.0854 39.9953 21.4915 40.8032 23.0145 41.3509C24.4951 41.8812 26.1 42.1736 27.7769 42.1736C29.4563 42.1736 31.0612 41.8837 32.5418 41.3533C34.0797 40.8007 35.4957 39.9854 36.7379 38.9594C36.9987 38.7438 37.3416 38.6893 37.6447 38.7884C40.1588 39.6137 42.3997 41.0634 44.1782 42.9493C45.5694 44.4238 46.6774 46.1685 47.4152 48.0916C50.5678 44.4313 52.5255 40.1017 53.2832 35.6114C54.1105 30.7244 53.5217 25.6441 51.5193 21.03C49.8027 22.0683 47.7879 22.668 45.6365 22.668C42.5013 22.668 39.6617 21.3992 37.6046 19.3497C35.5451 17.2953 34.2731 14.4628 34.2731 11.3352C34.2731 9.64753 34.6458 8.04417 35.3091 6.60437C30.9864 5.29836 26.3907 5.13976 22.003 6.13599C18.8181 6.85713 15.74 8.19042 12.9599 10.1358L11.4519 8.87438C14.5449 6.62912 18.0007 5.10012 21.5857 4.28477C26.4302 3.18445 31.5179 3.39514 36.2732 4.91423C36.6657 4.34425 37.1129 3.81143 37.6023 3.32325C39.6618 1.26883 42.5013 0 45.6367 0C48.7719 0 51.6114 1.26883 53.6685 3.3183C55.728 5.37272 57 8.20526 57 11.3329C57 14.4603 55.728 17.2929 53.6735 19.3449C53.4872 19.5307 53.2934 19.7116 53.0946 19.8851L53.0928 19.8846ZM6.30077 13.7214C6.62622 13.3273 6.96162 12.9407 7.31186 12.5641L8.77514 13.7883C8.42485 14.1675 8.087 14.5516 7.76405 14.9456L6.30325 13.7214H6.30077ZM8.75777 11.1019C9.13788 10.7451 9.52541 10.4031 9.92042 10.071L11.406 11.315C11.006 11.6422 10.616 11.9817 10.2309 12.3361L8.75771 11.1044L8.75777 11.1019ZM45.9457 49.6597C45.3222 47.6177 44.2266 45.7715 42.7907 44.2474C41.3448 42.7134 39.5437 41.5065 37.5264 40.7606C36.2271 41.7618 34.7639 42.5697 33.1814 43.1372C31.4871 43.7443 29.6661 44.0764 27.7755 44.0764C25.8874 44.0764 24.0664 43.7444 22.3696 43.1372C20.7896 42.5697 19.3238 41.7618 18.0246 40.7606C16.0073 41.5065 14.2087 42.7134 12.7628 44.2474C11.3269 45.769 10.2313 47.6177 9.60777 49.6597C14.641 54.6161 21.2094 57.0969 27.7753 57.0969C34.3412 57.0969 40.9097 54.6163 45.9429 49.6597H45.9457ZM27.7782 18.3133C30.4985 18.3133 32.9654 19.4161 34.7492 21.1955C36.5379 22.9748 37.641 25.4356 37.641 28.1518C37.641 30.8654 36.5354 33.3262 34.7517 35.1056C32.963 36.8899 30.4961 37.9902 27.7781 37.9902C25.0553 37.9902 22.5884 36.8874 20.8045 35.1081L20.7524 35.0511C18.9985 33.2742 17.9153 30.8357 17.9153 28.1493C17.9153 25.4357 19.0184 22.9774 20.8046 21.1955L20.8096 21.1905C22.5958 19.4112 25.0602 18.3109 27.778 18.3109L27.7782 18.3133ZM33.4052 22.5411C31.9668 21.1063 29.9769 20.2166 27.7782 20.2166C25.5795 20.2166 23.5897 21.1037 22.1537 22.5361C20.7128 23.9734 19.8233 25.9585 19.8233 28.1517C19.8233 30.3201 20.6953 32.2877 22.1064 33.7201L22.1536 33.7647C23.592 35.1996 25.582 36.0893 27.7781 36.0893C29.9767 36.0893 31.9667 35.1996 33.4051 33.7672C34.8436 32.3324 35.733 30.3473 35.733 28.1541C35.733 25.9634 34.8411 23.9784 33.4027 22.541L33.4052 22.5411ZM46.5892 16.5811C46.5892 17.104 46.1644 17.5278 45.6402 17.5278C45.116 17.5278 44.6911 17.104 44.6911 16.5811V12.2865H40.3809C39.8542 12.2865 39.4269 11.8602 39.4269 11.3348C39.4269 10.8095 39.8542 10.3832 40.3809 10.3832H44.6911V6.08855C44.6911 5.56565 45.116 5.14187 45.6402 5.14187C46.1644 5.14187 46.5892 5.56564 46.5892 6.08855V10.3832H50.897C51.4236 10.3832 51.8509 10.8095 51.8509 11.3348C51.8509 11.8602 51.4236 12.2865 50.897 12.2865H46.5892V16.5811ZM52.3254 4.66365C50.6162 2.95867 48.2512 1.90294 45.6374 1.90294C43.0264 1.90294 40.6613 2.95867 38.9494 4.66365C37.2402 6.36864 36.1818 8.72784 36.1818 11.3351C36.1818 13.9397 37.2402 16.2989 38.9494 18.0066C40.6586 19.7116 43.0237 20.7674 45.6374 20.7674C48.2485 20.7674 50.6135 19.7116 52.3254 18.0066C54.0347 16.3017 55.093 13.9425 55.093 11.3351C55.093 8.73056 54.0347 6.37137 52.3254 4.66365Z" fill="black"/>
</svg>
