<svg width="84" height="84" viewBox="0 0 84 84" fill="none" xmlns="http://www.w3.org/2000/svg">
<path fill-rule="evenodd" clip-rule="evenodd" d="M12.055 54.7539C11.5555 55.3336 10.6696 55.3664 10.1301 54.8269L7.59997 52.2968C7.08592 51.7827 7.08592 50.9551 7.59997 50.4411C8.11401 49.927 8.94523 49.927 9.45565 50.4411L11.0598 52.0452L14.6071 48.4943C15.1175 47.9803 15.9451 47.9803 16.4592 48.4907C16.9732 49.0011 16.9732 49.8286 16.4664 50.3427L12.0551 54.7577L12.055 54.7539ZM54.5492 75.5451V72.4134H37.7208V75.5451H54.5492ZM55.8616 78.17H36.4078C35.2959 78.1591 34.3699 79.0924 34.3699 80.208V81.3783H57.8994V80.208C57.8994 79.0742 56.9408 78.1518 55.8616 78.17ZM59.8136 8.6502C59.8136 7.37419 58.7709 6.34242 57.5022 6.34242H48.0198C47.4912 8.75949 45.6064 10.1959 43.3569 10.1959H19.0911C16.6339 10.1959 14.9203 8.55174 14.4355 6.33878L4.94566 6.34243C3.67329 6.34243 2.63424 7.3742 2.63424 8.65021V74.5647C2.63424 75.8407 3.67329 76.8725 4.94566 76.8725H33.1594C33.6953 76.3511 34.3589 75.9537 35.0952 75.735V71.1013C35.0952 70.3758 35.6822 69.7889 36.4076 69.7889H55.8614C56.5869 69.7889 57.1738 70.3758 57.1738 71.1013V75.735C57.7389 75.9027 58.2603 76.1724 58.7159 76.5261C59.3867 76.1105 59.8133 75.3813 59.8133 74.5646V62.0379L59.1461 61.2796L58.705 61.7207C58.1909 62.2347 57.3597 62.2347 56.8493 61.7207L54.5744 59.4458L53.127 60.8931L53.4588 61.2249C53.9728 61.7389 53.9728 62.5665 53.4588 63.0806L49.0474 67.4919C48.5334 68.006 47.7022 68.006 47.1917 67.4919L35.6636 55.9638C35.1496 55.4497 35.1496 54.6222 35.6636 54.1081L40.0749 49.6967C40.589 49.1827 41.4166 49.1827 41.9306 49.6967L42.2624 50.0285L54.9096 37.3813L54.5778 37.0496C54.0638 36.5355 54.0638 35.7079 54.5778 35.1939L58.9892 30.7825C59.2188 30.5529 59.5141 30.4252 59.8131 30.4034V8.64623L59.8136 8.6502ZM0.00195312 8.6502V74.5647C0.00195312 77.2734 2.22947 79.4936 4.94192 79.4936H31.7996C31.7011 80.1207 31.7449 81.9727 31.7449 82.6873C31.7449 83.4128 32.3318 83.9997 33.0573 83.9997H59.2112C59.9367 83.9997 60.5236 83.4128 60.5236 82.6873V80.2045C60.5236 79.6577 60.4288 79.1327 60.2538 78.6441C61.5918 77.74 62.4376 76.2197 62.4376 74.5609V65.0161L73.123 77.1677C75.3761 79.7197 79.3352 79.6868 81.8216 77.5067C84.5377 75.1151 84.8257 70.6819 82.055 68.2393L66.1636 54.2612L66.6047 53.8201C67.1188 53.306 67.1188 52.4748 66.6047 51.9644L64.3298 49.6895L65.7772 48.2421L66.1053 48.5739C66.6193 49.0879 67.4506 49.0879 67.961 48.5739L72.3723 44.1625C72.8864 43.6485 72.8864 42.8173 72.3723 42.3068L62.4373 32.3756L62.4337 8.64543C62.4337 5.94035 60.2098 3.71647 57.4974 3.71647H47.9786C47.4536 1.56185 45.762 0.00146484 43.3522 0.00146484L19.0864 0.00511011C16.651 0.012402 14.9777 1.57278 14.4563 3.72012L4.94506 3.71283C2.2327 3.71283 0.00508927 5.9367 0.00508927 8.64178L0.00195312 8.6502ZM57.3599 36.121L59.9156 33.569L69.5874 43.2408L67.0317 45.7965L57.3599 36.1247V36.121ZM63.9185 46.3911L51.2713 59.0383L44.1148 51.8817L56.762 39.2345L63.9185 46.3874V46.3911ZM38.4459 55.035L41.0016 52.483L50.6734 62.1548L48.1177 64.7105L38.4459 55.0387V55.035ZM57.7755 58.9396L56.4266 57.5907L62.4712 51.5497L63.8201 52.8986L57.7792 58.9396H57.7755ZM61.0056 59.4245L64.305 56.1288L80.3242 70.2198C81.0424 70.8505 81.3924 71.7655 81.3851 72.7026C81.3559 76.1478 77.0977 77.73 75.0926 75.4478L61.0016 59.4323L61.0056 59.4245ZM19.9916 55.0825C19.2661 55.0825 18.6792 54.4955 18.6792 53.7701C18.6792 53.0446 19.2662 52.4577 19.9916 52.4577H31.8296C32.5551 52.4577 33.142 53.0446 33.142 53.7701C33.142 54.4955 32.5551 55.0825 31.8296 55.0825H19.9916ZM19.9916 50.0587C19.2661 50.0587 18.6792 49.4717 18.6792 48.7463C18.6792 48.0208 19.2662 47.4339 19.9916 47.4339H36.4261C37.1516 47.4339 37.7385 48.0209 37.7385 48.7463C37.7385 49.4718 37.1516 50.0587 36.4261 50.0587H19.9916ZM12.0002 66.9897C11.5007 67.5694 10.6148 67.6022 10.0789 67.0627L7.54882 64.5326C7.03478 64.0185 7.03478 63.1909 7.54882 62.6769C8.06287 62.1628 8.89044 62.1628 9.40451 62.6769L11.0087 64.281L14.556 60.7301C15.0664 60.2161 15.8939 60.2161 16.408 60.7265C16.9221 61.2369 16.9221 62.0644 16.4117 62.5785L12.0003 66.9935L12.0002 66.9897ZM19.9916 67.7152C19.2661 67.7152 18.6792 67.1283 18.6792 66.4028C18.6792 65.6773 19.2662 65.0904 19.9916 65.0904H36.4084C37.1339 65.0904 37.7208 65.6774 37.7208 66.4028C37.7208 67.1283 37.1338 67.7152 36.4084 67.7152H19.9916ZM19.9916 62.6915C19.2661 62.6915 18.6792 62.1045 18.6792 61.3791C18.6792 60.6536 19.2662 60.0666 19.9916 60.0666H33.083C33.8085 60.0666 34.3955 60.6536 34.3955 61.3791C34.3955 62.1045 33.8085 62.6915 33.083 62.6915H19.9916ZM34.4177 25.2978C34.9317 24.7837 35.7593 24.7837 36.2733 25.2978C36.7874 25.8118 36.7874 26.643 36.2733 27.1535L30.7756 32.6512C30.2616 33.1652 29.434 33.1652 28.92 32.6512L26.1711 29.9023C25.6571 29.3883 25.6571 28.557 26.1711 28.0466C26.6851 27.5326 27.5127 27.5326 28.0268 28.0466L29.8496 29.8658L34.4213 25.2941L34.4177 25.2978ZM24.7897 16.6829C24.7897 15.9574 25.3767 15.3705 26.1021 15.3705H36.4926C37.2181 15.3705 37.805 15.9575 37.805 16.6829C37.805 19.1328 40.0034 20.9229 42.4897 20.9229C43.2152 20.9229 43.8021 21.5099 43.8021 22.2353C43.8021 30.9413 39.3361 37.7113 31.9902 42.3741C31.5309 42.6658 30.9548 42.6366 30.5356 42.3413C22.4895 37.6675 18.6435 31.5533 18.6547 22.3705C18.6547 21.6486 19.2416 21.0581 19.9634 21.0581C22.5264 21.0581 24.794 19.2097 24.794 16.6832L24.7897 16.6829ZM35.3108 17.9953C35.8978 20.8207 38.2894 22.928 41.1403 23.4311C40.7648 30.4272 37.1009 35.7899 31.2427 39.7275C24.8226 35.8229 21.5783 30.9303 21.2825 23.5701C24.2172 23.0707 26.6854 20.9014 27.2797 17.9958L35.3108 17.9953ZM19.0872 7.57594C18.4128 7.57594 17.9097 7.33897 17.5743 6.9744C16.4258 5.73488 16.692 2.63968 19.0872 2.62876L43.3531 2.6324C44.0239 2.6324 44.527 2.86938 44.8661 3.2303C46.4775 4.94738 45.0666 7.5723 43.3531 7.5723H19.0872V7.57594Z" fill="white"/>
</svg>
