<svg width="89" height="84" viewBox="0 0 89 84" fill="none" xmlns="http://www.w3.org/2000/svg">
<path fill-rule="evenodd" clip-rule="evenodd" d="M69.5851 0.842211L61.8625 8.56484L59.3218 8.35671C57.8504 8.23828 56.4007 8.7694 55.3528 9.81006L49.5967 15.5303C48.9221 16.2014 48.5417 17.1094 48.5417 18.0567C48.5381 19.0077 48.9113 19.9156 49.5824 20.5903L49.708 20.7159L47.2641 23.1597C47.1457 23.2782 47.0488 23.4217 46.977 23.576L43.3095 31.5714C43.0582 32.1169 43.1731 32.7628 43.5965 33.1863C44.02 33.6097 44.666 33.7246 45.2114 33.4769L53.2068 29.8058C53.3647 29.7376 53.5046 29.6371 53.6231 29.5187L57.2727 25.8726C56.7165 27.2076 56.982 28.8045 58.0658 29.8919C58.0694 29.8919 58.0694 29.8919 58.073 29.8955C59.5084 31.3309 61.8375 31.3309 63.2765 29.8955L63.6066 29.5617C64.4535 31.7723 67.2096 37.0763 74.2652 37.4244C74.1647 38.7737 75.0332 40.0441 76.3861 40.4065L80.3766 41.4759C81.909 41.885 83.4808 40.9771 83.8935 39.4448L88.0024 24.1037C88.4115 22.5714 87.5036 20.9996 85.9713 20.5905L81.9808 19.5211C81.0621 19.2735 80.1255 19.5031 79.4365 20.0594L77.635 15.6705C77.208 14.6299 76.5226 13.7183 75.6433 13.0186L72.5678 10.5784L75.9447 7.20149C77.0644 6.07821 77.0644 4.26244 75.9447 3.14275L73.6444 0.842455C72.5212 -0.280818 70.7048 -0.281063 69.5851 0.842211ZM77.1283 37.6364L81.1189 38.7058L85.2315 23.3611L81.2409 22.2916L77.1283 37.6364ZM70.5217 12.6206L64.6365 18.5096L70.2383 24.1114C70.7981 24.6713 70.7981 25.5792 70.2383 26.1426C69.6785 26.7024 68.767 26.7024 68.2072 26.1426L62.2071 20.1425C61.7119 19.6436 60.9044 19.6436 60.4057 20.1425V20.146C59.9068 20.6413 59.9068 21.4487 60.4057 21.9475L65.6988 27.2442C65.8854 27.4273 66.0146 27.6605 66.0792 27.9117C66.0792 27.9117 67.7551 34.5291 74.9754 34.5722L77.8642 23.796L74.9754 16.7587C74.7385 16.1738 74.351 15.6606 73.8557 15.2659L70.5217 12.6206ZM62.1064 16.9736L70.0229 9.06075L67.7262 6.76046L52.8876 21.5953C52.8481 21.6492 52.8051 21.6994 52.7584 21.7461C52.7118 21.7927 52.6615 21.8358 52.6113 21.8753L49.4784 25.0081L47.5298 29.2535L51.7787 27.3048L57.237 21.8466C56.9822 20.5367 57.359 19.1265 58.3746 18.1144V18.1109C59.3902 17.0988 60.8001 16.7189 62.1064 16.9736ZM60.6064 26.2073L60.0968 26.7169C59.781 27.0327 59.781 27.5459 60.0968 27.8617C60.0968 27.8617 60.1004 27.8617 60.1004 27.8653C60.4162 28.1811 60.9294 28.1811 61.2452 27.8653L61.7547 27.3593L60.6064 26.2073ZM59.196 11.2282L59.092 11.2174C58.4532 11.1672 57.8288 11.3969 57.3766 11.8454L51.6205 17.5693C51.4841 17.6985 51.4124 17.8779 51.4124 18.0645C51.4088 18.2547 51.4841 18.4341 51.6169 18.5669L51.7389 18.6889L59.196 11.2282ZM69.7535 4.72925L72.0538 7.02954L73.9127 5.17068L71.6124 2.87039L69.7535 4.72925Z" fill="black"/>
<path fill-rule="evenodd" clip-rule="evenodd" d="M52.2844 47.099H51.3263C50.2138 47.099 49.148 47.5404 48.362 48.3263C47.5761 49.1122 47.1348 50.178 47.1348 51.2905V56.4831C47.1348 57.2762 47.7771 57.9186 48.5702 57.9186C49.3633 57.9186 50.0056 57.2762 50.0056 56.4831V51.2905C50.0056 50.9388 50.142 50.6051 50.3932 50.3575C50.6372 50.1099 50.9746 49.9699 51.3262 49.9699H68.1133C68.4614 49.9699 68.7987 50.1098 69.0463 50.3575C69.294 50.6051 69.4339 50.9388 69.4339 51.2905V76.6443C69.4339 76.996 69.294 77.3333 69.0463 77.5773C68.7987 77.8285 68.4614 77.9649 68.1133 77.9649H51.3262C50.9746 77.9649 50.6372 77.8285 50.3932 77.5773C50.142 77.3333 50.0056 76.9959 50.0056 76.6443V69.4025C50.0056 68.6094 49.3633 67.9671 48.5702 67.9671C47.7771 67.9671 47.1348 68.6094 47.1348 69.4025V76.6443C47.1348 77.7567 47.5762 78.8226 48.362 79.6085C49.1479 80.3944 50.2137 80.8358 51.3263 80.8358H68.1133C69.2258 80.8358 70.288 80.3944 71.0776 79.6085C71.8599 78.8226 72.3048 77.7568 72.3048 76.6443V75.6861H73.263C74.3755 75.6861 75.4413 75.2447 76.2272 74.4588C77.0131 73.6729 77.4545 72.6071 77.4545 71.4946V46.1371C77.4545 45.0283 77.0131 43.9588 76.2272 43.1765C75.4413 42.387 74.3755 41.9492 73.263 41.9492H56.4759C55.3635 41.9492 54.2976 42.387 53.5117 43.1765C52.7258 43.9588 52.2844 45.0282 52.2844 46.1371V47.099ZM72.3053 72.8148H73.2635C73.6152 72.8148 73.9489 72.6748 74.1965 72.4272C74.4441 72.1796 74.5841 71.8422 74.5841 71.4942V46.1367C74.5841 45.7886 74.4441 45.4513 74.1965 45.2037C73.9489 44.9561 73.6151 44.8197 73.2635 44.8197H56.4764C56.1283 44.8197 55.791 44.9561 55.5434 45.2037C55.2958 45.4513 55.1558 45.7886 55.1558 46.1367V47.0985H68.1138C69.2263 47.0985 70.2885 47.5399 71.078 48.3257C71.8604 49.1116 72.3053 50.1774 72.3053 51.2899L72.3053 72.8148Z" fill="black"/>
<path fill-rule="evenodd" clip-rule="evenodd" d="M66.1037 55.0476H53.3358C52.5428 55.0476 51.9004 55.6936 51.9004 56.4866C51.9004 57.2797 52.5428 57.9221 53.3358 57.9221H66.1037C66.8968 57.9221 67.5391 57.2797 67.5391 56.4866C67.5391 55.6936 66.8968 55.0476 66.1037 55.0476Z" fill="black"/>
<path fill-rule="evenodd" clip-rule="evenodd" d="M66.1037 62.53H53.3358C52.5428 62.53 51.9004 63.1724 51.9004 63.9655C51.9004 64.7586 52.5428 65.4045 53.3358 65.4045H66.1037C66.8968 65.4045 67.5391 64.7585 67.5391 63.9655C67.5391 63.1724 66.8968 62.53 66.1037 62.53Z" fill="black"/>
<path fill-rule="evenodd" clip-rule="evenodd" d="M66.1037 70.0122H53.3358C52.5428 70.0122 51.9004 70.6546 51.9004 71.4476C51.9004 72.2407 52.5428 72.8831 53.3358 72.8831H66.1037C66.8968 72.8831 67.5391 72.2407 67.5391 71.4476C67.5391 70.6546 66.8968 70.0122 66.1037 70.0122Z" fill="black"/>
<path fill-rule="evenodd" clip-rule="evenodd" d="M37.3736 27.987C37.3772 27.2083 37.3772 26.4188 37.3736 25.64C37.3736 24.847 36.7312 24.2046 35.9381 24.2046C35.1451 24.2046 34.5027 24.847 34.5027 25.64C34.4991 26.4188 34.4991 27.2082 34.5027 27.987C34.5027 28.7801 35.1486 29.4224 35.9381 29.4224C36.7276 29.4224 37.3736 28.7801 37.3736 27.987Z" fill="black"/>
<path fill-rule="evenodd" clip-rule="evenodd" d="M17.2515 46.1015V49.1052C14.962 49.7332 13.279 51.8325 13.279 54.3194C13.279 56.8063 14.962 58.9057 17.2515 59.5337V64.9919C14.962 65.6235 13.279 67.7193 13.279 70.2062C13.279 72.6931 14.962 74.7925 17.2515 75.4205V82.124C17.2515 82.9135 17.8939 83.5594 18.687 83.5594C19.48 83.5594 20.1224 82.9135 20.1224 82.124V75.4205C22.4119 74.7925 24.095 72.6931 24.095 70.2062C24.095 67.7193 22.4119 65.6235 20.1224 64.9919V59.5337C22.4119 58.9057 24.095 56.8063 24.095 54.3194C24.095 51.8325 22.4119 49.7332 20.1224 49.1052V46.1015L35.5351 38.8346C36.6548 38.307 37.3725 37.1766 37.3725 35.9386V33.5988C37.3725 32.8057 36.7302 32.1634 35.9371 32.1634C35.144 32.1634 34.5016 32.8057 34.5016 33.5988V35.9386C34.5016 36.0678 34.4263 36.1826 34.3078 36.24L20.1225 42.9291V25.7718L34.5017 18.993V21.3328C34.5017 22.1258 35.144 22.7682 35.9371 22.7682C36.7302 22.7682 37.3726 22.1258 37.3726 21.3328V17.8518C37.3726 16.6101 36.6549 15.4833 35.5352 14.9522L20.0536 7.65301C19.1851 7.2475 18.1839 7.2475 17.319 7.65301C14.5558 8.95571 4.98845 13.4665 1.83737 14.9522C0.717675 15.4833 0 16.6102 0 17.8518V35.9388C0 37.1769 0.717721 38.3073 1.83737 38.8348L17.2515 46.1015ZM18.687 67.6694C20.0865 67.6694 21.2241 68.8071 21.2241 70.2066C21.2241 71.6061 20.0865 72.7437 18.687 72.7437C17.2874 72.7437 16.1498 71.6061 16.1498 70.2066C16.1498 68.8071 17.2874 67.6694 18.687 67.6694ZM18.687 51.7863C20.0865 51.7863 21.2241 52.9204 21.2241 54.3199C21.2241 55.7194 20.0865 56.857 18.687 56.857C17.2874 56.857 16.1498 55.7194 16.1498 54.3199C16.1498 52.9204 17.2874 51.7863 18.687 51.7863ZM2.87184 18.994V35.9391C2.87184 36.0682 2.9472 36.1831 3.06203 36.2405L17.2511 42.9296V25.7723L2.87184 18.994ZM32.571 16.7296L18.8266 10.2521C18.7405 10.2091 18.6328 10.2091 18.5431 10.2521L4.80237 16.7296L18.6864 23.2752L32.571 16.7296Z" fill="black"/>
<path fill-rule="evenodd" clip-rule="evenodd" d="M27.2753 51.7831H39.1934C39.9829 51.7831 40.6288 51.1407 40.6288 50.3476C40.6288 49.5581 39.9829 48.9158 39.1934 48.9158H27.2753C26.4822 48.9158 25.8398 49.5581 25.8398 50.3476C25.8398 51.1407 26.4822 51.7831 27.2753 51.7831Z" fill="black"/>
<path fill-rule="evenodd" clip-rule="evenodd" d="M27.2753 67.6698H39.1934C39.9829 67.6698 40.6288 67.0274 40.6288 66.2344C40.6288 65.4449 39.9829 64.8025 39.1934 64.8025H27.2753C26.4822 64.8025 25.8398 65.4449 25.8398 66.2344C25.8398 67.0274 26.4822 67.6698 27.2753 67.6698Z" fill="black"/>
<path fill-rule="evenodd" clip-rule="evenodd" d="M27.2737 59.7281H35.2188C36.0083 59.7281 36.6507 59.0821 36.6507 58.2926C36.6507 57.5031 36.0083 56.8572 35.2188 56.8572H27.2737C26.4842 56.8572 25.8418 57.5031 25.8418 58.2926C25.8418 59.0821 26.4842 59.7281 27.2737 59.7281Z" fill="black"/>
<path fill-rule="evenodd" clip-rule="evenodd" d="M27.2737 75.615H35.2188C36.0083 75.615 36.6507 74.9691 36.6507 74.1796C36.6507 73.3901 36.0083 72.7441 35.2188 72.7441H27.2737C26.4842 72.7441 25.8418 73.3901 25.8418 74.1796C25.8418 74.9691 26.4842 75.615 27.2737 75.615Z" fill="black"/>
<path d="M7.79897 36.7125C7.8451 36.7384 7.89544 36.7471 7.94158 36.7471C8.03385 36.7471 8.12613 36.7038 8.18904 36.626L12.7945 30.6747C12.87 30.5752 12.8826 30.4454 12.8322 30.333C12.7777 30.2205 12.6686 30.1513 12.547 30.1513H10.5882L11.62 26.129C11.6578 25.9819 11.5907 25.8262 11.4565 25.757C11.3222 25.6878 11.1629 25.7267 11.0706 25.8478L6.49871 31.8511C6.42321 31.9506 6.41063 32.0803 6.46515 32.1928C6.51968 32.3052 6.62874 32.3744 6.74618 32.3744H8.73431L7.63958 36.3405C7.59764 36.4833 7.66475 36.6433 7.79897 36.7125ZM9.45155 32.1322C9.47672 32.0327 9.45994 31.9289 9.40122 31.8468C9.3425 31.7646 9.25022 31.717 9.14956 31.717H7.39211L10.6218 27.4741L9.87518 30.3849C9.85002 30.48 9.87099 30.5838 9.92971 30.666C9.98843 30.7439 10.0807 30.7914 10.1772 30.7914H11.8927L8.6714 34.9565L9.45155 32.1322Z" fill="black"/>
<path d="M25.254 36.7125C25.3002 36.7384 25.3505 36.7471 25.3967 36.7471C25.4889 36.7471 25.5812 36.7038 25.6441 36.626L30.2495 30.6747C30.325 30.5752 30.3376 30.4454 30.2873 30.333C30.2328 30.2205 30.1237 30.1513 30.0021 30.1513H28.0433L29.0751 26.129C29.1129 25.9819 29.0458 25.8262 28.9115 25.757C28.7773 25.6878 28.6179 25.7267 28.5257 25.8478L23.9538 31.8511C23.8783 31.9506 23.8657 32.0803 23.9202 32.1928C23.9748 32.3052 24.0838 32.3744 24.2013 32.3744H26.1894L25.0947 36.3405C25.0527 36.4833 25.1198 36.6433 25.254 36.7125ZM26.9066 32.1322C26.9318 32.0327 26.915 31.9289 26.8563 31.8468C26.7976 31.7646 26.7053 31.717 26.6046 31.717H24.8472L28.0769 27.4741L27.3303 30.3849C27.3051 30.48 27.3261 30.5838 27.3848 30.666C27.4435 30.7439 27.5358 30.7914 27.6323 30.7914H29.3478L26.1265 34.9565L26.9066 32.1322Z" fill="black"/>
<path d="M17.5138 21.1006C17.5467 21.1222 17.5827 21.1295 17.6156 21.1295C17.6815 21.1295 17.7475 21.0934 17.7924 21.0285L21.082 16.0691C21.1359 15.9862 21.1449 15.8781 21.109 15.7844C21.07 15.6906 20.9921 15.633 20.9052 15.633H19.5061L20.2431 12.281C20.2701 12.1585 20.2221 12.0287 20.1263 11.9711C20.0304 11.9134 19.9166 11.9458 19.8506 12.0467L16.585 17.0494C16.5311 17.1323 16.5221 17.2405 16.561 17.3342C16.6 17.4279 16.6779 17.4856 16.7618 17.4856H18.1819L17.3999 20.7907C17.37 20.9096 17.4179 21.043 17.5138 21.1006ZM18.6942 17.2837C18.7122 17.2008 18.7002 17.1143 18.6582 17.0458C18.6163 16.9774 18.5504 16.9377 18.4785 16.9377H17.2232L19.5301 13.4019L18.9968 15.8276C18.9788 15.9069 18.9938 15.9934 19.0357 16.0619C19.0777 16.1268 19.1436 16.1664 19.2125 16.1664H20.4379L18.1369 19.6373L18.6942 17.2837Z" fill="black"/>
</svg>
