<svg width="37" height="37" viewBox="0 0 37 37" fill="none" xmlns="http://www.w3.org/2000/svg">
<path d="M1.19572 20.4835L16.9899 36.2781C17.4536 36.7404 18.0817 37 18.7366 37C19.3914 37 20.0195 36.7404 20.4833 36.2781L36.2774 20.4835C36.7401 20.02 37 19.3918 37 18.7368C37 18.0819 36.7401 17.4537 36.2774 16.9901L20.4833 1.19557C20.0195 0.733269 19.3914 0.473679 18.7366 0.473679C18.0817 0.473679 17.4536 0.733269 16.9899 1.19557L1.19572 16.9901C0.733009 17.4537 0.473137 18.0819 0.473137 18.7368C0.473137 19.3918 0.733009 20.02 1.19572 20.4835ZM2.40667 18.2007L18.2004 2.40652C18.343 2.26505 18.5357 2.18567 18.7366 2.18567C18.9374 2.18567 19.1301 2.26505 19.2727 2.40652L35.0669 18.2007C35.2084 18.3433 35.2877 18.536 35.2877 18.7368C35.2877 18.9377 35.2084 19.1304 35.0669 19.273L19.2727 35.0672C19.1301 35.2086 18.9374 35.288 18.7366 35.288C18.5357 35.288 18.343 35.2086 18.2004 35.0672L2.40625 19.273C2.26478 19.1304 2.18539 18.9377 2.18539 18.7368C2.18539 18.536 2.2652 18.3433 2.40667 18.2007ZM9.66528 18.6082C9.66528 18.3812 9.75547 18.1635 9.91601 18.0029C10.0765 17.8424 10.2943 17.7522 10.5213 17.7522H23.3503L20.9551 15.3574C20.7945 15.1969 20.7043 14.9791 20.7043 14.752C20.7043 14.5249 20.7945 14.3071 20.9551 14.1465C21.1157 13.9859 21.3335 13.8957 21.5606 13.8957C21.7877 13.8957 22.0055 13.9859 22.1661 14.1465L26.0223 18.0023C26.1828 18.163 26.2729 18.3808 26.2729 18.6078C26.2729 18.8349 26.1828 19.0526 26.0223 19.2133L21.9088 23.3263C21.8293 23.4059 21.7349 23.4689 21.6311 23.512C21.5272 23.555 21.4158 23.5771 21.3034 23.5771C21.1909 23.5771 21.0796 23.555 20.9757 23.512C20.8718 23.4689 20.7774 23.4059 20.6979 23.3263C20.6184 23.2468 20.5553 23.1524 20.5123 23.0486C20.4692 22.9447 20.4471 22.8333 20.4471 22.7209C20.4471 22.6084 20.4692 22.4971 20.5123 22.3932C20.5553 22.2893 20.6184 22.1949 20.6979 22.1154L23.3499 19.4634H10.5209C10.294 19.4634 10.0764 19.3733 9.91588 19.213C9.75537 19.0526 9.6655 18.8351 9.66528 18.6082Z" fill="black"/>
</svg>
