<svg width="80" height="80" viewBox="0 0 80 80" fill="none" xmlns="http://www.w3.org/2000/svg">
<path d="M72.2514 5.89815H70.7768C70.7768 2.64681 68.13 0 64.8787 0C61.6273 0 58.9805 2.64681 58.9805 5.89815H45.7102C45.7102 2.64681 43.0634 0 39.812 0C36.5607 0 33.9139 2.64681 33.9139 5.89815H20.6435C20.6435 2.64681 17.9967 0 14.7454 0C11.494 0 8.84722 2.64681 8.84722 5.89815H7.37269C3.30664 5.89815 0 9.20479 0 13.2708V72.2523C0 76.3184 3.30664 79.625 7.37269 79.625H72.2523C76.3184 79.625 79.625 76.3184 79.625 72.2523V13.2708C79.625 9.20479 76.3174 5.89815 72.2514 5.89815ZM7.37174 8.84722H13.2699C14.0846 8.84722 14.7444 8.18737 14.7444 7.37269C14.7444 6.55801 14.0846 5.89815 13.2699 5.89815H11.7954C11.7954 4.27243 13.1187 2.94907 14.7444 2.94907C16.3701 2.94907 17.6935 4.27243 17.6935 5.89815V11.7963C17.6935 13.422 16.3701 14.7454 14.7444 14.7454C13.1187 14.7454 11.7954 13.422 11.7954 11.7963C11.7954 10.9816 11.1355 10.3218 10.3208 10.3218C9.50614 10.3218 8.84628 10.9816 8.84628 11.7963C8.84628 15.0476 11.4931 17.6944 14.7444 17.6944C17.9958 17.6944 20.6426 15.0476 20.6426 11.7963V8.84722H38.337C39.1517 8.84722 39.8116 8.18737 39.8116 7.37269C39.8116 6.55801 39.1517 5.89815 38.337 5.89815H36.8625C36.8625 4.27243 38.1858 2.94907 39.8116 2.94907C41.4373 2.94907 42.7606 4.27243 42.7606 5.89815V11.7963C42.7606 13.422 41.4373 14.7454 39.8116 14.7454C38.1858 14.7454 36.8625 13.422 36.8625 11.7963C36.8625 10.9816 36.2026 10.3218 35.3879 10.3218C34.5733 10.3218 33.9134 10.9816 33.9134 11.7963C33.9134 15.0476 36.5602 17.6944 39.8116 17.6944C43.0629 17.6944 45.7097 15.0476 45.7097 11.7963V8.84722H63.4041C64.2188 8.84722 64.8787 8.18737 64.8787 7.37269C64.8787 6.55801 64.2188 5.89815 63.4041 5.89815H61.9296C61.9296 4.27243 63.253 2.94907 64.8787 2.94907C66.5044 2.94907 67.8278 4.27243 67.8278 5.89815V11.7963C67.8278 13.422 66.5044 14.7454 64.8787 14.7454C63.253 14.7454 61.9296 13.422 61.9296 11.7963C61.9296 10.9816 61.2698 10.3218 60.4551 10.3218C59.6404 10.3218 58.9805 10.9816 58.9805 11.7963C58.9805 15.0476 61.6273 17.6944 64.8787 17.6944C68.13 17.6944 70.7768 15.0476 70.7768 11.7963V8.84722H72.2514C74.6917 8.84722 76.675 10.8305 76.675 13.2708V20.6435H2.94813V13.2708C2.94813 10.8305 4.93142 8.84722 7.37174 8.84722ZM72.2514 76.6759H7.37174C4.93142 76.6759 2.94813 74.6926 2.94813 72.2523V23.5931H76.675V72.2523C76.675 74.6926 74.6917 76.6759 72.2514 76.6759Z" fill="black"/>
<path d="M22.1169 51.6648V50.2566C22.1169 44.764 24.6125 39.6692 28.9661 36.2851C29.6075 35.7838 29.7255 34.8585 29.2241 34.2171C28.7228 33.572 27.7939 33.4577 27.1561 33.959C22.0763 37.9071 19.1641 43.8462 19.1641 50.2568V51.665C19.1641 52.4797 19.8239 53.1395 20.6386 53.1395C21.4533 53.1395 22.1131 52.4797 22.1131 51.665L22.1169 51.6648Z" fill="black"/>
<path d="M52.4631 33.9591C51.818 33.4578 50.8927 33.5758 50.395 34.2172C49.8937 34.8586 50.0117 35.7876 50.6531 36.2852C55.0067 39.6692 57.5023 44.7638 57.5023 50.2567V51.6649C57.5023 52.4796 58.1622 53.1395 58.9768 53.1395C59.7915 53.1395 60.4514 52.4796 60.4514 51.6649V50.2567C60.4514 43.8462 57.5392 37.9074 52.4593 33.959L52.4631 33.9591Z" fill="black"/>
<path d="M54.786 53.0032V49.7371C54.786 42.9174 50.2001 37.1594 43.9523 35.3607C44.3946 34.6308 44.6637 33.783 44.6637 32.8651C44.6637 30.1925 42.4888 28.0139 39.8125 28.0139C37.1363 28.0139 34.9613 30.1889 34.9613 32.8651C34.9613 33.7793 35.2304 34.6272 35.6728 35.3607C29.4244 37.1596 24.8391 42.9177 24.8391 49.7371V53.0032C24.8391 55.3698 23.9175 57.5927 22.2439 59.2626C21.1969 60.3095 20.6182 61.7029 20.6182 63.1848C20.6182 65.3929 22.4171 67.1882 24.6252 67.1882H33.4577C34.1286 70.082 36.7164 72.2496 39.813 72.2496C42.9096 72.2496 45.4936 70.082 46.1683 67.1882H55.0008C57.2089 67.1882 59.0078 65.3893 59.0078 63.1848C59.0078 61.7029 58.4328 60.3094 57.3821 59.2626C55.7086 57.589 54.7869 55.3661 54.7869 53.0032H54.786ZM37.9097 32.8683C37.9097 31.8214 38.7613 30.9662 39.8119 30.9662C40.8588 30.9662 41.714 31.8177 41.714 32.8683C41.714 33.9153 40.8624 34.7705 39.8119 34.7705C38.7649 34.7705 37.9097 33.9189 37.9097 32.8683ZM39.8119 69.3038C38.3594 69.3038 37.1134 68.4338 36.5495 67.1915H43.0743C42.5103 68.4338 41.2642 69.3038 39.8119 69.3038ZM54.996 64.2424H24.6277C24.0452 64.2424 23.5697 63.7706 23.5697 63.1881C23.5697 62.4951 23.8425 61.8389 24.3291 61.3486C26.5593 59.1221 27.7869 56.1583 27.7869 53.0027V49.7367C27.7869 43.1086 33.18 37.712 39.8116 37.712C46.4396 37.712 51.8362 43.1051 51.8362 49.7367V53.0027C51.8362 56.1545 53.0638 59.1184 55.2941 61.3486C55.7843 61.8389 56.0571 62.4914 56.0571 63.1881C56.0571 63.7706 55.5816 64.2424 54.9991 64.2424H54.996Z" fill="black"/>
<path d="M43.5867 40.2924C42.8126 40.0454 41.9832 40.4767 41.7362 41.2545C41.4929 42.0286 41.9205 42.858 42.6983 43.105C45.2345 43.9049 47.0372 46.2237 47.1846 48.8741C47.2288 49.6593 47.8776 50.2676 48.6554 50.2676H48.7365C49.5475 50.2234 50.1742 49.5267 50.1263 48.712C49.9125 44.8413 47.2842 41.461 43.583 40.2924H43.5867Z" fill="black"/>
</svg>
