<svg width="76" height="76" viewBox="0 0 76 76" fill="none" xmlns="http://www.w3.org/2000/svg">
<path d="M67.003 58.9334C66.6931 58.7894 66.3306 58.8047 66.0331 58.9732C62.6156 60.9282 58.3707 60.9282 54.9562 58.9732C54.6588 58.8047 54.2993 58.7894 53.9864 58.9303C53.3481 59.2276 52.1707 59.8006 50.8694 60.5789V49.9218C51.1079 49.8911 51.3341 49.8206 51.5386 49.7134C51.5355 49.8268 51.5293 49.9401 51.5293 50.0566C51.5293 54.9929 55.551 59.0131 60.4964 59.0131C65.4384 59.0131 69.4634 54.996 69.4634 50.0566C69.4634 45.1202 65.4417 41.1001 60.4964 41.1001C57.0354 41.1001 54.03 43.0703 52.5367 45.9445C52.3322 45.252 51.7559 44.7158 51.0402 44.5626L52.4933 35.2476H52.5676C53.6986 35.2476 54.6188 34.3314 54.6188 33.2069V31.8648C54.6188 30.7494 53.7141 29.8394 52.5924 29.8241L53.7946 24.6395C53.8689 24.3209 53.7853 23.9869 53.5746 23.7387L51.7651 21.6245C52.2268 20.6041 52.044 19.357 51.2105 18.5175L51.2074 18.5144L50.281 17.589C49.7542 17.062 49.0509 16.7739 48.3042 16.7739C47.5575 16.7739 46.8541 17.065 46.3305 17.589C45.2429 18.6706 45.2429 20.4295 46.3274 21.505L47.2569 22.4395C47.7837 22.9635 48.4839 23.2516 49.2306 23.2516C49.5838 23.2516 49.9278 23.1842 50.2469 23.0616L51.6381 24.6856L50.4452 29.8272H50.2995L50.2933 28.0991C50.2902 26.7999 49.2926 25.4516 47.2383 23.9747C45.8688 22.9912 44.2422 22.1087 43.1732 21.6154C42.8633 21.4713 42.5008 21.4867 42.2033 21.6552C39.6131 23.1352 36.3969 23.1352 33.8066 21.6552C33.5092 21.4867 33.1466 21.4713 32.8368 21.6154C31.6501 22.1669 25.7228 25.0748 25.7166 28.096L25.7104 29.8272H25.5648L24.3719 24.6856L25.7631 23.0647C26.0822 23.1903 26.4261 23.2546 26.7793 23.2546C27.526 23.2546 28.2263 22.9666 28.7561 22.4395L29.6795 21.5142C30.767 20.4325 30.767 18.6737 29.6857 17.5982C29.162 17.0712 28.4587 16.78 27.7089 16.78C26.9591 16.78 26.2557 17.0711 25.7352 17.5951L24.8056 18.5205L24.8025 18.5236C23.969 19.3631 23.7863 20.6071 24.2479 21.6306L22.4353 23.7448C22.2215 23.993 22.141 24.327 22.2153 24.6456L23.4175 29.8302C22.2989 29.8455 21.3911 30.7525 21.3911 31.8709V33.213C21.3911 34.3375 22.3114 35.2537 23.4422 35.2537H23.5166L24.9697 44.5687C24.254 44.7219 23.6808 45.2551 23.4732 45.9476C21.9767 43.0764 18.9712 41.1093 15.5103 41.1093C10.5684 41.1093 6.5433 45.1264 6.5433 50.0658C6.5433 55.0021 10.565 59.0222 15.5103 59.0222C20.4523 59.0222 24.4806 55.0052 24.4806 50.0658C24.4806 49.9524 24.4775 49.839 24.4713 49.7256C24.6758 49.8298 24.8988 49.9003 25.1343 49.9309V60.588C23.833 59.8128 22.6618 59.2367 22.0204 58.9426C21.7106 58.7986 21.3481 58.8139 21.0506 58.9824C17.6299 60.9373 13.3851 60.9373 9.96729 58.9824C9.66984 58.8139 9.30733 58.7955 8.99746 58.9426C7.50094 59.6381 0.0335862 63.2906 0.0216883 67.0009L0 74.9643C0 75.2401 0.108445 75.5036 0.306743 75.6966C0.50194 75.8897 0.768405 76 1.04726 76H74.9474C75.2263 76 75.4927 75.8897 75.6879 75.6966C75.8831 75.5036 75.9947 75.237 75.9947 74.9643L75.973 67.0009C75.9606 63.2933 68.4934 59.6378 66.9941 58.9426L67.003 58.9334ZM60.4963 43.1744C64.2857 43.1744 67.3686 46.2631 67.3686 50.0595C67.3686 53.8559 64.2857 56.9446 60.4963 56.9446C56.707 56.9446 53.624 53.8559 53.624 50.0595C53.624 46.2631 56.7069 43.1744 60.4963 43.1744ZM49.72 20.984C49.5899 21.1127 49.4164 21.1862 49.2305 21.1862C49.0446 21.1862 48.8711 21.1158 48.744 20.9901L47.8145 20.0556C47.5418 19.7829 47.5418 19.3263 47.8176 19.0536C47.9477 18.9249 48.1212 18.8514 48.304 18.8514C48.4868 18.8514 48.6603 18.9219 48.7905 19.0536L49.7138 19.979C49.9865 20.2548 49.9865 20.7175 49.7169 20.9871L49.72 20.984ZM26.2931 19.9759L27.2257 19.0474C27.3528 18.9187 27.5263 18.8483 27.7091 18.8483C27.8919 18.8483 28.0654 18.9187 28.1955 19.0536C28.4682 19.3263 28.4682 19.7828 28.1924 20.0586L27.2691 20.9839C27.1389 21.1126 26.9654 21.1862 26.7795 21.1862C26.5936 21.1862 26.4201 21.1157 26.2931 20.9901C26.0204 20.7173 26.0204 20.2516 26.29 19.9789L26.2931 19.9759ZM15.5136 56.9447C11.7243 56.9447 8.64129 53.8561 8.64129 50.0597C8.64129 46.2632 11.7242 43.1746 15.5136 43.1746C19.3029 43.1746 22.389 46.2632 22.389 50.0597C22.389 53.8561 19.3061 56.9447 15.5136 56.9447ZM27.8113 28.1017C27.8143 27.2406 29.9832 25.3163 33.2552 23.7138C36.2327 25.209 39.7774 25.209 42.7552 23.7138C45.4664 25.0497 48.1992 27.0445 48.2022 28.1017L48.2084 29.8237H27.8083L27.8145 28.0986L27.8113 28.1017ZM23.489 33.179V31.8982H52.527V33.179H23.4858H23.489ZM43.5353 44.5193C42.0109 43.3243 40.093 42.6073 38.0077 42.6073C35.9224 42.6073 34.0077 43.3243 32.4833 44.5193H27.0859L25.642 35.2506H50.3769L48.9331 44.5193H43.5353ZM44.8831 51.5638C44.8831 55.3602 41.8002 58.4489 38.0077 58.4489C34.2152 58.4489 31.1354 55.3602 31.1354 51.5638C31.1354 47.7673 34.2183 44.6787 38.0077 44.6787C41.7971 44.6787 44.8831 47.7673 44.8831 51.5638ZM30.5565 46.5907C30.2838 46.9952 30.0453 47.4242 29.8439 47.8715H25.4875V46.5907H30.5565ZM27.235 49.9429H29.1932C29.0972 50.4699 29.0414 51.0123 29.0414 51.5638C29.0414 56.5032 33.0631 60.5203 38.0084 60.5203C42.9504 60.5203 46.9787 56.5032 46.9787 51.5638C46.9787 51.0092 46.926 50.4668 46.8268 49.9429H48.7788V61.9209H47.3473C46.0831 61.1886 44.9925 60.6615 44.5123 60.4379C44.2025 60.2939 43.8399 60.3092 43.5425 60.4777C40.1249 62.4327 35.8801 62.4327 32.4655 60.4777C32.1681 60.3092 31.8056 60.2939 31.4957 60.4379C31.0154 60.6616 29.9248 61.1856 28.6638 61.9179H27.2292V49.9398L27.235 49.9429ZM46.1756 47.8715C45.9711 47.4242 45.7326 46.9952 45.463 46.5907H50.5289V47.8715H46.1756ZM22.5226 68.4962L22.5071 73.9229H7.89178V70.5952C7.89178 70.0222 7.42392 69.5595 6.84453 69.5595C6.26513 69.5595 5.79728 70.0222 5.79728 70.5952V73.9229H2.10401L2.12261 67.001C2.1288 65.6283 5.36042 63.0023 9.41934 61.0351C13.2273 63.0023 17.8034 63.0023 21.6147 61.0351C23.229 61.8164 24.7844 62.7449 26.0268 63.6518C24.1461 65.0613 22.5287 66.7742 22.5225 68.4993L22.5226 68.4962ZM47.7501 73.9229V72.0997C47.7501 71.5267 47.2823 71.064 46.7029 71.064C46.1235 71.064 45.6556 71.5267 45.6556 72.0997V73.9229H30.3867V72.0997C30.3867 71.5267 29.9188 71.064 29.3394 71.064C28.76 71.064 28.2922 71.5267 28.2922 72.0997V73.9229H24.602L24.6175 68.5024C24.6237 67.1296 27.8553 64.5036 31.9142 62.5365C35.7222 64.5036 40.2983 64.5036 44.1064 62.5365C48.1653 64.5006 51.3969 67.1266 51.4031 68.4993L51.4217 73.9198H47.7532L47.7501 73.9229ZM70.2411 73.9229V70.5952C70.2411 70.0222 69.7732 69.5595 69.1938 69.5595C68.6144 69.5595 68.1466 70.0222 68.1466 70.5952V73.9229H53.5098L53.4912 68.4962C53.485 66.7711 51.8676 65.0583 49.99 63.6488C51.2325 62.7387 52.7878 61.8164 54.4052 61.032C58.2132 62.9992 62.7893 62.9992 66.5974 61.032C70.6563 62.9992 73.8879 65.6252 73.8941 66.9949L73.9127 73.9198H70.2442L70.2411 73.9229ZM38.005 22.1143C41.9833 22.1143 45.2181 18.8817 45.2181 14.9106C45.2181 10.9394 41.9803 7.70677 38.005 7.70677C34.0266 7.70677 30.7918 10.9394 30.7918 14.9106C30.7918 18.8817 34.0296 22.1143 38.005 22.1143ZM38.005 9.77779C40.8276 9.77779 43.1266 12.082 43.1266 14.9102C43.1266 17.7415 40.8307 20.0427 38.005 20.0427C35.1823 20.0427 32.8833 17.7415 32.8833 14.9102C32.8833 12.079 35.1792 9.77779 38.005 9.77779ZM71.3436 1.57097e-05H57.1867C54.6151 1.57097e-05 52.5236 2.08673 52.5236 4.65138V10.6509C52.5236 12.9 54.1317 14.7814 56.2603 15.2104V18.3358C56.2603 18.7311 56.4865 19.0896 56.8428 19.2642C56.9884 19.3347 57.1464 19.3715 57.3045 19.3715C57.5306 19.3715 57.7568 19.2979 57.9427 19.157L63.0241 15.3023H71.3431C73.9117 15.3023 76 13.2156 76 10.6509V4.65137C76 2.08671 73.9122 1.57097e-05 71.3436 1.57097e-05ZM73.9091 10.654C73.9091 12.0788 72.7597 13.234 71.3436 13.234H62.6709C62.4416 13.234 62.2154 13.3106 62.0326 13.4485L58.3548 16.2399V14.2697C58.3548 13.6967 57.8869 13.2341 57.3076 13.2341H57.1867C55.7707 13.2341 54.6181 12.0758 54.6181 10.654V4.65447C54.6181 3.22966 55.7707 2.07444 57.1867 2.07444H71.3436C72.7596 2.07444 73.9091 3.23271 73.9091 4.65447L73.9091 10.654ZM71.1299 6.01486C71.1299 6.58785 70.662 7.05053 70.0826 7.05053H64.4373C63.8579 7.05053 63.3901 6.58785 63.3901 6.01486C63.3901 5.44187 63.8579 4.97919 64.4373 4.97919H70.0826C70.662 4.97919 71.1299 5.44187 71.1299 6.01486ZM57.4005 6.01486C57.4005 5.44187 57.8684 4.97919 58.4478 4.97919H60.7467C61.3262 4.97919 61.794 5.44187 61.794 6.01486C61.794 6.58785 61.3261 7.05053 60.7467 7.05053H58.4478C57.8684 7.05053 57.4005 6.58785 57.4005 6.01486ZM71.1299 9.78682C71.1299 10.3598 70.662 10.8225 70.0826 10.8225H58.4481C57.8687 10.8225 57.4008 10.3598 57.4008 9.78682C57.4008 9.21382 57.8687 8.75115 58.4481 8.75115H70.0826C70.662 8.75115 71.1299 9.21383 71.1299 9.78682Z" fill="white"/>
</svg>
