<svg width="60" height="82" viewBox="0 0 60 82" fill="none" xmlns="http://www.w3.org/2000/svg">
<path fill-rule="evenodd" clip-rule="evenodd" d="M36.8348 76.6156C36.8158 76.5995 36.7968 76.5867 36.7778 76.5707L29.8701 71.0485L23.2252 76.4682L23.1872 76.497L16.7894 81.7149C16.5582 81.9039 16.2763 82 15.9945 82C15.8108 82 15.6239 81.9584 15.4465 81.8751C15.0063 81.6637 14.7276 81.212 14.7276 80.7187V56.4485C12.3553 54.9302 10.9902 52.262 11.0599 49.4945C8.17775 49.5682 5.45707 48.0307 4.01918 45.5098C2.55275 42.9409 2.64145 39.7987 4.12687 37.3515C1.63111 35.9806 0 33.3092 0 30.3399C0 27.3738 1.63111 24.6992 4.12687 23.3283C2.64146 20.8779 2.55276 17.7389 4.01918 15.17C5.45707 12.6492 8.18091 11.1149 11.0599 11.1853C10.9839 8.31212 12.4599 5.54783 15 4.06478C17.4673 2.6234 20.6693 2.69703 23.0669 4.17689C24.4225 1.64967 27.0671 0 30 0C32.936 0 35.5806 1.64959 36.9331 4.17689C39.3306 2.69705 42.5295 2.62341 45 4.06478C47.5433 5.54783 49.016 8.31212 48.9401 11.1853C51.8475 11.0988 54.5429 12.6492 55.9808 15.17C57.4473 17.7389 57.3585 20.8779 55.8731 23.3283C58.3689 24.6992 60 27.3738 60 30.3399C60 33.306 58.3689 35.9806 55.8731 37.3515C57.3585 39.8019 57.4472 42.9409 55.9808 45.5098C54.5429 48.0275 51.8507 49.5842 48.9401 49.4945C49.0129 52.262 47.6478 54.9302 45.2724 56.4485V80.7154C45.2724 81.2055 44.9937 81.6539 44.5566 81.8685C44.1196 82.0799 43.6001 82.0255 43.2201 81.7212L36.8318 76.6154L36.8348 76.6156ZM17.261 57.4834V78.0374L21.1472 74.8695V63.1206C21.1472 62.4128 21.7141 61.8394 22.4141 61.8394C23.1141 61.8394 23.681 62.4128 23.681 63.1206V72.804L29.0653 68.4125C29.5245 68.0345 30.1833 68.0313 30.6457 68.4061L36.3214 72.9449V63.1271C36.3214 62.4192 36.8883 61.8459 37.5883 61.8459C38.2882 61.8459 38.8552 62.4192 38.8552 63.1271V74.9719L42.7414 78.079V57.493C40.7682 57.9094 38.6461 57.5699 36.9358 56.5129C35.5802 59.0401 32.9356 60.6898 30.0027 60.6898C27.0667 60.6898 24.4221 59.0402 23.0696 56.5129C21.3562 57.5699 19.2341 57.9094 17.2641 57.493L17.261 57.4834ZM43.4259 54.5654L43.4322 54.5622L43.4607 54.5494L43.467 54.5462C43.5589 54.4981 43.6476 54.4501 43.7362 54.3988C45.8266 53.1784 46.8528 50.68 46.232 48.3225C46.1148 47.8805 46.2415 47.4096 46.5614 47.0861C46.8813 46.7626 47.3469 46.6377 47.7839 46.753C48.2305 46.8715 48.6898 46.9323 49.1522 46.9323C51.062 46.9323 52.8389 45.8946 53.7922 44.2257C54.9989 42.1117 54.6537 39.4274 52.9529 37.701C52.633 37.3775 52.5094 36.9066 52.6266 36.4646C52.7438 36.0226 53.0827 35.6766 53.5198 35.5581C55.8477 34.9239 57.4725 32.7746 57.4725 30.3338C57.4725 27.893 55.8477 25.7437 53.5198 25.1096C53.0828 24.991 52.7439 24.6451 52.6266 24.203C52.5094 23.761 52.633 23.2901 52.9529 22.9667C54.6537 21.2402 55.002 18.5592 53.7922 16.4452C52.8389 14.7763 51.062 13.7385 49.1522 13.7385C48.6898 13.7385 48.2305 13.7994 47.7839 13.9211C47.35 14.0396 46.8813 13.9115 46.5614 13.588C46.2415 13.2645 46.118 12.7936 46.232 12.3516C46.8528 9.99728 45.8266 7.49884 43.7362 6.27852C42.9223 5.80447 42.0006 5.55462 41.0662 5.55462C39.6568 5.55462 38.2759 6.12798 37.2845 7.13057C36.9647 7.45408 36.4991 7.57901 36.062 7.46049C35.6249 7.34197 35.2829 6.99604 35.1656 6.55718C34.5385 4.20289 32.4134 2.5597 29.9999 2.5597C27.5864 2.5597 25.4612 4.20289 24.8341 6.55718C24.7169 6.99921 24.3749 7.34194 23.9378 7.46049C23.5007 7.579 23.0351 7.45408 22.7152 7.13057C21.7207 6.12796 20.343 5.55462 18.9335 5.55462C18.0024 5.55462 17.0775 5.80447 16.2667 6.27852C14.1763 7.49892 13.1501 9.99737 13.7709 12.3516C13.8881 12.7936 13.7614 13.2645 13.4416 13.588C13.1217 13.9115 12.6529 14.0364 12.219 13.9211C11.7724 13.7994 11.3132 13.7385 10.8508 13.7385C8.9409 13.7385 7.16409 14.7763 6.21074 16.4452C5.00401 18.5592 5.34925 21.2402 7.05325 22.9667C7.37314 23.2902 7.49667 23.761 7.37947 24.203C7.26229 24.6451 6.92339 24.991 6.48628 25.1096C4.15836 25.7438 2.53358 27.893 2.53358 30.3338C2.53358 32.7746 4.15836 34.9239 6.48628 35.5581C6.92336 35.6766 7.26225 36.0226 7.37947 36.4646C7.49666 36.9066 7.37314 37.3775 7.05325 37.701C5.35241 39.4275 5.00409 42.1085 6.2139 44.2257C7.16725 45.8946 8.94406 46.9323 10.8539 46.9323C11.3163 46.9323 11.7756 46.8715 12.2222 46.753C12.6561 46.6377 13.1248 46.7626 13.4447 47.0861C13.7646 47.4096 13.8881 47.8805 13.7741 48.3225C13.1533 50.6768 14.1795 53.1752 16.2699 54.3988C17.0838 54.8729 18.0055 55.1259 18.9367 55.1259C20.3461 55.1259 21.727 54.5526 22.7184 53.55C22.9591 53.3065 23.2822 53.1752 23.6116 53.1752C23.7224 53.1752 23.8301 53.188 23.941 53.2201C24.3781 53.3386 24.7201 53.6813 24.8373 54.1234C25.4644 56.4776 27.5896 58.1208 30.0031 58.1208C32.4166 58.1208 34.5418 56.4776 35.1689 54.1234C35.286 53.6813 35.6281 53.3386 36.0652 53.2201C36.5023 53.1015 36.9679 53.2265 37.2877 53.55C38.2823 54.5526 39.66 55.1259 41.0694 55.1259C41.8866 55.1259 42.6942 54.9337 43.4291 54.5686L43.4259 54.5654ZM29.9996 47.2207C20.7953 47.2207 13.3083 39.6485 13.3083 30.3402C13.3083 21.032 20.7956 13.4598 29.9996 13.4598C39.2036 13.4598 46.691 21.032 46.691 30.3402C46.691 39.6485 39.2036 47.2207 29.9996 47.2207ZM29.9996 16.0223C22.1924 16.0223 15.8421 22.4445 15.8421 30.3402C15.8421 38.236 22.1923 44.6582 29.9996 44.6582C37.8069 44.6582 44.1572 38.236 44.1572 30.3402C44.1572 22.4445 37.8069 16.0223 29.9996 16.0223ZM35.5106 40.1958C35.3713 40.1958 35.2319 40.1734 35.0989 40.1253L30.0028 38.3508L24.9035 40.1253C24.5108 40.263 24.0801 40.1958 23.7475 39.9491C23.4117 39.7025 23.2185 39.3085 23.2249 38.8921L23.3167 33.4404L20.0735 29.0842C19.8233 28.7511 19.7536 28.3154 19.8803 27.9182C20.007 27.521 20.3205 27.2104 20.7132 27.0887L25.8695 25.4935L28.9639 21.0284C29.2014 20.6857 29.5878 20.4839 30.0027 20.4839C30.4176 20.4839 30.804 20.6889 31.0415 21.0284L34.1359 25.4935L39.2921 27.0887C39.688 27.2104 39.9984 27.5211 40.1283 27.9182C40.2549 28.3154 40.1821 28.751 39.9351 29.0842L36.6918 33.4404L36.7837 38.8921C36.79 39.3085 36.5968 39.7057 36.2611 39.9491C36.0394 40.1093 35.7796 40.1926 35.5136 40.1926L35.5106 40.1958ZM23.1839 29.0045L25.6005 32.2492C25.7715 32.4766 25.8602 32.7553 25.8539 33.0404L25.7842 37.1051L29.5849 35.7822C29.8541 35.6893 30.1423 35.6893 30.4083 35.7822L34.209 37.1051L34.1393 33.0404C34.1362 32.7553 34.2249 32.4766 34.3959 32.2492L36.8125 29.0045L32.9706 27.8161C32.7014 27.7329 32.4671 27.5599 32.3024 27.3261L29.9966 23.998L27.6908 27.3261C27.5293 27.5599 27.2949 27.7328 27.0225 27.8161L23.1806 29.0045H23.1839ZM29.9997 52.1472C18.11 52.1472 8.43377 42.3647 8.43377 30.337C8.43377 29.6291 9.00071 29.0557 9.70066 29.0557C10.4006 29.0557 10.9676 29.6291 10.9676 30.337C10.9676 40.9485 19.5062 49.5847 29.9997 49.5847C30.6997 49.5847 31.2666 50.1581 31.2666 50.866C31.2666 51.5739 30.6997 52.1472 29.9997 52.1472ZM50.2984 31.6186C49.5984 31.6186 49.0315 31.0453 49.0315 30.3374C49.0315 19.7258 40.4961 11.0896 29.9993 11.0896C29.2994 11.0896 28.7324 10.5163 28.7324 9.80837C28.7324 9.10049 29.2994 8.52713 29.9993 8.52713C41.889 8.52713 51.5653 18.3097 51.5653 30.3374C51.5653 31.0453 50.9983 31.6186 50.2984 31.6186Z" fill="black"/>
</svg>
