<svg width="45" height="37" viewBox="0 0 45 37" fill="none" xmlns="http://www.w3.org/2000/svg">
<path d="M17.4717 16.001C22.8158 16.001 28.1598 16.001 33.5061 16.001C33.7935 16.001 34.057 16.0615 34.2247 15.6662C34.3968 15.2602 34.1681 15.1025 33.9525 14.8865C30.5553 11.4867 27.1646 8.08264 23.7587 4.69151C23.4952 4.43016 23.5017 4.2984 23.7631 4.04785C24.7343 3.11691 25.686 2.16221 26.6333 1.20535C26.8336 1.00447 26.9469 0.950472 27.182 1.18375C32.7482 6.75427 38.3232 12.314 43.8959 17.878C44.2574 18.2387 44.2138 18.7766 43.8088 19.1826C38.9024 24.0836 33.9961 28.9867 29.0897 33.8876C28.4473 34.5291 27.7983 35.1641 27.1712 35.8208C26.9665 36.0368 26.8554 36.0152 26.6572 35.8121C25.6903 34.8315 24.7147 33.8574 23.7217 32.9048C23.4712 32.6651 23.5213 32.5463 23.7391 32.3281C27.1646 28.9132 30.5814 25.4875 33.9982 22.064C34.1746 21.8869 34.4011 21.7616 34.2487 21.4031C34.0962 21.0488 33.8785 21.0186 33.5562 21.0186C22.8833 21.0251 12.2082 21.0229 1.53527 21.0229C0.783963 21.0229 0.877604 21.092 0.873249 20.3814C0.868893 19.0854 0.892848 17.7895 0.860182 16.4978C0.849294 16.0637 0.9952 15.9924 1.39154 15.9924C6.75086 16.0053 12.1124 16.001 17.4717 16.001Z" fill="black"/>
</svg>
