<svg width="52" height="56" viewBox="0 0 52 56" fill="none" xmlns="http://www.w3.org/2000/svg">
<path d="M40.2383 22.3492C40.3723 22.3492 40.417 22.3604 40.4263 22.3474C40.9514 21.5533 41.51 20.7462 42.616 20.9177C43.7536 21.0948 44.2228 22.038 44.5319 22.9905C44.7851 23.7677 45.1352 24.2934 45.9247 24.642C46.8519 25.052 47.444 25.9188 47.9318 26.7874C50.9072 32.0793 52.3539 37.7328 51.8382 43.8281C51.7693 44.6408 51.5663 45.459 51.0375 46.076C50.6093 46.5737 50.5981 47.036 50.7136 47.6008C50.8569 48.3072 50.896 49.0193 50.6726 49.7201C50.3654 50.6876 49.5294 51.1256 48.5537 50.8367C48.0119 50.6764 47.5483 50.3837 47.0939 50.0426C43.9268 47.6698 40.6181 45.5653 36.7248 44.5699C36.3059 44.4618 35.8888 44.3556 35.4494 44.4264C35.319 44.8029 35.5983 44.9595 35.8236 45.0807C37.1326 45.7797 37.8364 46.954 38.4117 48.2532C38.7748 49.0752 39.2235 49.8581 39.5903 50.6782C40.0298 51.6624 39.7691 52.4602 38.8195 52.9486C37.3039 53.7296 35.7734 54.4808 34.2354 55.2115C33.2542 55.6775 32.4088 55.3084 31.9191 54.2031C30.7629 51.5953 29.6215 48.982 28.4988 46.3612C28.253 45.7871 28.0314 45.5522 27.2922 45.6697C25.3353 45.9828 23.6093 44.7694 23.0377 42.8588C22.9483 42.5624 22.8236 42.2642 22.8068 41.9622C22.7696 41.2222 22.3711 41.0898 21.7045 41.0917C15.7165 41.1141 9.72853 41.1048 3.74239 41.1048C3.4631 41.1048 3.18381 41.1085 2.90452 41.1029C0.956929 41.0768 0.0631975 40.1858 0.0613356 38.2454C0.0594736 30.5471 0.0613356 22.8432 0.0613356 15.1412C0.0613356 12.718 0.0576117 10.2966 0.0631975 7.87346C0.0669214 6.08216 1.03699 5.11102 2.79839 5.06814C3.53199 5.0495 4.47972 5.39994 4.94334 4.91343C5.40138 4.43439 5.04389 3.49307 5.08671 2.75679C5.10533 2.44737 5.07368 2.13422 5.09788 1.82479C5.15374 1.05683 5.57082 0.622516 6.34538 0.603876C7.27635 0.581508 8.20732 0.579644 9.13643 0.603876C9.90541 0.62438 10.3467 1.03073 10.356 1.82479C10.3672 2.69341 10.3821 3.5639 10.3579 4.43252C10.343 4.9097 10.4994 5.08678 10.9928 5.08119C12.9478 5.05882 14.9029 5.05323 16.856 5.08492C17.4258 5.09424 17.5282 4.84446 17.5114 4.35983C17.4872 3.5844 17.4928 2.80712 17.5096 2.02983C17.5319 1.00091 17.9062 0.616924 18.9098 0.59642C19.7476 0.581508 20.5855 0.57778 21.4234 0.598284C22.3618 0.620652 22.7565 1.02887 22.7751 1.98323C22.79 2.79034 22.7956 3.59932 22.7733 4.40643C22.7621 4.84633 22.8385 5.08865 23.371 5.08119C25.3558 5.0551 27.3425 5.05882 29.3273 5.07933C29.8096 5.08492 29.8915 4.8687 29.8822 4.46048C29.8636 3.65337 29.8617 2.8444 29.8822 2.03729C29.9064 1.04564 30.3309 0.61506 31.301 0.59642C32.1388 0.579644 32.9767 0.57778 33.8146 0.59642C34.7493 0.616924 35.1571 1.01955 35.1924 1.97578C35.2222 2.81271 35.2204 3.65337 35.1999 4.49031C35.1887 4.9358 35.36 5.09797 35.7976 5.0756C36.3245 5.0495 36.8514 5.06814 37.3802 5.07001C39.2682 5.07746 40.2364 6.03742 40.2402 7.95174C40.2513 12.3004 40.2439 16.6473 40.2439 20.996C40.2383 21.4527 40.2383 21.9037 40.2383 22.3492ZM37.1456 28.2562C38.1957 26.8993 38.866 25.7007 38.7227 24.0995C38.583 22.5282 38.6519 20.9326 38.7096 19.3501C38.7394 18.5504 38.529 18.2988 37.6856 18.3006C27.5082 18.3323 17.3308 18.3286 7.15533 18.3044C6.41241 18.3025 6.14429 18.4572 6.14802 19.2643C6.18153 25.7249 6.17595 32.1855 6.15174 38.6461C6.14988 39.3582 6.31746 39.5949 7.07154 39.5893C11.57 39.5539 16.0703 39.5707 20.5687 39.5707C22.0713 39.5707 22.0695 39.5707 22.5163 38.21C22.5741 38.0329 22.6169 37.8334 22.7323 37.6992C23.3896 36.922 23.384 36.003 23.3449 35.0673C23.3244 34.5715 23.3281 34.0738 23.3468 33.5761C23.3784 32.7597 23.8048 32.3104 24.6315 32.303C25.7487 32.2918 26.8658 32.2806 27.983 32.3048C28.8711 32.3253 29.2268 32.7429 29.3217 33.6339C29.3534 33.9321 29.0257 34.5416 29.6252 34.4913C30.1894 34.4428 30.9975 34.5342 31.139 33.6339C31.3103 32.5472 31.5579 32.3458 32.6341 32.2862C33.0829 32.262 33.6228 32.5322 34.0641 31.9115C33.5055 31.9115 33.0438 31.9171 32.582 31.9097C31.5467 31.8929 31.1595 31.5331 31.1446 30.5303C31.1278 29.4436 31.1446 28.3569 31.1408 27.2683C31.139 26.4761 31.5523 26.0232 32.3157 25.9933C33.4925 25.9486 34.6729 25.9617 35.8516 25.9859C36.6336 26.0008 37.0153 26.4836 37.0953 27.2273C37.1214 27.4995 37.1214 27.7716 37.1456 28.2562ZM20.0604 13.5381C23.9091 13.5381 27.7558 13.5381 31.6045 13.5381C33.7141 13.5381 35.8255 13.5363 37.9351 13.54C38.3615 13.54 38.7376 13.5512 38.7301 12.9342C38.7078 11.1634 38.7227 9.39261 38.7134 7.62182C38.7115 7.26766 38.6165 6.90604 38.2609 6.76252C37.3355 6.38972 36.317 6.43818 35.4326 6.67304C34.9224 6.80911 35.3135 7.73552 35.2259 8.29845C35.198 8.48112 35.2222 8.67125 35.2185 8.85765C35.2036 9.6834 34.7716 10.1401 33.9598 10.168C33.0307 10.2016 32.0979 10.196 31.1669 10.168C30.3421 10.1438 29.9362 9.6573 29.9027 8.85392C29.884 8.38792 29.8561 7.91819 29.9045 7.45779C29.9734 6.78488 29.7779 6.52392 29.0462 6.55748C27.6832 6.62085 26.3166 6.57612 24.9499 6.57612C22.8217 6.57612 22.8217 6.57612 22.7807 8.73835C22.7807 8.77004 22.7789 8.79986 22.7807 8.83155C22.818 9.73559 22.3227 10.1475 21.4811 10.1736C20.5818 10.2016 19.6806 10.1997 18.7813 10.1699C17.9732 10.1419 17.5226 9.71322 17.5263 8.87256C17.5282 8.34505 17.491 7.81381 17.5338 7.28816C17.5822 6.69355 17.3271 6.55375 16.7797 6.5668C15.4149 6.59848 14.0482 6.55748 12.6834 6.58544C11.948 6.60035 11.0263 6.26483 10.531 6.73456C10.0637 7.17446 10.4119 8.09341 10.3746 8.79986C10.3225 9.77287 9.98734 10.1438 9.00982 10.1792C8.2036 10.2072 7.39552 10.2016 6.5893 10.1829C5.48517 10.155 5.11092 9.75423 5.08857 8.6321C5.04761 6.5202 5.04761 6.5202 2.90266 6.57984C1.89907 6.6078 1.57882 6.92282 1.57137 7.93497C1.56206 9.45785 1.62909 10.9826 1.5453 12.4999C1.49503 13.4114 1.84507 13.5605 2.64943 13.5568C8.4531 13.5251 14.2568 13.5381 20.0604 13.5381ZM42.4074 22.4257C42.0258 22.5561 41.9085 22.8917 41.7707 23.1936C40.9104 25.0893 39.9367 26.9253 38.7804 28.6551C36.9911 31.3356 34.9802 33.8054 32.042 35.3189C31.6287 35.5314 31.6585 35.8091 31.7478 36.1614C32.2431 38.1447 32.744 40.128 33.2169 42.1169C33.3305 42.596 33.567 42.7637 34.0548 42.7358C35.1161 42.6742 36.1569 42.8718 37.1791 43.1309C40.5325 43.9865 43.4892 45.6585 46.3119 47.6045C47.0269 48.0966 47.7028 48.6446 48.4215 49.1293C48.6189 49.2635 48.8889 49.5244 49.1588 49.2597C49.4884 48.9391 49.1588 47.0584 48.7157 46.8589C47.2597 46.2028 46.4441 44.9464 45.7552 43.6267C43.4148 39.155 42.2473 34.3701 42.1933 29.3243C42.1784 27.9934 42.2976 26.6513 42.9698 25.4435C43.4613 24.5581 43.3496 23.3856 42.6849 22.6792C42.6011 22.5916 42.5061 22.5151 42.4074 22.4257ZM20.0772 15.0647C14.2437 15.0647 8.41028 15.0815 2.57682 15.0461C1.75198 15.0405 1.54716 15.2698 1.55089 16.0862C1.5844 23.3856 1.56951 30.685 1.56951 37.9863C1.56951 38.1727 1.5602 38.361 1.57509 38.5455C1.62909 39.1923 1.93631 39.5856 2.6364 39.5744C2.97713 39.5688 3.32346 39.5371 3.6586 39.5819C4.42014 39.6844 4.65288 39.4085 4.64916 38.6201C4.6175 32.0029 4.62868 25.3876 4.63054 18.7704C4.63054 17.0816 4.90797 16.8039 6.56137 16.802C16.8635 16.802 27.1637 16.802 37.4659 16.802C37.7135 16.802 37.963 16.7983 38.2106 16.7983C38.4508 16.8001 38.6016 16.7218 38.678 16.459C38.9517 15.5233 38.6352 15.0666 37.6707 15.0666C31.8056 15.0629 25.9423 15.0647 20.0772 15.0647ZM27.1228 44.212C28.4373 43.8858 29.9939 43.5 31.5523 43.116C31.9042 43.0303 31.8502 42.8029 31.7832 42.54C31.2768 40.5306 30.7759 38.5194 30.2862 36.5063C30.1968 36.1391 30.0702 35.9918 29.6494 36.1074C28.3405 36.469 27.0073 36.743 25.7058 37.1289C24.2219 37.5688 23.6261 38.6126 23.9351 40.1187C24.0971 40.9053 24.2926 41.6882 24.5179 42.458C24.8438 43.5671 25.7263 44.2064 27.1228 44.212ZM33.1759 44.2866C32.124 44.5438 31.072 44.7992 30.0181 45.0564C29.5805 45.1627 29.7295 45.4218 29.8449 45.6865C30.9677 48.2383 32.0942 50.7901 33.202 53.3493C33.3975 53.8023 33.6061 53.8489 34.0306 53.6196C34.9299 53.135 35.859 52.7044 36.7751 52.2514C38.3093 51.4928 38.341 51.4742 37.5366 49.9941C36.8831 48.7919 36.587 47.3417 35.2576 46.5774C34.5389 46.1636 34.0101 45.5728 33.7513 44.7582C33.6675 44.501 33.5688 44.199 33.1759 44.2866ZM43.7145 29.589C43.7555 31.5406 43.9212 33.0523 44.2266 34.5435C44.8205 37.4383 45.6342 40.2641 47.0567 42.8756C47.5483 43.7777 48.105 44.6408 48.9242 45.2894C49.1868 45.4982 49.4698 45.5783 49.7454 45.2745C49.9949 44.9986 49.8664 44.7973 49.6839 44.5476C48.5332 42.9818 47.7587 41.2222 47.1331 39.3992C45.7422 35.345 44.8857 31.2051 45.3307 26.8862C45.3772 26.4388 45.569 25.9896 44.9676 25.8405C44.3662 25.6914 44.2452 26.2375 44.1074 26.6141C43.7071 27.712 43.7332 28.8695 43.7145 29.589ZM46.9841 28.0829C45.9917 30.959 48.684 41.1681 50.505 42.596C50.4752 37.4495 49.3395 32.6646 46.9841 28.0829ZM21.2633 5.35706C21.2633 4.49031 21.2428 3.62168 21.2707 2.75493C21.2856 2.27215 21.1143 2.06898 20.6283 2.11371C20.3528 2.13981 20.0679 2.14726 19.7942 2.11185C19.1593 2.02983 19.014 2.32248 19.0252 2.90964C19.0587 4.55182 19.0624 6.194 19.0233 7.83431C19.0084 8.47739 19.1946 8.75699 19.8538 8.67311C20.0977 8.64142 20.3509 8.64701 20.5948 8.67125C21.1366 8.72344 21.2875 8.46434 21.2707 7.9592C21.2409 7.09244 21.2633 6.22568 21.2633 5.35706ZM8.83294 5.45585C8.83294 4.61892 8.7957 3.77826 8.84597 2.94319C8.88507 2.30011 8.68212 2.01678 8.02113 2.11185C7.80887 2.14167 7.58544 2.14167 7.37131 2.11185C6.74384 2.0261 6.58371 2.30943 6.59488 2.90405C6.6284 4.54809 6.63026 6.19213 6.5893 7.83618C6.57254 8.48485 6.77549 8.75326 7.42531 8.67311C7.66922 8.64329 7.92245 8.64515 8.16822 8.67125C8.71191 8.72903 8.86087 8.47553 8.84225 7.96666C8.80873 7.13345 8.83294 6.29465 8.83294 5.45585ZM33.6414 5.39621C33.6414 4.52759 33.6191 3.65896 33.6489 2.79221C33.6675 2.25724 33.4515 2.06152 32.9376 2.11558C32.6918 2.13981 32.4386 2.14726 32.1947 2.11371C31.5765 2.02797 31.3885 2.29266 31.4015 2.89473C31.4332 4.44371 31.4685 5.99828 31.3903 7.54353C31.3419 8.46807 31.6547 8.78868 32.5317 8.63956C32.6527 8.61905 32.7812 8.62278 32.9022 8.63956C33.4683 8.71412 33.6749 8.47739 33.6489 7.90701C33.6135 7.07007 33.6414 6.23314 33.6414 5.39621ZM32.6472 28.8769C32.6732 30.5937 32.4274 30.3886 33.8798 30.3849C35.7529 30.3812 35.5648 30.644 35.5648 29.136C35.5648 27.2665 35.7845 27.4957 34.2764 27.4827C32.6472 27.4696 32.6472 27.479 32.6472 28.8769ZM24.8717 34.7541C24.6911 35.66 25.0635 35.7831 25.8231 35.4848C26.2756 35.3077 26.7671 35.1996 27.2531 35.14C27.8434 35.0673 27.7819 34.6758 27.7894 34.2676C27.8005 33.7215 27.417 33.8091 27.0911 33.8054C26.661 33.7979 26.2272 33.8408 25.8008 33.796C25.0467 33.7159 24.6706 33.9526 24.8717 34.7541Z" fill="#EC232A"/>
<path d="M13.6758 22.6251C13.6758 23.2458 13.6944 23.8684 13.6702 24.4872C13.6423 25.19 13.2401 25.5777 12.5475 25.5889C11.3391 25.6112 10.1288 25.6075 8.91857 25.5889C8.26317 25.5795 7.84237 25.1974 7.81816 24.5599C7.77161 23.2887 7.76789 22.0137 7.81258 20.7425C7.84237 19.9242 8.45122 19.6632 9.16993 19.6502C10.194 19.6315 11.2181 19.6278 12.2403 19.6502C13.3146 19.6744 13.6591 20.0453 13.6796 21.1339C13.6889 21.6297 13.6814 22.1274 13.6814 22.6251C13.6814 22.6251 13.6796 22.6251 13.6758 22.6251ZM12.1658 22.6251C12.1416 20.9773 12.3706 21.1563 10.9648 21.1619C9.11221 21.1675 9.35054 20.9121 9.33378 22.4816C9.31702 24.0809 9.33006 24.0809 10.68 24.0809C12.1658 24.0809 12.1658 24.0809 12.1658 22.6251Z" fill="#EC232A"/>
<path d="M13.6777 28.931C13.6777 29.5517 13.6963 30.1743 13.6721 30.7932C13.646 31.494 13.255 31.8911 12.5587 31.9022C11.3503 31.9246 10.14 31.9209 8.92973 31.9022C8.22406 31.8911 7.82933 31.4717 7.80885 30.7894C7.77347 29.5797 7.78092 28.3681 7.79954 27.1584C7.81071 26.4053 8.27061 26.012 8.98373 25.9896C10.1605 25.9542 11.3409 25.9505 12.5177 25.9896C13.2811 26.0157 13.7056 26.4426 13.6851 27.2516C13.6702 27.8108 13.6833 28.37 13.6833 28.9273C13.6814 28.931 13.6795 28.931 13.6777 28.931ZM12.1658 28.9497C12.1416 27.3038 12.3743 27.4808 10.9667 27.4846C9.11406 27.4902 9.34867 27.2385 9.33377 28.7987C9.31888 30.4017 9.33005 30.4036 10.6781 30.4036C12.1658 30.4055 12.1658 30.4055 12.1658 28.9497Z" fill="#EC232A"/>
<path d="M10.8029 38.2361C10.2145 38.2342 9.62429 38.2454 9.03592 38.2324C8.2539 38.2156 7.81448 37.8055 7.79959 37.0245C7.77538 35.8465 7.77538 34.6665 7.79959 33.4866C7.81448 32.7522 8.23528 32.3272 8.96889 32.3105C10.1456 32.2844 11.3242 32.2844 12.5028 32.3086C13.2904 32.3235 13.6833 32.7671 13.6833 33.5575C13.6833 34.6442 13.6964 35.729 13.6833 36.8157C13.6703 37.8652 13.3258 38.2081 12.2924 38.2342C11.7953 38.2473 11.3 38.2361 10.8029 38.2361ZM12.1658 35.3115C12.1658 35.0338 12.164 34.756 12.1658 34.4802C12.1677 34.1353 12.1994 33.7327 11.6761 33.8147C10.9016 33.9359 10.0507 33.4624 9.35058 34.1129C9.31707 34.1428 9.34127 34.2322 9.33383 34.2938C9.02847 36.5324 9.37107 36.8922 11.5831 36.7412C12.015 36.7114 12.2031 36.5809 12.1696 36.1447C12.1472 35.867 12.1658 35.5892 12.1658 35.3115Z" fill="#EC232A"/>
<path d="M18.5467 25.5982C17.9899 25.5982 17.4332 25.5907 16.8765 25.6001C16.0368 25.615 15.5918 25.1732 15.5638 24.3717C15.5229 23.2272 15.5396 22.0808 15.5545 20.9364C15.5657 20.1647 15.9977 19.6968 16.7499 19.6651C17.9229 19.6166 19.0997 19.6148 20.2727 19.6614C21.0677 19.6931 21.4978 20.1572 21.4904 20.9923C21.4792 22.0753 21.4997 23.1582 21.4848 24.2412C21.4699 25.19 21.077 25.5721 20.1237 25.5926C19.5987 25.6075 19.0717 25.5982 18.5467 25.5982ZM17.0795 22.5152C17.0999 24.2822 16.9026 24.079 18.286 24.0753C20.2187 24.0697 19.9673 24.2971 19.9673 22.9178C19.9673 20.9177 20.2075 21.1638 18.7831 21.1638C16.8858 21.1638 17.1055 20.8972 17.0795 22.5152Z" fill="#EC232A"/>
<path d="M18.4927 38.2361C18.0272 38.2361 17.5617 38.2417 17.0962 38.2361C15.9605 38.2193 15.5694 37.854 15.5508 36.7431C15.5341 35.7179 15.5285 34.6927 15.5546 33.6675C15.5788 32.7094 15.9753 32.3217 16.938 32.303C17.9918 32.2825 19.0475 32.2844 20.1033 32.303C21.1143 32.3217 21.4737 32.7019 21.4867 33.742C21.4979 34.7672 21.4997 35.7924 21.4867 36.8176C21.4737 37.8335 21.0957 38.2082 20.0772 38.2342C19.5484 38.2473 19.0196 38.2361 18.4927 38.2361ZM19.9748 35.3152C19.9525 33.6153 20.1703 33.8035 18.839 33.8091C16.8635 33.8184 17.0888 33.5333 17.0851 35.0729C17.0795 36.9537 16.8784 36.7132 18.3642 36.7281C19.9748 36.7412 19.9748 36.7319 19.9748 35.3152Z" fill="#EC232A"/>
<path d="M26.3091 31.9116C25.7524 31.9116 25.1956 31.9078 24.6389 31.9116C23.7955 31.919 23.3709 31.4586 23.3467 30.6608C23.3114 29.5163 23.3207 28.37 23.343 27.2255C23.3579 26.45 23.8011 26.0101 24.5644 25.9896C25.7393 25.9579 26.9161 25.9524 28.0891 25.9915C28.8469 26.0176 29.2826 26.4687 29.2938 27.2441C29.3105 28.3588 29.3161 29.4734 29.2938 30.5881C29.277 31.4698 28.8544 31.8817 27.9792 31.9078C27.4225 31.9265 26.8658 31.9116 26.3091 31.9116ZM27.7856 28.9981C27.7595 27.3075 28.0109 27.4827 26.5567 27.4864C24.6296 27.4902 24.8661 27.2534 24.853 28.7073C24.8363 30.4054 24.8493 30.4054 26.1732 30.4054C27.7856 30.4054 27.7856 30.4054 27.7856 28.9981Z" fill="#EC232A"/>
<path d="M34.0771 25.5964C33.4906 25.5945 32.9022 25.6113 32.3157 25.5908C31.5747 25.5665 31.1669 25.149 31.1501 24.4239C31.1222 23.2477 31.139 22.0715 31.1408 20.8954C31.1427 20.1423 31.5765 19.7117 32.271 19.6763C33.4738 19.6148 34.6822 19.6278 35.8869 19.6651C36.6056 19.6875 37.045 20.1442 37.073 20.8506C37.1195 22.0249 37.127 23.203 37.0767 24.3773C37.0432 25.1639 36.5907 25.6187 35.7491 25.6001C35.1906 25.587 34.6338 25.5982 34.0771 25.5964ZM34.1255 24.0809C35.7268 24.0567 35.5685 24.2972 35.5667 22.8581C35.5629 20.9625 35.7882 21.1694 34.3099 21.16C32.649 21.147 32.6471 21.1563 32.6471 22.5319C32.6471 24.0809 32.6471 24.0809 34.1255 24.0809Z" fill="#EC232A"/>
<path d="M21.4867 28.9403C21.4867 29.5275 21.5035 30.1165 21.4811 30.7037C21.4532 31.4791 21.0417 31.9022 20.256 31.9097C19.1127 31.919 17.9695 31.9097 16.8263 31.9134C16.0275 31.9171 15.5974 31.4754 15.5676 30.7279C15.5192 29.5536 15.5322 28.3774 15.5602 27.2012C15.5788 26.4277 16.0405 26.0045 16.8021 25.9859C17.9453 25.9579 19.0885 25.9561 20.2318 25.9859C21.0287 26.0064 21.4942 26.4202 21.4867 27.2683C21.483 27.8257 21.4886 28.383 21.4867 28.9403ZM19.9748 28.9925C19.9488 27.3019 20.2001 27.4827 18.7217 27.4864C16.8933 27.492 17.0963 27.2329 17.0832 28.8061C17.0683 30.4054 17.0795 30.4054 18.4406 30.4054C19.9748 30.4054 19.9748 30.4054 19.9748 28.9925Z" fill="#EC232A"/>
<path d="M26.27 25.5982C25.7748 25.5982 25.2795 25.6056 24.7861 25.5963C23.7769 25.5795 23.3635 25.1993 23.3412 24.2132C23.3189 23.1619 23.3207 22.1069 23.3412 21.0556C23.3598 20.118 23.7639 19.6837 24.6967 19.6539C25.7785 19.6185 26.8621 19.6185 27.9439 19.6539C28.8637 19.6837 29.2789 20.1348 29.2957 21.0612C29.3124 22.0827 29.3087 23.1041 29.2976 24.1256C29.2864 25.1769 28.8861 25.5777 27.8471 25.5963C27.322 25.6056 26.7951 25.5982 26.27 25.5982ZM26.2998 24.0809C27.9756 24.0585 27.7726 24.2785 27.7838 22.9196C27.7987 21.1563 27.7894 21.1563 26.527 21.1563C24.8512 21.1563 24.8512 21.1563 24.8512 22.5095C24.8494 24.0809 24.8494 24.0809 26.2998 24.0809Z" fill="#EC232A"/>
</svg>
