<svg width="101" height="101" viewBox="0 0 101 101" fill="none" xmlns="http://www.w3.org/2000/svg">
<circle cx="50.5" cy="50.5" r="50" fill="#F7A209" stroke="black" stroke-dasharray="1 1"/>
<path d="M47.806 22.6773C48.8679 24.1451 49.833 25.5096 50.4764 27.0595C50.7014 27.6 51.146 27.5285 51.5567 27.608C54.7764 28.2386 56.9186 30.8139 56.882 34.0038C56.848 37.003 54.6195 39.4962 51.4913 40.042C48.8156 40.5083 46.0431 38.961 44.9001 36.3645C43.7675 33.7945 44.4476 30.6999 46.7179 28.9831C47.615 28.3048 47.6229 27.8226 47.0631 26.9959C44.1415 22.6879 44.7745 22.7647 40.4222 25.3983C36.2164 27.9445 33.504 31.7677 32.246 36.603C32.157 36.9447 32.0995 37.3051 31.9425 37.6124C31.6078 38.2695 31.0323 38.5503 30.3104 38.4338C29.5598 38.3119 29.17 37.8111 29.1439 37.064C29.1308 36.6772 29.2014 36.2744 29.3034 35.8956C31.0088 29.55 34.7569 24.8578 40.4719 21.7632C40.7387 21.6201 41.0055 21.4797 41.2932 21.3261C41.1049 20.7008 40.5504 20.5895 40.1188 20.3563C37.6733 19.0475 35.0551 18.2447 32.3349 17.8075C31.2939 17.6406 30.7054 17.1134 30.8388 16.0562C30.9696 15.0256 31.7359 14.7024 32.6697 14.8216C36.8467 15.3488 40.6916 16.7848 44.1023 19.3072C44.7641 19.7973 45.3709 19.9483 46.1503 19.8079C59.78 17.3227 71.741 26.8661 72.2667 40.7785C72.4707 46.1994 72.3164 51.6361 72.3217 57.0649C72.3217 58.0823 71.9293 58.8056 70.8282 58.8268C69.6982 58.8454 69.3268 58.0903 69.3242 57.0861C69.3138 52.1422 69.3085 47.1982 69.319 42.2543C69.3294 36.5579 67.509 31.6405 63.4287 27.6265C59.4269 23.6947 53.1286 21.6307 47.806 22.6773ZM53.8139 33.8396C53.793 31.9717 52.3858 30.5833 50.5523 30.6231C48.7763 30.6628 47.4136 32.0697 47.4319 33.8449C47.4502 35.6915 48.8757 37.1011 50.6909 37.0613C52.4695 37.0242 53.8348 35.6174 53.8139 33.8396Z" fill="black"/>
<path d="M50.4346 83.1941C44.3351 83.1941 38.233 83.1968 32.1335 83.1915C29.7063 83.1888 28.6339 82.1105 28.6313 79.6491C28.626 68.1742 28.6287 56.6967 28.6313 45.2218C28.6313 44.6972 28.5659 44.1593 28.9085 43.6904C29.2878 43.1737 29.7952 43.0068 30.402 43.0995C31.0324 43.1976 31.443 43.5818 31.5502 44.2017C31.6392 44.7184 31.6366 45.2562 31.6366 45.7835C31.6418 56.7735 31.6549 67.7636 31.6182 78.7536C31.6156 79.8584 31.8196 80.2612 33.0333 80.2559C44.6673 80.2029 56.3013 80.2029 67.9354 80.2585C69.1778 80.2638 69.353 79.824 69.3399 78.743C69.2902 74.5065 69.319 70.27 69.319 66.0308C69.319 65.6784 69.3112 65.3234 69.3373 64.971C69.4106 64.0384 69.8997 63.482 70.8413 63.5005C71.7803 63.5191 72.2877 64.102 72.306 65.0213C72.3452 66.7859 72.3243 68.5531 72.3243 70.3177C72.3243 73.4944 72.3374 76.6738 72.3191 79.8505C72.306 82.031 71.1577 83.1809 68.9947 83.1835C62.8089 83.1994 56.6204 83.1941 50.4346 83.1941Z" fill="black"/>
<path d="M44.8922 62.4142C43.2183 62.4142 41.5705 62.4275 39.9227 62.4116C37.9087 62.393 37.3489 61.4896 38.1859 59.6137C40.3542 54.7546 42.5513 49.9087 44.683 45.031C45.1721 43.9129 45.8391 43.4069 47.0684 43.4387C49.7258 43.5049 52.3858 43.4546 55.0432 43.4599C57.1802 43.4652 57.7556 44.3951 56.8663 46.4034C56.2438 47.8103 55.6396 49.2278 54.9674 50.6135C54.5829 51.403 54.8471 51.5858 55.6108 51.668C57.6457 51.8852 59.6728 52.1793 61.7025 52.4284C62.4008 52.5131 62.9501 52.7887 63.2326 53.4775C63.5307 54.2009 63.2352 54.7731 62.7461 55.2659C61.2369 56.7973 59.7199 58.3181 58.2028 59.8416C57.4783 60.5702 56.6466 60.7583 55.9011 59.9926C55.1479 59.2216 55.3754 58.3791 56.0999 57.669C56.8741 56.9086 57.6666 56.1641 58.7024 55.1706C56.4609 54.85 54.5934 54.593 52.7285 54.3121C50.9263 54.0419 50.4712 53.2311 51.1957 51.5805C51.7947 50.2107 52.3911 48.8383 53.0423 47.4924C53.3667 46.8221 53.317 46.5015 52.5035 46.5756C52.4591 46.5809 52.4172 46.5756 52.3727 46.5756C50.7197 46.6048 48.7947 46.112 47.4947 46.8115C46.2419 47.4844 46.0143 49.5775 45.3421 51.048C44.1546 53.6471 43.0038 56.2648 41.8425 58.8745C41.8085 58.9487 41.8163 59.0415 41.7745 59.3302C43.4667 59.3302 45.1329 59.325 46.799 59.3302C48.9725 59.3382 49.5244 60.2576 48.5671 62.2632C47.7615 63.9509 46.9533 65.6387 46.1451 67.3237C46.2602 67.4138 46.3726 67.5039 46.4877 67.5913C47.7327 66.256 48.9699 64.9127 50.2227 63.5853C50.6465 63.1349 51.1199 62.6898 51.7999 62.8117C52.3283 62.9044 52.7625 63.1958 52.9874 63.739C53.2594 64.3908 53.1103 64.9789 52.6526 65.4453C48.9568 69.1943 45.2506 72.9274 41.5391 76.6579C40.9715 77.2275 40.2914 77.2699 39.6323 76.8327C39.002 76.4141 38.8895 75.765 39.0909 75.0735C39.2008 74.6972 39.3891 74.3449 39.5617 73.9872C41.1964 70.5773 42.8364 67.1701 44.4659 63.7575C44.649 63.376 44.921 63.0157 44.8922 62.4142Z" fill="black"/>
</svg>
