<svg width="101" height="101" viewBox="0 0 101 101" fill="none" xmlns="http://www.w3.org/2000/svg">
<circle cx="50.5" cy="50.5" r="50" fill="#F7A209" stroke="black" stroke-dasharray="1 1"/>
<path d="M55.9079 49.8757C55.9079 51.9325 55.9205 53.9873 55.8994 56.0441C55.8931 56.5756 56.0133 56.902 56.528 57.2033C57.7808 57.9335 58.2828 59.3292 57.8862 60.6223C57.4792 61.9447 56.2538 62.8444 54.8892 62.8235C53.5857 62.8026 52.3582 61.8777 51.9786 60.6306C51.5905 59.3585 52.1093 57.9126 53.36 57.2096C53.9379 56.8852 54.0075 56.5086 54.0054 55.9583C53.9928 51.671 53.9991 47.3857 53.9991 43.0984C53.9991 40.824 53.9991 40.824 56.3424 40.824C57.2198 40.824 58.1014 40.7926 58.9767 40.8344C59.6052 40.8637 59.7655 40.6628 59.6411 40.0539C59.3711 38.7399 58.848 37.5431 58.1583 36.3943C56.0197 32.8331 56.8232 28.4432 60.0397 25.9804C63.3257 23.4633 67.854 23.7353 70.7984 26.6291C73.2851 29.073 73.9368 32.9628 72.1757 35.957C70.8975 38.1289 70.1382 40.372 70.269 42.8912C70.2901 43.2888 70.2247 43.701 69.9547 43.9709C69.3916 44.5338 69.2925 45.2996 68.9466 45.9336C68.4573 46.825 68.0607 47.7561 67.5735 48.6349C66.8227 49.9908 65.3716 49.6392 64.1441 49.5786C63.1338 49.5283 62.4293 48.8776 62.2775 47.8837C62.1636 47.1409 61.6911 47.3627 61.2799 47.325C60.6724 47.2665 60.7188 47.6912 60.7188 48.0804C60.7167 48.5679 60.742 49.0576 60.7125 49.543C60.6556 50.4657 60.7209 51.1981 61.7122 51.7819C62.8005 52.4221 63.0621 53.981 62.5854 55.1611C62.1045 56.3496 60.8601 57.1489 59.5968 57.084C58.2996 57.015 57.1038 56.0922 56.7874 54.9163C56.4309 53.5939 56.8886 52.1983 58.0465 51.5412C58.6709 51.1876 58.8333 50.7838 58.8079 50.131C58.7637 49.0178 58.8185 47.9005 58.789 46.7852C58.7637 45.8102 59.1918 45.3707 60.181 45.4084C60.4531 45.4189 60.858 45.6009 60.9846 45.1615C61.0774 44.8351 60.7779 44.6886 60.5796 44.494C60.3835 44.3015 60.0987 44.0672 60.0861 43.8391C60.0144 42.5293 59.1117 42.7008 58.2343 42.7092C55.9163 42.7301 55.9163 42.7155 55.9163 44.9648C55.9079 46.6011 55.9079 48.2373 55.9079 49.8757ZM62.8617 37.9469C62.8617 37.2857 62.8195 36.6203 62.8744 35.9612C62.9334 35.2498 62.7584 34.9548 61.9485 34.869C60.375 34.7016 59.4069 33.4922 59.5398 32.0986C59.6621 30.8118 60.7652 29.7949 62.0834 29.753C63.4734 29.7091 64.5764 30.7532 64.781 32.2911C64.8148 32.538 64.6439 32.967 65.0362 32.9733C65.5192 32.9816 65.3336 32.515 65.3568 32.2409C65.4981 30.5942 66.9387 29.4706 68.4762 29.82C69.727 30.1046 70.539 31.111 70.5305 32.3727C70.5242 33.6784 69.6595 34.689 68.181 34.8627C67.3921 34.9548 67.2192 35.2372 67.2466 35.9591C67.3014 37.3506 67.2614 38.7462 67.2635 40.1397C67.2635 40.4892 67.2171 40.847 67.7697 40.8449C68.2189 40.8449 68.4847 40.757 68.5353 40.2381C68.7082 38.5077 69.3726 36.9446 70.2901 35.482C71.1232 34.1534 71.4396 32.7452 71.1211 31.1926C70.6128 28.7006 69.128 27.0601 66.6898 26.3906C64.2031 25.7063 61.9949 26.3717 60.3265 28.3239C58.6941 30.2343 58.2722 32.4836 59.4301 34.7476C60.3539 36.5575 61.3326 38.3152 61.5983 40.3573C61.6658 40.8804 61.997 40.824 62.3492 40.8407C62.7921 40.8616 62.868 40.6105 62.8638 40.2506C62.8533 39.4806 62.8596 38.7127 62.8617 37.9469ZM54.9967 60.9194C55.6611 60.8231 56.1104 60.4591 56.0998 59.779C56.0893 59.0592 55.6463 58.6115 54.9018 58.6408C54.1615 58.6701 53.7587 59.1116 53.8093 59.8606C53.8578 60.5679 54.3134 60.8734 54.9967 60.9194ZM59.6284 52.9118C58.9746 52.9787 58.5548 53.3679 58.5696 54.0605C58.5844 54.7489 59.0505 55.1925 59.7191 55.1841C60.4362 55.1757 60.9192 54.7112 60.877 53.9684C60.839 53.2863 60.3898 52.916 59.6284 52.9118ZM64.7831 37.8234C64.7831 38.6541 64.7789 39.4848 64.7874 40.3155C64.7895 40.508 64.7515 40.7696 65.0489 40.7842C65.3463 40.7988 65.3526 40.5478 65.3526 40.3448C65.3568 38.719 65.3568 37.0911 65.3526 35.4653C65.3526 35.2603 65.3505 34.9966 65.0742 34.9966C64.6967 34.9945 64.7916 35.3251 64.7874 35.5427C64.7726 36.3023 64.7831 37.0618 64.7831 37.8234ZM68.2674 43.0377C68.2695 42.9708 68.2717 42.9017 68.2738 42.8348C66.1393 42.8348 64.0028 42.8348 61.8683 42.8348C61.8704 42.9017 61.8704 42.9708 61.8725 43.0377C64.0049 43.0377 66.1351 43.0377 68.2674 43.0377ZM63.0304 45.0673C63.0368 45.1343 63.0431 45.2034 63.0494 45.2703C64.4183 45.2703 65.7871 45.2703 67.1559 45.2703C67.1538 45.2034 67.1517 45.1343 67.1496 45.0673C65.7765 45.0673 64.4035 45.0673 63.0304 45.0673ZM62.4631 33.0402C62.8659 33.0737 62.8723 32.7494 62.8533 32.4167C62.828 31.9836 62.6192 31.6488 62.1636 31.6467C61.7291 31.6446 61.4043 31.9354 61.4528 32.3769C61.5034 32.8749 61.921 33.0256 62.4631 33.0402ZM67.8224 33.0318C68.2717 32.9753 68.6281 32.8038 68.5944 32.2744C68.569 31.8789 68.3265 31.6237 67.9279 31.6467C67.409 31.676 67.274 32.0505 67.2656 32.5087C67.2572 32.9 67.4153 33.0883 67.8224 33.0318Z" fill="black"/>
<path d="M71.5766 53.7803C71.5766 52.6273 71.5619 51.6251 71.5788 50.6249C71.6273 47.8399 71.3974 45.0508 71.6821 42.2679C71.7538 41.5669 71.9668 40.9057 72.2684 40.2759C73.0045 38.7359 74.3966 38.0286 76.0628 38.3258C77.4843 38.5789 78.6866 39.8553 78.7625 41.4037C78.9228 44.7097 79.0029 48.0199 79.1042 51.3301C79.1717 53.525 79.2096 55.7199 79.2729 57.9148C79.3341 59.9863 78.5895 61.7 77.0899 63.1459C74.8711 65.2822 72.6987 67.4646 70.5052 69.6239C70.2289 69.8959 69.9589 70.1428 69.9378 70.5802C69.9104 71.1242 70.0328 71.3774 70.676 71.4025C72.8695 71.4862 73.4327 72.1139 73.4285 74.2984C73.4285 74.7859 73.4285 75.2734 73.4221 75.763C73.401 77.4014 72.6207 78.186 70.9481 78.1777C66.6961 78.1588 62.4462 78.1254 58.1963 78.0793C56.6629 78.0626 55.8425 77.2779 55.7897 75.7777C55.7602 74.9784 55.7834 74.1728 55.8467 73.3756C55.9416 72.162 56.6165 71.4506 57.844 71.3732C58.4789 71.3334 58.597 71.0823 58.5907 70.5404C58.5654 68.5882 58.5843 66.636 58.559 64.6859C58.5274 62.2085 59.2783 60.1621 61.3895 58.6116C63.0768 57.3729 64.6355 55.948 66.0655 54.4017C67.9025 52.4055 69.0921 52.2486 71.5766 53.7803ZM77.3831 50.2253C77.2144 50.2253 77.0456 50.2253 76.8769 50.2253C76.8769 47.4047 76.8706 44.5841 76.879 41.7636C76.8811 40.845 76.4024 40.324 75.5397 40.1608C74.6876 39.9997 74.2299 40.5542 73.9389 41.2258C73.5613 42.0984 73.4285 43.0295 73.4327 43.9794C73.4432 46.9758 73.4411 49.9742 73.4664 52.9705C73.477 54.1422 73.3293 55.268 72.6818 56.2744C71.2666 58.4756 69.2524 60.1328 67.3921 61.926C67.0125 62.2922 66.5463 62.244 66.1646 61.8695C65.7871 61.4991 65.7533 61.0639 66.076 60.6454C66.2658 60.3985 66.5105 60.1935 66.7341 59.9696C67.7718 58.9297 68.8369 57.9169 69.8366 56.8414C70.3555 56.2828 70.5389 55.586 69.8661 54.9939C69.2313 54.4352 68.5268 54.5356 67.989 55.1257C66.1646 57.1197 64.0808 58.8313 62.018 60.5638C61.1111 61.3255 60.5775 62.3005 60.5522 63.4639C60.4973 65.8681 60.5248 68.2722 60.5016 70.6764C60.4973 71.1598 60.6576 71.3606 61.1701 71.3564C63.2076 71.3439 65.245 71.3481 67.2824 71.3774C67.8308 71.3857 68.0818 71.1974 68.0017 70.6597C67.8624 69.7202 68.3497 69.1029 68.9845 68.4857C71.2455 66.2928 73.4496 64.0456 75.7169 61.859C76.9317 60.6852 77.4422 59.3168 77.4 57.6428C77.3367 55.1717 77.3831 52.6964 77.3831 50.2253ZM64.5595 76.1794C64.5595 76.2255 64.5595 76.2736 64.5595 76.3196C66.2068 76.3196 67.854 76.3175 69.5013 76.3196C71.8508 76.3238 71.4417 76.6419 71.5513 74.3737C71.5956 73.4656 71.2497 73.2773 70.4124 73.2815C66.8374 73.3024 63.2603 73.2647 59.6853 73.2438C57.6036 73.2312 57.631 73.2291 57.6458 75.3069C57.65 76.0037 57.8925 76.2024 58.5675 76.1899C60.5627 76.1585 62.5601 76.1794 64.5595 76.1794Z" fill="black"/>
<path d="M29.9043 53.7739C32.4057 52.2549 33.5889 52.416 35.426 54.3891C36.9804 56.0589 38.7057 57.5445 40.4964 58.9464C42.0171 60.1369 42.7806 61.6644 42.8396 63.5329C42.9113 65.7613 42.9071 67.9918 42.9029 70.2223C42.9008 70.9086 42.8881 71.3773 43.8583 71.3983C44.8665 71.4213 45.5182 72.1348 45.611 73.1622C45.6954 74.0975 45.7313 75.0432 45.6785 75.9806C45.6068 77.2591 44.7948 78.05 43.5019 78.0667C39.0748 78.1253 34.6498 78.1609 30.2228 78.1588C28.875 78.1588 28.1073 77.3135 28.0714 75.9681C28.0525 75.2357 28.0567 74.5034 28.063 73.7731C28.0757 72.2854 28.8624 71.4945 30.3831 71.3731C30.7627 71.3418 31.3047 71.6368 31.4925 71.099C31.6928 70.5299 31.4482 70.057 30.9947 69.6176C28.8054 67.5022 26.6857 65.3156 24.4732 63.2253C22.7691 61.6142 22.1321 59.6996 22.2207 57.4001C22.4253 52.1419 22.5476 46.8816 22.6826 41.6213C22.7121 40.4872 23.1677 39.6021 24.0683 38.9388C25.8463 37.629 28.1368 38.1855 29.1492 40.167C29.8199 41.479 29.9254 42.906 29.9296 44.3372C29.938 47.0552 29.9106 49.7733 29.8979 52.4934C29.9043 52.8721 29.9043 53.2488 29.9043 53.7739ZM24.6146 50.0578C24.4458 50.0578 24.2792 50.0578 24.1105 50.0578C24.1105 52.6001 24.1548 55.1424 24.0957 57.6846C24.0556 59.3607 24.5829 60.7165 25.8041 61.8883C28.0525 64.0414 30.227 66.2698 32.4627 68.4375C33.1207 69.0757 33.6522 69.7118 33.4983 70.6952C33.4076 71.2769 33.7471 71.3794 34.2533 71.3731C36.2549 71.348 38.2565 71.3376 40.2602 71.3543C40.8043 71.3585 41.0026 71.1744 40.9962 70.6324C40.9667 68.2638 40.9899 65.8931 40.9435 63.5245C40.9266 62.6436 40.6904 61.7648 40.0281 61.1371C37.8241 59.0426 35.3796 57.2097 33.3084 54.9645C32.8444 54.4603 32.1379 54.5063 31.5937 55.0126C31.0664 55.5023 31.1276 56.0756 31.4925 56.6196C31.7245 56.9649 32.0113 57.2787 32.3087 57.5738C33.2768 58.5342 34.266 59.4736 35.2383 60.432C35.7023 60.8902 35.8141 61.4091 35.2952 61.8925C34.8122 62.3423 34.3356 62.1854 33.9053 61.7648C32.5048 60.3943 31.058 59.0761 29.763 57.601C28.5797 56.2534 27.9744 54.7448 28.0166 52.9328C28.082 50.0767 28.0525 47.2184 28.0588 44.3623C28.0609 43.3475 27.9618 42.339 27.6053 41.3848C27.3227 40.6316 26.8734 39.9766 25.9053 40.1712C25.0364 40.3449 24.6061 40.8973 24.6103 41.8075C24.6251 44.5548 24.6146 47.3063 24.6146 50.0578ZM36.8433 76.3342C36.8433 76.284 36.8433 76.2338 36.8433 76.1836C38.5264 76.1836 40.2095 76.2045 41.8926 76.1773C44.0756 76.1417 43.793 76.577 43.8373 74.2481C43.8541 73.4049 43.542 73.2082 42.7384 73.2207C39.1634 73.2772 35.5863 73.2731 32.0113 73.294C29.9254 73.3044 29.9739 73.3065 29.9465 75.3278C29.9338 76.2087 30.2755 76.3698 31.0622 76.3489C32.9878 76.3028 34.9156 76.3342 36.8433 76.3342Z" fill="black"/>
<path d="M46.4695 41.0395C45.6659 41.9204 44.9846 41.9162 44.2844 41.4852C43.5989 41.0625 43.118 41.5542 42.4642 41.8493C43.0674 42.2426 43.0759 42.7909 43.059 43.36C43.04 44.0568 43.0674 44.7535 43.0527 45.4503C43.0273 46.5844 42.9936 47.5448 44.2274 48.3566C45.6469 49.2878 45.5035 51.512 44.2485 52.6921C42.9915 53.8722 40.9498 53.7864 39.8257 52.5038C38.6277 51.1395 38.7606 49.0743 40.2876 48.1035C41.0996 47.5866 41.1924 47.0217 41.184 46.2266C41.1587 43.7596 41.1734 43.7157 38.6424 43.7764C37.6069 43.8015 37.0036 43.5044 36.6873 42.4916C36.4532 41.7426 34.846 41.1127 34.1394 41.4957C33.2177 41.9957 32.5576 41.776 31.9333 41.0332C31.619 40.6608 31.2541 40.326 30.8871 40.0038C30.3008 39.4932 30.2207 38.9429 30.5412 38.2336C31.0242 37.1644 30.4548 35.8232 29.3222 35.3754C28.5945 35.0887 28.2613 34.6409 28.3182 33.8688C28.3498 33.419 28.3646 32.9587 28.3161 32.5109C28.2064 31.5065 28.5397 30.8683 29.5774 30.544C30.421 30.2804 30.9947 28.7634 30.5961 27.9369C30.2017 27.1167 30.2987 26.4827 31.0074 25.9052C31.3575 25.6185 31.6928 25.2963 31.9733 24.9447C32.5745 24.1915 33.2388 24.1036 34.1015 24.5179C34.9493 24.9238 36.4173 24.2815 36.7506 23.3734C37.0627 22.5217 37.5942 22.1493 38.5054 22.2372C38.9926 22.2853 39.4903 22.2769 39.9796 22.2393C40.8465 22.1723 41.3379 22.5322 41.6269 23.3566C41.9601 24.3128 43.4555 24.9322 44.3751 24.4886C45.2187 24.0827 45.8367 24.2417 46.4083 24.928C46.6973 25.2753 47.0221 25.6059 47.3722 25.8926C48.0998 26.4889 48.258 27.1188 47.7877 27.9871C47.3701 28.7571 48.0155 30.2867 48.8633 30.5587C49.7935 30.8579 50.1562 31.4082 50.0592 32.3498C50.0086 32.8331 50.0149 33.329 50.0571 33.8124C50.1309 34.6326 49.7787 35.0971 49.0131 35.3984C47.8847 35.842 47.3089 37.382 47.9416 38.3717C48.3276 38.9785 48.4057 39.579 48.4057 40.2486C48.3972 44.5003 48.4078 48.7542 48.3951 53.006C48.393 53.5605 48.4753 53.9392 49.0489 54.2677C50.2976 54.9833 50.789 56.3852 50.4093 57.7013C50.0571 58.9233 48.8085 59.8418 47.4797 59.8565C46.1236 59.8711 44.9256 59.0216 44.5227 57.7578C44.0946 56.4166 44.6134 55.0461 45.8768 54.2321C46.17 54.0438 46.4779 53.935 46.4779 53.4809C46.4631 49.4468 46.4695 45.4085 46.4695 41.0395ZM33.6248 26.3613C32.9204 26.3592 32.3572 27.215 32.6504 27.7841C32.9815 28.4265 32.8845 28.9559 32.5323 29.5397C32.3003 29.9226 32.1379 30.3578 32.0134 30.7909C31.8278 31.4396 31.5157 31.9376 30.8133 32.1008C30.3008 32.2179 30.2101 32.559 30.1996 33.034C30.1869 33.5466 30.3831 33.804 30.8618 33.9274C31.5072 34.0927 31.8173 34.5468 31.9965 35.1703C32.1484 35.6997 32.3867 36.2165 32.6567 36.6999C32.9204 37.1707 32.9773 37.6038 32.701 38.0725C32.4479 38.5035 32.4184 38.8655 32.836 39.2756C33.2304 39.6627 33.5573 39.7297 34.0255 39.4702C34.5655 39.171 35.0885 39.2777 35.6222 39.5706C36.0777 39.8217 36.5713 40.0393 37.0732 40.167C37.6765 40.3218 38.0835 40.6168 38.2544 41.2195C38.3788 41.661 38.6066 41.9079 39.1444 41.8869C39.6654 41.866 40.0113 41.7719 40.1442 41.2111C40.2876 40.6106 40.7221 40.3155 41.3274 40.1628C41.8315 40.0352 42.3229 39.8175 42.7785 39.5665C43.3121 39.2735 43.8351 39.1668 44.3751 39.4681C44.8412 39.7297 45.1723 39.6627 45.5689 39.2882C45.997 38.8843 45.9506 38.5349 45.7123 38.0934C45.4402 37.5891 45.5309 37.1058 45.7945 36.6036C46.054 36.114 46.267 35.5951 46.4336 35.0657C46.6023 34.5238 46.8829 34.1137 47.4439 33.9672C47.9648 33.8291 48.1589 33.5487 48.161 32.9963C48.1652 32.4335 47.9416 32.174 47.4291 32.0443C46.9061 31.9104 46.6298 31.5316 46.4568 31.0378C46.2628 30.4812 46.0561 29.9226 45.7882 29.3995C45.5288 28.8931 45.436 28.4098 45.727 27.9118C45.9991 27.4494 45.9211 27.1125 45.5414 26.7212C45.1386 26.3048 44.7737 26.3132 44.3329 26.5747C43.8162 26.8823 43.3458 26.7589 42.8502 26.4827C42.4262 26.2462 41.9665 26.0474 41.4982 25.9177C40.8106 25.7273 40.2623 25.4365 40.0956 24.6811C39.9902 24.2061 39.6359 24.1392 39.2098 24.1413C38.7985 24.1434 38.4336 24.1622 38.3197 24.656C38.1384 25.4448 37.5541 25.7629 36.8223 25.9303C35.7339 26.1793 34.7743 27.4054 33.6248 26.3613ZM47.3827 55.6759C46.7183 55.7533 46.286 56.1655 46.2944 56.8162C46.3028 57.5088 46.7415 57.9901 47.4924 57.965C48.1779 57.9419 48.6018 57.5172 48.5976 56.8372C48.5913 56.1132 48.1568 55.7114 47.3827 55.6759ZM41.9686 49.3882C41.3864 49.4217 40.9857 49.8025 40.9836 50.4993C40.9815 51.2086 41.4328 51.6229 42.112 51.6208C42.8312 51.6187 43.3079 51.2191 43.2699 50.4365C43.234 49.7209 42.8164 49.3798 41.9686 49.3882Z" fill="black"/>
<path d="M74.5928 29.0604C74.0275 29.0918 73.7765 28.8972 73.5762 28.5708C73.361 28.2172 73.3948 27.872 73.6563 27.6104C74.23 27.035 74.9661 26.6877 75.7211 26.4156C76.0755 26.288 76.4045 26.4826 76.6281 26.7965C76.8517 27.1124 76.9002 27.4639 76.6471 27.7631C76.0649 28.4495 75.2213 28.7257 74.5928 29.0604Z" fill="black"/>
<path d="M60.5543 24.0805C60.5564 24.6391 60.3793 24.9321 60.0228 25.066C59.6495 25.2062 59.2382 25.2292 58.9725 24.8735C58.538 24.2918 58.1372 23.6808 57.9031 22.9903C57.7787 22.6263 57.9453 22.2998 58.2385 22.076C58.5738 21.8207 59.0083 21.7663 59.3036 22.0446C59.9384 22.643 60.3286 23.4109 60.5543 24.0805Z" fill="black"/>
<path d="M70.4145 25.1373C70.1889 25.1435 69.9463 25.0766 69.7924 24.8736C69.0963 23.953 69.9695 23.3482 70.2859 22.6452C70.5284 22.1033 70.9292 21.7413 71.6104 21.9422C71.8256 22.0049 71.9922 22.1221 72.085 22.3146C72.4625 23.0888 71.8846 23.6203 71.564 24.2061C71.3173 24.6518 71.1148 25.1791 70.4145 25.1373Z" fill="black"/>
<path d="M64.1335 21.94C64.1335 21.6618 64.1166 21.3814 64.1356 21.1031C64.1757 20.5716 64.4731 20.2808 65.0151 20.2557C65.5087 20.2326 65.8461 20.4733 65.941 20.9357C66.0823 21.622 66.076 22.3292 65.9495 23.0134C65.8546 23.5282 65.4665 23.75 64.9286 23.6977C64.4267 23.6474 64.1736 23.3566 64.1377 22.8816C64.1145 22.5699 64.1356 22.2539 64.1335 21.94Z" fill="black"/>
<path d="M56.6186 28.142C56.5237 28.7844 56.1968 29.1903 55.5641 29.0334C54.8195 28.8493 54.1805 28.4015 53.5773 27.9328C53.263 27.688 53.282 27.3093 53.3917 26.9766C53.5077 26.625 53.7987 26.3447 54.172 26.4095C55.079 26.5686 55.8509 27.031 56.4879 27.688C56.5933 27.7947 56.5849 28.0102 56.6186 28.142Z" fill="black"/>
<path d="M59.93 74.5913C59.9595 75.2023 59.6052 75.4638 59.177 75.4868C58.7784 75.5098 58.4578 75.2399 58.4304 74.7838C58.4009 74.3025 58.6287 73.9573 59.1201 73.9238C59.6052 73.8945 59.8709 74.2042 59.93 74.5913Z" fill="black"/>
<path d="M43.0695 74.7105C43.0358 75.2127 42.7447 75.514 42.2786 75.4847C41.8926 75.4596 41.5615 75.2169 41.5594 74.7461C41.5573 74.2502 41.8357 73.9447 42.306 73.9279C42.7954 73.907 43.0421 74.2355 43.0695 74.7105Z" fill="black"/>
<path d="M39.2267 38.9512C35.8225 38.9596 33.1523 36.3023 33.1608 32.9126C33.1692 29.7258 35.947 27.0308 39.214 27.0413C42.5359 27.0518 45.2272 29.7468 45.2187 33.0611C45.2124 36.3106 42.5338 38.9429 39.2267 38.9512ZM43.2952 33.1051C43.3142 30.7783 41.5383 28.9558 39.2309 28.9349C36.9952 28.914 35.0759 30.7428 35.0442 32.9189C35.0126 35.1703 36.8876 37.0765 39.1529 37.0953C41.4181 37.112 43.2762 35.323 43.2952 33.1051Z" fill="black"/>
</svg>
