<svg width="101" height="101" viewBox="0 0 101 101" fill="none" xmlns="http://www.w3.org/2000/svg">
<circle cx="50.5" cy="50.5" r="50" fill="#F7A209" stroke="black" stroke-dasharray="1 1"/>
<path d="M30.2799 52.1002C30.2799 50.2177 30.2799 48.338 30.2799 46.4555C30.2799 45.8939 29.8965 46.0314 29.5903 46.0945C28.394 46.3409 27.3094 46.8452 26.302 47.5271C21.7661 50.6074 20.298 55.3753 22.2812 60.487C23.0224 62.3982 24.0012 64.1947 24.8454 66.0543C25.7097 67.9598 26.4308 69.9025 26.5138 72.0257C26.5367 72.6217 26.5653 73.3151 25.7354 73.3265C24.957 73.338 24.9999 72.6847 24.9885 72.1231C24.9456 69.8681 24.047 67.8681 23.0968 65.8882C21.975 63.5558 20.7072 61.2807 20.1578 58.7134C18.8242 52.4784 22.9681 45.9741 29.2068 44.6475C30.1712 44.4412 30.3171 44.04 30.3086 43.1947C30.2742 38.8796 30.2885 34.5644 30.2943 30.2492C30.2971 28.8796 30.4316 28.7506 31.8081 28.7506C33.7427 28.7478 35.6802 28.7277 37.6147 28.7621C38.3101 28.7735 38.5305 28.6217 38.4904 27.848C38.2386 22.9483 40.3392 19.2377 44.6004 16.9483C48.833 14.6761 53.0942 15.0142 56.9805 17.8452C60.3145 20.275 61.817 23.7105 61.6624 27.828C61.6367 28.5529 61.7712 28.7793 62.5095 28.7621C64.4813 28.7191 66.4531 28.7449 68.4277 28.7478C69.6926 28.7506 69.8586 28.9168 69.8615 30.2205C69.8672 34.6446 69.8701 39.0715 69.8586 43.4956C69.8586 44.0916 69.9072 44.4469 70.6685 44.6131C78.0004 46.2148 82.0155 53.4956 79.4456 60.5529C78.7989 62.3323 77.9375 64.0343 77.1304 65.7506C76.1145 67.9053 75.1157 70.0543 75.1586 72.5157C75.1672 72.9856 74.9497 73.3008 74.4604 73.3208C73.908 73.3466 73.6705 72.9884 73.6476 72.4927C73.5789 71.0457 73.9309 69.6675 74.3946 68.3151C75.0957 66.2721 76.1374 64.3781 77.0532 62.4297C78.1349 60.126 78.9047 57.7764 78.6958 55.1518C78.381 51.2177 74.5748 46.8337 70.7028 46.0945C70.1076 45.9798 69.85 46.0629 69.8672 46.7563C69.9073 48.53 69.8815 50.3065 69.8815 52.083C69.9845 52.1489 70.0904 52.2148 70.1934 52.2778C70.7715 51.6417 71.3353 50.997 71.9277 50.3781C72.2854 50.0028 72.7032 49.5873 73.2241 50.1059C73.7134 50.593 73.4158 51.0228 73.018 51.4182C71.9534 52.4727 70.8888 53.5271 69.8414 54.5988C69.3263 55.126 68.8713 55.126 68.3533 54.593C67.2572 53.467 66.1383 52.3638 65.025 51.2549C64.6644 50.8968 64.5328 50.5157 64.9392 50.1174C65.3456 49.7162 65.7519 49.8566 66.0839 50.2177C66.7221 50.9139 67.3316 51.636 67.9526 52.3466C68.0786 52.2778 68.2073 52.2062 68.3333 52.1374C68.3333 50.189 68.3619 48.2377 68.3161 46.2893C68.3018 45.6503 67.7065 45.871 67.3717 45.9082C63.2965 46.3724 60.2372 48.318 58.503 52.1288C58.0165 53.1976 57.7246 54.3265 57.6072 55.5013C57.4613 56.9598 56.6142 58.1546 56.0905 59.4698C55.7385 60.3495 55.3436 61.2148 54.9401 62.0744C54.6997 62.5873 54.7912 62.7592 55.3894 62.7965C57.8362 62.9512 57.8362 62.9684 57.8362 65.4612C57.8362 68.4985 57.8362 68.5071 60.9212 68.6847C61.8055 68.7363 62.4151 69.1374 62.4981 70.0343C62.5839 70.9397 62.5496 71.8595 62.5353 72.7735C62.5267 73.2234 62.312 73.5472 61.7998 73.5443C61.2875 73.5415 61.1273 73.2291 61.0786 72.7678C60.9899 71.9455 61.465 70.8538 60.8411 70.3695C60.326 69.9712 59.2957 70.2692 58.5001 70.1976C57.2467 70.0859 56.3738 69.1403 56.328 67.8595C56.2937 66.9455 56.2851 66.0286 56.328 65.1174C56.3566 64.4899 56.1306 64.2463 55.5124 64.3151C55.2234 64.3466 54.9286 64.3265 54.6367 64.318C53.2802 64.2778 52.7393 63.4555 53.2573 62.1919C53.6036 61.3466 53.9813 60.5157 54.3591 59.6847C55.2491 57.7277 55.976 55.7449 56.4654 53.6217C57.6902 48.3036 61.774 44.9139 67.2658 44.4297C68.2016 44.3466 68.3762 44.04 68.3676 43.1833C68.3247 39.2349 68.3304 35.2836 68.3647 31.3351C68.3705 30.55 68.2102 30.232 67.3488 30.2635C65.5974 30.3323 63.8431 30.3065 62.0888 30.2721C61.505 30.2606 61.1845 30.4068 60.967 30.9999C60.3002 32.8194 59.0067 34.2349 57.799 35.7019C57.1694 36.467 56.5398 37.232 56.1964 38.1718C55.8787 39.0372 55.6927 39.8538 56.3767 40.7306C57.1207 41.6847 56.9032 42.8595 55.9503 43.6618C55.5611 43.9884 55.4609 44.2606 55.521 44.7621C55.6526 45.8967 55.1003 46.7592 54.0014 47.126C53.5235 47.2864 53.3231 47.5042 53.1715 47.977C52.685 49.4927 51.566 50.3036 50.1008 50.3122C48.6155 50.3208 47.5108 49.5214 47.01 48.0171C46.8641 47.5816 46.7267 47.2979 46.2087 47.1374C45.0697 46.785 44.5632 45.997 44.6633 44.8022C44.7091 44.2578 44.5603 43.9598 44.1568 43.6159C43.304 42.8939 43.0464 41.6847 43.7104 40.8538C44.629 39.7048 44.2255 38.6647 43.7104 37.6074C43.1752 36.5157 42.3195 35.6417 41.5497 34.7162C40.5881 33.5586 39.6895 32.3581 39.1715 30.9311C38.9941 30.4383 38.7423 30.2692 38.2272 30.275C36.3641 30.3036 34.5011 30.3065 32.6381 30.275C32.0228 30.2635 31.811 30.4612 31.8139 31.0859C31.8368 35.2549 31.8425 39.424 31.811 43.593C31.8053 44.3695 32.2317 44.3495 32.7754 44.401C38.3187 44.9168 42.331 48.0801 43.5959 53.4068C44.3056 56.3982 45.622 59.0916 46.7868 61.871C47.4822 63.5357 46.9986 64.3724 45.2099 64.2922C44.1368 64.2435 43.6588 64.4927 43.8248 65.6503C43.9221 66.3323 43.8563 67.0372 43.8363 67.7334C43.7962 69.2291 42.8575 70.1546 41.3465 70.2119C39.2002 70.295 39.2002 70.295 39.1029 72.4383C39.08 72.9598 39.1 73.5357 38.3588 73.5357C37.6176 73.5357 37.6262 72.9627 37.6205 72.4383C37.6147 71.7076 37.5976 70.9741 37.6319 70.2435C37.6806 69.2377 38.2472 68.7191 39.246 68.6904C39.9042 68.6704 40.5595 68.679 41.2177 68.6847C41.9904 68.6904 42.3453 68.3208 42.3281 67.5386C42.3052 66.4412 42.3195 65.3437 42.3252 64.2463C42.3338 62.9827 42.5227 62.7993 43.7905 62.785C45.5333 62.7649 45.5133 62.7764 44.8379 61.2005C43.8077 58.7965 42.7288 56.4469 42.1707 53.8251C41.2292 49.3982 37.6462 46.4813 33.1417 45.9111C32.2431 45.7965 31.7166 45.8853 31.7938 47.0429C31.9026 48.7105 31.8225 50.3925 31.8225 52.2119C32.7611 51.7334 33.2476 50.9483 33.9058 50.3724C34.3008 50.0257 34.6843 49.6074 35.2108 50.1116C35.7317 50.6131 35.3911 51.0372 35.0076 51.4182C33.9459 52.4755 32.867 53.5185 31.8167 54.5873C31.3073 55.1059 30.8523 55.1432 30.3257 54.6102C29.2497 53.5157 28.1508 52.4469 27.0633 51.3638C26.6884 50.9884 26.4966 50.5586 26.9173 50.1174C27.3695 49.6446 27.7873 49.9254 28.1393 50.2893C28.7632 50.934 29.367 51.5988 29.9823 52.2549C30.0768 52.2062 30.1769 52.1518 30.2799 52.1002ZM50.9135 31.1002C51.0337 31.0715 51.151 31.0715 51.2369 31.02C52.0983 30.487 52.519 29.699 52.3387 28.7048C52.1355 27.5787 51.4086 26.9082 50.2639 26.7621C49.7316 26.6962 49.2737 26.5329 49.3481 25.9254C49.4282 25.2721 49.9634 25.189 50.5186 25.2549C50.6989 25.2778 50.8763 25.3237 51.0509 25.3753C52.6993 25.8681 53.7953 27.2177 53.9041 28.8796C54.0042 30.4039 53.0513 31.9053 51.4973 32.5816C51.1024 32.7535 50.8162 32.8681 50.8248 33.3982C50.8563 35.2635 50.8362 37.1288 50.842 38.9913C50.842 39.2349 50.7704 39.6131 51.0909 39.6331C52.0725 39.6876 53.0799 39.785 54.0357 39.6217C54.631 39.5185 54.3963 38.699 54.5594 38.2119C54.88 37.2664 55.3321 36.3982 55.9417 35.6159C56.5684 34.8079 57.2123 34.0142 57.8591 33.2205C59.6992 30.9512 60.5463 28.4297 60.0484 25.4727C59.1469 20.1202 54.3505 16.5558 48.7271 17.1403C43.7046 17.6618 39.6924 22.3867 39.9414 27.487C40.053 29.7764 41.0088 31.6962 42.4369 33.4383C43.5673 34.8165 44.8036 36.1202 45.4503 37.848C45.6736 38.4469 45.4332 39.3437 46.0599 39.6074C46.6551 39.8566 47.425 39.679 48.1175 39.6904C48.2263 39.6933 48.3379 39.6761 48.4466 39.6933C49.1048 39.785 49.3395 39.5271 49.3252 38.8423C49.2823 37.0887 49.2851 35.3323 49.3252 33.5787C49.3395 32.9999 49.1249 32.7678 48.6069 32.5701C47.3076 32.0744 46.5979 31.04 46.2917 29.7191C46.1629 29.1661 46.12 28.53 46.8297 28.3695C47.5709 28.2005 47.7026 28.7678 47.7941 29.3695C47.9229 30.2005 48.3465 30.8452 49.2537 31.1604C49.3996 30.4841 49.0734 29.4813 50.0693 29.4755C51.0766 29.4612 50.7189 30.4841 50.9135 31.1002ZM50.0578 42.6819C51.4429 42.6819 52.828 42.6847 54.2103 42.6819C54.7168 42.6819 55.1976 42.5988 55.2033 41.9483C55.2091 41.3065 54.7426 41.1804 54.2332 41.1776C51.463 41.169 48.6956 41.169 45.9254 41.1776C45.4246 41.1776 44.9352 41.2778 44.9352 41.9254C44.9352 42.6503 45.479 42.6847 46.0141 42.6847C47.362 42.6847 48.7099 42.6819 50.0578 42.6819ZM50.0721 45.7392V45.742C51.0566 45.742 52.0382 45.742 53.0226 45.742C53.5464 45.742 54.0042 45.6016 54.0042 44.9827C54.0071 44.4383 53.5921 44.2177 53.1199 44.2148C51.0795 44.1976 49.0419 44.1976 47.0014 44.2177C46.5264 44.2234 46.1229 44.4584 46.1257 44.997C46.1286 45.5414 46.5178 45.7363 47.0129 45.7392C48.0317 45.7449 49.0533 45.7392 50.0721 45.7392ZM50.1065 48.8137C50.593 48.7793 51.0366 48.6389 51.3514 48.2377C51.5288 48.0142 51.7635 47.7649 51.6404 47.4641C51.5231 47.169 51.1997 47.2807 50.9622 47.2721C50.4556 47.2578 49.9434 47.2377 49.4368 47.2778C49.1077 47.3036 48.6069 47.0601 48.4924 47.53C48.3923 47.934 48.7528 48.2549 49.0791 48.5042C49.3853 48.7363 49.7344 48.8079 50.1065 48.8137Z" fill="black"/>
<path d="M46.2488 20.063C46.658 20.1031 46.9299 20.2177 47.0501 20.5186C47.1645 20.8051 47.156 21.1031 46.8955 21.3209C46.6151 21.5558 46.306 21.7507 46.0284 21.9885C44.0366 23.702 43.4328 25.8739 43.9507 28.404C43.9794 28.5472 44.028 28.6848 44.0681 28.8252C44.2026 29.3209 44.2398 29.8252 43.6359 29.9942C43.0493 30.1575 42.766 29.7277 42.6229 29.2406C41.9675 27 42.1163 24.8366 43.3269 22.7994C43.8935 21.8424 44.6547 21.0601 45.5648 20.424C45.7966 20.2636 46.0685 20.1547 46.2488 20.063Z" fill="black"/>
</svg>
