<svg width="101" height="101" viewBox="0 0 101 101" fill="none" xmlns="http://www.w3.org/2000/svg">
<circle cx="50.5" cy="50.5" r="50" fill="#F7A209" stroke="black" stroke-dasharray="1 1"/>
<path d="M24.2437 49.3613C24.2437 42.0857 24.2419 34.8083 24.2437 27.5327C24.2437 25.4058 25.3527 24.2699 27.453 24.2681C39.6336 24.2645 51.8141 24.2645 63.9928 24.2681C66.0407 24.2681 67.166 25.3986 67.1696 27.4638C67.1768 33.5619 67.1895 39.6617 67.1533 45.7597C67.1479 46.6094 67.3396 46.901 68.2351 46.8811C70.918 46.8213 73.6009 46.8576 76.2837 46.8612C77.4777 46.863 77.617 46.9971 77.617 48.1402C77.6189 55.8995 77.6297 63.6588 77.6134 71.4181C77.6062 74.9327 75.0011 77.5288 71.4824 77.5306C57.7949 77.5415 44.1074 77.5397 30.4199 77.5306C26.8017 77.5288 24.2509 74.9327 24.2473 71.2786C24.2401 63.974 24.2437 56.6676 24.2437 49.3613ZM67.5025 75.9037C65.7187 74.1664 65.6337 72.1301 65.6391 70.0032C65.6717 55.9375 65.6572 41.8719 65.6554 27.8063C65.6554 26.3316 65.2465 25.8642 63.935 25.8642C51.7888 25.8605 39.6408 25.8605 27.4946 25.8642C26.2011 25.8642 25.8465 26.2301 25.8447 27.5472C25.8429 42.1563 25.8429 56.7655 25.8465 71.3746C25.8465 71.8239 25.8411 72.2714 25.9768 72.717C26.5847 74.7117 28.1495 75.9327 30.2643 75.9345C42.4413 75.9472 54.6182 75.9418 66.7951 75.9418C66.9453 75.94 67.0936 75.9255 67.5025 75.9037ZM76.0196 64.1751C76.0196 61.6116 76.0033 59.05 76.0323 56.4865C76.0395 55.8687 75.8695 55.6495 75.2272 55.6567C72.7886 55.6894 70.35 55.6803 67.9113 55.6622C67.3885 55.6586 67.1624 55.7908 67.1642 56.3687C67.1841 61.4341 67.1334 66.4995 67.1967 71.563C67.2293 74.1591 69.2066 75.9708 71.7393 75.9327C74.1906 75.8965 75.9997 73.9961 76.016 71.409C76.0305 68.9995 76.0178 66.5864 76.0196 64.1751ZM71.6615 48.3775C70.397 48.3775 69.1324 48.392 67.8679 48.3703C67.3975 48.3612 67.1497 48.4482 67.1624 49.0044C67.1931 50.5117 67.1859 52.0189 67.166 53.5262C67.1605 53.9882 67.3053 54.1621 67.7829 54.1603C70.312 54.1422 72.8411 54.1386 75.3684 54.1621C75.9002 54.1676 76.0323 53.9683 76.0251 53.4755C76.0015 51.999 75.9997 50.5207 76.0251 49.0442C76.0341 48.5424 75.8858 48.3522 75.3629 48.3667C74.1309 48.4011 72.8972 48.3775 71.6615 48.3775Z" fill="black"/>
<path d="M55.7706 38.2196C55.7706 40.9969 55.7742 43.7741 55.7688 46.5514C55.7651 47.7797 55.4902 47.9808 54.2889 47.6619C53.1836 47.3685 52.0764 47.084 50.9765 46.776C50.5098 46.6456 50.2963 46.6728 50.2764 47.2724C50.1696 50.4283 48.5324 51.9755 45.3665 51.9773C44.3118 51.9773 43.2553 51.9864 42.2006 51.9755C39.5485 51.9465 37.7865 50.2327 37.7033 47.5696C37.6653 46.363 37.6761 45.1546 37.7033 43.9481C37.7159 43.439 37.564 43.1509 37.0357 43.0785C36.7408 43.0386 36.4441 42.9535 36.1674 42.843C35.469 42.564 34.9336 42.5114 34.4831 43.3339C34.1104 44.0151 33.3524 44.3376 32.5673 44.3774C31.6048 44.4263 30.6388 44.4028 29.6746 44.3992C29.0884 44.3974 28.7827 44.0876 28.7827 43.4988C28.7809 39.9063 28.7809 36.3138 28.7845 32.7213C28.7845 32.1633 29.0993 31.8861 29.6348 31.8825C30.6587 31.8734 31.6881 31.839 32.7084 31.9078C33.5659 31.9658 34.2552 32.4423 34.6839 33.1832C34.9517 33.6452 35.2085 33.6833 35.7006 33.5492C41.799 31.9006 47.9047 30.2828 54.0067 28.6541C55.5462 28.2429 55.7778 28.4095 55.7778 29.9766C55.7796 32.7231 55.7778 35.4714 55.7778 38.2178C55.7742 38.2196 55.7724 38.2196 55.7706 38.2196ZM54.2292 38.1653C54.2292 35.7811 54.2166 33.3988 54.2383 31.0147C54.2437 30.4223 54.146 30.185 53.4839 30.4187C52.7204 30.6868 51.9245 30.8734 51.1303 31.0401C50.5894 31.1542 50.4139 31.4151 50.4229 31.9676C50.4537 33.868 50.4356 35.7685 50.4283 37.6689C50.4265 38.2142 50.3379 38.7577 49.6504 38.774C48.8924 38.7921 48.8364 38.2232 48.8382 37.6381C48.8436 35.888 48.8219 34.138 48.8508 32.3879C48.8599 31.8191 48.7622 31.6687 48.1489 31.8354C44.0314 32.9604 39.9067 34.0546 35.7748 35.1253C35.2321 35.2648 35.138 35.5366 35.1434 36.0167C35.1633 37.4044 35.176 38.7921 35.138 40.1798C35.1217 40.7686 35.3117 41.0114 35.8942 41.1636C41.7375 42.6962 47.5736 44.2542 53.4043 45.834C54.1388 46.0333 54.2527 45.8086 54.2437 45.1329C54.2075 42.8122 54.2292 40.4878 54.2292 38.1653ZM44.0115 50.3559C44.6737 50.3559 45.3376 50.3704 45.9997 50.3541C47.9933 50.3015 49.3429 48.3087 48.6862 46.4192C48.5957 46.1619 48.4004 46.1202 48.2104 46.0695C45.4226 45.3195 42.6312 44.584 39.8452 43.8267C39.3929 43.7035 39.2645 43.8231 39.2735 44.2796C39.2971 45.4554 39.2464 46.6347 39.2953 47.8105C39.3586 49.3087 40.4223 50.3106 41.9311 50.3541C42.6258 50.3704 43.3187 50.3541 44.0115 50.3559ZM30.3602 38.1327C30.3602 39.399 30.4 40.6672 30.3439 41.9299C30.3132 42.6491 30.5502 42.9281 31.2557 42.8303C31.4619 42.8013 31.6772 42.8285 31.8871 42.8248C33.1878 42.7995 33.6003 42.3882 33.6057 41.0712C33.6147 39.1128 33.6165 37.1526 33.6057 35.1942C33.5985 33.8753 33.1788 33.4604 31.8871 33.4441C31.6157 33.4405 31.3425 33.4659 31.0748 33.4387C30.5303 33.3843 30.3349 33.5963 30.3475 34.1543C30.3819 35.4786 30.3602 36.8047 30.3602 38.1327Z" fill="black"/>
<path d="M45.6958 72.8312C40.994 72.8312 36.2904 72.833 31.5886 72.8294C29.8048 72.8276 28.9491 71.9652 28.9473 70.1536C28.9419 65.9578 28.9419 61.762 28.9473 57.5662C28.9491 55.8778 29.879 54.9339 31.5813 54.9321C41.0157 54.923 50.4519 54.923 59.8862 54.9321C61.5307 54.9339 62.4786 55.8615 62.4877 57.5155C62.5112 61.8019 62.5094 66.0882 62.4877 70.3746C62.4804 71.9362 61.5488 72.8239 59.9839 72.8276C55.2206 72.8366 50.4573 72.8312 45.6958 72.8312ZM45.6705 71.2985C50.3126 71.2985 54.9565 71.3003 59.5986 71.2967C60.7564 71.2949 60.9608 71.0829 60.9608 69.9144C60.9626 65.8998 60.9644 61.8834 60.9608 57.8688C60.959 56.7455 60.7473 56.5245 59.6619 56.5245C50.3759 56.5227 41.0917 56.5227 31.8057 56.5245C30.6533 56.5245 30.5284 56.6568 30.5284 57.8561C30.5248 61.8707 30.5266 65.8871 30.5284 69.9017C30.5284 71.1826 30.6406 71.2967 31.9232 71.2985C36.5057 71.3003 41.0881 71.2985 45.6705 71.2985Z" fill="black"/>
<path d="M60.8903 38.9207C60.561 38.9207 60.2318 38.9407 59.9043 38.9171C59.3996 38.8791 59.0161 38.6381 59.0486 38.0874C59.0758 37.6055 59.4195 37.35 59.9007 37.341C60.5284 37.3283 61.1562 37.3247 61.784 37.3428C62.3068 37.3573 62.6415 37.6218 62.6288 38.1743C62.6161 38.6979 62.2525 38.8881 61.7894 38.9189C61.4891 38.9352 61.1888 38.9207 60.8903 38.9207Z" fill="black"/>
<path d="M58.3811 35.2993C58.097 35.254 57.8474 35.0964 57.7298 34.7902C57.614 34.4841 57.6484 34.167 57.9179 33.9696C58.571 33.4895 59.2729 33.0764 60.0273 32.7775C60.324 32.6597 60.6135 32.7811 60.8288 33.0438C61.0223 33.2811 61.0314 33.5438 60.9319 33.8083C60.8089 34.1344 58.7845 35.3211 58.3811 35.2993Z" fill="black"/>
<path d="M59.8428 43.4517C59.311 43.1256 58.5801 42.7162 57.8945 42.2397C57.5941 42.0314 57.6032 41.6455 57.7859 41.3339C57.9704 41.0205 58.3069 40.8284 58.6307 40.9915C59.3526 41.3538 60.0491 41.7741 60.7275 42.2144C61.0423 42.4191 61.0694 42.7814 60.9066 43.1057C60.7401 43.4372 60.4308 43.5405 59.8428 43.4517Z" fill="black"/>
<path d="M70.8275 63.6661C70.8275 61.9504 70.8275 60.2348 70.8257 58.5192C70.8257 57.925 70.8257 57.2728 71.6308 57.2764C72.3852 57.28 72.3797 57.896 72.3779 58.463C72.3725 61.9849 72.3707 65.5067 72.3797 69.0286C72.3816 69.6028 72.3671 70.2224 71.6398 70.2333C70.8601 70.246 70.8239 69.5992 70.8257 68.9923C70.8312 67.2187 70.8275 65.4433 70.8275 63.6661Z" fill="black"/>
<path d="M72.3743 72.3168C72.4069 72.8458 72.2839 73.3168 71.6561 73.344C70.9705 73.373 70.8294 72.8766 70.8312 72.3095C70.833 71.7787 70.9578 71.3222 71.6073 71.3294C72.2441 71.3349 72.4033 71.7606 72.3743 72.3168Z" fill="black"/>
<path d="M50.4356 40.8919C50.3904 41.4408 50.2239 41.8919 49.5944 41.8648C48.8943 41.834 48.8309 41.3158 48.8418 40.7615C48.8508 40.2451 49.0317 39.8502 49.6052 39.8484C50.2945 39.8484 50.3976 40.3647 50.4356 40.8919Z" fill="black"/>
<path d="M45.7754 69.2061C41.5241 69.2061 37.2745 69.2061 33.0232 69.2061C32.7826 69.2061 32.5402 69.2152 32.2996 69.1953C31.8437 69.1572 31.5596 68.8818 31.5452 68.4416C31.5307 67.9887 31.8382 67.7278 32.2742 67.6608C32.5402 67.6209 32.8151 67.63 33.0865 67.63C41.4969 67.6282 49.9073 67.6264 58.3196 67.6336C58.9509 67.6336 59.832 67.4452 59.8501 68.4163C59.8681 69.4308 58.969 69.1971 58.3467 69.1989C54.1551 69.2134 49.9652 69.2061 45.7754 69.2061Z" fill="black"/>
<path d="M45.6578 64.6878C41.4372 64.6878 37.2184 64.6878 32.9978 64.686C32.7265 64.686 32.4497 64.7041 32.1855 64.6588C31.7785 64.5881 31.5469 64.291 31.5433 63.8961C31.5397 63.5392 31.7477 63.2547 32.1258 63.1931C32.4497 63.1406 32.7844 63.1207 33.1136 63.1207C41.524 63.1171 49.9326 63.1134 58.3431 63.1261C58.9636 63.1261 59.8627 62.925 59.8464 63.9269C59.8301 64.9305 58.9346 64.6787 58.3159 64.6805C54.0971 64.6932 49.8784 64.6878 45.6578 64.6878Z" fill="black"/>
<path d="M47.7292 60.1478C44.2033 60.1478 40.6792 60.1478 37.1533 60.146C36.8819 60.146 36.607 60.1605 36.3428 60.1152C35.9304 60.0445 35.7078 59.7456 35.7151 59.347C35.7223 58.9883 35.9394 58.7111 36.3085 58.6441C36.6015 58.5898 36.9073 58.5879 37.2076 58.5879C44.2576 58.5843 51.3076 58.5825 58.3575 58.5916C58.9907 58.5916 59.8609 58.4104 59.85 59.4032C59.8392 60.3525 58.9907 60.1369 58.3937 60.1387C54.8389 60.155 51.284 60.1478 47.7292 60.1478Z" fill="black"/>
<path d="M32.7988 60.1586C32.5817 60.1441 32.3321 60.1676 32.1059 60.1024C31.7188 59.9901 31.4673 59.6876 31.5524 59.289C31.7242 58.4683 32.4135 58.6078 33.0051 58.5879C33.5659 58.568 34.0688 58.693 34.1484 59.3361C34.1954 59.7202 33.9512 60.03 33.5424 60.1133C33.309 60.1604 33.063 60.1441 32.7988 60.1586Z" fill="black"/>
</svg>
