<svg width="55" height="50" viewBox="0 0 55 50" fill="none" xmlns="http://www.w3.org/2000/svg">
<g clip-path="url(#clip0_9_160)">
<path d="M19.431 0.504474C24.0349 0.504474 28.6425 0.613652 33.2408 0.468708C36.605 0.361412 39.5809 3.02123 39.538 6.86318C39.4689 13.2915 39.5324 19.7218 39.5044 26.152C39.5006 26.873 39.6425 27.1854 40.4192 27.2871C41.5711 27.4358 42.4821 28.1304 43.2046 29.034C46.5203 33.1865 49.8472 37.3278 53.1199 41.5123C54.3895 43.1349 54.4996 44.9815 53.5792 46.8169C52.6924 48.5901 51.2101 49.5181 49.2236 49.5219C42.6296 49.5332 36.0337 49.5388 29.4397 49.5219C26.658 49.5143 24.5483 47.4042 24.5502 44.5674C24.5502 43.7486 24.2758 43.6639 23.6074 43.6676C19.937 43.6921 16.2629 43.5773 12.5962 43.7109C9.6931 43.8182 7.74775 41.7156 7.76828 38.7866C7.83549 29.4405 7.77949 20.0926 7.81496 10.7465C7.81869 9.82606 7.57039 9.57382 6.67613 9.61523C5.09296 9.69053 3.5042 9.61147 1.9173 9.64535C1.12385 9.66229 0.784069 9.37241 0.808339 8.54792C0.847545 7.23213 0.800871 5.91258 0.825142 4.59679C0.869948 2.3511 2.6342 0.534592 4.87266 0.521415C9.72484 0.491297 14.5789 0.512003 19.431 0.512003C19.431 0.510121 19.431 0.506356 19.431 0.504474ZM8.22755 1.99344C9.46907 3.45041 9.27677 4.98268 9.27677 6.47729C9.27864 17.2671 9.28424 28.057 9.2693 38.8487C9.26744 40.093 9.51947 41.2337 10.677 41.806C11.9465 42.4328 13.371 42.4686 14.6218 41.7871C16.5354 40.7443 16.472 38.0186 14.5845 36.9249C14.2708 36.7423 13.8769 36.6764 13.75 36.2435C13.5259 35.4774 13.9012 35.0915 14.9448 35.0896C19.8287 35.0839 24.7145 35.0482 29.5965 35.1159C30.7167 35.131 31.1834 34.5738 31.6744 33.6307C31.0061 33.6307 30.4516 33.6307 29.899 33.6307C27.3357 33.6307 27.3581 33.6307 27.3805 31.0782C27.3879 30.2199 27.7277 29.9055 28.5566 29.9187C30.3601 29.9507 32.1654 29.9017 33.9689 29.9431C34.5682 29.9563 34.9509 29.7718 35.2814 29.2749C35.7556 28.5615 36.3698 27.9328 37.1819 27.6673C37.9809 27.4057 38.0556 26.9163 38.0519 26.1878C38.0258 19.8517 38.037 13.5155 38.037 7.17942C38.037 3.65747 36.394 1.99533 32.9085 1.99344C25.1009 1.99156 17.2915 1.99344 9.484 1.99344C9.17409 1.99344 8.86604 1.99344 8.22755 1.99344ZM39.3233 48.0404C39.3233 48.0385 39.3233 48.0348 39.3233 48.0329C42.6203 48.0329 45.9173 48.0329 49.2143 48.0329C50.6294 48.0329 51.6749 47.3854 52.278 46.1147C52.9052 44.7933 52.8063 43.4794 51.884 42.318C48.5852 38.1541 45.2825 33.9922 41.9445 29.8603C40.5573 28.1436 38.0482 28.1982 36.6685 29.9206C33.4256 33.9696 30.2033 38.0355 26.9567 42.0808C25.9859 43.2893 25.6797 44.59 26.335 46.0169C27.0089 47.4851 28.2113 48.0705 29.8038 48.0517C32.9776 48.0141 36.1495 48.0404 39.3233 48.0404ZM29.3968 36.6049C25.0468 36.6049 20.8742 36.6049 16.5728 36.6049C17.7713 38.4553 17.8255 40.253 16.5728 42.1617C19.4161 42.1617 22.1064 42.1617 24.7966 42.1636C25.0039 42.1636 25.1457 42.0751 25.2671 41.917C26.6057 40.1909 27.9462 38.4704 29.3968 36.6049ZM5.03322 8.12626C5.74826 8.12626 6.46143 8.11497 7.17647 8.13003C7.58346 8.13944 7.81683 8.04156 7.80189 7.55966C7.77202 6.55823 7.83176 5.55304 7.76455 4.55537C7.6656 3.06264 6.5081 2.01603 5.05189 2.01227C3.53967 2.0085 2.41017 3.0777 2.30376 4.61373C2.06479 8.12815 2.06479 8.12815 5.03322 8.12626ZM33.3789 31.434C32.0254 31.434 30.754 31.4283 29.4826 31.4378C29.225 31.4396 28.8722 31.3512 28.8946 31.8124C28.9132 32.1926 29.2082 32.1342 29.4453 32.1361C30.4703 32.1418 31.4952 32.1286 32.5202 32.1437C32.9458 32.1493 33.2259 31.9949 33.3789 31.434Z" fill="#EC232A"/>
<path d="M47.2017 23.3792C47.1551 23.4733 47.1028 23.6653 46.9852 23.7933C46.4363 24.3901 45.88 24.983 45.3012 25.5496C44.9689 25.8753 44.5843 25.9129 44.2314 25.5496C43.9085 25.2164 43.9514 24.8625 44.2445 24.5482C44.7953 23.9533 45.3609 23.3698 45.9304 22.7919C46.2029 22.5152 46.5408 22.4851 46.8732 22.6601C47.1065 22.7863 47.2129 23.0178 47.2017 23.3792Z" fill="#EC232A"/>
<path d="M41.9576 22.5943C42.1125 22.0729 42.2992 21.3105 42.5699 20.582C42.6913 20.2564 43.0161 20.0286 43.4082 20.1961C43.7797 20.3561 44.0205 20.646 43.9085 21.0865C43.7405 21.7529 43.5725 22.423 43.3522 23.0724C43.2252 23.447 42.9433 23.7275 42.4934 23.5957C42.1331 23.4922 41.9109 23.2456 41.9576 22.5943Z" fill="#EC232A"/>
<path d="M47.312 28.4166C46.7295 28.4524 46.4308 28.2491 46.3374 27.8368C46.2497 27.4453 46.483 27.1591 46.8265 27.0406C47.4669 26.8184 48.1203 26.6264 48.7775 26.4608C49.149 26.3667 49.4701 26.5229 49.5859 26.905C49.7035 27.2947 49.6382 27.6843 49.205 27.8368C48.5367 28.0683 47.8515 28.2528 47.312 28.4166Z" fill="#EC232A"/>
<path d="M19.0016 12.9603C20.8648 12.9603 22.7299 12.9509 24.5931 12.9641C25.7189 12.9716 26.236 13.4892 26.2435 14.6356C26.2584 17.0168 26.2565 19.3962 26.2435 21.7774C26.2379 22.8767 25.7543 23.4433 24.6734 23.4527C20.8835 23.4847 17.0936 23.4847 13.3037 23.4527C12.2358 23.4433 11.7467 22.8617 11.7392 21.7642C11.7243 19.383 11.7243 17.0037 11.7392 14.6224C11.7467 13.4874 12.275 12.9716 13.4083 12.9659C15.2733 12.9528 17.1365 12.9603 19.0016 12.9603ZM13.2309 18.3872C13.2981 18.4249 13.3653 18.4644 13.4325 18.502C14.1382 17.7303 14.8626 16.9735 15.5459 16.1811C16.1116 15.5241 16.6063 15.5542 17.1627 16.1905C18.0439 17.1994 18.9661 18.1745 19.8436 19.1872C20.1685 19.5618 20.385 19.5901 20.7099 19.191C21.2625 18.5152 21.8636 17.8809 22.4349 17.222C22.8998 16.6855 23.3535 16.678 23.8594 17.1768C24.1021 17.414 24.2832 17.7867 24.7574 17.7736C24.7574 16.8549 24.735 15.9778 24.7667 15.1043C24.7854 14.6017 24.5875 14.4643 24.1152 14.4662C20.7005 14.4813 17.2878 14.4813 13.8731 14.4662C13.3971 14.4643 13.2104 14.613 13.2234 15.11C13.2496 16.2018 13.2309 17.2954 13.2309 18.3872ZM15.811 21.975C16.4943 21.975 17.1795 22.0052 17.8628 21.9675C18.576 21.928 19.3582 20.8927 19.0054 20.4785C18.238 19.575 17.4222 18.7129 16.6269 17.8319C16.4458 17.6324 16.2703 17.6079 16.0799 17.8187C15.1781 18.8126 14.2689 19.799 13.3784 20.8042C13.1245 21.0903 13.1674 21.4743 13.2907 21.7868C13.4213 22.1143 13.7798 21.9656 14.0412 21.9732C14.6292 21.9901 15.2192 21.9769 15.811 21.975ZM20.2357 21.975C21.7311 21.975 22.9409 21.9788 24.1525 21.9713C24.3579 21.9694 24.5838 22.0221 24.7219 21.7717C25.1177 21.0489 24.104 18.9275 23.275 18.726C23.1051 18.6846 23.0361 18.7825 22.967 18.8597C22.1063 19.831 21.2531 20.8117 20.2357 21.975Z" fill="#EC232A"/>
<path d="M23.8874 10.98C20.6221 10.98 17.3568 10.9857 14.0934 10.9781C12.7007 10.9744 12.4057 10.6657 12.3926 9.25763C12.387 8.72491 12.3889 8.1922 12.3908 7.65948C12.3983 6.14416 12.7044 5.82792 14.1793 5.82792C19.403 5.82604 24.6267 5.82792 29.8504 5.82792C31.2189 5.82792 32.5873 5.81662 33.9539 5.83168C34.9957 5.84298 35.4027 6.2684 35.4195 7.3263C35.4307 8.01525 35.4269 8.70609 35.4213 9.39504C35.4101 10.6017 35.0666 10.9725 33.868 10.9763C30.543 10.9875 27.2161 10.98 23.8874 10.98ZM23.9247 7.32065C20.848 7.32065 17.7694 7.3583 14.6946 7.29618C13.8395 7.27924 13.7947 7.66889 13.8339 8.30326C13.8713 8.89621 13.6304 9.53058 14.6909 9.52305C20.8443 9.47975 26.9996 9.48163 33.153 9.51928C34.262 9.52681 33.8886 8.80209 33.9446 8.25996C34.0062 7.67831 33.9707 7.28489 33.1549 7.29995C30.0782 7.35265 27.0014 7.32065 23.9247 7.32065Z" fill="#EC232A"/>
<path d="M31.6091 28.8157C30.5542 28.8157 29.4976 28.8025 28.4427 28.8194C27.696 28.8307 27.3823 28.49 27.3898 27.737C27.414 24.9003 27.1321 25.1638 29.8355 25.1638C31.4802 25.1638 33.125 25.1789 34.7698 25.1582C35.5259 25.1488 35.8302 25.4857 35.8227 26.2349C35.7947 28.9982 36.1233 28.8288 33.3789 28.8175C32.7871 28.8157 32.1971 28.8175 31.6091 28.8157ZM31.5923 27.3229C32.339 27.3229 33.0839 27.3267 33.8307 27.321C34.0491 27.3192 34.29 27.3192 34.2956 27.0029C34.3012 26.6829 34.0622 26.6773 33.8419 26.6773C32.3502 26.6735 30.8567 26.6735 29.365 26.6773C29.1503 26.6773 28.9039 26.6754 28.8983 26.9935C28.8927 27.3116 29.1335 27.321 29.3538 27.3229C30.1006 27.3267 30.8455 27.3229 31.5923 27.3229Z" fill="#EC232A"/>
<path d="M18.6114 30.1239C16.7445 30.1239 14.8794 30.122 13.0125 30.1257C12.4337 30.1257 11.7691 30.1389 11.7766 29.3558C11.784 28.6405 12.4132 28.6255 12.9621 28.6255C16.6941 28.6255 20.4261 28.6236 24.1581 28.6274C24.692 28.6274 25.3287 28.5972 25.3361 29.3502C25.3455 30.1634 24.6827 30.1239 24.1133 30.1239C22.2818 30.1257 20.4466 30.1239 18.6114 30.1239Z" fill="#EC232A"/>
<path d="M21.2794 33.0567C20.2861 33.0567 19.2929 33.0586 18.2997 33.0567C17.7956 33.0548 17.3308 32.9588 17.3177 32.3263C17.3065 31.6957 17.7546 31.5639 18.268 31.5639C20.3179 31.5602 22.3659 31.5621 24.4158 31.5639C24.9367 31.5639 25.3698 31.7221 25.3511 32.3433C25.3306 32.9776 24.8564 33.0567 24.3542 33.0567C23.3293 33.0567 22.3043 33.0567 21.2794 33.0567Z" fill="#EC232A"/>
<path d="M31.807 22.92C30.8455 22.92 29.884 22.9181 28.9226 22.9218C28.3905 22.9237 27.9685 22.743 27.9853 22.1425C28.0022 21.6042 28.3979 21.4235 28.8927 21.4235C30.8772 21.4253 32.8637 21.4235 34.8482 21.4235C35.3784 21.4235 35.7966 21.6117 35.7854 22.2084C35.7761 22.7618 35.3635 22.92 34.8781 22.92C33.8531 22.92 32.8301 22.92 31.807 22.92Z" fill="#EC232A"/>
<path d="M15.7009 27.1798C14.7058 27.1798 13.7107 27.1742 12.7156 27.1836C12.2246 27.1873 11.8008 27.0386 11.7728 26.5022C11.7411 25.8979 12.1892 25.7266 12.7138 25.7247C14.7357 25.7247 16.7576 25.7247 18.7776 25.7247C19.2742 25.7247 19.6756 25.913 19.6774 26.4532C19.6793 26.9953 19.2779 27.1817 18.7794 27.1817C17.7545 27.1779 16.7277 27.1798 15.7009 27.1798Z" fill="#EC232A"/>
<path d="M31.8667 16.1414C32.8599 16.1414 33.8531 16.1433 34.8482 16.1395C35.3317 16.1377 35.7555 16.2713 35.7835 16.8229C35.8153 17.4478 35.3579 17.5852 34.8407 17.5871C32.8543 17.5871 30.866 17.5871 28.8796 17.5852C28.3905 17.5852 27.9835 17.4177 27.9872 16.8586C27.9909 16.3052 28.3942 16.1414 28.8852 16.1414C29.8784 16.1433 30.8735 16.1433 31.8667 16.1414Z" fill="#EC232A"/>
<path d="M30.3041 14.9387C29.7758 14.9387 29.2456 14.9575 28.7191 14.933C28.2953 14.9142 28.0003 14.6752 27.9854 14.2347C27.9686 13.7377 28.2785 13.4874 28.749 13.4798C29.7739 13.4648 30.8007 13.4648 31.8276 13.4761C32.2943 13.4817 32.6098 13.7095 32.6023 14.2177C32.593 14.7297 32.2513 14.9236 31.7977 14.9406C31.3011 14.9575 30.8026 14.9443 30.306 14.9443C30.3041 14.9406 30.3041 14.9406 30.3041 14.9387Z" fill="#EC232A"/>
<path d="M14.0318 33.0434C13.5072 33.0434 12.9789 33.0698 12.4561 33.034C12.0379 33.0058 11.7579 32.7329 11.7598 32.3018C11.7616 31.8726 12.0361 31.5902 12.4599 31.5827C13.5408 31.562 14.6237 31.5582 15.7027 31.5921C16.1303 31.6053 16.3618 31.9178 16.3468 32.3564C16.3319 32.7611 16.0668 33.0002 15.699 33.0265C15.1464 33.0679 14.5882 33.0378 14.0318 33.0378C14.0318 33.0397 14.0318 33.0416 14.0318 33.0434Z" fill="#EC232A"/>
<path d="M29.7925 18.7881C30.1323 18.79 30.4721 18.7937 30.81 18.7881C31.2487 18.7806 31.5269 18.9952 31.5811 19.4243C31.6445 19.9213 31.316 20.2206 30.8959 20.2601C30.1921 20.3279 29.477 20.3185 28.7713 20.2752C28.3438 20.2488 27.9797 19.9947 27.9891 19.5128C27.9984 18.9763 28.3662 18.7768 28.8665 18.7862C29.1764 18.7919 29.4845 18.7881 29.7925 18.7881Z" fill="#EC232A"/>
<path d="M33.9857 20.3354C33.5899 20.294 33.1848 20.2996 32.804 20.1998C32.453 20.1076 32.2196 19.8234 32.2793 19.4262C32.3354 19.0535 32.5706 18.8069 32.9664 18.7975C33.6441 18.7843 34.3218 18.7881 34.9995 18.7899C35.4251 18.7899 35.722 18.997 35.7817 19.4243C35.8508 19.925 35.5129 20.181 35.0928 20.2582C34.7362 20.3241 34.3573 20.2714 33.9876 20.2714C33.9876 20.294 33.9857 20.3147 33.9857 20.3354Z" fill="#EC232A"/>
<path d="M34.6317 14.95C34.0921 14.9424 33.5059 14.9575 33.5152 14.1914C33.5246 13.4177 34.1276 13.4685 34.6541 13.4648C35.1955 13.461 35.7929 13.4667 35.7817 14.214C35.7686 14.9519 35.1694 14.9462 34.6317 14.95Z" fill="#EC232A"/>
<path d="M35.7275 42.1673C35.496 42.1015 35.2627 42.0224 35.0256 41.9678C33.7449 41.6742 33.3752 40.5523 34.2993 39.596C36.4668 37.3522 38.6624 35.1385 40.8523 32.9192C41.39 32.3752 42.0266 32.1719 42.695 32.6443C43.354 33.1112 43.4025 33.7813 43.0963 34.4872C42.7752 35.2326 42.4579 35.9818 42.0938 36.7065C41.825 37.243 41.8362 37.5141 42.5325 37.4407C42.8088 37.4105 43.0926 37.4275 43.3708 37.4426C43.9981 37.4783 44.532 37.6835 44.7635 38.3404C44.9913 38.9861 44.7635 39.5094 44.2781 39.9311C43.4305 40.6652 42.5717 41.3862 41.7167 42.1128C40.0532 43.5227 38.3823 44.925 36.7282 46.3462C36.1047 46.8827 35.4606 47.167 34.7157 46.6286C34.0958 46.1806 34.0492 45.4634 34.542 44.5354C34.921 43.8182 35.3075 43.1048 35.6883 42.3857C35.7126 42.3368 35.7089 42.269 35.7275 42.1673ZM36.1999 44.6088C36.2559 44.6427 36.31 44.6766 36.366 44.7105C38.556 42.845 40.7459 40.9796 42.9377 39.116C42.344 38.9221 41.8268 38.9221 41.3116 38.9202C39.8516 38.9146 39.622 38.5645 40.2157 37.2524C40.5648 36.4825 40.912 35.7126 41.2593 34.9409C41.2985 35.0105 41.3396 35.0802 41.3788 35.1479C39.5062 36.9738 37.6337 38.7998 35.791 40.5956C35.974 40.6125 36.2503 40.6276 36.5247 40.6671C37.8148 40.8516 38.0033 41.2374 37.3798 42.4083C36.9877 43.1424 36.5938 43.8747 36.1999 44.6088Z" fill="#EC232A"/>
</g>
<defs>
<clipPath id="clip0_9_160">
<rect width="55" height="50" fill="white"/>
</clipPath>
</defs>
</svg>
