<svg width="49" height="47" viewBox="0 0 49 47" fill="none" xmlns="http://www.w3.org/2000/svg">
<g clip-path="url(#clip0_399_2)">
<path d="M35.666 7.05871C36.3147 6.80105 36.904 6.70902 37.5047 6.83663C38.6555 7.08079 39.3662 7.78752 39.738 8.86112C40.6055 11.3666 41.4958 13.8634 42.3558 16.3713C42.4734 16.7149 42.5998 16.7971 42.9792 16.748C44.8344 16.5112 46.6681 17.6511 47.3194 19.4007C47.9833 21.1872 47.3055 23.1699 45.64 24.1724C45.2656 24.3969 45.2214 24.5785 45.3592 24.9625C46.2584 27.4729 47.1411 29.9894 48.0061 32.512C48.67 34.4482 47.2587 36.3402 45.2113 36.2506C44.001 36.1966 43.1297 35.5966 42.6681 34.4985C42.5467 34.2101 42.376 34.0236 42.1016 33.8691C40.2325 32.8077 38.3039 31.8801 36.2123 31.3035C35.6698 31.1538 35.6672 31.1562 35.6672 31.6863C35.666 35.069 35.6773 38.4505 35.6622 41.8333C35.6521 44.0357 34.1396 45.8516 31.9278 46.3129C31.1273 46.4798 30.3002 46.5276 29.4807 46.5252C21.5301 46.5006 13.5807 46.4761 5.63138 46.4258C2.83659 46.4074 0.838498 44.4369 0.837234 41.7326C0.829646 29.5501 0.829646 17.3676 0.837234 5.18391C0.838498 2.43797 2.87579 0.480967 5.71611 0.47974C14.0613 0.473605 22.4052 0.474832 30.7504 0.47974C33.6312 0.480967 35.6571 2.45883 35.666 5.25385C35.6672 5.8342 35.666 6.41333 35.666 7.05871ZM1.78949 23.4656C1.78949 29.4802 1.82743 35.4948 1.77052 41.5081C1.74902 43.816 3.5473 45.5117 5.85016 45.4859C11.7483 45.4209 17.649 45.4638 23.5472 45.4638C23.642 45.4638 23.7369 45.4589 23.8304 45.4638C24.0492 45.4737 24.1415 45.4381 24.0505 45.1816C22.8466 41.7695 21.649 38.3536 20.4653 34.9341C20.3603 34.6285 20.2136 34.6592 19.9772 34.7353C19.1653 34.9942 18.3521 34.8862 17.8893 34.2065C17.4796 33.6053 16.9674 33.4188 16.3313 33.3059C16.1631 33.2752 16.0012 33.2053 15.8406 33.1427C14.3496 32.5599 13.2494 31.6102 12.9257 30.0238C12.5918 28.3882 13.233 27.0214 14.3218 25.819C14.5153 25.6055 14.5988 25.4202 14.5558 25.1282C14.4179 24.192 14.9124 23.3785 15.8343 23.0693C18.2016 22.2755 20.5741 21.4988 22.9503 20.732C23.661 20.5025 24.3312 20.6289 24.8801 21.1406C25.0723 21.3209 25.2114 21.343 25.4491 21.2277C27.2158 20.3676 28.7827 19.2535 30.1055 17.8216C31.9644 15.8082 33.2012 13.445 34.2091 10.9531C34.2913 10.7482 34.2509 10.5703 34.1902 10.3752C33.9903 9.73717 33.9474 9.05866 34.3078 8.50162C34.7124 7.87587 34.6884 7.23294 34.6897 6.56547C34.6897 6.10659 34.6973 5.64648 34.6872 5.18759C34.6391 2.93489 33.071 1.43554 30.7529 1.43554C22.409 1.43309 14.0651 1.43432 5.72117 1.438C5.40755 1.438 5.08634 1.44536 4.78156 1.50916C2.95926 1.88706 1.79202 3.3447 1.79075 5.23912C1.78696 11.315 1.78949 17.391 1.78949 23.4656ZM35.1196 9.57889C35.0969 9.8341 35.1905 10.1077 35.2878 10.385C37.6173 17.0376 39.9442 23.6914 42.2723 30.3452C42.7023 31.5746 43.1221 32.8077 43.566 34.0322C43.8518 34.8199 44.4968 35.2506 45.3226 35.2506C46.1117 35.2506 46.7743 34.8175 47.0374 34.112C47.2296 33.5979 47.1398 33.0948 46.9628 32.5893C44.6713 26.0533 42.3849 19.5148 40.0972 12.9788C39.6267 11.634 39.1689 10.2844 38.6719 8.94823C38.3457 8.07341 37.4984 7.65256 36.5436 7.82556C35.7267 7.97157 35.126 8.69548 35.1196 9.57889ZM29.0267 45.4651C29.659 45.4651 30.2092 45.4663 30.7593 45.4651C33.0798 45.4577 34.6644 43.9706 34.6808 41.7093C34.7074 38.2677 34.6834 34.8249 34.696 31.382C34.6973 31.0434 34.5695 30.944 34.2471 30.8974C32.3539 30.6201 30.4773 30.7109 28.6056 31.0704C28.3856 31.1121 28.2566 31.2065 28.163 31.4164C27.9392 31.9182 27.5358 32.2482 26.9996 32.4237C26.6265 32.5464 26.2572 32.6801 25.8804 32.7893C25.6376 32.8605 25.5528 32.9685 25.649 33.2163C25.8361 33.7022 26.0132 34.1942 26.1712 34.6899C26.2421 34.9107 26.3521 34.9549 26.5822 34.9426C28.1327 34.8568 29.439 35.6911 29.9271 37.0579C30.4153 38.426 29.9246 39.8542 28.6372 40.7216C28.4008 40.8811 28.3805 41.01 28.4716 41.2455C28.6701 41.7609 28.8269 42.2909 29.0293 42.805C29.3682 43.6614 29.5022 44.5154 29.0267 45.4651ZM23.5307 21.6227C23.4169 21.6497 23.2601 21.6743 23.1121 21.7234C20.832 22.4743 18.5507 23.2252 16.2744 23.9859C15.6395 24.1981 15.4246 24.6251 15.6332 25.246C15.9355 26.1466 16.2567 27.0398 16.5703 27.9367C17.1723 29.6581 17.7704 31.3795 18.3787 33.0985C18.5975 33.7169 19.035 33.9832 19.6016 33.7991C21.9601 33.0347 24.3148 32.2593 26.667 31.4728C27.2247 31.2863 27.4498 30.8409 27.2639 30.2998C26.3394 27.6214 25.4011 24.9466 24.4615 22.273C24.3211 21.8718 24.0075 21.6608 23.5307 21.6227ZM26.6278 45.4319C26.7858 45.4319 26.9427 45.4319 27.1007 45.4319C27.9025 45.4319 28.2515 45.1031 28.2882 44.3093C28.3009 44.0479 28.273 43.7939 28.1845 43.5412C27.0274 40.2431 25.8715 36.9463 24.7258 33.6445C24.6284 33.3635 24.5108 33.2875 24.2174 33.3893C23.4017 33.6727 22.5823 33.9451 21.7565 34.1991C21.4112 34.3059 21.3809 34.469 21.4909 34.7795C22.6493 38.0604 23.79 41.3474 24.9446 44.6295C25.1899 45.3289 25.3606 45.4307 26.108 45.4307C26.28 45.4319 26.4533 45.4319 26.6278 45.4319ZM46.5897 21.0399C46.591 18.9897 45.0064 17.5308 43.2321 17.6756C42.9501 17.6989 42.8528 17.7541 42.9603 18.056C43.5749 19.7725 44.1743 21.4939 44.7674 23.2166C44.861 23.489 44.9672 23.5 45.191 23.3442C46.1003 22.7135 46.5733 21.8645 46.5897 21.0399Z" fill="#EC232A"/>
<path d="M30.8415 10.6329C30.8415 12.2095 30.8428 13.785 30.8402 15.3616C30.839 15.9591 30.7125 16.0843 30.0865 16.0843C27.3107 16.0867 24.5349 16.0867 21.7591 16.0843C21.1217 16.0843 21.0066 15.9714 21.0053 15.3665C21.0041 12.2144 21.0041 9.06115 21.0053 5.90909C21.0053 5.31155 21.1369 5.17782 21.7527 5.17659C24.5286 5.17291 27.3044 5.17291 30.0802 5.17659C30.71 5.17782 30.839 5.31524 30.8402 5.94958C30.8415 7.51027 30.8415 9.07219 30.8415 10.6329ZM29.8703 10.6476C29.8703 9.27096 29.864 7.89308 29.8753 6.51643C29.8779 6.22564 29.7919 6.12135 29.4732 6.1238C27.1071 6.13607 24.7423 6.1373 22.3762 6.1238C22.0335 6.12135 21.9563 6.23914 21.9576 6.54833C21.9677 9.27219 21.969 11.9948 21.9563 14.7187C21.9551 15.0561 22.0499 15.1641 22.4078 15.1616C24.7423 15.1469 27.0755 15.1444 29.41 15.1628C29.8058 15.1665 29.8804 15.0279 29.8766 14.688C29.8614 13.3408 29.8716 11.9936 29.8703 10.6476Z" fill="#EC232A"/>
<path d="M16.0796 18.8203C13.1457 18.8203 10.2118 18.8203 7.27663 18.8191C7.11982 18.8191 6.95542 18.8338 6.8062 18.7958C6.56718 18.7357 6.43061 18.5614 6.44831 18.3197C6.46475 18.105 6.59248 17.9418 6.82264 17.905C6.97692 17.8792 7.13753 17.8866 7.29434 17.8866C13.1786 17.8854 19.0628 17.8854 24.9471 17.8866C25.0735 17.8866 25.2 17.8841 25.3252 17.894C25.6072 17.9136 25.764 18.078 25.7691 18.3381C25.7741 18.6215 25.6085 18.7933 25.3075 18.8154C25.1823 18.824 25.0558 18.8203 24.9294 18.8203C21.9803 18.8203 19.03 18.8203 16.0796 18.8203Z" fill="#EC232A"/>
<path d="M12.9573 39.9818C11.0806 39.9818 9.20392 39.9818 7.32723 39.9806C7.17042 39.9806 7.01108 39.9781 6.85553 39.9585C6.59881 39.9266 6.45718 39.7597 6.44832 39.5242C6.43821 39.2616 6.60008 39.0935 6.86438 39.0444C7.00222 39.0187 7.14766 39.0297 7.28929 39.0297C11.0427 39.0297 14.796 39.0297 18.5507 39.0297C18.6923 39.0297 18.839 39.0162 18.9743 39.0456C19.2336 39.1009 19.3942 39.2665 19.379 39.534C19.3651 39.7757 19.2184 39.9303 18.9642 39.9597C18.8087 39.9781 18.6493 39.9794 18.4925 39.9794C16.6487 39.983 14.8024 39.9818 12.9573 39.9818Z" fill="#EC232A"/>
<path d="M11.3386 6.13608C9.9374 6.13608 8.53494 6.13486 7.13375 6.13731C6.88841 6.13731 6.65825 6.12013 6.51535 5.88947C6.35601 5.6318 6.46729 5.31525 6.77586 5.22691C6.95291 5.1766 7.14892 5.1766 7.33608 5.1766C10.0133 5.17415 12.6905 5.17415 15.3676 5.17415C15.4625 5.17415 15.5573 5.17292 15.6509 5.1766C15.9823 5.18887 16.2668 5.28457 16.2579 5.6637C16.2491 6.03302 15.9759 6.13608 15.637 6.13608C14.3142 6.13486 12.9914 6.13608 11.6687 6.13608C11.5586 6.13608 11.4486 6.13608 11.3386 6.13608Z" fill="#EC232A"/>
<path d="M11.4852 35.7475C10.0828 35.7475 8.68159 35.7475 7.27914 35.7463C7.1375 35.7463 6.9946 35.7463 6.85549 35.7278C6.60004 35.6947 6.4584 35.5303 6.44955 35.2947C6.43943 35.0334 6.60004 34.869 6.86308 34.815C6.95413 34.7966 7.0515 34.8039 7.14635 34.8039C10.0765 34.8039 13.0066 34.8039 15.9354 34.8039C16.0454 34.8039 16.1605 34.7954 16.2642 34.8211C16.5007 34.8812 16.6487 35.0309 16.6449 35.28C16.6411 35.5254 16.5096 35.6861 16.2579 35.7254C16.1036 35.7487 15.9443 35.7463 15.7875 35.7463C14.3521 35.7487 12.9193 35.7475 11.4852 35.7475Z" fill="#EC232A"/>
<path d="M11.3386 14.5922C9.95258 14.5922 8.56783 14.5885 7.18181 14.5947C6.82266 14.5959 6.4711 14.5615 6.45592 14.1358C6.44075 13.7027 6.78978 13.6475 7.1502 13.6475C9.96902 13.6499 12.7866 13.6462 15.6054 13.6511C16.1201 13.6524 16.3971 13.9542 16.2289 14.3063C16.1024 14.5701 15.8571 14.5959 15.5902 14.5947C14.1726 14.5898 12.755 14.5922 11.3386 14.5922Z" fill="#EC232A"/>
<path d="M11.3336 10.3641C9.964 10.3641 8.59316 10.3653 7.22358 10.3629C7.08195 10.3629 6.93399 10.3727 6.80247 10.3359C6.56851 10.2696 6.42941 10.0991 6.44838 9.85614C6.46608 9.64142 6.59001 9.47946 6.8227 9.44388C6.99216 9.41812 7.16794 9.41444 7.33993 9.41444C10.0171 9.41321 12.6943 9.41321 15.3715 9.41321C15.4499 9.41321 15.5296 9.41321 15.608 9.41444C15.9519 9.41689 16.2694 9.48805 16.2567 9.90031C16.2441 10.3028 15.933 10.3678 15.5852 10.3666C14.1688 10.3616 12.7512 10.3641 11.3336 10.3641Z" fill="#EC232A"/>
<path d="M10.1131 23.0534C9.12167 23.0534 8.13147 23.0485 7.14002 23.0558C6.79351 23.0583 6.46724 22.9982 6.45586 22.6043C6.44195 22.1761 6.77834 22.1148 7.14508 22.116C9.14317 22.1209 11.14 22.1209 13.1381 22.1172C13.4871 22.116 13.7982 22.1773 13.7957 22.5871C13.7932 22.9945 13.4795 23.0583 13.133 23.0558C12.1264 23.0509 11.1198 23.0534 10.1131 23.0534Z" fill="#EC232A"/>
<path d="M9.25328 30.5759C9.96273 30.5759 10.6734 30.5796 11.3829 30.5747C11.7168 30.5722 12.0026 30.6422 12.0152 31.0262C12.0291 31.4446 11.7269 31.5158 11.3753 31.5158C9.95514 31.5133 8.53625 31.5121 7.11609 31.517C6.76452 31.5182 6.44837 31.4434 6.45343 31.0422C6.45849 30.6471 6.76832 30.5685 7.12367 30.5735C7.83312 30.582 8.54384 30.5759 9.25328 30.5759Z" fill="#EC232A"/>
<path d="M8.87767 26.3477C9.49101 26.3477 10.1043 26.3527 10.7177 26.3453C11.0515 26.3416 11.2893 26.4717 11.2969 26.8042C11.3045 27.1379 11.0718 27.2827 10.7367 27.2815C9.49354 27.2802 8.25169 27.2815 7.00857 27.2815C6.67598 27.2815 6.44076 27.1355 6.45088 26.8005C6.46099 26.468 6.70506 26.3416 7.03639 26.3453C7.65099 26.3514 8.26433 26.3477 8.87767 26.3477Z" fill="#EC232A"/>
<path d="M23.2057 24.4582C23.2171 24.7257 23.0678 24.8975 22.8263 24.9785C21.4276 25.4459 20.029 25.911 18.6252 26.3613C18.3104 26.4619 18.0106 26.3833 17.8994 26.0373C17.7893 25.6926 17.9879 25.4803 18.3078 25.3735C19.6913 24.9134 21.0761 24.4546 22.4646 24.0092C22.8693 23.8791 23.193 24.0926 23.2057 24.4582Z" fill="#EC232A"/>
<path d="M20.2642 31.5145C19.9443 31.517 19.7457 31.382 19.6787 31.1133C19.6091 30.836 19.747 30.6262 20.0075 30.5256C20.402 30.3734 20.8067 30.2483 21.2089 30.1158C22.1776 29.7968 23.145 29.4765 24.1149 29.1624C24.5702 29.0152 24.8939 29.1133 24.9774 29.436C25.0811 29.8348 24.8383 30.0274 24.4867 30.1428C23.145 30.582 21.8045 31.0237 20.4627 31.463C20.3894 31.4863 20.3123 31.501 20.2642 31.5145Z" fill="#EC232A"/>
<path d="M19.3601 28.9489C19.0389 28.9452 18.853 28.825 18.7923 28.5673C18.7265 28.2925 18.8378 28.079 19.1046 27.9722C19.4094 27.8508 19.7243 27.7526 20.0366 27.6483C21.0939 27.2986 22.1536 26.9563 23.2083 26.6005C23.5763 26.4766 23.9177 26.4532 24.072 26.8667C24.2301 27.2937 23.9203 27.4729 23.5637 27.5906C22.2535 28.0213 20.9421 28.452 19.6307 28.8802C19.527 28.917 19.4182 28.9354 19.3601 28.9489Z" fill="#EC232A"/>
</g>
<defs>
<clipPath id="clip0_399_2">
<rect width="49" height="47" fill="white"/>
</clipPath>
</defs>
</svg>
