<?xml version="1.0" encoding="UTF-8"?> <svg xmlns="http://www.w3.org/2000/svg" width="101" height="101" viewBox="0 0 101 101" fill="none"><circle cx="50.5" cy="50.5" r="50" fill="#F7A209" stroke="black" stroke-dasharray="1 1"></circle><path d="M74.4936 44.5751C76.6513 42.5482 78.5593 40.7557 80.4719 38.9654C80.7877 38.6703 81.0659 38.3165 81.5518 38.2623C82.0575 38.208 82.5058 38.2818 82.8305 38.7137C83.2059 39.2128 83.1463 39.7293 82.8879 40.2479C81.9493 42.1272 81.0063 44.0066 80.0633 45.8859C79.2506 47.5048 78.4754 49.1454 77.6009 50.7296C77.1614 51.526 77.3624 51.8341 78.1663 52.1293C79.7122 52.6978 81.2293 53.351 82.7465 53.9912C84.171 54.5924 84.3388 55.4474 83.2523 56.5585C80.5492 59.3232 77.8438 62.0836 75.1142 64.8222C74.6659 65.2715 74.476 65.7228 74.4804 66.35C74.5069 69.4967 74.4958 72.6433 74.4892 75.79C74.487 77.2526 74.1579 77.5868 72.6717 77.5868C56.3292 77.5912 39.989 77.5912 23.6466 77.5868C22.2044 77.5868 21.8666 77.2526 21.8643 75.8746C21.8577 71.5344 21.8577 67.1942 21.8643 62.854C21.8666 61.4629 22.2641 61.0831 23.7238 61.0788C26.8157 61.0701 29.9097 61.0115 32.9971 61.1092C34.1874 61.1461 34.4016 60.7424 34.3597 59.7051C34.2846 57.7911 34.3243 55.8727 34.3442 53.9565C34.3575 52.6653 34.7484 52.2812 36.0778 52.2747C39.2425 52.2595 42.4094 52.2356 45.5741 52.2877C46.5392 52.3029 46.9367 52.1032 46.8815 51.0551C46.7866 49.2886 46.8506 47.5113 46.8572 45.7405C46.8639 44.3559 47.2967 43.9154 48.6924 43.9111C51.8947 43.9002 55.0969 43.8807 58.2991 43.9241C59.1406 43.9349 59.452 43.7461 59.421 42.8564C59.3526 40.797 59.3923 38.7332 59.4012 36.6716C59.4078 35.3131 59.728 34.9681 61.0707 34.9637C64.973 34.9485 68.8731 34.9507 72.7755 34.9637C74.1292 34.9681 74.4826 35.3218 74.4892 36.6412C74.5025 39.1651 74.4936 41.6867 74.4936 44.5751ZM49.4941 60.7294C49.4941 65.1738 49.5162 69.6182 49.4742 74.0626C49.4654 74.8872 49.715 75.1086 50.5299 75.0934C53.1778 75.0478 55.8257 75.0586 58.4736 75.0869C59.1759 75.0955 59.4188 74.8981 59.4188 74.1667C59.3945 65.2411 59.3945 56.3154 59.4166 47.3898C59.4188 46.6649 59.1803 46.4761 58.4714 46.487C55.8235 46.5239 53.1756 46.5326 50.5277 46.4827C49.7127 46.4675 49.4654 46.6758 49.4742 47.5026C49.5162 51.9123 49.4941 56.3198 49.4941 60.7294ZM71.8612 68.5418C71.7419 68.4832 71.6249 68.4246 71.5056 68.366C71.3068 68.6243 71.1324 68.902 70.9049 69.1343C70.0392 70.0218 69.1625 70.8964 68.2835 71.7709C67.7976 72.2527 67.2345 72.4719 66.5962 72.0878C65.916 71.6776 65.8697 71.0505 66.1038 70.3712C66.1987 70.0978 66.329 69.8374 66.4417 69.5704C67.8948 66.1395 69.317 62.6934 70.8232 59.2863C71.1876 58.4638 70.9667 58.1969 70.2048 57.917C68.6236 57.3375 67.0689 56.68 65.5119 56.0376C64.0897 55.4517 63.9064 54.5403 65.0194 53.4834C67.0269 51.5716 69.041 49.6662 71.0838 47.7912C71.6337 47.2856 71.8987 46.7713 71.8855 46.0096C71.8391 43.553 71.817 41.0921 71.8921 38.6355C71.923 37.633 71.5586 37.4311 70.6289 37.4528C68.2018 37.5114 65.7703 37.5244 63.3454 37.4485C62.2964 37.4159 61.9828 37.6829 61.9872 38.7527C62.0292 49.7074 62.0137 60.6621 62.0137 71.6147C62.0137 72.5174 62.0248 73.4224 62.0093 74.3251C62.0005 74.7895 62.1043 75.0803 62.6696 75.076C65.5031 75.063 68.3365 75.0673 71.1677 75.0738C71.6006 75.0738 71.8678 74.9523 71.8656 74.4662C71.8567 72.4936 71.8612 70.5188 71.8612 68.5418ZM46.855 65.0653C46.855 61.9924 46.8219 58.9174 46.8771 55.8445C46.8926 54.9613 46.5988 54.7595 45.753 54.7746C43.1404 54.8246 40.5278 54.8137 37.9153 54.779C37.2108 54.7703 36.948 54.9504 36.9524 55.6796C36.9767 61.8622 36.9745 68.047 36.9546 74.2297C36.9524 74.9154 37.2174 75.0912 37.8645 75.0847C40.5499 75.0608 43.2376 75.0456 45.9231 75.0934C46.7534 75.1086 46.8793 74.77 46.8705 74.0691C46.8374 71.07 46.855 68.0666 46.855 65.0653ZM24.4813 69.3903C24.4813 71.0157 24.5012 72.6411 24.4703 74.2666C24.4593 74.872 24.6669 75.0934 25.2918 75.0869C28.0104 75.063 30.7312 75.063 33.4498 75.089C34.1101 75.0955 34.3553 74.8915 34.3486 74.2231C34.3221 70.9723 34.3266 67.7237 34.3464 64.4729C34.3508 63.8652 34.1433 63.6569 33.5161 63.6634C30.7975 63.6894 28.0767 63.6916 25.3581 63.6612C24.6934 63.6547 24.4504 63.8479 24.4659 64.5163C24.5078 66.1395 24.4813 67.7649 24.4813 69.3903ZM71.3532 64.6682C71.4217 64.7051 71.4924 64.742 71.5608 64.781C74.3412 61.949 77.1194 59.1105 79.9087 56.2872C80.3681 55.8228 80.134 55.6622 79.668 55.4778C78.2391 54.907 76.8213 54.3146 75.4013 53.7243C73.9305 53.1145 73.7626 52.6675 74.4826 51.2243C75.2423 49.7009 76.0219 48.1884 76.7771 46.6628C76.8831 46.4479 77.1194 46.2266 76.9229 45.8512C73.9349 48.6528 70.9977 51.4088 67.9765 54.243C69.7101 54.9591 71.3024 55.6058 72.8881 56.272C74.2904 56.8623 74.4649 57.2963 73.8753 58.7025C73.0405 60.6947 72.1946 62.6803 71.3532 64.6682Z" fill="black"></path><path d="M25.4597 27.9219C25.4707 27.6745 25.3758 27.3946 25.2543 27.1277C25.0224 26.6199 25.0909 26.1424 25.4067 25.7019C25.8594 25.0682 26.4137 24.5279 27.0741 24.1004C27.5356 23.8009 28.0171 23.7662 28.5338 23.968C29.9252 24.5127 31.6234 23.8399 32.2418 22.4923C32.4582 22.0192 32.8116 21.7415 33.3173 21.6351C34.0638 21.4767 34.8124 21.4789 35.5589 21.6329C36.0668 21.7393 36.4158 22.0171 36.6388 22.4858C37.2903 23.8616 38.9378 24.5018 40.3843 23.9528C40.8702 23.7683 41.3317 23.7987 41.769 24.0743C42.447 24.5018 43.0124 25.0509 43.4717 25.6954C43.7853 26.1338 43.8383 26.6003 43.6329 27.1212C43.1095 28.4427 43.7941 30.0877 45.117 30.6714C45.7751 30.9622 46.0799 31.4397 46.177 32.1167C46.272 32.7873 46.2698 33.4514 46.1682 34.1176C46.0732 34.7404 45.7795 35.1961 45.17 35.4696C43.7787 36.0924 43.1139 37.6657 43.644 39.0633C43.8273 39.5494 43.7941 39.9964 43.5026 40.4174C43.0322 41.0945 42.4448 41.6587 41.7381 42.0949C41.3008 42.364 40.837 42.3879 40.3512 42.1991C38.9621 41.6609 37.2837 42.3097 36.6609 43.6357C36.4511 44.0849 36.1353 44.3952 35.645 44.5102C34.8456 44.6969 34.0395 44.6969 33.24 44.5124C32.7674 44.4017 32.4494 44.1153 32.2396 43.6791C31.5727 42.2945 29.9494 41.6609 28.4919 42.2099C28.0016 42.3944 27.54 42.3488 27.1094 42.0754C26.4447 41.6565 25.8859 41.1227 25.4266 40.4912C25.0975 40.0398 25.0423 39.5646 25.2499 39.0285C25.7667 37.6961 25.0754 36.062 23.7526 35.4891C23.0923 35.2026 22.7919 34.7165 22.6991 34.0395C22.6086 33.3819 22.613 32.7331 22.708 32.0798C22.8007 31.4397 23.0878 30.9666 23.7194 30.691C24.7287 30.2548 25.4619 29.0764 25.4597 27.9219ZM26.2658 38.065C26.2415 38.575 26.1708 38.9287 26.0096 39.2629C25.8749 39.5407 25.8859 39.8033 26.0714 40.0528C26.4623 40.5737 26.9283 41.0207 27.4672 41.394C27.7211 41.5697 27.9817 41.5784 28.2732 41.4699C30.0775 40.8059 32.1049 41.6153 32.9507 43.3384C33.0876 43.6205 33.2974 43.7529 33.6044 43.8006C34.172 43.8896 34.7351 43.8852 35.3005 43.7963C35.6097 43.7485 35.8084 43.601 35.9409 43.3167C36.7294 41.6348 38.8185 40.8015 40.5897 41.4612C40.8967 41.5762 41.1683 41.5632 41.4333 41.3788C41.9611 41.0142 42.4117 40.5715 42.7981 40.0658C42.9859 39.8228 43.0344 39.5515 42.8754 39.2824C42.1069 37.9739 43.2575 35.2135 44.8144 34.7578C45.1369 34.6644 45.2981 34.4409 45.3577 34.1263C45.488 33.4448 45.4814 32.7656 45.371 32.0842C45.3135 31.7391 45.1192 31.5243 44.7879 31.3767C43.1073 30.6302 42.2504 28.6012 42.8843 26.8846C42.9903 26.596 42.9859 26.3464 42.7981 26.099C42.3962 25.5674 41.9214 25.1116 41.3627 24.7405C41.1308 24.5865 40.9011 24.5865 40.6383 24.6863C38.8406 25.3677 36.7713 24.5583 35.9431 22.8482C35.8239 22.603 35.6649 22.4402 35.3844 22.3903C34.7638 22.2775 34.1433 22.284 33.5227 22.3838C33.229 22.4315 33.0589 22.6008 32.9353 22.8656C32.1424 24.5387 30.0201 25.3699 28.2688 24.6928C27.9729 24.5778 27.7256 24.5995 27.4694 24.7709C26.9946 25.0878 26.6059 25.4936 26.226 25.9102C25.9213 26.2444 25.8351 26.6025 26.056 27.0213C26.1443 27.1906 26.1885 27.3902 26.215 27.5812C26.427 29.0742 25.4884 30.7496 24.0794 31.3832C23.7636 31.5243 23.5781 31.7305 23.5207 32.0603C23.4014 32.7548 23.397 33.4492 23.5317 34.1436C23.5847 34.4257 23.7305 34.6276 24.0088 34.7361C25.601 35.3654 26.0251 36.7282 26.2658 38.065Z" fill="black"></path><path d="M23.174 22.2905C23.8122 22.2905 23.8321 22.6117 23.8277 22.9806C23.8166 23.9853 23.8211 24.9923 23.8255 25.997C23.8255 26.2705 23.7923 26.5244 23.4412 26.5287C23.0878 26.5352 23.0459 26.2878 23.0481 26.01C23.0525 25.1442 23.0393 24.2783 23.0547 23.4124C23.0591 23.1498 22.9752 23.0782 22.7168 23.0826C22.4209 23.0891 22.0477 23.2063 21.8953 22.8243C21.7451 22.4424 22.1161 22.2883 22.3193 22.0822C22.9443 21.4506 23.5892 20.843 24.2142 20.2115C24.4946 19.9294 24.7376 19.9381 25.0114 20.2115C25.7115 20.906 26.416 21.596 27.1227 22.284C27.2795 22.438 27.4296 22.5921 27.328 22.8287C27.2309 23.0565 27.0299 23.1064 26.8002 23.0891C26.4513 23.063 26.1178 23.0305 26.1598 23.5578C26.173 23.7228 25.9809 23.8399 25.7888 23.8378C25.5988 23.8356 25.4487 23.7379 25.4178 23.5513C25.3647 23.2345 25.3625 22.9111 25.4155 22.5921C25.4597 22.3382 25.696 22.3165 26.014 22.2514C25.5458 21.8109 25.1395 21.4311 24.7376 21.0448C24.6227 20.9342 24.5476 20.9776 24.4549 21.0665C24.0728 21.4398 23.6819 21.8065 23.174 22.2905Z" fill="black"></path><path d="M45.6183 22.1884C45.2186 21.8152 44.8166 21.4462 44.4235 21.0686C44.2976 20.9471 44.2159 20.9775 44.1077 21.0817C43.7257 21.4549 43.3392 21.8238 42.9461 22.2014C43.4364 22.451 43.6638 23.1172 43.454 23.5968C43.3789 23.7704 43.2376 23.8594 43.0499 23.8377C42.8401 23.8138 42.6855 23.6706 42.7009 23.4775C42.7363 23.0716 42.5022 23.0608 42.2085 23.089C42.1245 23.0977 42.0384 23.089 41.9523 23.089C41.7601 23.0912 41.6298 22.9957 41.5526 22.8308C41.4797 22.6723 41.5216 22.5226 41.6387 22.4076C42.4094 21.6459 43.1802 20.8842 43.9598 20.1312C44.1607 19.938 44.386 19.9424 44.598 20.1529C45.3489 20.8929 46.1041 21.6307 46.8594 22.3685C46.9897 22.4944 47.0692 22.6376 46.9941 22.8177C46.9146 23.0087 46.7534 23.0738 46.5547 23.0912C45.8347 23.1563 45.8347 23.1585 45.8347 23.8681C45.8347 24.5929 45.8303 25.3199 45.8369 26.0447C45.8391 26.3138 45.7729 26.5286 45.4527 26.5308C45.1324 26.533 45.0596 26.3181 45.0596 26.049C45.0618 24.9879 45.0662 23.9288 45.0573 22.8677C45.0551 22.5204 45.1501 22.2882 45.583 22.3056C45.594 22.2665 45.6072 22.2275 45.6183 22.1884Z" fill="black"></path><path d="M23.821 27.8806C23.8343 28.1757 23.8055 28.4535 23.4323 28.4535C23.0193 28.4535 23.0503 28.1388 23.0436 27.8567C23.037 27.5833 23.0746 27.3164 23.4036 27.3099C23.7746 27.3055 23.8475 27.5855 23.821 27.8806Z" fill="black"></path><path d="M45.8325 27.8849C45.8502 28.1822 45.8237 28.4556 45.4482 28.4556C45.075 28.4534 45.0595 28.1757 45.0573 27.8957C45.0529 27.6136 45.075 27.3206 45.4283 27.312C45.8038 27.3033 45.8634 27.5919 45.8325 27.8849Z" fill="black"></path><path d="M34.4304 39.6058C31.2723 39.7273 27.8249 37.2078 27.7587 33.1389C27.7278 31.2313 28.4654 29.6038 29.8965 28.2995C30.1305 28.0868 30.2984 27.859 30.4221 27.5639C31.0713 25.9884 32.668 25.0053 34.5121 25.014C36.2722 25.0227 37.8314 26.0361 38.4806 27.6181C38.58 27.859 38.7125 28.0478 38.9047 28.2257C40.8415 30.0291 41.5725 32.2252 40.8834 34.7643C40.1811 37.3575 38.3813 38.9005 35.7422 39.519C35.5766 39.558 35.4087 39.5949 35.2409 39.6036C34.9692 39.6145 34.6998 39.6058 34.4304 39.6058ZM34.5033 38.8679C36.3981 38.7963 37.9815 38.0325 39.1873 36.5155C39.353 36.3072 39.3927 36.1162 39.3066 35.8623C38.8539 34.5125 38.0014 33.4969 36.7316 32.8177C36.5218 32.7048 36.3363 32.6745 36.0955 32.7678C34.9913 33.1931 33.8761 33.1909 32.7718 32.7634C32.5687 32.6853 32.4052 32.6875 32.2109 32.7873C30.9168 33.4579 30.0422 34.4735 29.5784 35.8363C29.4879 36.1011 29.5276 36.3094 29.7065 36.5307C30.9168 38.0368 32.4958 38.8115 34.5033 38.8679ZM34.4569 25.7779C32.5488 25.7735 30.9543 27.1863 30.9079 28.9223C30.866 30.5152 32.0541 31.9475 33.6596 32.2383C35.4904 32.5681 37.2395 31.6523 37.7982 30.0682C38.5425 27.961 36.8442 25.7822 34.4569 25.7779ZM39.8918 35.1636C40.8746 33.1757 40.0773 30.3112 38.7677 29.2782C38.6728 30.4544 38.1317 31.4028 37.1953 32.1775C38.4409 32.8741 39.311 33.855 39.8918 35.1636ZM28.991 35.1397C29.5564 33.8658 30.4331 32.8763 31.6831 32.184C31.2237 31.7847 30.8461 31.3746 30.5767 30.8754C30.305 30.372 30.1769 29.8294 30.0996 29.2457C28.6354 30.5543 28.0723 33.5881 28.991 35.1397Z" fill="black"></path><path d="M36.1839 30.7561C36.1706 30.9926 36.1596 31.2248 35.9122 31.3333C35.698 31.4266 35.528 31.3442 35.4043 31.1576C35.3336 31.049 35.2343 31.1011 35.1371 31.1076C34.7992 31.125 34.4591 31.1402 34.1212 31.1402C33.8275 31.1402 33.547 31.0447 33.2798 31.316C33.1186 31.4787 32.8801 31.3572 32.7696 31.1272C32.6349 30.8472 32.752 30.1615 32.9728 29.9401C33.176 29.7361 33.5315 29.7665 33.5956 30.0356C33.6685 30.3373 33.8606 30.3568 34.0837 30.3655C34.3509 30.3763 34.6225 30.3741 34.8897 30.3546C35.0686 30.3438 35.21 30.3134 35.274 30.0682C35.3623 29.7318 35.7577 29.7144 35.9586 30.0117C36.111 30.2396 36.1618 30.5 36.1839 30.7561Z" fill="black"></path></svg> 