<?xml version="1.0" encoding="UTF-8"?> <svg xmlns="http://www.w3.org/2000/svg" width="129" height="145" viewBox="0 0 129 145" fill="none"><path d="M128.89 71.6595C128.879 71.5465 128.852 71.4365 128.83 71.3245C128.809 71.2155 128.794 71.1065 128.762 70.9995C128.731 70.8955 128.684 70.7955 128.644 70.6945C128.6 70.5835 128.56 70.4725 128.504 70.3655C128.456 70.2755 128.394 70.1915 128.338 70.1045C128.268 69.9955 128.2 69.8855 128.117 69.7835C128.103 69.7665 128.094 69.7465 128.079 69.7285C118.895 58.9045 87.3726 41.8395 66.0936 40.9795C65.5486 40.9525 64.9996 40.9375 64.4476 40.9375C63.8956 40.9375 63.3466 40.9515 62.8016 40.9795C41.5226 41.8395 10.0016 58.9035 0.817633 69.7285C0.802633 69.7455 0.794633 69.7655 0.779633 69.7835C0.696633 69.8855 0.629634 69.9945 0.558634 70.1035C0.502634 70.1905 0.439633 70.2745 0.392633 70.3655C0.336634 70.4715 0.297634 70.5825 0.253634 70.6925C0.212634 70.7945 0.165633 70.8955 0.134633 71.0005C0.103633 71.1065 0.0876333 71.2155 0.0666333 71.3245C0.0446333 71.4365 0.0176329 71.5475 0.00663288 71.6605C-0.00436712 71.7725 0.00163372 71.8845 0.00163372 71.9965C0.00163372 72.1075 -0.00436712 72.2175 0.00663288 72.3275C0.0176329 72.4425 0.0456337 72.5555 0.0676337 72.6695C0.0886337 72.7755 0.103634 72.8825 0.133634 72.9865C0.165634 73.0935 0.213633 73.1965 0.255633 73.3015C0.298633 73.4095 0.337633 73.5175 0.391633 73.6205C0.440633 73.7135 0.504634 73.7995 0.562634 73.8885C0.631634 73.9955 0.697633 74.1025 0.778633 74.2025C0.793633 74.2205 0.801633 74.2405 0.816633 74.2585C10.0006 85.0815 41.5226 102.146 62.8006 103.006C63.3456 103.033 63.8946 103.048 64.4466 103.048C64.9986 103.048 65.5476 103.034 66.0926 103.006C87.3706 102.146 118.893 85.0825 128.077 74.2585C128.092 74.2415 128.1 74.2215 128.115 74.2035C128.199 74.1015 128.266 73.9915 128.336 73.8825C128.392 73.7955 128.454 73.7125 128.502 73.6215C128.558 73.5145 128.598 73.4035 128.642 73.2925C128.683 73.1905 128.73 73.0915 128.76 72.9875C128.792 72.8805 128.807 72.7715 128.828 72.6625C128.85 72.5505 128.877 72.4405 128.888 72.3275C128.899 72.2165 128.893 72.1055 128.893 71.9935C128.895 71.8815 128.901 71.7705 128.89 71.6595ZM14.9796 77.1875C12.3786 75.3965 10.1326 73.6395 8.35963 71.9935C10.1326 70.3475 12.3796 68.5895 14.9816 66.7975C21.3116 62.4395 29.7036 57.9005 38.3126 54.3655C37.7086 55.2185 37.1456 56.1015 36.6296 57.0125C34.1146 61.4575 32.6776 66.5635 32.6776 71.9935C32.6776 77.4225 34.1146 82.5285 36.6296 86.9735C37.1456 87.8855 37.7086 88.7675 38.3126 89.6205C29.7026 86.0855 21.3096 81.5465 14.9796 77.1875ZM64.4486 96.0475C50.7906 96.0475 39.6776 85.2575 39.6776 71.9935C39.6776 58.7295 50.7906 47.9385 64.4486 47.9385C78.1066 47.9385 89.2196 58.7295 89.2196 71.9935C89.2196 85.2575 78.1066 96.0475 64.4486 96.0475ZM113.918 77.1875C107.588 81.5465 99.1946 86.0855 90.5836 89.6205C91.1876 88.7675 91.7506 87.8855 92.2666 86.9735C94.7826 82.5285 96.2186 77.4225 96.2186 71.9935C96.2186 66.5635 94.7816 61.4575 92.2666 57.0125C91.7506 56.1005 91.1876 55.2185 90.5836 54.3655C99.1936 57.9005 107.586 62.4395 113.916 66.7985C116.518 68.5895 118.764 70.3475 120.538 71.9935C118.765 73.6395 116.519 75.3965 113.918 77.1875Z" fill="white"></path><path d="M64.4486 59.7979C57.5996 59.7979 52.0276 65.2689 52.0276 71.9929C52.0276 78.7169 57.5996 84.1869 64.4486 84.1869C71.2976 84.1869 76.8696 78.7159 76.8696 71.9929C76.8696 65.2689 71.2976 59.7979 64.4486 59.7979ZM64.4486 77.1879C61.4596 77.1879 59.0276 74.8579 59.0276 71.9939C59.0276 69.1299 61.4596 66.7989 64.4486 66.7989C67.4376 66.7989 69.8696 69.1299 69.8696 71.9939C69.8696 74.8579 67.4376 77.1879 64.4486 77.1879Z" fill="white"></path><path d="M102.26 32.8618C103.14 32.8618 104.02 32.5328 104.7 31.8708L117.016 19.8908C118.402 18.5428 118.432 16.3278 117.084 14.9418C115.734 13.5558 113.521 13.5248 112.135 14.8738L99.8186 26.8538C98.4326 28.2018 98.4026 30.4168 99.7506 31.8028C100.438 32.5078 101.348 32.8618 102.26 32.8618Z" fill="white"></path><path d="M24.1965 31.8711C24.8765 32.5331 25.7575 32.8621 26.6365 32.8621C27.5485 32.8621 28.4595 32.5081 29.1455 31.8021C30.4935 30.4161 30.4625 28.2001 29.0775 26.8531L16.7615 14.8731C15.3755 13.5241 13.1595 13.5571 11.8125 14.9411C10.4645 16.3271 10.4955 18.5431 11.8805 19.8901L24.1965 31.8711Z" fill="white"></path><path d="M63.9375 23.942C65.8705 23.942 67.4375 22.375 67.4375 20.442V3.5C67.4375 1.567 65.8705 0 63.9375 0C62.0045 0 60.4375 1.567 60.4375 3.5V20.442C60.4375 22.375 62.0055 23.942 63.9375 23.942Z" fill="white"></path><path d="M24.1966 113.129L11.8806 125.109C10.4946 126.457 10.4646 128.672 11.8126 130.058C12.4986 130.763 13.4096 131.118 14.3216 131.118C15.2006 131.118 16.0816 130.789 16.7616 130.127L29.0776 118.147C30.4636 116.799 30.4936 114.584 29.1456 113.198C27.7986 111.813 25.5826 111.78 24.1966 113.129Z" fill="white"></path><path d="M104.7 113.129C103.314 111.78 101.098 111.813 99.7515 113.197C98.4035 114.583 98.4345 116.799 99.8195 118.146L112.135 130.126C112.816 130.788 113.696 131.117 114.575 131.117C115.487 131.117 116.398 130.763 117.084 130.057C118.432 128.671 118.401 126.455 117.016 125.108L104.7 113.129Z" fill="white"></path><path d="M64.9607 121.058C63.0277 121.058 61.4607 122.625 61.4607 124.558V141.5C61.4607 143.433 63.0277 145 64.9607 145C66.8937 145 68.4607 143.433 68.4607 141.5V124.558C68.4607 122.625 66.8927 121.058 64.9607 121.058Z" fill="white"></path></svg> 