<?xml version="1.0" encoding="UTF-8"?> <svg xmlns="http://www.w3.org/2000/svg" width="52" height="53" viewBox="0 0 52 53" fill="none"><g clip-path="url(#clip0_8_71)"><path d="M3.25721 39.9891C3.78442 36.462 5.70758 34.1648 9.15262 33.1702C9.52188 33.0633 9.73746 32.9029 9.6777 32.5179C9.54963 31.6901 9.99574 31.5554 10.6702 31.6259C10.9861 31.6602 11.3127 31.6559 11.6286 31.6281C12.1387 31.5832 12.3266 31.7992 12.3074 32.304C12.2796 32.9799 12.2497 33.6622 12.3159 34.3338C12.3991 35.1958 12.1174 35.4888 11.2145 35.5252C9.09926 35.6107 7.32551 36.37 6.47812 38.5218C5.74173 40.3955 5.79723 40.4767 7.73746 40.4767C12.397 40.4767 17.0566 40.4575 21.7161 40.4939C22.6019 40.5003 22.8196 40.2671 22.6062 39.3945C22.0192 36.9925 20.4909 35.6963 17.6606 35.5294C16.7129 35.4738 16.3778 35.1787 16.5208 34.2696C16.5592 34.0258 16.5272 33.7713 16.5272 33.521C16.5272 31.4634 16.5251 31.4784 18.5486 31.6217C18.9861 31.6516 19.2444 31.7607 19.1868 32.2291C19.1078 32.8665 19.4621 33.0611 20.0043 33.2387C23.4749 34.368 25.3383 36.9005 25.445 40.5666C25.5197 43.1354 25.5197 43.1354 23.0139 43.1354C15.936 43.1354 8.85806 43.1183 1.78015 43.1568C0.836716 43.1611 0.584848 42.9001 0.586983 41.9611C0.619 32.0879 0.623269 22.2147 0.584848 12.3415C0.580579 11.3149 0.917826 11.101 1.85913 11.1202C4.8111 11.1758 7.76308 11.1053 10.7151 11.1609C11.6307 11.178 11.9466 10.9619 11.9253 9.98875C11.8613 7.10336 11.9253 4.21369 11.889 1.32831C11.8805 0.581828 12.1131 0.367938 12.8559 0.367938C25.3767 0.389327 37.8975 0.391466 50.4162 0.36366C51.2465 0.361521 51.4152 0.63744 51.413 1.40531C51.3938 18.1209 51.3938 34.8386 51.4152 51.5541C51.4173 52.384 51.1974 52.6343 50.3479 52.6343C37.8634 52.6065 25.3789 52.6086 12.8943 52.6343C12.0704 52.6364 11.8719 52.3755 11.889 51.6012C11.9338 49.535 11.9338 47.4667 11.889 45.4005C11.8741 44.6626 12.0832 44.4102 12.841 44.438C14.9008 44.515 14.5251 44.207 14.5592 46.1063C14.5784 47.1758 14.5806 48.2453 14.5571 49.3147C14.5464 49.8131 14.7215 50.0484 15.2337 50.0013C15.445 49.982 15.6606 49.9992 15.8741 49.9992C26.4034 49.9992 36.9306 49.9863 47.46 50.0205C48.4482 50.0248 48.7791 49.8345 48.777 48.7586C48.7385 33.9317 48.7407 19.1026 48.7727 4.27572C48.7748 3.26616 48.5528 2.96457 47.5005 2.96885C36.937 3.01163 26.3735 3.01163 15.8079 2.96885C14.7492 2.96457 14.4931 3.27257 14.5379 4.28214C14.619 6.13229 14.6425 7.99314 14.5315 9.83902C14.461 10.9876 14.8815 11.1887 15.9061 11.1587C18.3586 11.0881 20.8154 11.1651 23.2679 11.1202C24.0555 11.1053 24.4056 11.3298 24.2946 12.1405C24.2647 12.3501 24.2668 12.5704 24.2946 12.78C24.4098 13.6163 24.0747 13.8687 23.2273 13.8644C16.9669 13.8302 10.7065 13.8623 4.44611 13.8281C3.57097 13.8238 3.22306 13.9628 3.22946 14.9703C3.27642 22.8821 3.25507 30.796 3.25507 38.7079C3.25721 39.1378 3.25721 39.5634 3.25721 39.9891Z" fill="#EC232A"></path><path d="M35.3575 8.49146C39.889 8.49788 43.2209 11.856 43.2188 16.414C43.2167 20.6875 39.6926 24.1846 35.3682 24.2103C31.0502 24.2338 27.4386 20.6704 27.4258 16.3691C27.4109 11.8816 30.8282 8.48718 35.3575 8.49146ZM30.1345 16.2471C30.1345 19.3143 32.3223 21.558 35.3191 21.5666C38.2369 21.5752 40.5592 19.2844 40.5678 16.3904C40.5763 13.3767 38.3244 11.086 35.3511 11.0838C32.3799 11.0817 30.1345 13.3019 30.1345 16.2471Z" fill="#EC232A"></path><path d="M28.2583 26.4776C30.1366 26.2808 30.2625 27.5534 30.429 28.9758C31.9103 27.7545 33.2999 26.6637 34.6211 25.4958C35.1547 25.0253 35.4941 25.0017 36.032 25.4787C37.3319 26.6294 38.6916 27.716 40.1558 28.933C40.4696 27.6518 40.4802 26.2145 42.4226 26.4712C42.3906 26.3792 42.3607 26.2851 42.3287 26.1931C41.8186 25.7803 41.3319 25.3333 40.7919 24.9675C40.2711 24.6146 40.3223 24.3601 40.698 23.9002C41.8698 22.4693 41.8527 22.4457 43.3106 23.605C44.9456 24.9055 46.5742 26.2166 48.3821 27.6647C46.7108 28.0539 45.2529 28.4047 43.7887 28.732C43.1868 28.8667 42.8154 29.0806 42.7129 29.8057C42.5315 31.104 42.1857 32.3767 41.8762 33.8183C39.9296 32.2056 38.0469 30.7019 36.239 29.117C35.5603 28.5224 35.1398 28.4518 34.4183 29.0913C32.6168 30.6934 30.7193 32.1885 28.7428 33.8247C28.429 32.3425 28.1152 31.0121 27.8762 29.6667C27.778 29.1191 27.5261 28.8967 27.0032 28.7833C25.4898 28.4539 23.985 28.0753 22.2796 27.6711C23.6201 26.5909 24.8239 25.6156 26.0341 24.6445C26.4781 24.2873 26.9306 23.943 27.3767 23.5879C28.8474 22.4179 28.8239 22.435 29.9658 23.8938C30.333 24.3622 30.3586 24.636 29.8506 24.9846C29.3276 25.344 28.858 25.7781 28.365 26.1803C28.3287 26.2808 28.2924 26.3792 28.2583 26.4776Z" fill="#EC232A"></path><path d="M14.4098 30.8046C11.2871 30.8217 8.94131 28.3192 8.91783 24.944C8.89435 21.6458 11.3234 19.047 14.412 19.0663C17.4877 19.0855 19.8783 21.6822 19.8826 25.0017C19.8826 28.2465 17.4877 30.7853 14.4098 30.8046ZM17.1932 24.9868C17.1974 23.1002 16.0342 21.7249 14.4184 21.7057C12.7876 21.6864 11.5646 23.0596 11.5688 24.9098C11.5731 26.7941 12.7428 28.1823 14.3458 28.2015C15.9701 28.2208 17.1889 26.8455 17.1932 24.9868Z" fill="#EC232A"></path></g><defs><clipPath id="clip0_8_71"><rect width="52" height="53" fill="white"></rect></clipPath></defs></svg> 