<svg width="80" height="83" viewBox="0 0 80 83" fill="none" xmlns="http://www.w3.org/2000/svg">
<path d="M39.5999 82.0567C36.0887 82.064 32.6066 81.4011 29.343 80.1081L0.932442 68.9188C0.378805 68.7221 0.00728237 68.2013 0 67.6149V9.42864C0.00364212 8.96606 0.233111 8.53626 0.611915 8.27763C0.994366 8.01538 1.4788 7.9571 1.90857 8.12465L30.956 19.4818C36.5142 21.6526 42.6843 21.6526 48.2426 19.4818L77.2247 8.12465C77.6545 7.9571 78.139 8.01538 78.5214 8.27763C78.9038 8.53623 79.1333 8.96604 79.1333 9.42864V67.5683C79.126 68.1547 78.7545 68.6755 78.2009 68.8722L49.8565 80.1091C46.5929 81.4021 43.1108 82.065 39.5996 82.0577L39.5999 82.0567ZM2.86353 66.6164L30.3892 77.5074C36.3081 79.8348 42.8933 79.8348 48.8124 77.5074L76.3381 66.6164V11.4783L49.2973 22.0886V22.0922C43.087 24.5144 36.1918 24.5144 29.978 22.0922L2.93719 11.482L2.86353 66.6164Z" fill="white"/>
<path d="M39.5986 18.2794C36.2841 18.2758 33.0024 17.6165 29.946 16.3308L7.30909 6.79847V11.1911C7.30909 11.9633 6.6826 12.5898 5.91043 12.5898C5.13825 12.5898 4.51176 11.9633 4.51176 11.1911V4.66402C4.50812 4.21236 4.73031 3.78621 5.09819 3.52756C5.49156 3.26531 5.98691 3.21796 6.42402 3.39644L31.0023 13.7484V13.7448C36.4767 16.0394 42.6429 16.0394 48.121 13.7448L72.7356 3.39652C73.1836 3.20348 73.6971 3.25083 74.0978 3.52764C74.4657 3.78625 74.6879 4.21241 74.6842 4.6641V11.1912C74.6842 11.9634 74.0577 12.5899 73.2856 12.5899C72.5134 12.5899 71.8869 11.9634 71.8869 11.1912V6.79856L49.25 16.3309C46.1941 17.6167 42.9123 18.2759 39.5973 18.2795L39.5986 18.2794Z" fill="white"/>
<path d="M39.5993 12.9544C36.8056 12.958 34.0411 12.4007 31.4695 11.3117L12.9223 3.50974V7.05377V7.05013C12.9223 7.8223 12.2958 8.44879 11.5237 8.44879C10.7515 8.44879 10.125 7.8223 10.125 7.05013V1.40083C10.125 0.930964 10.3581 0.493882 10.7478 0.235278C11.1376 -0.0269712 11.6329 -0.0743207 12.0628 0.115077L32.5765 8.74017C37.0893 10.6232 42.1667 10.6232 46.676 8.74017L67.1897 0.115077C67.6195 -0.0743207 68.1149 -0.0269712 68.5046 0.235278C68.8944 0.493882 69.1311 0.930964 69.1311 1.40083V7.05013C69.1311 7.8223 68.5046 8.44879 67.7325 8.44879C66.9566 8.44879 66.3338 7.8223 66.3338 7.05013V3.50974L47.7288 11.3117C45.1573 12.4008 42.393 12.958 39.5993 12.9544Z" fill="white"/>
<path d="M18.8411 45.6914C18.6735 45.6914 18.506 45.6623 18.3493 45.5967L5.42663 40.8252C4.86934 40.6285 4.49783 40.1077 4.49418 39.5177V24.4671C4.49054 24.0082 4.72001 23.5747 5.09882 23.3125C5.46305 23.0466 5.93291 22.9737 6.35911 23.1158L19.2277 27.4065H19.2241C19.785 27.5996 20.1602 28.1277 20.1565 28.7214L20.2221 44.2923C20.2257 44.7549 19.9963 45.1883 19.6175 45.4469C19.3916 45.6072 19.1179 45.6914 18.8411 45.6914ZM7.30954 38.5378L17.4349 42.315L17.3876 29.7634L7.30882 26.4051L7.30954 38.5378Z" fill="white"/>
<path d="M47.1252 60.8623C46.3531 60.8623 45.7266 60.2358 45.7266 59.4636L45.7812 43.8928C45.7812 43.2991 46.1527 42.7673 46.7136 42.5669L59.5823 38.2762V38.2799C60.0084 38.1414 60.4783 38.2143 60.8426 38.4765C61.2068 38.7388 61.4217 39.1613 61.4181 39.613V54.6524C61.4181 55.2424 61.0465 55.7669 60.4856 55.9599L47.6095 60.7788C47.4529 60.8334 47.2891 60.8623 47.1252 60.8623ZM48.5785 44.9091L48.5239 57.4496L58.6493 53.7198V41.598L48.5785 44.9091Z" fill="white"/>
<path d="M32.0754 30.1207C31.9224 30.117 31.773 30.0915 31.6273 30.0442L5.46395 21.0549C4.73183 20.7999 4.3494 19.9986 4.60435 19.2664C4.86295 18.5343 5.66425 18.1519 6.39641 18.4068L32.5598 27.3961C33.2081 27.6183 33.6015 28.2776 33.4886 28.9515C33.3757 29.6289 32.7893 30.1243 32.1045 30.1206L32.0754 30.1207Z" fill="white"/>
<path d="M47.1238 30.1206C46.439 30.1243 45.8526 29.6289 45.736 28.9515C45.6231 28.2776 46.0165 27.6183 46.6648 27.3961L72.8282 18.4068H72.8319C73.564 18.1519 74.3653 18.5343 74.6203 19.2664C74.8789 19.9986 74.4965 20.7998 73.7644 21.0549L47.5721 30.0442C47.4264 30.0915 47.2768 30.117 47.1238 30.1206Z" fill="white"/>
<path d="M47.125 34.8556C46.5277 34.8629 45.9959 34.4877 45.7992 33.9232C45.5515 33.1947 45.9412 32.397 46.6661 32.142L72.8295 23.1527H72.8331C73.5652 22.8977 74.3665 23.2802 74.6215 24.0123C74.8801 24.7444 74.4977 25.5457 73.7656 25.8044L47.5733 34.7827C47.4276 34.8337 47.278 34.8592 47.125 34.8556Z" fill="white"/>
<path d="M47.1245 39.5943C46.4506 39.5834 45.8788 39.0917 45.7659 38.4287C45.653 37.7622 46.0318 37.1102 46.6656 36.8807L72.829 27.8914H72.8326C73.5611 27.6328 74.3587 28.0152 74.6174 28.7437C74.876 29.4722 74.4936 30.2735 73.7651 30.5285L47.5728 39.5178C47.4271 39.5724 47.2775 39.5943 47.1245 39.5943Z" fill="white"/>
<path d="M47.125 73.4027C46.5277 73.41 45.9959 73.0348 45.7992 72.4703C45.5515 71.7418 45.9412 70.9478 46.6661 70.6891L72.8295 61.7107H72.8331C73.5616 61.4521 74.3592 61.8346 74.6179 62.563C74.8765 63.2915 74.4941 64.0928 73.7656 64.3515L47.5733 73.3299C47.4276 73.3809 47.278 73.4064 47.125 73.4027Z" fill="white"/>
<path d="M32.0748 36.1227C31.9218 36.1263 31.7725 36.1008 31.6268 36.0498L23.3732 33.2525H23.3768C22.6483 32.9975 22.2586 32.2035 22.5099 31.4714C22.6265 31.1217 22.8815 30.8303 23.2129 30.67C23.5444 30.5061 23.9305 30.4843 24.2801 30.6045L32.5337 33.4018C33.1675 33.6313 33.5462 34.2833 33.4334 34.9498C33.3204 35.6164 32.7486 36.1045 32.0748 36.1154L32.0748 36.1227Z" fill="white"/>
<path d="M65.0359 39.5289C64.3475 39.5325 63.7611 39.0372 63.6482 38.3597C63.5352 37.6859 63.9286 37.0266 64.5769 36.8044L72.8306 34.0071C73.5627 33.7521 74.364 34.1345 74.619 34.8667C74.8776 35.5988 74.4951 36.4001 73.763 36.6551L65.5204 39.4524C65.3638 39.507 65.1998 39.5325 65.0359 39.5289Z" fill="white"/>
<path d="M65.0359 44.0121C64.3475 44.0157 63.7611 43.5204 63.6482 42.8465C63.5352 42.1691 63.9286 41.5098 64.5769 41.2912L72.8306 38.4939C73.5627 38.2353 74.364 38.6177 74.619 39.3499C74.8776 40.082 74.4951 40.8833 73.763 41.1419L65.5204 43.9392C65.3638 43.9902 65.1998 44.0121 65.0359 44.0121Z" fill="white"/>
<path d="M65.0359 48.4889C64.3475 48.4925 63.7611 47.9971 63.6482 47.3233C63.5352 46.6458 63.9286 45.9866 64.5769 45.7644L72.8306 42.967C73.5627 42.7121 74.364 43.0945 74.619 43.8266C74.8776 44.5587 74.4951 45.36 73.763 45.6187L65.5204 48.416C65.3638 48.4634 65.1998 48.4889 65.0359 48.4889Z" fill="white"/>
<path d="M65.0359 52.9832C64.3475 52.9868 63.7611 52.4914 63.6482 51.814C63.5352 51.1401 63.9286 50.4808 64.5769 50.2586L72.8306 47.4613C73.559 47.2064 74.3567 47.5888 74.6153 48.3173C74.8739 49.0457 74.4915 49.8434 73.763 50.1021L65.5204 52.8994C65.3638 52.9577 65.1998 52.9868 65.0359 52.9832Z" fill="white"/>
<path d="M65.0359 57.4785C64.3475 57.4821 63.7611 56.9868 63.6482 56.3093C63.5352 55.6355 63.9286 54.9762 64.5769 54.754L72.8306 51.9566C73.5627 51.7017 74.364 52.0841 74.619 52.8162C74.8776 53.5484 74.4951 54.3497 73.763 54.6047L65.5204 57.402C65.3638 57.453 65.1998 57.4785 65.0359 57.4785Z" fill="white"/>
<path d="M65.0359 61.9617C64.3475 61.9653 63.7611 61.47 63.6482 60.7961C63.5352 60.1187 63.9286 59.4594 64.5769 59.2408L72.8306 56.4435C73.5627 56.1849 74.364 56.5673 74.619 57.2994C74.8776 58.0316 74.4951 58.8328 73.763 59.0915L65.5204 61.8888C65.3638 61.9398 65.1998 61.9617 65.0359 61.9617Z" fill="white"/>
<path d="M32.0729 40.5267C31.9199 40.5267 31.7706 40.5049 31.6249 40.4503L23.3713 37.6529H23.3749C23.0253 37.5291 22.7375 37.2741 22.5772 36.939C22.417 36.6039 22.3951 36.2178 22.519 35.8682C22.7776 35.1397 23.5789 34.7573 24.3074 35.0159L32.561 37.8132H32.5574C33.2858 38.0682 33.6719 38.8622 33.4242 39.5944C33.2276 40.1662 32.6775 40.5449 32.0729 40.5267Z" fill="white"/>
<path d="M32.0735 44.9269C31.9205 44.9269 31.7712 44.9014 31.6255 44.854L23.3719 42.0567H23.3755C22.6434 41.7981 22.2573 40.9968 22.5159 40.2646C22.7745 39.5325 23.5758 39.1501 24.308 39.4087L32.5616 42.206H32.558C33.2063 42.4246 33.5997 43.0838 33.4868 43.7613C33.3738 44.4352 32.7874 44.9305 32.1026 44.9269L32.0735 44.9269Z" fill="white"/>
<path d="M32.0735 49.3262C31.9205 49.3262 31.7712 49.3007 31.6255 49.2533L23.3719 46.456H23.3755C22.6434 46.1974 22.2573 45.3961 22.5159 44.6639C22.7745 43.9354 23.5758 43.5494 24.308 43.808L32.5616 46.6053H32.558C33.2063 46.8275 33.5997 47.4831 33.4868 48.1606C33.3738 48.8381 32.7874 49.3298 32.1026 49.3262L32.0735 49.3262Z" fill="white"/>
<path d="M32.0759 55.4271C31.923 55.4271 31.7736 55.4016 31.6279 55.3506L5.46454 46.3613C5.11487 46.2375 4.82713 45.9825 4.66686 45.6474C4.50659 45.3123 4.48838 44.9262 4.61223 44.5766C4.86719 43.8481 5.6685 43.4657 6.39701 43.7243L32.5604 52.7136C33.1978 52.943 33.5766 53.595 33.4637 54.2579C33.3508 54.9244 32.7789 55.4162 32.1051 55.4271L32.0759 55.4271Z" fill="white"/>
<path d="M32.0759 59.9225C31.923 59.9225 31.7736 59.897 31.6279 59.846L5.46454 50.8567C5.11487 50.7328 4.82713 50.4779 4.66686 50.1428C4.50659 49.8077 4.48838 49.4216 4.61223 49.072C4.86719 48.3435 5.6685 47.961 6.39701 48.2196L32.5604 57.2089C33.1978 57.4384 33.5766 58.0904 33.4637 58.7533C33.3508 59.4198 32.7789 59.9115 32.1051 59.9224L32.0759 59.9225Z" fill="white"/>
<path d="M32.0759 64.4131C31.923 64.4167 31.7736 64.3912 31.6279 64.3402L5.46454 55.3509C5.11487 55.2271 4.82713 54.9685 4.66686 54.637C4.50659 54.3019 4.48838 53.9158 4.61223 53.5662C4.86719 52.8377 5.6685 52.4553 6.39701 52.7139L32.5604 61.7032C33.1978 61.9327 33.5766 62.581 33.4637 63.2475C33.3508 63.9141 32.7789 64.4058 32.1051 64.4131L32.0759 64.4131Z" fill="white"/>
<path d="M32.0759 68.9075C31.923 68.9111 31.7736 68.8856 31.6279 68.8346L5.46454 59.8453C5.11487 59.7215 4.82713 59.4629 4.66686 59.1278C4.50659 58.7963 4.48838 58.4102 4.61223 58.0606C4.86719 57.3321 5.6685 56.9497 6.39701 57.2083L32.5343 66.2049C33.2591 66.4598 33.6489 67.2539 33.4012 67.986C33.2009 68.5433 32.6697 68.9148 32.0759 68.9075Z" fill="white"/>
<path d="M32.0759 73.4027C31.923 73.4064 31.7736 73.3809 31.6279 73.3299L5.46454 64.3406C5.11487 64.2167 4.82713 63.9581 4.66686 63.623C4.50659 63.2879 4.48838 62.9055 4.61223 62.5558C4.86719 61.8274 5.6685 61.4449 6.39701 61.7035L32.5343 70.6819C33.2591 70.9369 33.6489 71.7309 33.4012 72.4631C33.2081 73.0276 32.6733 73.4063 32.0759 73.4027Z" fill="white"/>
</svg>
