<svg width="79" height="60" viewBox="0 0 79 60" fill="none" xmlns="http://www.w3.org/2000/svg">
<path d="M75.457 6.6055H64.914V2.668C64.914 1.1953 63.7187 0 62.246 0H2.668C1.1953 0 0 1.1992 0 2.668V43.137C0 44.6097 1.1953 45.805 2.668 45.805H6.6055V56.328C6.6055 57.8124 7.8125 59.0233 9.3008 59.0233H68.8238C70.3082 59.0233 71.5191 57.8163 71.5191 56.328V52.4139H75.4566C76.9293 52.4139 78.1246 51.2186 78.1246 49.7459V9.2729C78.1246 7.8041 76.9297 6.6055 75.457 6.6055ZM6.605 15.9063V43.1173L2.6948 43.1368L2.66746 2.69183L62.2185 2.66449V6.60199L15.8825 6.60589C14.4098 6.60589 13.2145 7.80119 13.2145 9.27389V13.2114H9.30036C7.81206 13.2153 6.605 14.4219 6.605 15.9063ZM68.824 56.3283H9.301V15.9063H68.824V56.3283ZM71.5193 49.7189V15.9069C71.5193 14.4225 70.3123 13.2116 68.824 13.2116L15.898 13.2155L15.8785 9.3014L75.4295 9.27406L75.4568 49.7191L71.5193 49.7189ZM13.3433 53.633H64.7843C65.5265 53.633 66.132 53.0314 66.132 52.2853L66.1281 19.9493C66.1281 19.2071 65.5265 18.6016 64.7804 18.6016L13.3424 18.6055C12.6002 18.6055 11.9947 19.2071 11.9947 19.9532V52.2892C11.9947 53.0314 12.5972 53.633 13.3433 53.633ZM14.691 50.9416V49.508L33.796 36.168L41.1905 41.336L35.7569 45.1251C35.1475 45.5509 34.9991 46.3907 35.421 47.0001C35.6827 47.3751 36.1006 47.5743 36.5265 47.5743C36.7921 47.5743 37.0616 47.4962 37.296 47.3321L50.956 37.8087L63.436 46.504V50.9415L14.691 50.9416ZM63.437 21.2966V43.2186L51.726 35.0584C51.2612 34.7342 50.6479 34.7342 50.1869 35.0584L43.5463 39.6912L34.5697 33.4178C34.1049 33.0936 33.4916 33.0936 33.0267 33.4178L14.6907 46.2228V21.2968L63.437 21.2966ZM48.816 32.7736C51.3824 32.7736 53.4722 30.6838 53.4722 28.1174C53.4722 25.551 51.3824 23.4612 48.816 23.4612C46.2496 23.4612 44.1598 25.551 44.1598 28.1174C44.1637 30.6877 46.2496 32.7736 48.816 32.7736ZM48.816 26.1564C49.898 26.1564 50.7769 27.0353 50.7769 28.1173C50.7769 29.1993 49.898 30.0782 48.816 30.0782C47.734 30.0782 46.8551 29.1993 46.8551 28.1173C46.8551 27.0392 47.7379 26.1564 48.816 26.1564Z" fill="black"/>
</svg>
