<svg width="75" height="82" viewBox="0 0 75 82" fill="none" xmlns="http://www.w3.org/2000/svg">
<path d="M25.4238 59.3127C24.6779 59.3127 23.9452 59.0772 23.3172 58.6192C22.205 57.808 21.6554 56.4603 21.891 55.0995L23.8144 43.9124C23.8406 43.7685 23.7882 43.6245 23.6836 43.5199L15.558 35.6037C14.5767 34.6485 14.2233 33.2354 14.6421 31.9269C15.0608 30.6184 16.1729 29.6764 17.5469 29.4801L28.7733 27.8445C28.9172 27.8183 29.0481 27.7267 29.1135 27.5959L34.138 17.4162C34.753 16.1862 35.9829 15.4143 37.3569 15.4143C38.7308 15.4143 39.9738 16.1863 40.5758 17.4162L45.6003 27.5959C45.6657 27.7267 45.7965 27.8183 45.9405 27.8445L57.1669 29.4801C58.5277 29.6763 59.6399 30.6184 60.0717 31.9269C60.5036 33.2354 60.1502 34.6485 59.1558 35.6037L51.0302 43.5199C50.9255 43.6245 50.8732 43.7685 50.8994 43.9124L52.8228 55.0995C53.0583 56.4603 52.5088 57.808 51.3966 58.6192C50.2844 59.4304 48.832 59.5352 47.6152 58.894L37.5662 53.6078C37.4353 53.5424 37.2783 53.5424 37.1474 53.6078L27.0984 58.894C26.562 59.1688 25.9995 59.3127 25.4238 59.3127ZM37.357 18.5673C37.2261 18.5673 37.056 18.6066 36.9513 18.8159L31.9268 28.9956C31.4034 30.0554 30.3959 30.7881 29.2183 30.9583L17.9919 32.5939C17.7694 32.6331 17.6648 32.7771 17.6255 32.8948C17.5862 33.0126 17.5732 33.1958 17.7433 33.3528L25.8688 41.269C26.7193 42.0933 27.0988 43.284 26.9025 44.4486L24.979 55.6356C24.9398 55.8581 25.0576 56.002 25.1622 56.0805C25.2669 56.159 25.437 56.2245 25.6333 56.1198L35.6823 50.8336C36.7291 50.284 37.9852 50.284 39.032 50.8336L49.081 56.1198C49.2773 56.2244 49.4473 56.159 49.552 56.0805C49.6567 56.002 49.7745 55.8712 49.7352 55.6356L47.8117 44.4486C47.6155 43.2841 47.9949 42.0933 48.8455 41.269L56.971 33.3528C57.1411 33.1958 57.128 33.0126 57.0888 32.8948C57.0495 32.7771 56.9579 32.6201 56.7224 32.5939L45.496 30.9583C44.3315 30.7882 43.3108 30.0555 42.7874 28.9956L37.7629 18.8159C37.6582 18.6066 37.4878 18.5673 37.357 18.5673Z" fill="white"/>
<path d="M15.5446 81.1249C14.3015 81.1249 13.0584 80.8763 11.9201 80.3529C8.70127 78.9005 6.71241 75.7995 6.71241 72.2666V58.7499C2.31596 52.4823 0 45.1025 0 37.3698C0 27.3861 3.88612 18.0045 10.9383 10.9517C17.991 3.88604 27.3727 0 37.3564 0C47.3401 0 56.7216 3.88612 63.7744 10.9384C70.8271 17.9906 74.7127 27.3727 74.7127 37.3564C74.7127 47.3401 70.8266 56.7217 63.7744 63.7744C56.7222 70.8271 47.3401 74.7127 37.3564 74.7127C34.0721 74.7127 30.8271 74.294 27.7001 73.4566L21.4325 78.9391C19.797 80.3653 17.6772 81.1112 15.5445 81.1112L15.5446 81.1249ZM37.3568 3.14038C28.2105 3.14038 19.627 6.69941 13.1629 13.1634C6.69892 19.6275 3.1399 28.2236 3.1399 37.3573C3.1399 44.5931 5.36425 51.5021 9.55134 57.3247C9.74761 57.5864 9.85229 57.9135 9.85229 58.2406V72.2674C9.85229 74.5442 11.1477 76.5461 13.215 77.4882C15.1908 78.391 17.7292 78.0116 19.3649 76.5854L26.2605 70.5534C26.6661 70.2001 27.2156 70.0823 27.739 70.2262C30.8401 71.1291 34.072 71.587 37.3559 71.587C46.5022 71.587 55.0857 68.028 61.5498 61.564C68.0138 55.1 71.5728 46.5039 71.5728 37.3702C71.5728 28.2364 68.0138 19.6403 61.5498 13.1763C55.0857 6.71229 46.4896 3.15326 37.3559 3.15326L37.3568 3.14038ZM15.4926 73.8369C15.2702 73.8369 15.0478 73.7845 14.8384 73.6929C14.2758 73.4312 13.9224 72.8817 13.9224 72.2667V56.9319C9.32971 51.4494 6.81746 44.5013 6.81746 37.3707C6.81746 20.5311 20.5168 6.8309 37.3572 6.8309C54.1977 6.8309 67.897 20.5302 67.897 37.3707C67.897 54.2112 54.1977 67.9105 37.3572 67.9105C33.4449 67.9105 29.3364 67.0992 25.7121 65.6076L16.5139 73.4714C16.2261 73.72 15.8597 73.8509 15.4933 73.8509L15.4926 73.8369ZM37.3568 9.97036C22.2439 9.97036 9.95732 22.257 9.95732 37.3698C9.95732 43.7813 12.2209 50.0098 16.3426 54.9162L16.6959 55.335C16.9445 55.6228 17.0754 55.9761 17.0754 56.3556V68.865L24.4289 62.5843C24.8869 62.1918 25.528 62.1002 26.0776 62.3357L26.4309 62.4927C29.7936 63.9582 33.6798 64.7695 37.3567 64.7695C52.4696 64.7695 64.7561 52.4829 64.7561 37.37C64.7561 22.2571 52.4697 9.97036 37.3568 9.97036Z" fill="white"/>
</svg>
