<svg width="81" height="79" viewBox="0 0 81 79" fill="none" xmlns="http://www.w3.org/2000/svg">
<path fill-rule="evenodd" clip-rule="evenodd" d="M59.4134 0C65.3748 0 70.7712 2.41293 74.6777 6.31421C78.5843 10.2155 81 15.6053 81 21.5591C81 27.5129 78.584 32.9024 74.6777 36.804C70.7715 40.7056 65.3748 43.1182 59.4134 43.1182C57.5324 43.1182 55.6981 42.8723 53.9446 42.4143C52.2674 41.9775 50.6752 41.3456 49.1933 40.5484L38.8246 43.3217C38.2981 43.4617 37.7589 43.1478 37.6145 42.622C37.5678 42.4439 37.572 42.2658 37.6187 42.1004L40.3956 31.7577C39.5974 30.2777 38.9647 28.6876 38.5273 27.0125C38.0688 25.2611 37.8225 23.4292 37.8225 21.5507C37.8225 15.5969 40.2385 10.2074 44.1448 6.3058C48.0554 2.413 53.4519 0 59.4134 0ZM2.47452 59.919L11.0005 75.0412C11.5313 75.9784 12.3931 76.6187 13.3571 76.8858C14.3252 77.1572 15.3994 77.0597 16.3378 76.5296L17.3271 75.9741C18.2697 75.444 18.9066 74.5832 19.1741 73.6205C19.4458 72.6537 19.3482 71.5808 18.8174 70.6436L18.7877 70.5885L10.3212 55.5727L10.3169 55.5642L10.2914 55.5218C9.76069 54.5804 8.8988 53.9443 7.93488 53.6772C6.9668 53.4058 5.89257 53.5033 4.95418 54.0334L3.96486 54.5889C3.02225 55.119 2.38538 55.9797 2.11788 56.9424C1.84614 57.9093 1.94378 58.9775 2.47452 59.919ZM9.28082 76.0074L0.754825 60.8851C-0.0391753 59.473 -0.187786 57.8701 0.219828 56.4198C0.627443 54.9653 1.58702 53.6676 3.00095 52.8705L3.99027 52.3149C5.40421 51.522 7.00912 51.3735 8.46132 51.7806C9.64166 52.1114 10.7159 52.8026 11.5057 53.7992L19.1782 49.6731C21.5219 48.4136 23.9464 47.6758 26.4133 47.4723C28.8802 47.2687 31.3896 47.591 33.9117 48.4476L43.86 51.8274C45.1762 52.2769 46.1952 53.2182 46.7685 54.376C47.0912 55.029 47.2738 55.7499 47.295 56.4878L56.6234 52.9681C59.0564 52.0521 61.621 52.0945 63.8883 52.9426C66.1598 53.7865 68.1257 55.4361 69.3614 57.7175L69.4208 57.8277C69.6799 58.3069 69.4973 58.9049 69.0217 59.1593C69.0005 59.1678 68.9835 59.1805 68.9665 59.189L45.6521 70.4987C43.1215 71.7284 40.5101 72.3646 37.882 72.4069C35.2621 72.4493 32.6297 71.9023 30.0566 70.7573L28.303 69.9813C27.1608 69.4725 25.989 69.2435 24.834 69.2901C23.6791 69.3368 22.5327 69.659 21.433 70.2527L20.932 70.5241C21.3693 71.7072 21.3991 72.9752 21.0721 74.1413C20.6645 75.5958 19.7049 76.8977 18.291 77.6906L17.3017 78.2461C15.8877 79.0391 14.2828 79.1875 12.8306 78.7805C11.3785 78.3776 10.0747 77.4195 9.28082 76.0074ZM12.5375 55.4789L20.1124 51.4037C22.2142 50.2757 24.3754 49.6185 26.5748 49.4361C28.7741 49.2538 31.016 49.5464 33.275 50.3139L43.2233 53.6937C44.0257 53.9693 44.6457 54.5418 44.9981 55.25C45.342 55.9412 45.4312 56.7553 45.1891 57.5357C45.1806 57.5611 45.1679 57.5823 45.1637 57.6077L45.083 57.8495C44.8155 58.6594 44.2423 59.287 43.5332 59.6432C42.8241 59.9994 41.9791 60.0884 41.1681 59.817L30.4513 56.2847C29.9332 56.115 29.377 56.3949 29.203 56.9123C29.0331 57.4296 29.3134 57.9851 29.8314 58.1589L40.5483 61.6913C41.8731 62.1281 43.2572 61.9839 44.4206 61.3987C45.4948 60.8602 46.378 59.9443 46.8536 58.7611L57.3199 54.8089C59.2943 54.0668 61.3706 54.1007 63.2049 54.7835C64.7717 55.3687 66.1602 56.4245 67.1579 57.8791L44.7989 68.7265C42.523 69.8333 40.1877 70.4016 37.8567 70.4439C35.5172 70.4821 33.1649 69.9902 30.8551 68.9639L29.1015 68.1879C27.6748 67.5561 26.2099 67.2677 24.7621 67.3271C23.3057 67.3864 21.8705 67.7851 20.4991 68.5314L20.0363 68.7816L12.5375 55.4789ZM61.7697 18.709L57.7318 18.726C57.7488 18.7556 57.7701 18.7853 57.787 18.815C58.3178 19.7437 58.3815 20.9099 57.9824 22.5721L55.6937 32.1685C55.6555 32.3296 55.6513 32.4823 55.681 32.6138C55.7107 32.7495 55.7787 32.8809 55.8806 33.0124C55.9825 33.1438 56.0971 33.2371 56.2245 33.2965C56.3519 33.3559 56.5005 33.3898 56.6618 33.3898L60.6997 33.3728L60.6445 33.2795C60.1138 32.3508 60.0501 31.1847 60.4449 29.5224L62.7336 19.9261C62.7718 19.7649 62.776 19.6123 62.7463 19.4808C62.7166 19.3451 62.6486 19.2136 62.5467 19.0822C62.4449 18.9507 62.3302 18.8574 62.2028 18.7981C62.0797 18.7387 61.9311 18.7048 61.7697 18.709ZM54.6407 16.771C54.0972 16.7753 53.6599 17.2163 53.6599 17.7591C53.6641 18.1916 53.9444 18.5605 54.335 18.6878C55.2266 19.01 55.8084 19.3366 56.0674 19.786C56.3307 20.2483 56.3307 20.9735 56.0547 22.1183L53.7661 31.7147C53.6599 32.16 53.6557 32.6052 53.7533 33.042C53.851 33.4746 54.042 33.8774 54.3308 34.2379C54.6152 34.5984 54.9677 34.8782 55.3668 35.0691C55.7617 35.2599 56.199 35.3574 56.6618 35.3532L63.7823 35.3235C64.3258 35.3193 64.7632 34.8782 64.7632 34.3354C64.7632 33.9029 64.4787 33.534 64.0881 33.4068C63.1964 33.0845 62.6147 32.7622 62.3556 32.3085C62.0924 31.8462 62.0924 31.1211 62.3684 29.9762L64.657 20.3798C64.7631 19.9346 64.7674 19.4893 64.6697 19.0525C64.5721 18.6199 64.381 18.2171 64.0923 17.8566C63.8078 17.4961 63.4554 17.2163 63.0563 17.0254C62.6614 16.8346 62.2241 16.7371 61.7612 16.7413L54.6407 16.771ZM61.188 7.76401C60.0883 7.76401 59.0947 8.20927 58.3729 8.92591C57.6511 9.64681 57.2053 10.6391 57.2053 11.7374C57.2053 12.8357 57.6511 13.828 58.3729 14.5488C59.0948 15.2697 60.0883 15.715 61.188 15.715C62.2877 15.715 63.2813 15.2697 64.003 14.5488C64.7248 13.8279 65.1706 12.8357 65.1706 11.7374C65.1706 10.6391 64.7248 9.64674 64.003 8.92591C63.2812 8.20925 62.2877 7.76401 61.188 7.76401ZM62.6061 10.3211C62.2452 9.96066 61.7442 9.73591 61.188 9.73591C60.636 9.73591 60.1307 9.96066 59.7698 10.3211C59.4089 10.6816 59.1839 11.1819 59.1839 11.7375C59.1839 12.2887 59.4089 12.7934 59.7698 13.1538C60.1307 13.5143 60.6317 13.739 61.188 13.739C61.74 13.739 62.241 13.5143 62.6061 13.1538C62.967 12.7934 63.1921 12.293 63.1921 11.7375C63.1921 11.1862 62.967 10.6858 62.6061 10.3211ZM73.2848 7.70897C69.7352 4.16388 64.8311 1.97143 59.4172 1.97143C54.0035 1.97143 49.0994 4.16377 45.5496 7.70897C41.9998 11.2542 39.8047 16.1519 39.8047 21.5589C39.8047 23.2847 40.0255 24.9471 40.4374 26.5288C40.862 28.153 41.4989 29.705 42.3099 31.1468C42.4373 31.3631 42.4797 31.6302 42.4076 31.8974L39.9704 40.9849L49.0695 38.5508C49.3115 38.4872 49.5748 38.5127 49.8083 38.6441C51.2562 39.4583 52.8102 40.0944 54.4449 40.5185C56.0244 40.9298 57.6931 41.1503 59.4212 41.1503C64.8391 41.1503 69.7432 38.958 73.2888 35.4128C76.8384 31.8677 79.0336 26.9699 79.0336 21.5629C79.0294 16.1519 76.8345 11.2544 73.2848 7.70897Z" fill="white"/>
</svg>
