<svg width="87" height="87" viewBox="0 0 87 87" fill="none" xmlns="http://www.w3.org/2000/svg">
<path d="M82.9104 55.2698H46.0664C43.8906 55.2698 42.1172 57.0393 42.1172 59.219V82.903C42.1172 85.0788 43.8867 86.8522 46.0664 86.8522H82.9104C85.0862 86.8522 86.8596 85.0827 86.8596 82.903V59.219C86.8596 57.0432 85.0901 55.2698 82.9104 55.2698ZM84.2268 82.8988C84.2268 83.6253 83.6369 84.2152 82.9104 84.2152H46.0664C45.3398 84.2152 44.75 83.6253 44.75 82.8988V59.2148C44.75 58.4882 45.3398 57.8984 46.0664 57.8984H82.9104C83.6369 57.8984 84.2268 58.4882 84.2268 59.2148V82.8988Z" fill="black"/>
<path d="M70.7617 67.9058L63.4024 62.6479C62.668 62.1245 61.8008 61.8472 60.8985 61.8472C58.5235 61.8472 56.5938 63.7769 56.5938 66.1519V75.9644C56.5938 78.3394 58.5235 80.2691 60.8985 80.2691C61.8008 80.2691 62.668 79.9917 63.4024 79.4683L70.7617 74.2105C71.7773 73.4839 72.3829 72.3082 72.3829 71.0582C72.3829 69.8082 71.7774 68.6323 70.7617 67.9058ZM69.2345 72.0659L61.8751 77.3238C61.5899 77.5269 61.25 77.6363 60.9024 77.6363C59.9805 77.6363 59.2305 76.8862 59.2305 75.9643V66.1518C59.2305 65.23 59.9805 64.4799 60.9024 64.4799C61.2539 64.4799 61.5899 64.5893 61.8751 64.7924L69.2345 70.0502C69.5587 70.2807 69.754 70.6596 69.754 71.0581C69.754 71.4565 69.5587 71.8355 69.2345 72.0659Z" fill="black"/>
<path d="M39.4881 71.0589H19.7501C17.5743 71.0589 15.8009 69.2893 15.8009 67.1096L15.8048 19.7426C15.8048 17.5668 17.5743 15.7934 19.754 15.7934H67.121C69.2968 15.7934 71.0702 17.5629 71.0702 19.7426V52.6376C71.0702 53.3642 71.66 53.954 72.3866 53.954C73.1131 53.954 73.703 53.3642 73.703 52.6376V19.7426C73.703 16.1137 70.7499 13.1646 67.1249 13.1646H19.7539C16.125 13.1646 13.1758 16.1176 13.1758 19.7426V67.1096C13.1758 70.7385 16.1289 73.6878 19.7539 73.6878H39.4919C40.2184 73.6878 40.8083 73.0979 40.8083 72.3714C40.8083 71.6448 40.2184 71.0549 39.4919 71.0549L39.4881 71.0589Z" fill="black"/>
<path d="M23.6992 19.7418C23.6992 19.0153 23.1094 18.4254 22.3828 18.4254H21.0664C20.3398 18.4254 19.75 19.0153 19.75 19.7418C19.75 20.4684 20.3398 21.0582 21.0664 21.0582H22.3828C23.1094 21.0582 23.6992 20.4684 23.6992 19.7418Z" fill="black"/>
<path d="M28.9648 21.0588C29.6914 21.0588 30.2812 20.469 30.2812 19.7424C30.2812 19.0159 29.6914 18.426 28.9648 18.426H27.6484C26.9219 18.426 26.332 19.0159 26.332 19.7424C26.332 20.469 26.9219 21.0588 27.6484 21.0588H28.9648Z" fill="black"/>
<path d="M35.543 21.0588C36.2695 21.0588 36.8594 20.469 36.8594 19.7424C36.8594 19.0159 36.2695 18.426 35.543 18.426H34.2266C33.5 18.426 32.9102 19.0159 32.9102 19.7424C32.9102 20.469 33.5 21.0588 34.2266 21.0588H35.543Z" fill="black"/>
<path d="M52.7346 34.8008C51.4221 31.9063 48.2619 30.4219 45.2776 31.1016L44.2034 28.7305C43.7502 27.7305 42.9339 26.9688 41.9104 26.5821C40.8831 26.1953 39.7659 26.2344 38.7698 26.6836C37.7698 27.1367 37.0081 27.9492 36.6214 28.9766C34.8948 33.5664 31.4847 37.2071 27.0198 39.2306L26.051 39.6681C22.7463 41.1642 21.2776 45.0743 22.7776 48.3751C23.5042 49.9767 24.8088 51.1993 26.4534 51.8165C27.2073 52.1017 27.9925 52.2423 28.7737 52.2423C29.262 52.2423 29.7503 52.1798 30.2307 52.0665L32.4612 56.9884C32.68 57.4728 33.1604 57.7619 33.6604 57.7619C33.844 57.7619 34.0276 57.7228 34.2034 57.6447C34.8635 57.3439 35.1565 56.5666 34.8596 55.9025L32.6916 51.1213C37.0939 49.1955 41.9885 49.0549 46.4966 50.7502C47.5083 51.1291 48.6528 51.0939 49.6372 50.6486C51.6997 49.715 52.6177 47.2736 51.6841 45.2111L50.6099 42.84C53.0904 41.047 54.0513 37.6916 52.7427 34.797L52.7346 34.8008ZM48.5471 48.2578C48.1955 48.4179 47.7814 48.4335 47.4221 48.2929C42.2541 46.3476 36.6491 46.5156 31.6021 48.7304L29.9654 45.121C29.6646 44.4608 28.8873 44.1679 28.2232 44.4648C27.563 44.7655 27.27 45.5429 27.5669 46.207L29.0981 49.5859C28.52 49.6366 27.934 49.5702 27.3754 49.3593C26.3871 48.9882 25.6059 48.2538 25.1684 47.2929C24.27 45.3124 25.1528 42.9648 27.1332 42.0663L28.102 41.6288C33.2075 39.3163 37.1059 35.1522 39.079 29.9018C39.2157 29.5385 39.4969 29.2377 39.8524 29.0776C40.2118 28.9174 40.6141 28.9018 40.9813 29.0385C41.3485 29.1791 41.6415 29.4526 41.8055 29.812L49.2782 46.296C49.6142 47.0381 49.286 47.9132 48.5438 48.2491L48.5471 48.2578ZM49.4728 40.3516L46.4142 33.6016C48.0275 33.4687 49.633 34.3281 50.34 35.8907C51.0471 37.4493 50.6408 39.2227 49.4728 40.3516Z" fill="black"/>
<path d="M55.1315 35.0308C55.3112 35.0308 55.4987 34.9917 55.6745 34.9136L56.8737 34.3706C57.5339 34.0699 57.8268 33.2925 57.53 32.6284C57.2292 31.9683 56.4479 31.6714 55.7877 31.9722L54.5885 32.5152C53.9284 32.8159 53.6354 33.5933 53.9323 34.2574C54.155 34.7417 54.6315 35.0308 55.1315 35.0308Z" fill="black"/>
<path d="M49.9839 30.2148C50.5152 30.2148 51.0151 29.8906 51.2144 29.3593L51.6754 28.1288C51.9293 27.4492 51.5855 26.6913 50.9059 26.4335C50.2262 26.1796 49.4684 26.5195 49.2106 27.2031L48.7496 28.4336C48.4957 29.1133 48.8395 29.8711 49.5191 30.1289C49.6715 30.1875 49.8277 30.2148 49.9801 30.2148L49.9839 30.2148Z" fill="black"/>
<path d="M54.902 41.9918L56.1325 42.4566C56.2849 42.5152 56.4411 42.5426 56.5974 42.5426C57.1286 42.5426 57.6286 42.2183 57.8279 41.691C58.0857 41.0113 57.742 40.2535 57.0623 39.9957L55.8318 39.5309C55.1521 39.277 54.3943 39.6207 54.1365 40.3004C53.8787 40.9801 54.2224 41.7379 54.9021 41.9957L54.902 41.9918Z" fill="black"/>
<path d="M9.17197 6.13282C9.37509 5.9297 9.66025 5.9297 9.86338 6.13282C10.8009 7.07032 12.2228 7.32422 13.422 6.7461C13.9337 6.48829 14.4845 6.26173 15.0509 6.06641C16.2892 5.65235 17.1212 4.47261 17.1212 3.13281C17.1212 2.86328 17.3517 2.63281 17.6212 2.63281H21.8829C22.1524 2.63281 22.3829 2.86328 22.3829 3.13281C22.3829 4.47261 23.2149 5.65231 24.4454 6.06251C25.0196 6.25782 25.5665 6.48439 26.0821 6.7461C27.2071 7.3086 28.7032 7.06641 29.6485 6.1211C29.7618 6.00782 29.8907 5.98438 29.9766 5.98438C30.0196 5.94922 30.1993 6.00391 30.3282 6.13282L33.3555 9.16012C33.4531 9.25778 33.5078 9.38278 33.5078 9.50387C33.5078 9.65231 33.4531 9.72653 33.4375 9.74996C33.0039 10.3359 33.1289 11.1602 33.7148 11.5898C34.3008 12.0233 35.125 11.8983 35.5546 11.3124C35.9374 10.7929 36.1406 10.1679 36.1406 9.50382C36.1406 8.6757 35.8125 7.89442 35.2148 7.29682L32.1875 4.26952C31.5937 3.67577 30.7852 3.29296 29.9609 3.35155C29.1289 3.35546 28.3476 3.68358 27.7734 4.26952C27.6289 4.41405 27.3789 4.45311 27.2539 4.39061C26.6328 4.08202 25.9727 3.80467 25.2773 3.5703C25.121 3.51952 25.0038 3.33592 25.0038 3.1328C25.0038 1.4062 23.5976 0 21.871 0H17.6093C15.8827 0 14.4765 1.4062 14.4765 3.1328C14.4765 3.33202 14.3632 3.51561 14.1992 3.5703C13.5156 3.80468 12.8515 4.07811 12.25 4.37889C12.0781 4.46483 11.8633 4.41795 11.7109 4.26561C10.5195 3.07421 8.49212 3.07031 7.29682 4.26561L4.26952 7.29291C3.67186 7.89057 3.34764 8.67961 3.35155 9.51951C3.35546 10.3515 3.68358 11.1328 4.26952 11.707C4.37108 11.8086 4.42186 11.9336 4.42186 12.0664C4.42186 12.1289 4.41014 12.1875 4.39061 12.2265C4.08202 12.8476 3.80467 13.5077 3.5703 14.2031C3.51952 14.3594 3.33593 14.4766 3.1328 14.4766C1.4062 14.4766 0 15.8828 0 17.6094V21.8711C0 23.5977 1.4062 25.0039 3.1328 25.0039C3.33202 25.0039 3.51561 25.1172 3.5703 25.2812C3.80468 25.9648 4.07811 26.6289 4.37889 27.2304C4.46092 27.4023 4.41795 27.621 4.26561 27.7695C3.66795 28.3671 3.33983 29.1484 3.33983 29.9765C3.33983 30.8046 3.66795 31.5859 4.26561 32.1835L7.29291 35.2108C7.89838 35.8163 8.69911 36.1288 9.50381 36.1288C10.121 36.1288 10.7421 35.9452 11.2811 35.5702C11.8788 35.1561 12.0233 34.3358 11.6053 33.7382C11.1913 33.1405 10.3709 32.996 9.77333 33.4139C9.61317 33.5272 9.34755 33.5429 9.15224 33.3514L6.12494 30.3242C6.02728 30.2265 5.9726 30.1015 5.9726 29.9804C5.9726 29.8515 6.02338 29.7382 6.12885 29.6327C7.06635 28.6952 7.31635 27.2694 6.74213 26.0741C6.48432 25.5624 6.25775 25.0116 6.06244 24.4452C5.64838 23.2069 4.46864 22.3749 3.12884 22.3749C2.85931 22.3749 2.62884 22.1445 2.62884 21.8749V17.6132C2.62884 17.3437 2.85931 17.1132 3.12884 17.1132C4.46864 17.1132 5.64834 16.2812 6.05854 15.0507C6.25385 14.4765 6.48042 13.9296 6.74213 13.414C6.94525 13.0078 7.05072 12.5469 7.05072 12.0781C7.05072 11.2422 6.7226 10.457 6.11713 9.84764C6.00385 9.73436 5.98041 9.60545 5.98041 9.51952C5.98041 9.44139 5.99994 9.29686 6.12885 9.16796L9.15615 6.14066L9.17197 6.13282Z" fill="black"/>
</svg>
