<svg width="80" height="76" viewBox="0 0 80 76" fill="none" xmlns="http://www.w3.org/2000/svg">
<path d="M71.9608 8.68788C71.9608 8.42703 71.8571 8.17686 71.6727 7.99242C71.4882 7.80797 71.2381 7.70435 70.9772 7.70435H27.2101C26.9492 7.70435 26.6991 7.80797 26.5146 7.99242C26.3302 8.17686 26.2266 8.42703 26.2266 8.68788V45.7342C26.2266 45.9951 26.3302 46.2452 26.5146 46.4297C26.6991 46.6141 26.9492 46.7177 27.2101 46.7177H70.9772C71.2381 46.7177 71.4882 46.6141 71.6727 46.4297C71.8571 46.2452 71.9608 45.9951 71.9608 45.7342V8.68788ZM28.1936 9.67141H69.9937V44.7507H28.1936V9.67141Z" fill="white"/>
<path d="M79.0577 0H19.0305C18.7651 0.00595353 18.5124 0.114975 18.326 0.303973C18.1396 0.492971 18.0341 0.747103 18.0319 1.01254V38.1938H0.937103C0.814127 38.187 0.691092 38.2059 0.575808 38.2493C0.460525 38.2926 0.355512 38.3595 0.267436 38.4455C0.179359 38.5316 0.110144 38.6351 0.0641827 38.7494C0.0182217 38.8636 -0.0034807 38.9862 0.000453414 39.1093V65.3448C-0.0103708 66.6624 0.239893 67.9691 0.736799 69.1894C1.2337 70.4098 1.96741 71.5196 2.89555 72.4548C3.8237 73.3901 4.9279 74.1322 6.14442 74.6384C7.36093 75.1446 8.66567 75.4048 9.98329 75.404H71.0162C75.9927 75.404 79.9943 71.3265 79.9943 66.35V1.01254C80 0.884386 79.9802 0.756369 79.9361 0.635905C79.892 0.51544 79.8245 0.404922 79.7374 0.31075C79.6502 0.216578 79.5453 0.140622 79.4286 0.0872814C79.312 0.0339406 79.1859 0.00427415 79.0577 0ZM9.98329 73.408C8.92553 73.412 7.87751 73.2058 6.90008 72.8014C5.92266 72.397 5.03531 71.8025 4.28956 71.0523C3.54381 70.3022 2.95451 69.4113 2.5559 68.4315C2.15728 67.4518 1.95728 66.4025 1.96752 65.3448V40.1609H18.0319V65.3448C18.0385 66.4043 17.8349 67.4546 17.433 68.4349C17.031 69.4152 16.4386 70.306 15.6901 71.0559C14.9416 71.8058 14.0519 72.3998 13.0723 72.8035C12.0927 73.2072 11.0428 73.4127 9.98329 73.408ZM78.0272 66.35C78.0272 70.2418 74.908 73.437 71.0162 73.437H15.9769C16.3669 73.1091 16.731 72.8121 17.0796 72.4628C18.0121 71.5279 18.7502 70.4175 19.2512 69.1958C19.7523 67.9741 20.0064 66.6653 19.9989 65.3448V1.96706H78.0272V66.35Z" fill="white"/>
<path d="M27.2062 52.7829H70.9846C71.2455 52.7829 71.4956 52.6792 71.6801 52.4948C71.8645 52.3103 71.9682 52.0602 71.9682 51.7993C71.9682 51.5385 71.8645 51.2883 71.6801 51.1039C71.4956 50.9194 71.2455 50.8158 70.9846 50.8158H27.2062C26.9453 50.8158 26.6952 50.9194 26.5107 51.1039C26.3263 51.2883 26.2227 51.5385 26.2227 51.7993C26.2227 52.0602 26.3263 52.3103 26.5107 52.4948C26.6952 52.6792 26.9453 52.7829 27.2062 52.7829Z" fill="white"/>
<path d="M27.2062 58.8479H70.9846C71.2455 58.8479 71.4956 58.7443 71.6801 58.5599C71.8645 58.3754 71.9682 58.1252 71.9682 57.8644C71.9682 57.6035 71.8645 57.3534 71.6801 57.1689C71.4956 56.9845 71.2455 56.8809 70.9846 56.8809H27.2062C26.9453 56.8809 26.6952 56.9845 26.5107 57.1689C26.3263 57.3534 26.2227 57.6035 26.2227 57.8644C26.2227 58.1252 26.3263 58.3754 26.5107 58.5599C26.6952 58.7443 26.9453 58.8479 27.2062 58.8479Z" fill="white"/>
<path d="M27.2062 64.7492H70.9846C71.2455 64.7492 71.4956 64.6455 71.6801 64.4611C71.8645 64.2766 71.9682 64.0265 71.9682 63.7656C71.9682 63.5048 71.8645 63.2546 71.6801 63.0702C71.4956 62.8857 71.2455 62.7821 70.9846 62.7821H27.2062C26.9453 62.7821 26.6952 62.8857 26.5107 63.0702C26.3263 63.2546 26.2227 63.5048 26.2227 63.7656C26.2227 64.0265 26.3263 64.2766 26.5107 64.4611C26.6952 64.6455 26.9453 64.7492 27.2062 64.7492Z" fill="white"/>
<path d="M55.1982 22.6162L53.2764 22.405V18.4104C53.2706 18.2503 53.2264 18.094 53.1475 17.9545C53.0687 17.815 52.9575 17.6966 52.8233 17.609C52.6891 17.5215 52.5359 17.4675 52.3765 17.4516C52.217 17.4357 52.0561 17.4583 51.9073 17.5176L39.7726 21.8016H33.6172C33.3602 21.7943 33.1044 21.8386 32.8648 21.9318C32.6252 22.025 32.4067 22.1653 32.2223 22.3444C32.0379 22.5234 31.8912 22.7377 31.7909 22.9744C31.6907 23.2111 31.6389 23.4656 31.6387 23.7226V29.8309C31.6432 30.2084 31.7531 30.5772 31.9558 30.8958C32.1585 31.2143 32.446 31.47 32.7861 31.634V37.6724C32.7829 37.9352 32.8831 38.1888 33.0653 38.3784C33.2474 38.568 33.4967 38.6783 33.7595 38.6856H37.2612C37.4749 38.6824 37.6818 38.6108 37.8517 38.4811C38.0215 38.3514 38.1452 38.1706 38.2046 37.9653L39.9898 31.9061L51.8876 36.0751C51.9923 36.1111 52.1024 36.1292 52.2132 36.1286C52.4295 36.1284 52.6412 36.0651 52.8221 35.9465C52.9554 35.8574 53.0659 35.7383 53.1448 35.5989C53.2238 35.4594 53.2689 35.3033 53.2767 35.1432V30.8795L55.1985 30.6683C55.9329 30.5884 56.6117 30.2396 57.1042 29.689C57.5968 29.1385 57.8682 28.4251 57.8662 27.6864V25.5979C57.8681 24.8592 57.5967 24.1458 57.1041 23.5953C56.6115 23.0448 55.9326 22.696 55.1982 22.6162ZM33.6057 23.7226C33.6057 23.7092 33.6038 23.7687 33.6172 23.7687H39.0152V29.8338H33.6172C33.6038 29.8338 33.6057 29.8445 33.6057 29.8309V23.7226ZM36.5255 36.7185H34.7532V31.8009H37.9611L36.5255 36.7185ZM51.3093 33.756L40.9822 30.1417V23.412L51.3093 19.7975V33.756ZM55.8991 27.6864C55.9005 27.9404 55.8077 28.1859 55.6387 28.3755C55.4697 28.5651 55.2364 28.6853 54.9839 28.7129L53.2764 28.9006V24.3839L54.9839 24.5716C55.2364 24.5992 55.4697 24.7194 55.6387 24.9089C55.8077 25.0985 55.9005 25.344 55.8991 25.5979V27.6864Z" fill="white"/>
<path d="M65.8984 25.7357H59.9972C59.7364 25.7357 59.4862 25.8393 59.3017 26.0238C59.1173 26.2082 59.0137 26.4584 59.0137 26.7192C59.0137 26.9801 59.1173 27.2303 59.3017 27.4147C59.4862 27.5992 59.7364 27.7028 59.9972 27.7028H65.8984C66.1592 27.7028 66.4094 27.5992 66.5939 27.4147C66.7783 27.2303 66.8819 26.9801 66.8819 26.7192C66.8819 26.4584 66.7783 26.2082 66.5939 26.0238C66.4094 25.8393 66.1592 25.7357 65.8984 25.7357Z" fill="white"/>
<path d="M59.656 24.1483C59.7386 24.1482 59.8209 24.1378 59.9009 24.1172L64.1271 23.0336C64.2527 23.002 64.3708 22.9458 64.4746 22.8684C64.5784 22.791 64.6659 22.6939 64.732 22.5826C64.7982 22.4713 64.8418 22.348 64.8602 22.2199C64.8786 22.0917 64.8715 21.9611 64.8394 21.8357C64.8072 21.7103 64.7506 21.5924 64.6728 21.4889C64.595 21.3855 64.4975 21.2983 64.3859 21.2326C64.2744 21.1669 64.1509 21.1238 64.0227 21.1059C63.8945 21.088 63.764 21.0956 63.6387 21.1282L59.4124 22.2117C59.1802 22.271 58.9775 22.413 58.8426 22.611C58.7076 22.8091 58.6497 23.0497 58.6796 23.2875C58.7095 23.5253 58.8252 23.7441 59.005 23.9026C59.1848 24.0611 59.4163 24.1485 59.656 24.1483Z" fill="white"/>
<path d="M64.128 30.6646L59.9018 29.5809C59.6495 29.5173 59.3823 29.5562 59.1586 29.6892C58.935 29.8221 58.7732 30.0383 58.7085 30.2903C58.6439 30.5423 58.6818 30.8097 58.8139 31.0339C58.946 31.258 59.1615 31.4207 59.4133 31.4863L63.6395 32.57C63.7648 32.6026 63.8953 32.6102 64.0236 32.5923C64.1518 32.5744 64.2752 32.5313 64.3868 32.4656C64.4984 32.3999 64.5958 32.3128 64.6736 32.2093C64.7515 32.1058 64.8081 31.9879 64.8402 31.8625C64.8724 31.7371 64.8795 31.6065 64.861 31.4784C64.8426 31.3502 64.7991 31.2269 64.7329 31.1156C64.6667 31.0043 64.5792 30.9072 64.4754 30.8298C64.3716 30.7524 64.2536 30.6962 64.128 30.6646Z" fill="white"/>
</svg>
