<svg width="13" height="11" viewBox="0 0 13 11" fill="none" xmlns="http://www.w3.org/2000/svg">
<path d="M6.49124 7.53524e-05C6.42306 0.00162222 6.35943 0.0255178 6.29828 0.0698991L0.123273 5.22611C-0.0187974 5.34679 -0.0389555 5.56949 0.0674138 5.71488C0.172254 5.85819 0.395253 5.88112 0.529523 5.76859L6.5014 0.78425L12.4733 5.76859C12.6076 5.88112 12.8244 5.85731 12.9303 5.71488C13.0354 5.57351 13.0241 5.33867 12.8795 5.22611L6.70453 0.0698991C6.6322 0.0195005 6.55943 -0.00142854 6.49124 7.53524e-05ZM2.4389 4.62456L1.7889 5.16703V10.6563C1.78891 10.7474 1.82315 10.8349 1.8841 10.8993C1.94505 10.9638 2.02771 11 2.1139 11H5.2014C5.28759 11 5.37025 10.9638 5.4312 10.8993C5.49215 10.8349 5.52639 10.7474 5.5264 10.6563V8.59377C5.5264 8.01651 5.95563 7.56252 6.5014 7.56252C7.04717 7.56252 7.4764 8.01651 7.4764 8.59377V10.6563C7.47641 10.7474 7.51065 10.8349 7.5716 10.8993C7.63255 10.9638 7.71521 11 7.8014 11H10.8889C10.9751 11 11.0578 10.9638 11.1187 10.8993C11.1797 10.8349 11.2139 10.7474 11.2139 10.6563V5.16703L10.5639 4.62456V10.3125H8.1264V8.59377C8.1264 7.64753 7.39603 6.87503 6.5014 6.87503C5.60677 6.87503 4.8764 7.64753 4.8764 8.59377V10.3125H2.4389V4.62456Z" fill="#337FC0"/>
</svg>
