<svg width="121" height="138" viewBox="0 0 121 138" fill="none" xmlns="http://www.w3.org/2000/svg">
<path d="M119.531 39.2989L110.455 32.1865L112.768 20.9109C112.787 20.7965 112.787 20.7012 112.787 20.5868C112.787 20.5677 112.806 20.5359 112.806 20.5232V20.4914C112.806 20.3135 112.756 20.1482 112.711 19.9893C112.679 19.8749 112.616 19.7796 112.546 19.6779C112.527 19.6461 112.514 19.627 112.482 19.5953C112.158 19.1376 111.669 18.8262 111.084 18.8262C110.792 18.8262 110.531 18.9215 110.289 19.055L97.2215 23.8537C87.3443 8.9044 70.9465 -0.00012207 53.0594 -0.00012207C45.5275 -0.00012207 38.2371 1.56346 31.3859 4.65252C12.3174 13.2586 0 32.4408 0 53.5301C0 76.8438 14.5935 97.1391 36.4333 104.398V109.394H31.8316C30.8909 109.394 30.1408 110.156 30.1408 111.084V123.351C30.1408 124.292 30.9035 125.042 31.8316 125.042H36.7766C38.3084 132.46 44.8487 137.881 52.5459 137.881C60.2557 137.881 66.7833 132.466 68.3151 125.042H73.2473C74.188 125.042 74.938 124.28 74.938 123.351L74.9317 111.084C74.9317 110.144 74.169 109.394 73.2409 109.394H68.6392V104.709C90.8025 97.8575 106.159 76.9974 106.159 53.5373C106.159 51.3573 105.994 49.2407 105.753 47.1941L119.049 42.3126C119.717 42.0711 120.155 41.4355 120.155 40.7173L120.149 40.6347C120.181 40.1135 119.939 39.6241 119.533 39.2999L119.531 39.2989ZM52.5579 134.5C46.7168 134.5 41.7209 130.546 40.2718 125.048H64.8562C63.3752 130.546 58.3991 134.5 52.5579 134.5ZM71.5629 121.66H33.5155V112.775H38.0855H38.1173H66.9486H66.9804H71.5377L71.544 121.66H71.5629ZM102.523 48.3627C102.7 50.0216 102.783 51.7631 102.783 53.5239C102.783 75.9296 87.8592 95.779 66.4963 101.804C65.7653 102.014 65.2569 102.681 65.2569 103.431V109.387L39.8328 109.381V103.152C39.8328 102.402 39.3434 101.754 38.6315 101.525C17.5617 95.0479 3.3877 75.7509 3.3877 53.5046C3.3877 33.7496 14.9238 15.7876 32.7901 7.71533C39.2033 4.83611 46.0169 3.36778 53.0789 3.36778C69.5472 3.36778 84.6942 11.4208 93.9982 25.0234L92.5808 25.5446C92.174 25.6907 91.8308 26.0022 91.6401 26.409L87.6359 34.8053L83.6824 36.2545C83.3901 35.7015 83.1104 35.1486 82.7862 34.6083L85.9261 28.0807C86.2376 27.4324 86.1041 26.6633 85.602 26.1422L79.1442 19.6653C78.6421 19.1632 77.8603 19.0297 77.2056 19.3412L70.7161 22.5001C67.6079 20.5615 64.1885 19.1505 60.5655 18.2542L58.1756 11.4216C57.934 10.7351 57.2984 10.2838 56.5802 10.2838H47.4656C46.7474 10.2838 46.0991 10.7415 45.8703 11.4216L43.4803 18.2542C39.8829 19.1314 36.4696 20.5679 33.3297 22.5001L26.8402 19.3412C26.1919 19.0297 25.4101 19.1632 24.9016 19.6653L18.4758 26.1422C17.9736 26.6443 17.8402 27.4261 18.1516 28.0807L21.2915 34.6083C19.3402 37.8118 17.9228 41.2313 17.0583 44.8287L10.2383 47.2187C9.55187 47.4602 9.1006 48.0958 9.1006 48.814V57.9921C9.1006 58.7103 9.55823 59.3395 10.2256 59.5874L17.0456 61.9964C17.91 65.5748 19.321 68.9944 21.2596 72.2168L18.1324 78.7444C17.8209 79.3927 17.9544 80.1618 18.4565 80.6639L24.8824 87.1407C25.3846 87.6619 26.1854 87.789 26.821 87.4649L33.3105 84.306C36.4504 86.2445 39.8508 87.6556 43.4484 88.5518L45.8384 95.3845C46.0799 96.071 46.7155 96.5222 47.4337 96.5222H56.5483C57.2665 96.5222 57.9148 96.0646 58.1437 95.3845L60.5336 88.5518C64.1629 87.6556 67.5633 86.2382 70.6842 84.306L77.1737 87.4649C77.822 87.7763 78.6038 87.6429 79.1123 87.1407L85.5701 80.6639C86.0722 80.1618 86.2057 79.38 85.8942 78.7444L82.767 72.2168C84.7056 69.0133 86.1167 65.5811 86.981 61.9964L93.7819 59.5874C94.4684 59.3459 94.907 58.7103 94.907 57.9921V48.814C94.907 48.0958 94.4493 47.4475 93.7692 47.2187L89.4217 45.6868L91.3285 44.9877L99.8202 48.8141C100.227 48.992 100.685 49.0111 101.104 48.8649L102.523 48.3627ZM76.005 39.083C70.9456 30.8646 62.009 25.8244 52.3285 25.8244C36.9851 25.8244 24.5012 38.3204 24.5012 53.6957C24.5012 59.8165 26.4525 65.6195 30.1454 70.5008C35.4527 77.5115 43.5376 81.5476 52.3217 81.5476C61.1056 81.5476 69.1772 77.5305 74.485 70.5008C78.1777 65.6194 80.1292 59.81 80.1292 53.6957C80.1292 52.1829 80.0148 50.7021 79.7859 49.2528L84.553 47.4986C84.6801 47.5939 84.8326 47.6765 84.9915 47.7274L91.5318 50.022V56.7912L84.9915 59.1048C84.4386 59.3019 84.0127 59.7722 83.8983 60.357C83.0847 64.1641 81.5847 67.8062 79.4427 71.194C79.1312 71.6834 79.0868 72.3 79.3474 72.8402L82.3602 79.139L77.6058 83.9251L71.3387 80.8806C70.8048 80.6199 70.1692 80.6517 69.6608 80.995C66.4256 83.1242 62.7963 84.637 58.9064 85.4886C58.3344 85.6158 57.864 86.0225 57.667 86.5819L55.3724 93.1731H48.6668L46.3722 86.6009C46.1752 86.0479 45.7048 85.6221 45.1328 85.5077C41.2747 84.6623 37.6453 83.1496 34.3784 81.0013C33.889 80.6772 33.2534 80.6454 32.7195 80.8869L26.408 83.9124L21.6727 79.1454L24.6855 72.8466C24.9461 72.3254 24.8953 71.6898 24.5902 71.2004C22.4292 67.8317 20.9291 64.1897 20.1346 60.3633C20.0075 59.7913 19.6007 59.3082 19.0414 59.1112L12.4692 56.7849V50.0157L19.0285 47.7211C19.5815 47.524 20.0073 47.0537 20.1217 46.4689C20.9353 42.6425 22.4354 39.0007 24.5964 35.6511C24.9205 35.1616 24.9523 34.526 24.6917 33.9922L21.6662 27.6934L26.4015 22.9263L32.6686 25.9709C33.2025 26.2315 33.8381 26.1806 34.3275 25.8565C37.6135 23.7082 41.2238 22.1954 45.0819 21.3501C45.6539 21.223 46.1243 20.8162 46.3213 20.2569L48.6159 13.6847H55.3215L57.6161 20.2759C57.8131 20.8289 58.2835 21.2547 58.8555 21.3691C62.7453 22.2145 66.3747 23.7272 69.6099 25.8628C70.112 26.187 70.7477 26.2378 71.2878 25.9772L77.5549 22.9327L82.3093 27.6997L79.2838 33.9985C79.0232 34.5324 79.074 35.1553 79.3791 35.6574C79.7668 36.2422 80.11 36.846 80.4533 37.4499L76.005 39.083ZM67.7994 42.0958C64.1573 37.1954 58.475 34.2842 52.3225 34.2842C41.6507 34.2842 32.9628 42.992 32.9628 53.696C32.9628 57.9419 34.3103 61.997 36.8653 65.3974C40.5772 70.2788 46.2214 73.0946 52.3232 73.0946C58.4249 73.0946 64.0563 70.2979 67.7302 65.3974C70.317 61.997 71.6837 57.9482 71.6837 53.696C71.6837 53.2384 71.6201 52.7363 71.5883 52.2468L76.5015 50.4417C76.6477 51.4968 76.7303 52.59 76.7303 53.6769C76.7303 59.0478 75.0205 64.158 71.7662 68.4356C67.1136 74.601 60.0202 78.1348 52.304 78.1348C44.5751 78.1348 37.4817 74.6008 32.8288 68.4356C29.5935 64.158 27.8647 59.0478 27.8647 53.6769C27.8647 40.1704 38.8288 29.1869 52.3043 29.1869C60.5671 29.1869 68.2197 33.3818 72.7265 40.2527L67.7994 42.0958ZM49.3671 54.6554C49.3671 54.6744 49.3671 54.6744 49.3862 54.6744V54.6935C49.4053 54.7444 49.437 54.7888 49.4688 54.8397C49.5642 55.0685 49.6786 55.2783 49.793 55.488C49.8121 55.5198 49.8248 55.5516 49.8438 55.5706V55.5897C49.8756 55.6406 49.9265 55.685 49.971 55.755C50.0854 55.9202 50.1998 56.0664 50.346 56.1935C50.3968 56.2571 50.4604 56.3206 50.5112 56.3715C50.5621 56.4224 50.6066 56.4541 50.6574 56.4986C50.7718 56.594 50.8989 56.6956 51.0324 56.791C51.1278 56.8546 51.2104 56.9181 51.3121 56.988C51.3629 57.0198 51.3947 57.0516 51.4392 57.0834C51.4901 57.1151 51.5345 57.1342 51.5854 57.1469C51.6807 57.1978 51.7633 57.2423 51.865 57.2931C51.9477 57.344 52.0303 57.3885 52.1066 57.4202C52.1892 57.452 52.2718 57.4838 52.3354 57.5029C52.4498 57.5537 52.5451 57.5855 52.6595 57.6173C52.7549 57.6491 52.8693 57.6999 52.971 57.7126C53.0346 57.7317 53.0854 57.7317 53.149 57.7444C53.2125 57.7635 53.2952 57.7762 53.3587 57.7952C53.4731 57.8143 53.5685 57.8461 53.6829 57.8588C53.7655 57.8779 53.8291 57.8779 53.9117 57.8906C54.0261 57.9096 54.1405 57.9096 54.2549 57.9096C54.4011 57.9287 54.5473 57.9414 54.6935 57.9414H54.7253C54.7888 57.9414 54.8524 57.9414 54.9223 57.9224C55.1638 57.9224 55.4244 57.8906 55.685 57.8397C55.7994 57.8207 55.8948 57.8207 56.0092 57.808C56.041 57.808 56.0727 57.7889 56.1045 57.7889C56.4922 57.7063 56.8863 57.6109 57.274 57.4647H57.2931L57.8651 57.255L59.327 56.7211C59.0855 57.255 58.7741 57.7762 58.399 58.2656C56.9689 60.1724 54.7062 61.3101 52.3163 61.3101C49.9264 61.3101 47.6446 60.1724 46.2145 58.2529C45.2039 56.9372 44.67 55.3418 44.67 53.6512C44.67 49.418 48.1023 45.973 52.3163 45.973C53.3904 45.973 54.4329 46.1828 55.3735 46.6086L53.5493 47.276C50.8798 48.2676 49.0747 50.562 49.0747 52.9901C49.0874 53.6638 49.1892 54.2041 49.3671 54.6554ZM61.3419 44.4731L59.3906 45.1913C57.4203 43.5324 54.9477 42.6362 52.3292 42.6362C46.2464 42.6362 41.2824 47.6003 41.2824 53.702C41.2824 56.1428 42.0642 58.4373 43.5133 60.3567C45.579 63.1089 48.8652 64.7487 52.3165 64.7487C55.7488 64.7487 59.0348 63.1025 61.1004 60.3567C62.2382 58.8567 62.969 57.1342 63.2297 55.3292L68.2891 53.4733V53.7021C68.2891 57.1978 67.1641 60.5348 65.0158 63.3505C61.9713 67.3866 57.3377 69.6938 52.3101 69.6938C47.2634 69.6938 42.6109 67.3801 39.5537 63.3505C37.4371 60.5348 36.3311 57.198 36.3311 53.7021C36.3311 44.8672 43.5072 37.6722 52.3101 37.6722C57.0454 37.6722 61.4691 39.7568 64.4819 43.3164L61.3419 44.4731ZM100.623 45.4646L92.1119 41.6382C91.7051 41.4602 91.2475 41.4412 90.828 41.5874L84.7899 43.7993L77.2707 46.5641H77.2516L56.5251 54.1786L56.1374 54.3248H56.1183C54.4276 54.9604 52.8831 54.3757 52.5209 53.4286C52.5018 53.3651 52.47 53.2507 52.47 53.0409C52.47 52.9138 52.5209 52.7613 52.5527 52.6341C52.5717 52.5388 52.5844 52.4562 52.6162 52.3545C52.6671 52.2274 52.7624 52.113 52.845 51.9795C52.9086 51.8651 52.9594 51.7697 53.0421 51.6553C53.1247 51.56 53.2518 51.4773 53.3535 51.3756C53.4806 51.2485 53.595 51.1151 53.7603 51.0006C53.8429 50.9498 53.9383 50.918 54.0209 50.8735C54.2497 50.7464 54.4595 50.5938 54.7391 50.4985L67.7753 45.7124C67.7944 45.7124 67.7944 45.6934 67.7944 45.6934L75.7839 42.7632C75.803 42.7632 75.8348 42.7632 75.8475 42.7442L83.462 39.9474L89.4367 37.7482C89.8626 37.602 90.1867 37.2906 90.3774 36.8838L94.3816 28.4874L108.816 23.1802L106.909 32.5045C106.782 33.1401 107.024 33.7884 107.526 34.1824L115.109 40.1062L100.623 45.4646Z" fill="black"/>
</svg>
