<svg width="81" height="69" viewBox="0 0 81 69" fill="none" xmlns="http://www.w3.org/2000/svg">
<path d="M20.2865 22.0848C22.6482 20.4072 24.2004 17.6102 24.2004 14.4434C24.2004 9.31834 20.1432 5.14893 15.1571 5.14893C10.1709 5.14893 6.1137 9.31878 6.1137 14.4434C6.1137 17.6068 7.66263 20.397 10.0177 22.0779C4.648 24.2073 0.820801 29.5548 0.820801 35.8132V39.6749C0.820801 40.4212 1.4104 41.0307 2.13991 41.0307H19.9708C20.697 41.0307 21.2899 40.4247 21.2899 39.6749C21.2899 38.9252 20.7003 38.3192 19.9708 38.3192H3.45911V35.8097C3.45911 29.1817 8.70545 23.7895 15.1545 23.7895C17.5962 23.7895 19.9212 24.5393 21.8665 25.9567C22.4628 26.3915 23.2856 26.2408 23.7052 25.6349C24.1283 25.0255 23.985 24.1798 23.3921 23.7451C22.4294 23.0433 21.3768 22.5127 20.2843 22.0847L20.2865 22.0848ZM8.75141 14.4434C8.75141 10.8145 11.6261 7.85997 15.157 7.85997C18.6878 7.85997 21.5625 10.8145 21.5625 14.4434C21.5625 18.0723 18.6878 21.0269 15.157 21.0269C11.6261 21.0269 8.75141 18.0723 8.75141 14.4434Z" fill="#F7A209"/>
<path d="M59.1633 25.9572C61.1119 24.5398 63.4237 23.7901 65.8553 23.7901C68.9899 23.7901 71.9311 25.0362 74.1296 27.2958C76.3347 29.5861 77.5506 32.6091 77.5506 35.8101V38.3195H61.0389C60.3127 38.3195 59.7198 38.9255 59.7198 39.6753C59.7198 40.425 60.3093 41.031 61.0389 41.031H78.8698C79.5959 41.031 80.1889 40.425 80.1889 39.6753V35.8136C80.1889 31.8936 78.7032 28.1894 75.9984 25.3885C74.5594 23.9061 72.8572 22.7935 71.0051 22.0642C73.3502 20.3832 74.8958 17.5999 74.8958 14.4434C74.8958 9.31835 70.8386 5.14893 65.8524 5.14893C60.8658 5.14893 56.8091 9.31878 56.8091 14.4434C56.8091 17.6136 58.368 20.4106 60.7331 22.0916C59.6505 22.5196 58.6045 23.0468 57.6452 23.7486C57.0523 24.18 56.909 25.0256 57.3321 25.6384C57.7451 26.2443 58.5679 26.395 59.1708 25.9602L59.1633 25.9572ZM59.4431 14.4436C59.4431 10.8147 62.3178 7.86015 65.8486 7.86015C69.3795 7.86015 72.2542 10.8147 72.2542 14.4436C72.2542 18.0725 69.3795 21.027 65.8486 21.027C62.3178 21.027 59.4431 18.0725 59.4431 14.4436Z" fill="#F7A209"/>
<path d="M46.0022 19.3778C48.8436 17.5051 50.7423 14.2459 50.7423 10.5241C50.7423 4.72122 46.1488 0 40.5025 0C34.8563 0 30.2628 4.72104 30.2628 10.5241C30.2628 14.2523 32.1682 17.515 35.0195 19.3839C28.6971 21.7084 24.1504 27.912 24.1504 35.2008V39.6753C24.1504 40.4217 24.74 41.0311 25.4695 41.0311H32.7678C33.494 41.0311 34.0869 40.4251 34.0869 39.6753C34.0869 38.9256 33.4973 38.3196 32.7678 38.3196H26.7886V35.2008C26.7886 27.4259 32.9444 21.0991 40.5093 21.0991C44.1834 21.0991 47.6311 22.5644 50.2127 25.2176C52.8009 27.9016 54.2265 31.445 54.2265 35.1974V38.3163H48.244C47.5178 38.3163 46.9249 38.9222 46.9249 39.672C46.9249 40.4218 47.5145 41.0278 48.244 41.0278H55.5423C56.2685 41.0278 56.8614 40.4218 56.8614 39.672V35.1974C56.8614 30.7263 55.1659 26.5016 52.078 23.3043C50.3359 21.5138 48.2606 20.1957 46.0022 19.3741V19.3778ZM32.8981 10.5241C32.8981 6.21386 36.3091 2.70816 40.5029 2.70816C44.6967 2.70816 48.1077 6.21386 48.1077 10.5241C48.1077 14.8344 44.6967 18.3435 40.5029 18.3435C36.3091 18.3435 32.8981 14.8344 32.8981 10.5241Z" fill="#F7A209"/>
<path d="M54.8852 46.6388L46.3049 45.3412L42.4742 37.3747C41.7413 35.817 39.2631 35.8273 38.5369 37.3644L34.6995 45.3413L26.1388 46.6354C25.3161 46.745 24.6365 47.3201 24.3701 48.1349C24.0969 48.96 24.3001 49.8569 24.913 50.4834L31.1187 56.6869L29.653 65.4616C29.5031 66.3107 29.8329 67.1529 30.5058 67.663C31.1853 68.1799 32.0746 68.2552 32.8375 67.8478L40.5122 63.6951L48.1803 67.8513C48.5034 68.0224 48.8531 68.108 49.1962 68.108C49.6559 68.108 50.1122 67.9574 50.5019 67.663C51.1748 67.1494 51.5013 66.3072 51.358 65.4685L49.889 56.6867L56.0947 50.4833L56.108 50.4696C56.7109 49.8499 56.9174 48.9529 56.6443 48.1244C56.3745 47.3131 55.6949 46.7414 54.8888 46.6352L54.8852 46.6388ZM47.5469 55.2421C47.2338 55.5536 47.0905 56.0021 47.1638 56.4438L48.5962 65.0163L41.1214 60.9628C40.735 60.7505 40.2753 60.754 39.8922 60.9594L32.4007 65.0163L33.833 56.4438C33.9063 56.0021 33.7631 55.5537 33.45 55.2421L27.3908 49.1858L35.7617 47.9191C36.1914 47.8541 36.5611 47.5768 36.7544 47.1762L40.4984 39.3911L44.2425 47.1762C44.4357 47.5768 44.8054 47.8506 45.2352 47.9191L53.606 49.1858L47.5469 55.2421Z" fill="#F7A209"/>
<path d="M22.0025 52.2025L16.1664 51.3192L13.5616 45.8997C13.2385 45.215 12.5722 44.7905 11.8261 44.7905H11.8227C11.0766 44.794 10.4137 45.2219 10.094 45.8963L7.48576 51.3192L1.67311 52.199C0.946946 52.2949 0.344021 52.805 0.104229 53.5239C-0.135605 54.2497 0.044271 55.0406 0.583898 55.5952L4.80098 59.813L3.80497 65.7734C3.67506 66.5197 3.96486 67.266 4.55778 67.718C5.15736 68.1733 5.93684 68.2315 6.61307 67.8789L11.8295 65.0544L17.0426 67.8823C17.3257 68.033 17.6322 68.1083 17.9386 68.1083C18.345 68.1083 18.7481 67.9748 19.0912 67.7146C19.6841 67.2627 19.9705 66.5163 19.844 65.7837L18.8447 59.8165L23.0651 55.5987C23.0684 55.5953 23.0751 55.5884 23.0784 55.5816C23.6114 55.0372 23.7879 54.2464 23.5481 53.5171C23.3116 52.8016 22.7086 52.2949 22.0025 52.2025ZM16.5096 58.3648C16.1998 58.6797 16.0532 59.1248 16.1265 59.5664L16.9992 64.7907L12.4423 62.319C12.0593 62.1067 11.5962 62.1101 11.2132 62.3155L6.64298 64.7907L7.51568 59.563C7.58896 59.1214 7.44572 58.6729 7.13261 58.3614L3.43852 54.6639L8.54501 53.8902C8.97471 53.8251 9.34446 53.5478 9.53769 53.1473L11.8195 48.4022L14.1046 53.1473C14.2978 53.5478 14.6675 53.8217 15.0972 53.8902L20.2037 54.6639L16.5063 58.3579L16.5096 58.3648Z" fill="#F7A209"/>
<path d="M80.8976 53.5137C80.6611 52.7982 80.0582 52.2949 79.352 52.2025L73.5194 51.3192L70.9145 45.8997C70.5914 45.215 69.9252 44.7905 69.179 44.7905H69.1757C68.4295 44.794 67.7667 45.2219 67.4469 45.8963L64.8354 51.3192L59.0227 52.199C58.2966 52.2949 57.6936 52.805 57.4538 53.5239C57.214 54.2497 57.3939 55.0406 57.9335 55.5952L62.1506 59.813L61.1546 65.7734C61.0247 66.5197 61.3145 67.266 61.9074 67.7145C62.507 68.1698 63.2931 68.2314 63.9627 67.8788L69.1791 65.0544L74.3922 67.8822C74.6753 68.0329 74.9818 68.1082 75.2882 68.1082C75.6946 68.1082 76.0977 67.9747 76.4408 67.7145C77.0337 67.2626 77.3202 66.5162 77.1936 65.7836L76.1943 59.8164L80.4147 55.5986L80.4313 55.5815C80.9576 55.0337 81.1375 54.2429 80.891 53.5171L80.8976 53.5137ZM73.8624 58.3649C73.5527 58.6798 73.4061 59.1249 73.4794 59.5665L74.3521 64.7908L69.7952 62.319C69.4121 62.1068 68.9491 62.1102 68.566 62.3156L63.9958 64.7908L64.8685 59.5631C64.9418 59.1215 64.7986 58.673 64.4855 58.3614L60.7914 54.664L65.8979 53.8903C66.3276 53.8252 66.6973 53.5479 66.8905 53.1474L69.1756 48.3989L71.4607 53.1474C71.6539 53.5479 72.0237 53.8218 72.4534 53.8903L77.5599 54.664L73.8625 58.3579L73.8624 58.3649Z" fill="#F7A209"/>
</svg>
