<?xml version="1.0" encoding="UTF-8"?>
<svg xmlns="http://www.w3.org/2000/svg" width="78" height="83" viewBox="0 0 78 83" fill="none">
  <path d="M64.6373 5.47852H64.0253V1.85713C64.0253 0.831992 63.1933 0 62.1682 0C61.1431 0 60.3111 0.831992 60.3111 1.85713V5.47852H54.5651V1.85713C54.5651 0.831992 53.7331 0 52.708 0C51.6829 0 50.8509 0.831992 50.8509 1.85713V5.47852H45.1049V1.85713C45.1049 0.831992 44.2729 0 43.2478 0C42.2227 0 41.3907 0.831992 41.3907 1.85713V5.47852H35.6447V1.85713C35.6447 0.831992 34.8127 0 33.7876 0C32.7625 0 31.9305 0.831992 31.9305 1.85713V5.47852H26.1845V1.85713C26.1845 0.831992 25.3525 0 24.3274 0C23.3023 0 22.4703 0.831992 22.4703 1.85713V5.47852H16.7243V1.85713C16.7243 0.831992 15.8924 0 14.8672 0C13.8421 0 13.0101 0.831992 13.0101 1.85713V5.47852H12.3982C5.56209 5.47852 0 11.0406 0 17.8767V73.3778C0 74.403 0.831992 75.2349 1.85713 75.2349H18.7365C19.7617 75.2349 20.5937 74.403 20.5937 73.3778C20.5937 72.3527 19.7617 71.5207 18.7365 71.5207H3.71425V23.0506H73.3212V71.5207H58.2989C57.2738 71.5207 56.4418 72.3527 56.4418 73.3778C56.4418 74.403 57.2738 75.2349 58.2989 75.2349H75.1792C76.2044 75.2349 77.0364 74.403 77.0364 73.3778V17.8767C77.0354 11.0406 71.4733 5.47852 64.6373 5.47852ZM73.3212 19.3364H3.71425V17.8767C3.71425 13.0881 7.60957 9.19277 12.3982 9.19277H13.0101V12.8142C13.0101 13.8393 13.8421 14.6713 14.8672 14.6713C15.8924 14.6713 16.7243 13.8393 16.7243 12.8142V9.19277H22.4703V12.8142C22.4703 13.8393 23.3023 14.6713 24.3274 14.6713C25.3525 14.6713 26.1845 13.8393 26.1845 12.8142V9.19277H31.9305V12.8142C31.9305 13.8393 32.7625 14.6713 33.7876 14.6713C34.8127 14.6713 35.6447 13.8393 35.6447 12.8142V9.19277H41.3907V12.8142C41.3907 13.8393 42.2227 14.6713 43.2478 14.6713C44.2729 14.6713 45.1049 13.8393 45.1049 12.8142V9.19277H50.8509V12.8142C50.8509 13.8393 51.6829 14.6713 52.708 14.6713C53.7331 14.6713 54.5651 13.8393 54.5651 12.8142V9.19277H60.3111V12.8142C60.3111 13.8393 61.1431 14.6713 62.1682 14.6713C63.1933 14.6713 64.0253 13.8393 64.0253 12.8142V9.19277H64.6373C69.4259 9.19277 73.3221 13.0881 73.3221 17.8767L73.3212 19.3364Z" fill="black"></path>
  <path d="M12.0739 32.5497H18.7373C19.7624 32.5497 20.5944 31.7177 20.5944 30.6926C20.5944 29.6674 19.7624 28.8354 18.7373 28.8354H12.0739C11.0488 28.8354 10.2168 29.6674 10.2168 30.6926C10.2168 31.7177 11.0488 32.5497 12.0739 32.5497Z" fill="black"></path>
  <path d="M27.4821 32.5497H34.1455C35.1706 32.5497 36.0026 31.7177 36.0026 30.6926C36.0026 29.6674 35.1706 28.8354 34.1455 28.8354H27.4821C26.457 28.8354 25.625 29.6674 25.625 30.6926C25.625 31.7177 26.457 32.5497 27.4821 32.5497Z" fill="black"></path>
  <path d="M42.8903 32.5497H49.5537C50.5788 32.5497 51.4108 31.7177 51.4108 30.6926C51.4108 29.6674 50.5788 28.8354 49.5537 28.8354H42.8903C41.8652 28.8354 41.0332 29.6674 41.0332 30.6926C41.0332 31.7177 41.8643 32.5497 42.8903 32.5497Z" fill="black"></path>
  <path d="M58.2985 32.5497H64.9619C65.987 32.5497 66.819 31.7177 66.819 30.6926C66.819 29.6674 65.987 28.8354 64.9619 28.8354H58.2985C57.2734 28.8354 56.4414 29.6674 56.4414 30.6926C56.4414 31.7177 57.2725 32.5497 58.2985 32.5497Z" fill="black"></path>
  <path d="M12.0739 42.6601H18.7373C19.7624 42.6601 20.5944 41.8281 20.5944 40.8029C20.5944 39.7778 19.7624 38.9458 18.7373 38.9458H12.0739C11.0488 38.9458 10.2168 39.7778 10.2168 40.8029C10.2168 41.8281 11.0488 42.6601 12.0739 42.6601Z" fill="black"></path>
  <path d="M27.4821 42.6601H34.1455C35.1706 42.6601 36.0026 41.8281 36.0026 40.8029C36.0026 39.7778 35.1706 38.9458 34.1455 38.9458H27.4821C26.457 38.9458 25.625 39.7778 25.625 40.8029C25.625 41.8281 26.457 42.6601 27.4821 42.6601Z" fill="black"></path>
  <path d="M42.8903 42.6601H49.5537C50.5788 42.6601 51.4108 41.8281 51.4108 40.8029C51.4108 39.7778 50.5788 38.9458 49.5537 38.9458H42.8903C41.8652 38.9458 41.0332 39.7778 41.0332 40.8029C41.0332 41.8281 41.8643 42.6601 42.8903 42.6601Z" fill="black"></path>
  <path d="M58.2985 42.6601H64.9619C65.987 42.6601 66.819 41.8281 66.819 40.8029C66.819 39.7778 65.987 38.9458 64.9619 38.9458H58.2985C57.2734 38.9458 56.4414 39.7778 56.4414 40.8029C56.4414 41.8281 57.2725 42.6601 58.2985 42.6601Z" fill="black"></path>
  <path d="M12.0739 52.7685H18.7373C19.7624 52.7685 20.5944 51.9365 20.5944 50.9113C20.5944 49.8862 19.7624 49.0542 18.7373 49.0542H12.0739C11.0488 49.0542 10.2168 49.8862 10.2168 50.9113C10.2168 51.9365 11.0488 52.7685 12.0739 52.7685Z" fill="black"></path>
  <path d="M58.2985 52.7685H64.9619C65.987 52.7685 66.819 51.9365 66.819 50.9113C66.819 49.8862 65.987 49.0542 64.9619 49.0542H58.2985C57.2734 49.0542 56.4414 49.8862 56.4414 50.9113C56.4414 51.9365 57.2725 52.7685 58.2985 52.7685Z" fill="black"></path>
  <path d="M75.179 78.7944H53.7282C52.7031 78.7944 51.8711 79.6264 51.8711 80.6516C51.8711 81.6767 52.7031 82.5087 53.7282 82.5087H75.1799C76.205 82.5087 77.037 81.6767 77.037 80.6516C77.037 79.6264 76.205 78.7944 75.179 78.7944Z" fill="black"></path>
  <path d="M23.3079 78.7944H1.85713C0.831992 78.7944 0 79.6264 0 80.6516C0 81.6767 0.831992 82.5087 1.85713 82.5087H23.3079C24.333 82.5087 25.165 81.6767 25.165 80.6516C25.165 79.6264 24.3339 78.7944 23.3079 78.7944Z" fill="black"></path>
  <path d="M38.5189 47.9502C28.9919 47.9502 21.2402 55.7018 21.2402 65.2289C21.2402 74.7494 28.9817 82.4964 38.5004 82.5057C38.5069 82.5057 38.5124 82.5076 38.518 82.5076C38.5236 82.5076 38.5301 82.5057 38.5356 82.5057C48.0553 82.4955 55.7967 74.7494 55.7967 65.2289C55.7976 55.7018 48.0469 47.9502 38.5189 47.9502ZM40.3761 78.6503V78.6336C40.3761 77.6085 39.5441 76.7765 38.5189 76.7765C37.4938 76.7765 36.6618 77.6085 36.6618 78.6336V78.6503C30.6689 77.8239 25.923 73.079 25.0966 67.086H25.1133C26.1384 67.086 26.9704 66.254 26.9704 65.2289C26.9704 64.2038 26.1384 63.3718 25.1133 63.3718H25.0966C25.923 57.3788 30.6689 52.6329 36.6618 51.8065V51.8232C36.6618 52.8484 37.4938 53.6804 38.5189 53.6804C39.5441 53.6804 40.3761 52.8484 40.3761 51.8232V51.8065C46.369 52.6329 51.1149 57.3788 51.9413 63.3718H51.9246C50.8995 63.3718 50.0675 64.2038 50.0675 65.2289C50.0675 66.254 50.8995 67.086 51.9246 67.086H51.9413C51.1149 73.079 46.369 77.8248 40.3761 78.6503Z" fill="black"></path>
  <path d="M43.1124 59.0807L38.5178 62.8321L33.9242 59.0826C33.1303 58.4326 31.9603 58.5514 31.3112 59.3463C30.6622 60.1402 30.781 61.3102 31.5759 61.9583L37.3441 66.6671C37.3506 66.6726 37.359 66.6764 37.3655 66.6819C37.3952 66.7051 37.4268 66.7228 37.4574 66.7441C37.5326 66.7971 37.6088 66.8444 37.6886 66.8844C37.7258 66.9029 37.7629 66.9187 37.801 66.9345C37.8836 66.9689 37.9672 66.9976 38.0535 67.0199C38.0879 67.0292 38.1204 67.0394 38.1548 67.0459C38.2745 67.0701 38.3962 67.0859 38.5178 67.0859H38.5197C38.6413 67.0859 38.762 67.0701 38.8828 67.0459C38.9171 67.0394 38.9505 67.0283 38.9849 67.0199C39.0712 66.9976 39.1548 66.9698 39.2375 66.9345C39.2746 66.9187 39.3108 66.9029 39.348 66.8853C39.4315 66.8435 39.5114 66.7934 39.5894 66.7386C39.6154 66.72 39.6432 66.7042 39.6692 66.6847C39.6767 66.6782 39.686 66.6745 39.6934 66.668L45.4625 61.9593C46.2565 61.3102 46.3753 60.1402 45.7272 59.3463C45.0763 58.5496 43.9053 58.4335 43.1124 59.0807Z" fill="black"></path>
</svg>
