<?xml version="1.0" encoding="UTF-8"?>
<svg xmlns="http://www.w3.org/2000/svg" width="81" height="82" viewBox="0 0 81 82" fill="none">
  <path d="M15.8257 0.00346391C14.0911 0.00346391 12.6592 1.44631 12.6592 3.18188V5.46193H6.9112C3.10527 5.46193 0 8.5757 0 12.3837L0.00340097 66.9614C0.00340097 70.7694 3.10867 73.8764 6.9146 73.8764H37.4806V73.873C37.8207 73.873 38.1472 73.7369 38.3853 73.4953C38.6234 73.2537 38.7595 72.927 38.7561 72.5866C38.7561 71.8822 38.1847 71.3105 37.4807 71.3105H6.91467C4.48619 71.3105 2.56455 69.398 2.56455 66.9614V21.7454H68.7483V37.5931C68.7483 38.3009 69.3197 38.8727 70.0272 38.8727C70.3639 38.8727 70.6938 38.7399 70.932 38.5017C71.1735 38.2601 71.3095 37.9334 71.3095 37.5931V12.3803C71.3095 8.57224 68.2042 5.45847 64.3983 5.45847H58.6503V3.17841C58.6503 1.44285 57.2184 0 55.4838 0H51.2085C49.4739 0 48.042 1.44285 48.042 3.17841V5.45847L23.2644 5.46187V3.18182C23.2644 1.44625 21.8326 0.00340284 20.098 0.00340284L15.8257 0.00346391ZM15.8257 2.56595H20.0975C20.4547 2.56595 20.7132 2.82118 20.7132 3.1819V10.3113C20.7132 10.6686 20.4581 10.917 20.0975 10.917H15.8257C15.4686 10.917 15.2203 10.672 15.2203 10.3113V3.1819C15.2203 2.82458 15.4686 2.56595 15.8257 2.56595ZM51.2119 2.56595H55.4872C55.8443 2.56595 56.0926 2.82118 56.0926 3.1819V10.3113C56.0926 10.6686 55.8443 10.917 55.4872 10.917H51.2119C50.8548 10.917 50.5997 10.672 50.5997 10.3113V3.1819C50.5997 2.82458 50.8548 2.56595 51.2119 2.56595ZM6.91146 8.02442H12.6595V10.3113C12.6595 12.0468 14.0914 13.4829 15.826 13.4829H20.0978C21.8324 13.4829 23.2643 12.0468 23.2643 10.3113V8.02442H48.0488V10.3113C48.0488 12.0468 49.4807 13.4829 51.2153 13.4829H55.4906C57.2252 13.4829 58.6571 12.0468 58.6571 10.3113V8.02442H64.4051C66.8336 8.02442 68.7518 9.94712 68.7518 12.3837V19.1864L2.56456 19.183V12.3803C2.56456 9.94371 4.48281 8.02102 6.91468 8.02102L6.91146 8.02442ZM11.9316 28.6026C9.79905 28.6026 8.05425 30.3858 8.05425 32.5195V40.7379C8.05425 42.8715 9.79905 44.6548 11.9316 44.6548H20.0127C22.1453 44.6548 23.8799 42.8715 23.8799 40.7379V32.5195C23.8799 30.3858 22.1453 28.6026 20.0127 28.6026H11.9316ZM31.6112 28.6026C29.4787 28.6026 27.744 30.3858 27.744 32.5195V40.7379C27.744 42.8715 29.4787 44.6548 31.6112 44.6548H39.7026C41.8351 44.6548 43.5697 42.8715 43.5697 40.7379V32.5195C43.5697 30.3858 41.8351 28.6026 39.7026 28.6026H31.6112ZM51.2969 28.6026C49.1644 28.6026 47.4331 30.3858 47.4331 32.5195V37.1646L47.4365 37.1612C47.4365 37.869 48.0147 38.4408 48.7222 38.4373C49.4229 38.4339 49.9942 37.8656 49.9976 37.1612V32.5161C49.9976 31.7368 50.5656 31.1617 51.3003 31.1617H59.3917C60.1264 31.1617 60.6944 31.7334 60.6944 32.5161V35.2011C60.6944 35.5414 60.827 35.868 61.0685 36.1097C61.3066 36.3513 61.6331 36.4874 61.9732 36.4874C62.3134 36.4908 62.6433 36.3547 62.8848 36.1131C63.1263 35.8715 63.2589 35.5448 63.2589 35.2011V32.5161C63.2589 30.3824 61.5243 28.5992 59.3918 28.5992L51.2969 28.6026ZM11.9316 31.1651H20.0127C20.7474 31.1651 21.3188 31.7368 21.3188 32.5195V40.7379C21.3188 41.5171 20.7474 42.0923 20.0127 42.0923H11.9316C11.1969 42.0923 10.6153 41.5206 10.6153 40.7379V32.5195C10.6153 31.7402 11.1969 31.1651 11.9316 31.1651ZM31.6112 31.1651H39.7026C40.4373 31.1651 41.0087 31.7368 41.0087 32.5195V40.7379C41.0087 41.5171 40.4373 42.0923 39.7026 42.0923H31.6112C30.8765 42.0923 30.3051 41.5206 30.3051 40.7379V32.5195C30.3051 31.7402 30.8765 31.1651 31.6112 31.1651ZM58.899 37.7771C46.7091 37.7771 36.8014 47.6938 36.8014 59.8903C36.8014 72.0868 46.7091 82 58.899 82C71.0888 82 81 72.0868 81 59.8903C81 47.6938 71.0888 37.7771 58.899 37.7771ZM58.899 40.3396C69.7044 40.3396 78.4358 49.0784 78.4358 59.8898C78.4358 70.7011 69.7053 79.4373 58.899 79.4373C48.0927 79.4373 39.3622 70.702 39.3622 59.8898C39.3622 49.0776 48.0927 40.3396 58.899 40.3396ZM58.8071 47.1219C58.3242 47.1219 57.882 47.3908 57.6609 47.8196L54.1135 54.7618L46.4098 55.9801L46.4064 55.9767C45.9303 56.0516 45.5357 56.3885 45.386 56.8445C45.2364 57.3039 45.3554 57.8075 45.699 58.1478L51.2122 63.6641L49.9913 71.3652V71.3618C49.9164 71.8382 50.1137 72.3147 50.5014 72.5971C50.8892 72.8796 51.4062 72.9238 51.8347 72.706L58.7935 69.1737L65.7455 72.7094C66.1775 72.9306 66.691 72.8898 67.0822 72.6073C67.4699 72.3249 67.6706 71.8485 67.5958 71.372L66.3816 63.6743L71.9017 58.1614C72.2418 57.8211 72.3642 57.3209 72.2146 56.8615C72.0649 56.4054 71.6738 56.0685 71.1976 55.9937L63.4939 54.7686L59.9465 47.823V47.8196C59.7288 47.3942 59.2867 47.1219 58.8071 47.1219ZM11.932 48.4049C9.79951 48.4049 8.05471 50.1882 8.05471 52.3218V60.5402C8.05471 62.6739 9.79951 64.4537 11.932 64.4537H20.0132C22.1457 64.4537 23.8803 62.6739 23.8803 60.5402V52.3218C23.8803 50.1882 22.1457 48.4049 20.0132 48.4049H11.932ZM31.6116 48.4049C29.4791 48.4049 27.7445 50.1882 27.7445 52.3218V60.5402C27.7445 62.6739 29.4791 64.4537 31.6116 64.4537H34.285C34.6285 64.4537 34.955 64.321 35.1965 64.0794C35.438 63.8378 35.574 63.5077 35.5706 63.1674C35.5706 62.8271 35.4346 62.5038 35.1931 62.2621C34.9516 62.0239 34.6251 61.8912 34.285 61.8912H31.6116C30.877 61.8912 30.3056 61.3195 30.3056 60.5401V52.3218C30.3056 51.5425 30.877 50.9708 31.6116 50.9708H36.2135V50.9674C36.9209 50.9674 37.4924 50.3956 37.4924 49.6913C37.4924 49.351 37.3597 49.0243 37.1216 48.7826C36.8801 48.541 36.5536 48.4049 36.2135 48.4049L31.6116 48.4049ZM11.8606 50.9708H11.9321H20.0132C20.7479 50.9708 21.3193 51.5425 21.3193 52.3218V60.5402C21.3193 61.3195 20.7479 61.8912 20.0132 61.8912H11.9321C11.1974 61.8912 10.6158 61.3195 10.6158 60.5402V52.3218C10.6158 51.5664 11.16 51.0049 11.8606 50.9708ZM58.8002 51.2158L61.5041 56.5076C61.6912 56.8717 62.0381 57.1235 62.4428 57.1882L68.3133 58.124L64.1128 62.3267C63.8203 62.616 63.6877 63.0244 63.7489 63.4293L64.674 69.2928L59.3784 66.5975C59.0145 66.4104 58.5826 66.4104 58.2187 66.5941L52.9163 69.2825L53.8448 63.4224H53.8414C53.9094 63.0175 53.7733 62.6057 53.4842 62.3165L49.2838 58.1137L55.161 57.1881C55.5658 57.12 55.9127 56.8682 56.0997 56.5041L58.8002 51.2158Z" fill="white"></path>
</svg>
