<?xml version="1.0" encoding="UTF-8"?>
<svg xmlns="http://www.w3.org/2000/svg" width="94" height="82" viewBox="0 0 94 82" fill="none">
  <path fill-rule="evenodd" clip-rule="evenodd" d="M50.549 56.8328C50.0212 57.2034 49.8034 57.8773 50.017 58.4879C50.3814 59.5366 50.5993 60.5978 50.6705 61.6675C49.6819 61.2716 48.7436 60.7368 47.864 60.063C47.6085 59.8692 47.3027 59.7682 47.0011 59.7682C46.6953 59.7682 46.3937 59.865 46.1382 60.063C45.2586 60.7368 44.3203 61.2758 43.3317 61.6675C43.3987 60.602 43.6166 59.5365 43.9852 58.4879C44.1988 57.8815 43.981 57.2035 43.4532 56.8372C42.5442 56.2054 41.7441 55.4769 41.0656 54.6515C42.096 54.3862 43.1725 54.264 44.2742 54.2893H44.3077C44.936 54.2893 45.4931 53.8766 45.6732 53.2702C45.9915 52.2047 46.4355 51.2151 47.0052 50.3096C47.5749 51.215 48.0189 52.2047 48.3373 53.2702C48.5216 53.885 49.0954 54.3019 49.7363 54.2893C50.8421 54.264 51.9144 54.3862 52.9449 54.6515C52.258 55.4727 51.458 56.2054 50.549 56.8328ZM56.5431 53.4721C56.4174 53.0805 56.1284 52.7604 55.7514 52.6004C54.1638 51.9097 52.4758 51.5223 50.7165 51.4381C50.0966 49.783 49.2086 48.288 48.065 46.9867C47.7969 46.6792 47.4031 46.4982 46.9968 46.4982C46.5863 46.4982 46.1968 46.675 45.9287 46.9867C44.7852 48.2922 43.8972 49.7873 43.2772 51.4381C41.5221 51.5223 39.8299 51.9098 38.2423 52.6004C37.8653 52.7604 37.5805 53.0805 37.4548 53.4721C37.3291 53.8596 37.3752 54.2892 37.5847 54.6429C38.4685 56.1421 39.6036 57.4519 40.9776 58.5552C40.5126 60.2608 40.3577 61.9959 40.521 63.7268C40.5587 64.1395 40.7723 64.5101 41.1033 64.7544C41.4342 64.9944 41.853 65.0829 42.251 64.9944C43.939 64.6154 45.535 63.929 47.001 62.9562C48.4713 63.929 50.0631 64.6113 51.7511 64.9944C51.8558 65.0155 51.9564 65.0281 52.0611 65.0281C52.3585 65.0281 52.6517 64.9355 52.8988 64.7544C53.2297 64.5101 53.4434 64.1395 53.4811 63.7268C53.6444 61.9959 53.4894 60.2609 53.0245 58.5552C54.3983 57.4519 55.5378 56.1379 56.4174 54.6429C56.6227 54.2891 56.6687 53.8596 56.5431 53.4721ZM46.9969 70.1656C54.2518 70.1656 60.1543 64.2318 60.1543 56.9372C60.1543 49.6426 54.2524 43.7088 46.9969 43.7088C39.7415 43.7088 33.8395 49.6426 33.8395 56.9372C33.8395 64.2318 39.7415 70.1656 46.9969 70.1656ZM46.9969 40.8464C38.1712 40.8464 30.9914 48.0647 30.9914 56.9383C30.9914 65.8119 38.1709 73.0301 46.9969 73.0301C55.8229 73.0301 63.0024 65.8119 63.0024 56.9383C63.0024 48.0647 55.8229 40.8464 46.9969 40.8464ZM90.5515 22.2738L78.5715 25.4997C75.7274 26.2662 73.5408 27.9549 72.0705 30.5154L66.1811 40.7701C66.1769 40.7659 66.1769 40.7659 66.1727 40.7616L63.0856 37.6579C62.1976 36.7651 60.8489 36.5503 59.7346 37.123L57.9543 38.0327C57.8747 37.9906 57.7993 37.9485 57.7198 37.9021L64.4888 26.1141C65.9591 23.5536 66.3193 20.8035 65.5569 17.9441L63.0479 8.53161L64.4302 7.14181L67.1655 15.7835C67.819 17.8555 69.0295 19.5863 70.5794 20.8624C70.9312 21.2414 71.3417 21.5741 71.8025 21.8394C72.1459 22.0374 72.502 22.1932 72.8706 22.3069C74.9273 23.2629 77.3023 23.5619 79.6858 23.0312L90.0739 20.7192C90.0948 20.715 90.1158 20.7108 90.1367 20.7024C90.342 20.6476 90.5598 20.6771 90.7483 20.7866C90.9368 20.8961 91.0708 21.0688 91.1253 21.2793C91.2342 21.7047 90.9745 22.1601 90.5515 22.2738ZM80.7037 50.5106L75.3212 55.9222C75.0531 56.1917 74.9023 56.5539 74.9023 56.9329C74.9023 57.3119 75.0531 57.6783 75.3212 57.9478L80.7037 63.3594H67.794C67.8778 63.0772 67.9615 62.7993 68.0369 62.5129L69.9344 61.8938C71.1282 61.5064 71.9283 60.3946 71.9283 59.1354V54.7429C71.9283 53.4795 71.1282 52.372 69.9344 51.9803L68.0369 51.3612C67.9615 51.0749 67.8819 50.7969 67.794 50.5147L80.7037 50.5106ZM62.8978 68.5398C62.6674 68.085 62.6925 67.5501 62.9648 67.1206C64.1377 65.2633 64.9754 63.2335 65.4487 61.0899C65.5576 60.5971 65.9178 60.1971 66.3996 60.0412L69.0553 59.1737C69.072 59.1695 69.0762 59.161 69.0804 59.161C69.0804 59.161 69.0846 59.1526 69.0846 59.1358V54.7433C69.0846 54.7265 69.0804 54.7181 69.0804 54.7139L69.0553 54.7012L66.3996 53.8337C65.922 53.6779 65.5576 53.2778 65.4487 52.785C64.9754 50.6414 64.1376 48.6116 62.9648 46.7543C62.6967 46.3247 62.6674 45.7899 62.8978 45.3351L64.167 42.8335C64.1753 42.8209 64.1753 42.8125 64.1753 42.8083C64.1753 42.8083 64.1711 42.7999 64.1586 42.7872L61.0673 39.6792C61.0547 39.6666 61.0463 39.6624 61.0463 39.6624C61.0463 39.6666 61.038 39.6624 61.0212 39.6708L58.5331 40.9469C58.0849 41.1785 57.5487 41.149 57.1215 40.8795C55.2742 39.696 53.2552 38.858 51.1231 38.3822C50.633 38.2727 50.2351 37.9105 50.0759 37.4262L49.2131 34.7603C49.2089 34.7435 49.2047 34.7393 49.2005 34.7351C49.2005 34.7351 49.1921 34.7309 49.1754 34.7309H44.8065C44.7897 34.7309 44.7814 34.7351 44.7814 34.7351C44.7814 34.7393 44.773 34.7435 44.7688 34.7603L43.9059 37.4262C43.7509 37.9105 43.353 38.2727 42.8629 38.3822C40.7308 38.858 38.7118 39.7004 36.8645 40.8795C36.4415 41.1532 35.9011 41.1785 35.4529 40.9469L32.9648 39.6708C32.9481 39.6624 32.9397 39.6624 32.9397 39.6624C32.9397 39.6624 32.9313 39.6666 32.9187 39.6792L29.8275 42.7872C29.8149 42.7999 29.8107 42.8083 29.8107 42.8083C29.8107 42.8125 29.8107 42.8209 29.8191 42.8335L31.0883 45.3351C31.3187 45.7899 31.2935 46.3248 31.0213 46.7543C29.8484 48.6116 29.0107 50.6414 28.5373 52.785C28.4284 53.2778 28.0682 53.6779 27.5865 53.8337L24.9308 54.7012C24.914 54.7054 24.9098 54.7139 24.9056 54.7139C24.9056 54.7139 24.9014 54.7223 24.9014 54.7391V59.1316C24.9014 59.1442 24.9056 59.1568 24.9056 59.1568C24.9056 59.1568 24.914 59.161 24.9308 59.1695L27.5865 60.037C28.064 60.1928 28.4284 60.5929 28.5373 61.0856C29.0107 63.2293 29.8485 65.2591 31.0213 67.1164C31.2935 67.546 31.3187 68.0808 31.0883 68.5356L29.8191 71.0371C29.8107 71.0498 29.8107 71.0582 29.8107 71.0624C29.8107 71.0624 29.8149 71.0708 29.8275 71.0835L32.9187 74.1915C32.9313 74.2041 32.9397 74.2083 32.9397 74.2083C32.9397 74.2083 32.9481 74.2083 32.9648 74.1999L35.4529 72.9238C35.6582 72.8185 35.8802 72.768 36.098 72.768C36.3661 72.768 36.63 72.8438 36.8604 72.9912C38.7076 74.1704 40.7266 75.0127 42.8587 75.4885C43.3488 75.598 43.7467 75.9602 43.9017 76.4445L44.7646 79.1104C44.7688 79.1272 44.773 79.1314 44.7772 79.1356C44.7772 79.1356 44.7856 79.1398 44.8023 79.1398H49.1712C49.1879 79.1398 49.1963 79.1356 49.1963 79.1356C49.1963 79.1314 49.2005 79.1272 49.2089 79.1104L50.0718 76.4445C50.2267 75.9602 50.6247 75.598 51.1189 75.4885C53.251 75.0126 55.27 74.1703 57.1173 72.9912C57.5446 72.7175 58.0807 72.6922 58.5289 72.9238L61.017 74.1999C61.0296 74.2041 61.0422 74.2083 61.0422 74.2083C61.0422 74.2083 61.0505 74.2041 61.0631 74.1915L64.1544 71.0835C64.167 71.0708 64.1712 71.0624 64.1712 71.0624C64.1712 71.0582 64.1712 71.0498 64.1628 71.0371L62.8978 68.5398ZM13.2899 63.3598L18.6725 57.9482C18.9405 57.6787 19.0913 57.3165 19.0913 56.9333C19.0913 56.5543 18.9405 56.1921 18.6725 55.9226L13.2899 50.511H26.1953C26.1116 50.7932 26.0278 51.0711 25.9524 51.3575L24.0549 51.9766C22.8611 52.364 22.061 53.4758 22.061 54.7392V59.1317C22.061 60.3951 22.8611 61.5026 24.0549 61.8901L25.9524 62.5092C26.0278 62.7955 26.1074 63.0735 26.1953 63.3557L13.2899 63.3598ZM15.422 25.5041L3.44204 22.274C3.01898 22.1603 2.75927 21.7013 2.87237 21.2801C2.98547 20.8548 3.43785 20.5895 3.86093 20.7032C3.88187 20.7074 3.90281 20.7116 3.91957 20.72L14.3077 23.032C19.7531 24.2449 25.136 21.1243 26.8281 15.78L29.5634 7.13829L30.9458 8.52808L28.4367 17.9405C27.6744 20.8 28.0346 23.55 29.5049 26.1105L36.2739 37.8986C36.1943 37.9449 36.1189 37.987 36.0393 38.0292L34.2591 37.1195C33.1406 36.5468 31.7919 36.7615 30.9081 37.6543L27.8168 40.7581L27.8084 40.7665L21.919 30.5119C20.4529 27.9556 18.2663 26.2664 15.422 25.5041ZM17.0766 16.6645C16.9133 17.2836 16.997 17.9279 17.3154 18.4838C17.6337 19.0355 18.149 19.4356 18.7647 19.5999C19.3805 19.7683 20.0214 19.6799 20.5743 19.3598C21.1272 19.0397 21.521 18.5217 21.6844 17.9026C21.8477 17.2836 21.7639 16.635 21.4456 16.0833C21.1272 15.5274 20.612 15.1316 19.9962 14.9631C19.3805 14.7988 18.7396 14.883 18.1867 15.2031C17.638 15.5274 17.2442 16.0454 17.0766 16.6645ZM38.8502 36.6516L31.9764 24.6824C30.8789 22.7747 30.6234 20.8122 31.1931 18.6854L33.2749 10.8691L37.4679 15.0889C39.0177 16.6471 39.7716 18.4748 39.7716 20.6774V36.3057C39.4617 36.411 39.1518 36.5294 38.8502 36.6516ZM62.8059 18.6859L60.724 10.8696L56.5269 15.0895C54.977 16.6477 54.2273 18.4754 54.2273 20.678V36.3063C54.5372 36.4157 54.843 36.5295 55.1488 36.6516L62.0226 24.6824C63.1158 22.7747 63.3713 20.8127 62.8059 18.6859ZM30.7112 3.0997C30.5604 3.2513 30.4767 3.45345 30.4767 3.67245C30.4767 3.89144 30.5604 4.09358 30.7112 4.24941L39.4825 13.0638C41.5643 15.1569 42.6199 17.7174 42.6199 20.678V32.8822C43.1561 32.2505 43.9478 31.8672 44.8148 31.8672H49.1837C50.0466 31.8672 50.8425 32.2505 51.3786 32.8822L51.3745 20.678C51.3745 17.7174 52.43 15.1569 54.5119 13.0638L63.279 4.24941C63.4297 4.0978 63.5135 3.89144 63.5135 3.67245C63.5135 3.45345 63.4298 3.25131 63.279 3.0997C62.969 2.78806 62.4454 2.78806 62.1354 3.0997C62.1229 3.11654 62.1061 3.12918 62.0894 3.14181L54.2438 10.3685C50.1305 14.1587 43.9185 14.1629 39.7964 10.3853L31.9006 3.14604C31.8838 3.1292 31.8671 3.11656 31.8545 3.09972C31.5445 2.78808 31.0212 2.78806 30.7112 3.0997ZM46.9977 5.53806C48.313 5.53806 49.3853 6.61617 49.3853 7.93438C49.3853 9.25679 48.3172 10.3349 46.9977 10.3349C45.6824 10.3349 44.6142 9.25679 44.6142 7.93438C44.6142 6.61617 45.6823 5.53806 46.9977 5.53806ZM72.3485 16.0876C72.0301 16.6393 71.9463 17.2878 72.1097 17.9069C72.1977 18.2354 72.3485 18.5344 72.5537 18.7871C72.9726 19.1114 73.4208 19.3935 73.8941 19.6251C74.2627 19.7094 74.6523 19.7009 75.0293 19.5999C75.645 19.4356 76.1602 19.0355 76.4786 18.4838C77.1363 17.3383 76.7425 15.8685 75.6074 15.2073C75.2346 14.9883 74.8241 14.8873 74.4177 14.8873C73.5967 14.8873 72.7925 15.3169 72.3485 16.0876ZM93.8743 20.539C93.623 19.5957 93.0156 18.7997 92.1695 18.3112C91.3317 17.8269 90.36 17.6921 89.43 17.9322L79.067 20.24C78.9455 20.2695 78.8199 20.2905 78.6984 20.3158C78.7864 20.1894 78.8701 20.0547 78.9497 19.9199C80.3907 17.4058 79.532 14.184 77.0354 12.7311C75.8249 12.0278 74.4133 11.8425 73.0645 12.2046C71.7157 12.5668 70.5847 13.4385 69.8853 14.6556C69.8643 14.6893 69.8476 14.723 69.8308 14.7567L66.6516 4.70838C66.5804 4.44728 66.4798 4.1988 66.3542 3.96297C66.3626 3.86611 66.3668 3.77346 66.3668 3.67238C66.3668 2.69113 65.9856 1.76467 65.2986 1.07392C63.8828 -0.349507 61.5789 -0.357917 60.1548 1.04865L52.326 8.25431C52.2883 8.288 52.2548 8.31748 52.2171 8.35117C52.2296 8.21641 52.2338 8.07743 52.2338 7.93846C52.2338 5.04104 49.8881 2.67847 46.9979 2.67847C44.1118 2.67847 41.7619 5.04104 41.7619 7.93846C41.7619 8.06901 41.7703 8.19535 41.7787 8.3217C41.7578 8.30485 41.7368 8.28801 41.7201 8.27116L33.8451 1.05289C32.4168 -0.353722 30.1171 -0.349518 28.7013 1.07816C28.0102 1.76882 27.6332 2.69532 27.6332 3.67662C27.6332 3.77348 27.6416 3.87034 27.6457 3.9672C27.5201 4.20304 27.4195 4.45151 27.3483 4.7084L24.1188 14.9168C24.1104 14.9463 24.1021 14.9674 24.0937 14.9926C24.0392 14.8789 23.9806 14.7652 23.9178 14.6557C23.2182 13.4386 22.0915 12.5669 20.7385 12.2047C19.3898 11.8426 17.9782 12.0279 16.7676 12.7312C15.5571 13.4344 14.69 14.5673 14.3298 15.9233C13.9696 17.2794 14.1539 18.6986 14.8534 19.9157C14.9204 20.0336 14.9958 20.1515 15.0754 20.2652C15.0293 20.2568 14.9791 20.2484 14.933 20.2357L4.56995 17.9279C2.63472 17.4268 0.64503 18.5891 0.125703 20.5348C-0.397891 22.4931 0.762395 24.5146 2.71022 25.0368L14.6902 28.2669C16.8056 28.8354 18.368 30.0399 19.4612 31.9477L27.8471 46.5529C27.6544 46.9108 27.4743 47.2772 27.2984 47.6478H9.85165C9.27361 47.6478 8.75424 47.9973 8.53634 48.5322C8.31434 49.067 8.43581 49.6819 8.84631 50.0904L15.6531 56.9339L8.84631 63.7774C8.43999 64.1859 8.31852 64.8008 8.53634 65.3356C8.75834 65.8704 9.27776 66.22 9.85165 66.22H27.2984C27.5706 66.8054 27.8722 67.3823 28.1947 67.9467L27.29 69.7366C26.7203 70.861 26.9339 72.2171 27.8219 73.1099L30.9132 76.2178C31.8013 77.1064 33.15 77.3212 34.2642 76.7485L36.0445 75.8388C37.7409 76.8327 39.5505 77.5907 41.4522 78.0876L42.068 79.9954C42.4576 81.1956 43.5592 82 44.8158 82H49.1847C50.4413 82 51.5429 81.1914 51.9325 79.9954L52.5483 78.0876C54.4457 77.5865 56.2553 76.8326 57.9518 75.8388L59.7321 76.7485C60.8505 77.3212 62.1993 77.1064 63.0873 76.2178L66.1744 73.1099C67.0624 72.2171 67.276 70.8652 66.7064 69.7366L65.8016 67.9467C66.1283 67.3824 66.4257 66.8054 66.7022 66.22H84.1489C84.7269 66.22 85.2463 65.8704 85.4642 65.3356C85.6862 64.8008 85.5647 64.1859 85.1542 63.7774L78.3474 56.9339L85.1542 50.0904C85.5605 49.6819 85.682 49.067 85.4642 48.5322C85.2422 47.9973 84.7228 47.6478 84.1489 47.6478H66.6989C66.5272 47.2772 66.3471 46.915 66.1502 46.5529L74.5361 31.9477C75.6335 30.04 77.1918 28.8355 79.3071 28.2669L91.2871 25.0368C93.239 24.5146 94.3951 22.4973 93.8758 20.539L93.8743 20.539Z" fill="white"></path>
</svg>
