<?xml version="1.0" encoding="UTF-8"?>
<svg xmlns="http://www.w3.org/2000/svg" width="58" height="73" viewBox="0 0 58 73" fill="none">
  <path d="M42.2917 8.02221e-10H6.04167C4.43987 0.00179899 2.90419 0.638908 1.77155 1.77155C0.638907 2.90419 0.00179899 4.43987 0 6.04167V66.4583C0.00179899 68.0601 0.638907 69.5958 1.77155 70.7285C2.90419 71.8611 4.43987 72.4982 6.04167 72.5H51.9583C53.5601 72.4982 55.0958 71.8611 56.2285 70.7285C57.3611 69.5958 57.9982 68.0601 58 66.4583V15.7083C58 15.5497 57.9688 15.3925 57.908 15.2459C57.8473 15.0993 57.7583 14.9661 57.6461 14.8539L43.1461 0.353891C43.0339 0.241688 42.9007 0.152685 42.7541 0.0919644C42.6075 0.0312437 42.4504 -5.78119e-06 42.2917 8.02221e-10ZM55.5833 66.4583C55.5822 67.4194 55.1999 68.3408 54.5204 69.0204C53.8408 69.6999 52.9194 70.0822 51.9583 70.0833H6.04167C5.0806 70.0822 4.15922 69.6999 3.47964 69.0204C2.80006 68.3408 2.41779 67.4194 2.41667 66.4583V6.04167C2.41779 5.0806 2.80006 4.15922 3.47964 3.47964C4.15922 2.80006 5.0806 2.41779 6.04167 2.41667H41.0833V10.875C41.0851 12.4768 41.7222 14.0125 42.8549 15.1451C43.9875 16.2778 45.5232 16.9149 47.125 16.9167H55.5833V66.4583ZM43.5 4.1254L53.8746 14.5H47.125C46.1639 14.4989 45.2426 14.1166 44.563 13.437C43.8834 12.7574 43.5011 11.8361 43.5 10.875V4.1254Z" fill="black"></path>
  <path d="M19.334 32.625C18.617 32.625 17.9162 32.8376 17.32 33.2359C16.7239 33.6342 16.2593 34.2004 15.9849 34.8628C15.7106 35.5252 15.6388 36.254 15.7786 36.9572C15.9185 37.6604 16.2638 38.3063 16.7707 38.8133C17.2777 39.3202 17.9236 39.6655 18.6268 39.8053C19.33 39.9452 20.0588 39.8734 20.7212 39.5991C21.3836 39.3247 21.9497 38.8601 22.3481 38.2639C22.7464 37.6678 22.959 36.967 22.959 36.25C22.9579 35.2889 22.5756 34.3676 21.896 33.688C21.2164 33.0084 20.2951 32.6261 19.334 32.625ZM19.334 37.4583C19.095 37.4583 18.8614 37.3875 18.6627 37.2547C18.464 37.1219 18.3091 36.9332 18.2176 36.7124C18.1262 36.4916 18.1022 36.2487 18.1489 36.0143C18.1955 35.7799 18.3106 35.5646 18.4796 35.3956C18.6486 35.2266 18.8639 35.1115 19.0983 35.0649C19.3326 35.0183 19.5756 35.0422 19.7964 35.1336C20.0172 35.2251 20.2059 35.38 20.3387 35.5787C20.4715 35.7774 20.5423 36.011 20.5423 36.25C20.542 36.5704 20.4145 36.8775 20.188 37.104C19.9615 37.3306 19.6543 37.458 19.334 37.4583Z" fill="black"></path>
  <path d="M29 32.625C28.283 32.625 27.5822 32.8376 26.9861 33.2359C26.3899 33.6342 25.9253 34.2004 25.6509 34.8628C25.3766 35.5252 25.3048 36.254 25.4447 36.9572C25.5845 37.6604 25.9298 38.3063 26.4367 38.8133C26.9437 39.3202 27.5896 39.6655 28.2928 39.8053C28.996 39.9452 29.7248 39.8734 30.3872 39.5991C31.0496 39.3247 31.6158 38.8601 32.0141 38.2639C32.4124 37.6678 32.625 36.967 32.625 36.25C32.6239 35.2889 32.2416 34.3676 31.562 33.688C30.8825 33.0084 29.9611 32.6261 29 32.625ZM29 37.4583C28.761 37.4583 28.5274 37.3875 28.3287 37.2547C28.13 37.1219 27.9751 36.9332 27.8836 36.7124C27.7922 36.4916 27.7683 36.2487 27.8149 36.0143C27.8615 35.7799 27.9766 35.5646 28.1456 35.3956C28.3146 35.2266 28.5299 35.1115 28.7643 35.0649C28.9987 35.0183 29.2416 35.0422 29.4624 35.1336C29.6832 35.2251 29.8719 35.38 30.0047 35.5787C30.1375 35.7774 30.2083 36.011 30.2083 36.25C30.208 36.5704 30.0806 36.8775 29.854 37.104C29.6275 37.3306 29.3204 37.458 29 37.4583Z" fill="black"></path>
  <path d="M38.666 32.625C37.9491 32.625 37.2482 32.8376 36.6521 33.2359C36.0559 33.6342 35.5913 34.2004 35.317 34.8628C35.0426 35.5252 34.9708 36.254 35.1107 36.9572C35.2505 37.6604 35.5958 38.3063 36.1028 38.8133C36.6097 39.3202 37.2556 39.6655 37.9588 39.8053C38.662 39.9452 39.3909 39.8734 40.0532 39.5991C40.7156 39.3247 41.2818 38.8601 41.6801 38.2639C42.0784 37.6678 42.291 36.967 42.291 36.25C42.2899 35.2889 41.9076 34.3676 41.228 33.688C40.5485 33.0084 39.6271 32.6261 38.666 32.625ZM38.666 37.4583C38.427 37.4583 38.1934 37.3875 37.9947 37.2547C37.796 37.1219 37.6411 36.9332 37.5497 36.7124C37.4582 36.4916 37.4343 36.2487 37.4809 36.0143C37.5275 35.7799 37.6426 35.5646 37.8116 35.3956C37.9806 35.2266 38.1959 35.1115 38.4303 35.0649C38.6647 35.0183 38.9076 35.0422 39.1284 35.1336C39.3492 35.2251 39.5379 35.38 39.6707 35.5787C39.8035 35.7774 39.8743 36.011 39.8743 36.25C39.874 36.5704 39.7466 36.8775 39.52 37.104C39.2935 37.3306 38.9864 37.458 38.666 37.4583Z" fill="black"></path>
</svg>
