<?xml version="1.0" encoding="UTF-8"?>
<svg xmlns="http://www.w3.org/2000/svg" width="94" height="94" viewBox="0 0 94 94" fill="none">
  <path d="M37.4604 21.4327C37.9096 21.8819 37.9096 22.6241 37.4604 23.0733L29.9916 30.5421C29.7611 30.7726 29.4721 30.8819 29.1713 30.8819C28.8705 30.8819 28.5815 30.7726 28.351 30.5421L24.0893 26.2804C23.6401 25.8312 23.6401 25.089 24.0893 24.6398C24.5385 24.1906 25.2807 24.1906 25.7299 24.6398L29.1713 28.0812L35.8197 21.4328C36.2689 20.9836 37.0112 20.9835 37.4604 21.4327ZM41.769 27.1515H69.07C69.7106 27.1515 70.2302 26.632 70.2302 25.9913C70.2302 25.3506 69.7107 24.8311 69.07 24.8311H41.769C41.1284 24.8311 40.6088 25.3506 40.6088 25.9913C40.601 26.6319 41.1283 27.1515 41.769 27.1515ZM35.8198 35.7531L29.1714 42.4015L25.73 38.9601C25.2808 38.5109 24.5386 38.5109 24.0894 38.9601C23.6402 39.4093 23.6402 40.1515 24.0894 40.6007L28.3511 44.8624C28.5816 45.0929 28.8706 45.2022 29.1714 45.2022C29.4722 45.2022 29.7613 45.0929 29.9917 44.8624L37.4605 37.3936C37.9098 36.9444 37.9098 36.2022 37.4605 35.753C37.0113 35.3038 36.269 35.3039 35.8198 35.7531ZM41.769 41.4719H69.07C69.7106 41.4719 70.2302 40.9524 70.2302 40.3117C70.2302 39.671 69.7107 39.1515 69.07 39.1515H41.769C41.1284 39.1515 40.6088 39.671 40.6088 40.3117C40.6088 40.9524 41.1283 41.4719 41.769 41.4719ZM35.8198 50.0735L29.1714 56.7219L25.73 53.2805C25.2808 52.8313 24.5386 52.8313 24.0894 53.2805C23.6402 53.7297 23.6402 54.4719 24.0894 54.9211L28.3511 59.1828C28.5699 59.4016 28.8628 59.5226 29.1714 59.5226C29.48 59.5226 29.773 59.4016 29.9917 59.1828L37.4605 51.714C37.9098 51.2648 37.9098 50.5226 37.4605 50.0734C37.0113 49.6242 36.269 49.6243 35.8198 50.0735ZM41.769 55.7923H69.07C69.7106 55.7923 70.2302 55.2728 70.2302 54.6321C70.2302 53.9914 69.7107 53.4719 69.07 53.4719H41.769C41.1284 53.4719 40.6088 53.9914 40.6088 54.6321C40.601 55.2727 41.1283 55.7923 41.769 55.7923ZM34.7495 68.5033C34.8901 68.9447 34.7612 69.433 34.398 69.7416L31.1597 72.5307L32.1401 76.6909C32.2495 77.1518 32.0698 77.6206 31.6909 77.9018C31.312 78.1713 30.812 78.2026 30.4097 77.9526L26.7495 75.7338L23.0893 77.9526C22.8979 78.062 22.6987 78.1245 22.4877 78.1245C22.2495 78.1245 22.0073 78.0541 21.8081 77.9057C21.4291 77.6362 21.2495 77.1557 21.3588 76.6948L22.3393 72.5346L19.101 69.7455C18.7494 69.4369 18.6127 68.9565 18.7494 68.5072C18.8901 68.0658 19.2885 67.7455 19.7611 67.7064L24.0228 67.3471L25.683 63.4057C25.8627 62.976 26.2846 62.6947 26.7533 62.6947C27.2221 62.6947 27.644 62.976 27.8236 63.4057L29.4838 67.3471L33.7455 67.7064C34.2104 67.7416 34.6011 68.0541 34.7495 68.5033ZM30.7886 69.7845L28.5777 69.5931C28.148 69.554 27.7691 69.2845 27.609 68.8821L26.7496 66.843L25.8902 68.8821C25.7183 69.2806 25.3511 69.554 24.9215 69.5931L22.7106 69.7845L24.3903 71.2337C24.7184 71.515 24.859 71.9524 24.7613 72.3743L24.2496 74.5345L26.148 73.3861C26.5191 73.1674 26.9761 73.1674 27.3472 73.3861L29.2456 74.5345L28.7339 72.3743C28.6323 71.9524 28.773 71.5149 29.105 71.2337L30.7886 69.7845ZM54.9876 68.5033C55.1282 68.9447 54.9993 69.433 54.6361 69.7416L51.3978 72.5307L52.3782 76.6909C52.4876 77.1518 52.3079 77.6206 51.929 77.9018C51.5501 78.1713 51.0501 78.2026 50.6478 77.9526L46.9876 75.7338L43.3274 77.9526C43.136 78.062 42.9368 78.1245 42.7258 78.1245C42.4876 78.1245 42.2454 78.0541 42.0462 77.9057C41.6672 77.6362 41.4876 77.1557 41.5969 76.6948L42.5774 72.5346L39.3391 69.7455C38.9875 69.4369 38.8508 68.9565 38.9875 68.5072C39.1282 68.0658 39.5266 67.7455 39.9992 67.7064L44.2609 67.3471L45.9211 63.4057C46.1008 62.976 46.5227 62.6947 46.9914 62.6947C47.4602 62.6947 47.8821 62.976 48.0617 63.4057L49.7219 67.3471L53.9836 67.7064C54.4485 67.7416 54.8392 68.0541 54.9876 68.5033ZM51.0306 69.7845L48.8197 69.5931C48.39 69.554 48.0111 69.2845 47.851 68.8821L46.9916 66.843L46.1322 68.8821C45.9603 69.2806 45.5931 69.554 45.1635 69.5931L42.9526 69.7845L44.6323 71.2337C44.9604 71.515 45.101 71.9524 45.0033 72.3743L44.4916 74.5345L46.39 73.3861C46.7611 73.1674 47.2181 73.1674 47.5892 73.3861L49.4876 74.5345L48.9759 72.3743C48.8743 71.9524 49.015 71.5149 49.347 71.2337L51.0306 69.7845ZM93.3316 79.1712C93.3316 86.9915 86.9722 93.3512 79.1516 93.3512C73.2805 93.3512 68.2296 89.7731 66.0816 84.6715H8.30861H8.28908H8.2383C3.6875 84.6715 0 80.9723 0 76.4332V69.3551C0 68.7145 0.51953 68.1949 1.1602 68.1949H14.1602V8.1719C14.1602 3.7227 17.8204 0.0625 22.3086 0H22.3203H79.9293C84.4293 0 88.1012 3.6602 88.1012 8.1719V15.1836C88.1012 15.8242 87.5817 16.3438 86.941 16.3438H79.8394V65.0038C87.3316 65.3632 93.3316 71.5735 93.3316 79.1712ZM28.0196 2.3312C29.5391 3.8117 30.4884 5.882 30.4884 8.171V14.0108H85.7774V8.171C85.7774 4.9522 83.1563 2.3312 79.9376 2.3312H28.0196ZM8.23061 82.3432C11.4923 82.3432 14.1525 79.683 14.1525 76.4213V70.4994L2.30851 70.5033V76.4252C2.30851 79.6947 4.96891 82.3432 8.23061 82.3432ZM65.3326 82.3432C65.0943 81.3237 64.9732 80.2534 64.9732 79.1635C64.9732 78.433 65.0318 77.7143 65.1334 77.0151L63.5748 77.9565C63.3834 78.0659 63.1842 78.1284 62.9732 78.1284C62.735 78.1284 62.4928 78.0581 62.2935 77.9096C61.9146 77.6401 61.735 77.1596 61.8443 76.6987L62.8248 72.5385L59.5865 69.7494C59.2349 69.4408 59.0982 68.9604 59.2349 68.5111C59.3756 68.0697 59.774 67.7494 60.2466 67.7104L64.5083 67.351L66.1685 63.4096C66.3482 62.9799 66.7701 62.6986 67.2388 62.6986C67.7076 62.6986 68.1295 62.9799 68.3091 63.4096L69.9693 67.351L71.1881 67.4525C73.0397 66.1908 75.1881 65.3627 77.5162 65.0931L77.5123 16.3431H29.3213C28.6807 16.3431 28.1611 15.8236 28.1611 15.1829V8.17123C28.1611 4.95243 25.54 2.33143 22.3213 2.33143C19.1025 2.37049 16.4815 4.99163 16.4815 8.17123V69.2842V69.3155V69.3467V76.4248C16.4815 78.7451 15.5128 80.8467 13.962 82.3467L65.3326 82.3432ZM68.7506 69.5342C68.4498 69.4248 68.2116 69.1944 68.0787 68.8936L67.2194 66.8545L66.36 68.8936C66.1881 69.292 65.8209 69.5655 65.3912 69.6045L63.1803 69.7959L64.86 71.2451C65.1881 71.5264 65.3288 71.9639 65.2311 72.3857L64.7194 74.5459L66.028 73.7451C66.6999 72.1826 67.6217 70.7529 68.7506 69.5342ZM91.0126 79.1709C91.0126 72.6318 85.6923 67.3119 79.1536 67.3119C72.6145 67.3119 67.2946 72.6322 67.2946 79.1709C67.2946 85.71 72.6149 91.0299 79.1536 91.0299C85.6927 91.0338 91.0126 85.7135 91.0126 79.1709ZM87.5399 73.5342C87.0907 73.085 86.3485 73.085 85.8993 73.5342L77.079 82.3545L72.4071 77.6826C71.9579 77.2334 71.2157 77.2334 70.7665 77.6826C70.3173 78.1318 70.3173 78.874 70.7665 79.3232L76.2665 84.8232C76.4853 85.042 76.7782 85.163 77.0868 85.163C77.3954 85.163 77.6884 85.042 77.9071 84.8232L87.5477 75.1826C87.9891 74.7139 87.9891 73.9834 87.5399 73.5342Z" fill="black"></path>
</svg>
