<?xml version="1.0" encoding="UTF-8"?>
<svg xmlns="http://www.w3.org/2000/svg" width="83" height="86" viewBox="0 0 83 86" fill="none">
  <path d="M62.3065 21.6187C54.8774 21.6187 47.9231 18.2994 43.2223 12.5115C42.4423 11.5364 40.812 11.5364 40.0196 12.5115C35.3186 18.2994 28.3643 21.6187 20.9354 21.6187C18.3806 21.6187 16.3128 23.7099 16.3128 26.2657V43.8041C16.3128 54.5585 21.6412 64.5036 30.5768 70.4241C33.9324 72.6481 37.7749 73.7641 41.6256 73.7641C45.4764 73.7641 49.3189 72.6562 52.6744 70.4241C61.6018 64.5034 66.9384 54.5575 66.9384 43.8041V26.2657C66.9384 23.6973 64.8582 21.6187 62.3158 21.6187H62.3065ZM48.9131 63.2343H34.3396C33.8897 63.2343 33.5141 62.8567 33.5141 62.4045C33.5141 61.9522 33.8897 61.5747 34.3396 61.5747H48.9131C49.363 61.5747 49.7386 61.9522 49.7386 62.4045C49.7386 62.8567 49.363 63.2343 48.9131 63.2343ZM41.6243 56.0647C34.2942 56.0647 28.3388 50.0693 28.3388 42.709C28.3388 35.3527 34.3027 29.3534 41.6243 29.3534C44.7157 29.3534 47.7204 30.4487 50.0977 32.4278C50.4485 32.7141 50.4939 33.2452 50.2091 33.602C49.9243 33.9547 49.396 34.0003 49.0411 33.7141C46.9608 31.9756 44.3318 31.0255 41.6243 31.0255C35.2064 31.0255 29.9891 36.2699 29.9891 42.7221C29.9891 49.1742 35.206 54.4186 41.6243 54.4186C48.0426 54.4186 53.2595 49.1742 53.2595 42.7221C53.2595 41.8383 53.1604 40.9421 52.9623 40.0874C52.8633 39.6434 53.1398 39.1912 53.5773 39.0916C54.0189 38.992 54.4688 39.27 54.5679 39.7098C54.7866 40.6931 54.9104 41.7014 54.9104 42.7178C54.9104 50.0866 48.9465 56.0735 41.6248 56.0735L41.6243 56.0647ZM60.6673 28.7469L42.6397 46.8695C42.4746 47.0355 42.2641 47.1143 42.0578 47.1143C41.8473 47.1143 41.6409 47.0355 41.4758 46.8695L35.8833 41.2475C35.5655 40.928 35.5655 40.3969 35.8833 40.0733C36.2011 39.7538 36.7294 39.7538 37.0514 40.0733L42.0578 45.1061L59.5043 27.5677C59.8221 27.2482 60.3504 27.2482 60.6723 27.5677C60.9901 27.8871 60.9901 28.4182 60.6723 28.7419L60.6673 28.7469ZM55.6898 83.357L61.2823 84.3528C61.7322 84.4316 62.0294 84.8632 61.9551 85.3154C61.8891 85.7137 61.5382 86 61.142 86C61.0966 86 61.043 86 60.9976 85.9875L53.0608 84.5727C52.6439 84.4939 52.289 84.2201 52.1156 83.8301C51.9381 83.4442 51.9712 82.9878 52.194 82.6227L56.441 75.7393C56.6845 75.3535 57.188 75.229 57.576 75.4738C57.9598 75.7186 58.0837 76.2248 57.8401 76.6148L54.5053 82.0127C70.387 76.4903 81.3375 61.155 81.3375 44.1401C81.3375 25.3409 68.6256 9.27563 50.4195 5.08432C49.9779 4.98474 49.6931 4.54079 49.8045 4.08854C49.9036 3.64459 50.3452 3.3583 50.7951 3.47033C69.7598 7.83933 83 24.5596 83 44.1438C83 61.6483 71.8847 77.4151 55.6818 83.3568L55.6898 83.357ZM37.0589 84.8092C37.0053 85.2283 36.6503 85.527 36.2458 85.527H36.1344C15.5309 82.8509 0 65.0591 0 44.1482C0 24.751 13.2074 8.0803 31.7305 3.59903L26.1504 1.6199C25.7212 1.46638 25.4901 0.989238 25.6428 0.557733C25.7955 0.126228 26.2701 -0.106121 26.6994 0.0473938L34.2936 2.74848C34.7022 2.8937 34.9994 3.22563 35.1067 3.63223C35.2182 4.05129 35.1067 4.48279 34.8302 4.80646L29.5143 10.8932C29.3492 11.0799 29.118 11.1795 28.8993 11.1795C28.7012 11.1795 28.5154 11.1131 28.3586 10.9679C28.016 10.6691 27.983 10.1381 28.2802 9.79365L32.3415 5.14668C14.445 9.37463 1.65491 25.4478 1.65491 44.1356C1.65491 64.2169 16.5666 81.2986 36.3449 83.8669C36.7948 83.9209 37.1168 84.3441 37.059 84.7963L37.0589 84.8092Z" fill="white"></path>
</svg>
